<svg xmlns="http://www.w3.org/2000/svg" width="450" height="390" fill="none"><g clip-path="url(#a)"><path fill="#050D15" d="M0 0h450v390H0z"/><path fill="#fff" fill-opacity=".1" d="M-13.385-41.77a1.615 1.615 0 1 0 0-3.23 1.615 1.615 0 0 0 0 3.23ZM13.102-41.77a1.615 1.615 0 1 0 0-3.23 1.615 1.615 0 0 0 0 3.23ZM39.59-41.77a1.615 1.615 0 1 0 0-3.23 1.615 1.615 0 0 0 0 3.23ZM66.077-41.77a1.615 1.615 0 1 0 0-3.23 1.615 1.615 0 0 0 0 3.23ZM92.564-41.77a1.615 1.615 0 1 0 0-3.23 1.615 1.615 0 0 0 0 3.23ZM119.051-41.77a1.616 1.616 0 1 0 0-3.231 1.616 1.616 0 0 0 0 3.232ZM145.538-41.77a1.615 1.615 0 1 0 .001-3.23 1.615 1.615 0 0 0-.001 3.23ZM172.026-41.77a1.615 1.615 0 1 0 0-3.23 1.615 1.615 0 0 0 0 3.23ZM198.513-41.77a1.615 1.615 0 1 0 0-3.23 1.615 1.615 0 0 0 0 3.23ZM225-41.77a1.615 1.615 0 1 0 0-3.23 1.615 1.615 0 0 0 0 3.23ZM251.487-41.77a1.616 1.616 0 1 0 0-3.231 1.616 1.616 0 0 0 0 3.232ZM277.974-41.77a1.615 1.615 0 1 0 .001-3.23 1.615 1.615 0 0 0-.001 3.23ZM304.462-41.77a1.615 1.615 0 1 0 0-3.23 1.615 1.615 0 0 0 0 3.23ZM330.949-41.77a1.615 1.615 0 1 0 0-3.23 1.615 1.615 0 0 0 0 3.23ZM357.436-41.77a1.615 1.615 0 1 0 0-3.23 1.615 1.615 0 0 0 0 3.23ZM383.923-41.77a1.615 1.615 0 1 0 0-3.23 1.615 1.615 0 0 0 0 3.23ZM410.41-41.77a1.616 1.616 0 1 0 0-3.231 1.616 1.616 0 0 0 0 3.232ZM436.897-41.77a1.615 1.615 0 1 0 .001-3.23 1.615 1.615 0 0 0-.001 3.23ZM463.385-41.77a1.615 1.615 0 1 0 0-3.23 1.615 1.615 0 0 0 0 3.23ZM-13.385-15.282a1.615 1.615 0 1 0 0-3.23 1.615 1.615 0 0 0 0 3.23ZM13.102-15.282a1.615 1.615 0 1 0 0-3.23 1.615 1.615 0 0 0 0 3.23ZM39.59-15.282a1.615 1.615 0 1 0 0-3.23 1.615 1.615 0 0 0 0 3.23ZM66.077-15.282a1.615 1.615 0 1 0 0-3.23 1.615 1.615 0 0 0 0 3.23ZM92.564-15.282a1.615 1.615 0 1 0 0-3.23 1.615 1.615 0 0 0 0 3.23ZM119.051-15.282a1.616 1.616 0 1 0 0-3.232 1.616 1.616 0 0 0 0 3.232ZM145.538-15.282a1.615 1.615 0 1 0 .001-3.23 1.615 1.615 0 0 0-.001 3.23ZM172.026-15.282a1.615 1.615 0 1 0 0-3.23 1.615 1.615 0 0 0 0 3.23ZM198.513-15.282a1.615 1.615 0 1 0 0-3.23 1.615 1.615 0 0 0 0 3.23ZM225-15.282a1.615 1.615 0 1 0 0-3.23 1.615 1.615 0 0 0 0 3.23ZM251.487-15.282a1.616 1.616 0 1 0 0-3.232 1.616 1.616 0 0 0 0 3.232ZM277.974-15.282a1.615 1.615 0 1 0 .001-3.23 1.615 1.615 0 0 0-.001 3.23ZM304.462-15.282a1.615 1.615 0 1 0 0-3.23 1.615 1.615 0 0 0 0 3.23ZM330.949-15.282a1.615 1.615 0 1 0 0-3.23 1.615 1.615 0 0 0 0 3.23ZM357.436-15.282a1.615 1.615 0 1 0 0-3.23 1.615 1.615 0 0 0 0 3.23ZM383.923-15.282a1.615 1.615 0 1 0 0-3.23 1.615 1.615 0 0 0 0 3.23ZM410.41-15.282a1.616 1.616 0 1 0 0-3.232 1.616 1.616 0 0 0 0 3.232ZM436.897-15.282a1.615 1.615 0 1 0 .001-3.23 1.615 1.615 0 0 0-.001 3.23ZM463.385-15.282a1.615 1.615 0 1 0 0-3.23 1.615 1.615 0 0 0 0 3.23ZM-13.385 11.205a1.615 1.615 0 1 0 0-3.23 1.615 1.615 0 0 0 0 3.23ZM13.102 11.205a1.615 1.615 0 1 0 0-3.23 1.615 1.615 0 0 0 0 3.23ZM39.59 11.205a1.615 1.615 0 1 0 0-3.23 1.615 1.615 0 0 0 0 3.23ZM66.077 11.205a1.615 1.615 0 1 0 0-3.23 1.615 1.615 0 0 0 0 3.23ZM92.564 11.205a1.615 1.615 0 1 0 0-3.23 1.615 1.615 0 0 0 0 3.23ZM119.051 11.205a1.616 1.616 0 1 0 0-3.232 1.616 1.616 0 0 0 0 3.232ZM145.538 11.205a1.615 1.615 0 1 0 .001-3.23 1.615 1.615 0 0 0-.001 3.23ZM172.026 11.205a1.615 1.615 0 1 0 0-3.23 1.615 1.615 0 0 0 0 3.23ZM198.513 11.205a1.615 1.615 0 1 0 0-3.23 1.615 1.615 0 0 0 0 3.23ZM225 11.205a1.615 1.615 0 1 0 0-3.23 1.615 1.615 0 0 0 0 3.23ZM251.487 11.205a1.616 1.616 0 1 0 0-3.232 1.616 1.616 0 0 0 0 3.232ZM277.974 11.205a1.615 1.615 0 1 0 .001-3.23 1.615 1.615 0 0 0-.001 3.23ZM304.462 11.205a1.615 1.615 0 1 0 0-3.23 1.615 1.615 0 0 0 0 3.23ZM330.949 11.205a1.615 1.615 0 1 0 0-3.23 1.615 1.615 0 0 0 0 3.23ZM357.436 11.205a1.615 1.615 0 1 0 0-3.23 1.615 1.615 0 0 0 0 3.23ZM383.923 11.205a1.615 1.615 0 1 0 0-3.23 1.615 1.615 0 0 0 0 3.23ZM410.41 11.205a1.616 1.616 0 1 0 0-3.232 1.616 1.616 0 0 0 0 3.232ZM436.897 11.205a1.615 1.615 0 1 0 .001-3.23 1.615 1.615 0 0 0-.001 3.23ZM463.385 11.205a1.615 1.615 0 1 0 0-3.23 1.615 1.615 0 0 0 0 3.23ZM-13.385 37.692a1.615 1.615 0 1 0 0-3.23 1.615 1.615 0 0 0 0 3.23ZM13.102 37.692a1.615 1.615 0 1 0 0-3.23 1.615 1.615 0 0 0 0 3.23ZM39.59 37.692a1.615 1.615 0 1 0 0-3.23 1.615 1.615 0 0 0 0 3.23ZM66.077 37.692a1.615 1.615 0 1 0 0-3.23 1.615 1.615 0 0 0 0 3.23ZM92.564 37.692a1.615 1.615 0 1 0 0-3.23 1.615 1.615 0 0 0 0 3.23ZM119.051 37.692a1.616 1.616 0 1 0 0-3.232 1.616 1.616 0 0 0 0 3.232ZM145.538 37.692a1.615 1.615 0 1 0 .001-3.23 1.615 1.615 0 0 0-.001 3.23ZM172.026 37.692a1.615 1.615 0 1 0 0-3.23 1.615 1.615 0 0 0 0 3.23ZM198.513 37.692a1.615 1.615 0 1 0 0-3.23 1.615 1.615 0 0 0 0 3.23ZM225 37.692a1.615 1.615 0 1 0 0-3.23 1.615 1.615 0 0 0 0 3.23ZM251.487 37.692a1.616 1.616 0 1 0 0-3.232 1.616 1.616 0 0 0 0 3.232ZM277.974 37.692a1.615 1.615 0 1 0 .001-3.23 1.615 1.615 0 0 0-.001 3.23ZM304.462 37.692a1.615 1.615 0 1 0 0-3.23 1.615 1.615 0 0 0 0 3.23ZM330.949 37.692a1.615 1.615 0 1 0 0-3.23 1.615 1.615 0 0 0 0 3.23ZM357.436 37.692a1.615 1.615 0 1 0 0-3.23 1.615 1.615 0 0 0 0 3.23ZM383.923 37.692a1.615 1.615 0 1 0 0-3.23 1.615 1.615 0 0 0 0 3.23ZM410.41 37.692a1.616 1.616 0 1 0 0-3.232 1.616 1.616 0 0 0 0 3.232ZM436.897 37.692a1.615 1.615 0 1 0 .001-3.23 1.615 1.615 0 0 0-.001 3.23ZM463.385 37.692a1.615 1.615 0 1 0 0-3.23 1.615 1.615 0 0 0 0 3.23ZM-13.385 64.18a1.615 1.615 0 1 0 0-3.231 1.615 1.615 0 0 0 0 3.23ZM13.102 64.18a1.615 1.615 0 1 0 0-3.231 1.615 1.615 0 0 0 0 3.23ZM39.59 64.18a1.615 1.615 0 1 0 0-3.231 1.615 1.615 0 0 0 0 3.23ZM66.077 64.18a1.615 1.615 0 1 0 0-3.231 1.615 1.615 0 0 0 0 3.23ZM92.564 64.18a1.615 1.615 0 1 0 0-3.231 1.615 1.615 0 0 0 0 3.23ZM119.051 64.18a1.616 1.616 0 1 0 0-3.233 1.616 1.616 0 0 0 0 3.233ZM145.538 64.18a1.615 1.615 0 1 0 .001-3.231 1.615 1.615 0 0 0-.001 3.23ZM172.026 64.18a1.615 1.615 0 1 0 0-3.23 1.615 1.615 0 0 0 0 3.23ZM198.513 64.18a1.615 1.615 0 1 0 0-3.23 1.615 1.615 0 0 0 0 3.23ZM225 64.18a1.615 1.615 0 1 0 0-3.23 1.615 1.615 0 0 0 0 3.23ZM251.487 64.18a1.616 1.616 0 1 0 0-3.233 1.616 1.616 0 0 0 0 3.233ZM277.974 64.18a1.615 1.615 0 1 0 .001-3.231 1.615 1.615 0 0 0-.001 3.23ZM304.462 64.18a1.615 1.615 0 1 0 0-3.23 1.615 1.615 0 0 0 0 3.23ZM330.949 64.18a1.615 1.615 0 1 0 0-3.23 1.615 1.615 0 0 0 0 3.23ZM357.436 64.18a1.615 1.615 0 1 0 0-3.23 1.615 1.615 0 0 0 0 3.23ZM383.923 64.18a1.615 1.615 0 1 0 0-3.23 1.615 1.615 0 0 0 0 3.23ZM410.41 64.18a1.616 1.616 0 1 0 0-3.233 1.616 1.616 0 0 0 0 3.233ZM436.897 64.18a1.615 1.615 0 1 0 .001-3.231 1.615 1.615 0 0 0-.001 3.23ZM463.385 64.18a1.615 1.615 0 1 0 0-3.23 1.615 1.615 0 0 0 0 3.23ZM-13.385 90.667a1.615 1.615 0 1 0 0-3.231 1.615 1.615 0 0 0 0 3.23ZM13.102 90.667a1.615 1.615 0 1 0 0-3.231 1.615 1.615 0 0 0 0 3.23ZM39.59 90.667a1.615 1.615 0 1 0 0-3.231 1.615 1.615 0 0 0 0 3.23ZM66.077 90.667a1.615 1.615 0 1 0 0-3.231 1.615 1.615 0 0 0 0 3.23ZM92.564 90.667a1.615 1.615 0 1 0 0-3.231 1.615 1.615 0 0 0 0 3.23ZM119.051 90.667a1.616 1.616 0 1 0 0-3.232 1.616 1.616 0 0 0 0 3.232ZM145.538 90.667a1.615 1.615 0 1 0 .001-3.231 1.615 1.615 0 0 0-.001 3.23ZM172.026 90.667a1.615 1.615 0 1 0 0-3.23 1.615 1.615 0 0 0 0 3.23ZM198.513 90.667a1.615 1.615 0 1 0 0-3.23 1.615 1.615 0 0 0 0 3.23ZM225 90.667a1.615 1.615 0 1 0 0-3.23 1.615 1.615 0 0 0 0 3.23ZM251.487 90.667a1.616 1.616 0 1 0 0-3.232 1.616 1.616 0 0 0 0 3.232ZM277.974 90.667a1.615 1.615 0 1 0 .001-3.231 1.615 1.615 0 0 0-.001 3.23ZM304.462 90.667a1.615 1.615 0 1 0 0-3.23 1.615 1.615 0 0 0 0 3.23ZM330.949 90.667a1.615 1.615 0 1 0 0-3.23 1.615 1.615 0 0 0 0 3.23ZM357.436 90.667a1.615 1.615 0 1 0 0-3.23 1.615 1.615 0 0 0 0 3.23ZM383.923 90.667a1.615 1.615 0 1 0 0-3.23 1.615 1.615 0 0 0 0 3.23ZM410.41 90.667a1.616 1.616 0 1 0 0-3.232 1.616 1.616 0 0 0 0 3.232ZM436.897 90.667a1.615 1.615 0 1 0 .001-3.231 1.615 1.615 0 0 0-.001 3.23ZM463.385 90.667a1.615 1.615 0 1 0 0-3.23 1.615 1.615 0 0 0 0 3.23ZM-13.385 117.154a1.615 1.615 0 1 0 0-3.23 1.615 1.615 0 0 0 0 3.23ZM13.102 117.154a1.615 1.615 0 1 0 0-3.23 1.615 1.615 0 0 0 0 3.23ZM39.59 117.154a1.615 1.615 0 1 0 0-3.23 1.615 1.615 0 0 0 0 3.23ZM66.077 117.154a1.615 1.615 0 1 0 0-3.23 1.615 1.615 0 0 0 0 3.23ZM92.564 117.154a1.615 1.615 0 1 0 0-3.23 1.615 1.615 0 0 0 0 3.23ZM119.051 117.154a1.616 1.616 0 1 0 0-3.232 1.616 1.616 0 0 0 0 3.232ZM145.538 117.154a1.615 1.615 0 1 0 .001-3.23 1.615 1.615 0 0 0-.001 3.23ZM172.026 117.154a1.615 1.615 0 1 0 0-3.23 1.615 1.615 0 0 0 0 3.23ZM198.513 117.154a1.615 1.615 0 1 0 0-3.23 1.615 1.615 0 0 0 0 3.23ZM225 117.154a1.615 1.615 0 1 0 0-3.23 1.615 1.615 0 0 0 0 3.23ZM251.487 117.154a1.616 1.616 0 1 0 0-3.232 1.616 1.616 0 0 0 0 3.232ZM277.974 117.154a1.615 1.615 0 1 0 .001-3.23 1.615 1.615 0 0 0-.001 3.23ZM304.462 117.154a1.615 1.615 0 1 0 0-3.23 1.615 1.615 0 0 0 0 3.23ZM330.949 117.154a1.615 1.615 0 1 0 0-3.23 1.615 1.615 0 0 0 0 3.23ZM357.436 117.154a1.615 1.615 0 1 0 0-3.23 1.615 1.615 0 0 0 0 3.23ZM383.923 117.154a1.615 1.615 0 1 0 0-3.23 1.615 1.615 0 0 0 0 3.23ZM410.41 117.154a1.616 1.616 0 1 0 0-3.232 1.616 1.616 0 0 0 0 3.232ZM436.897 117.154a1.615 1.615 0 1 0 .001-3.23 1.615 1.615 0 0 0-.001 3.23ZM463.385 117.154a1.615 1.615 0 1 0 0-3.23 1.615 1.615 0 0 0 0 3.23ZM-13.385 143.641a1.615 1.615 0 1 0 0-3.23 1.615 1.615 0 0 0 0 3.23ZM13.102 143.641a1.615 1.615 0 1 0 .001-3.23 1.615 1.615 0 0 0 0 3.23ZM39.59 143.641a1.615 1.615 0 1 0 0-3.23 1.615 1.615 0 0 0 0 3.23ZM66.077 143.641a1.615 1.615 0 1 0 0-3.23 1.615 1.615 0 0 0 0 3.23ZM92.564 143.641a1.615 1.615 0 1 0 0-3.23 1.615 1.615 0 0 0 0 3.23ZM119.051 143.641a1.616 1.616 0 1 0 0-3.232 1.616 1.616 0 0 0 0 3.232ZM145.538 143.641a1.615 1.615 0 1 0 .002-3.23 1.615 1.615 0 0 0-.002 3.23ZM172.026 143.641a1.615 1.615 0 1 0 0-3.23 1.615 1.615 0 0 0 0 3.23ZM198.513 143.641a1.615 1.615 0 1 0 0-3.23 1.615 1.615 0 0 0 0 3.23ZM225 143.641a1.615 1.615 0 1 0 0-3.23 1.615 1.615 0 0 0 0 3.23ZM251.487 143.641a1.616 1.616 0 1 0 0-3.232 1.616 1.616 0 0 0 0 3.232ZM277.974 143.641a1.615 1.615 0 1 0 .002-3.23 1.615 1.615 0 0 0-.002 3.23ZM304.462 143.641a1.615 1.615 0 1 0 0-3.23 1.615 1.615 0 0 0 0 3.23ZM330.949 143.641a1.615 1.615 0 1 0 0-3.23 1.615 1.615 0 0 0 0 3.23ZM357.436 143.641a1.615 1.615 0 1 0 0-3.23 1.615 1.615 0 0 0 0 3.23ZM383.923 143.641a1.615 1.615 0 1 0 0-3.23 1.615 1.615 0 0 0 0 3.23ZM410.41 143.641a1.616 1.616 0 1 0 0-3.232 1.616 1.616 0 0 0 0 3.232ZM436.897 143.641a1.615 1.615 0 1 0 .002-3.23 1.615 1.615 0 0 0-.002 3.23ZM463.385 143.641a1.615 1.615 0 1 0 0-3.23 1.615 1.615 0 0 0 0 3.23ZM-13.385 170.128a1.615 1.615 0 1 0 0-3.23 1.615 1.615 0 0 0 0 3.23ZM13.102 170.128a1.615 1.615 0 1 0 .001-3.23 1.615 1.615 0 0 0 0 3.23ZM39.59 170.128a1.615 1.615 0 1 0 0-3.23 1.615 1.615 0 0 0 0 3.23ZM66.077 170.128a1.615 1.615 0 1 0 0-3.23 1.615 1.615 0 0 0 0 3.23ZM92.564 170.128a1.615 1.615 0 1 0 0-3.23 1.615 1.615 0 0 0 0 3.23ZM119.051 170.128a1.616 1.616 0 1 0 0-3.232 1.616 1.616 0 0 0 0 3.232ZM145.538 170.128a1.615 1.615 0 1 0 .002-3.23 1.615 1.615 0 0 0-.002 3.23ZM172.026 170.128a1.615 1.615 0 1 0 0-3.23 1.615 1.615 0 0 0 0 3.23ZM198.513 170.128a1.615 1.615 0 1 0 0-3.23 1.615 1.615 0 0 0 0 3.23ZM225 170.128a1.615 1.615 0 1 0 0-3.23 1.615 1.615 0 0 0 0 3.23ZM251.487 170.128a1.616 1.616 0 1 0 0-3.232 1.616 1.616 0 0 0 0 3.232ZM277.974 170.128a1.615 1.615 0 1 0 .002-3.23 1.615 1.615 0 0 0-.002 3.23ZM304.462 170.128a1.615 1.615 0 1 0 0-3.23 1.615 1.615 0 0 0 0 3.23ZM330.949 170.128a1.615 1.615 0 1 0 0-3.23 1.615 1.615 0 0 0 0 3.23ZM357.436 170.128a1.615 1.615 0 1 0 0-3.23 1.615 1.615 0 0 0 0 3.23ZM383.923 170.128a1.615 1.615 0 1 0 0-3.23 1.615 1.615 0 0 0 0 3.23ZM410.41 170.128a1.616 1.616 0 1 0 0-3.232 1.616 1.616 0 0 0 0 3.232ZM436.897 170.128a1.615 1.615 0 1 0 .002-3.23 1.615 1.615 0 0 0-.002 3.23ZM463.385 170.128a1.615 1.615 0 1 0 0-3.23 1.615 1.615 0 0 0 0 3.23ZM-13.385 196.615a1.615 1.615 0 1 0 0-3.23 1.615 1.615 0 0 0 0 3.23ZM13.102 196.615a1.615 1.615 0 1 0 .001-3.23 1.615 1.615 0 0 0 0 3.23ZM39.59 196.615a1.615 1.615 0 1 0 0-3.23 1.615 1.615 0 0 0 0 3.23ZM66.077 196.615a1.615 1.615 0 1 0 0-3.23 1.615 1.615 0 0 0 0 3.23ZM92.564 196.615a1.615 1.615 0 1 0 0-3.23 1.615 1.615 0 0 0 0 3.23ZM119.051 196.615a1.616 1.616 0 1 0 0-3.232 1.616 1.616 0 0 0 0 3.232ZM145.538 196.615a1.615 1.615 0 1 0 .002-3.23 1.615 1.615 0 0 0-.002 3.23ZM172.026 196.615a1.615 1.615 0 1 0 0-3.23 1.615 1.615 0 0 0 0 3.23ZM198.513 196.615a1.615 1.615 0 1 0 0-3.23 1.615 1.615 0 0 0 0 3.23ZM225 196.615a1.615 1.615 0 1 0 0-3.23 1.615 1.615 0 0 0 0 3.23ZM251.487 196.615a1.616 1.616 0 1 0 0-3.232 1.616 1.616 0 0 0 0 3.232ZM277.974 196.615a1.615 1.615 0 1 0 .002-3.23 1.615 1.615 0 0 0-.002 3.23ZM304.462 196.615a1.615 1.615 0 1 0 0-3.23 1.615 1.615 0 0 0 0 3.23ZM330.949 196.615a1.615 1.615 0 1 0 0-3.23 1.615 1.615 0 0 0 0 3.23ZM357.436 196.615a1.615 1.615 0 1 0 0-3.23 1.615 1.615 0 0 0 0 3.23ZM383.923 196.615a1.615 1.615 0 1 0 0-3.23 1.615 1.615 0 0 0 0 3.23ZM410.41 196.615a1.616 1.616 0 1 0 0-3.232 1.616 1.616 0 0 0 0 3.232ZM436.897 196.615a1.615 1.615 0 1 0 .002-3.23 1.615 1.615 0 0 0-.002 3.23ZM463.385 196.615a1.615 1.615 0 1 0 0-3.23 1.615 1.615 0 0 0 0 3.23ZM-13.385 223.103a1.616 1.616 0 1 0 0-3.232 1.616 1.616 0 0 0 0 3.232ZM13.102 223.103a1.616 1.616 0 1 0 0-3.232 1.616 1.616 0 0 0 0 3.232ZM39.59 223.103a1.616 1.616 0 1 0-.001-3.232 1.616 1.616 0 0 0 0 3.232ZM66.077 223.103a1.616 1.616 0 1 0-.001-3.232 1.616 1.616 0 0 0 0 3.232ZM92.564 223.103a1.616 1.616 0 1 0-.001-3.232 1.616 1.616 0 0 0 .001 3.232ZM119.051 223.103a1.617 1.617 0 1 0-.001-3.233 1.617 1.617 0 0 0 .001 3.233ZM145.538 223.103a1.616 1.616 0 1 0 0-3.232 1.616 1.616 0 0 0 0 3.232ZM172.026 223.103a1.616 1.616 0 1 0-.002-3.232 1.616 1.616 0 0 0 .002 3.232ZM198.513 223.103a1.616 1.616 0 1 0-.002-3.232 1.616 1.616 0 0 0 .002 3.232ZM225 223.103a1.616 1.616 0 1 0-.002-3.232 1.616 1.616 0 0 0 .002 3.232ZM251.487 223.103a1.617 1.617 0 1 0-.001-3.233 1.617 1.617 0 0 0 .001 3.233ZM277.974 223.103a1.616 1.616 0 1 0 0-3.232 1.616 1.616 0 0 0 0 3.232ZM304.462 223.103a1.616 1.616 0 1 0-.002-3.232 1.616 1.616 0 0 0 .002 3.232ZM330.949 223.103a1.616 1.616 0 1 0-.002-3.232 1.616 1.616 0 0 0 .002 3.232ZM357.436 223.103a1.616 1.616 0 1 0-.002-3.232 1.616 1.616 0 0 0 .002 3.232ZM383.923 223.103a1.616 1.616 0 1 0-.002-3.232 1.616 1.616 0 0 0 .002 3.232ZM410.41 223.103a1.617 1.617 0 1 0-.001-3.233 1.617 1.617 0 0 0 .001 3.233ZM436.897 223.103a1.616 1.616 0 1 0 0-3.232 1.616 1.616 0 0 0 0 3.232ZM463.385 223.103a1.616 1.616 0 1 0-.002-3.232 1.616 1.616 0 0 0 .002 3.232ZM-13.385 249.59a1.615 1.615 0 1 0 0-3.23 1.615 1.615 0 0 0 0 3.23ZM13.102 249.59a1.615 1.615 0 1 0 0-3.23 1.615 1.615 0 0 0 0 3.23ZM39.59 249.59a1.615 1.615 0 1 0 0-3.23 1.615 1.615 0 0 0 0 3.23ZM66.077 249.59a1.615 1.615 0 1 0 0-3.23 1.615 1.615 0 0 0 0 3.23ZM92.564 249.59a1.615 1.615 0 1 0 0-3.23 1.615 1.615 0 0 0 0 3.23ZM119.051 249.59a1.616 1.616 0 1 0 0-3.232 1.616 1.616 0 0 0 0 3.232ZM145.538 249.59a1.615 1.615 0 1 0 .001-3.23 1.615 1.615 0 0 0-.001 3.23ZM172.026 249.59a1.615 1.615 0 1 0 0-3.23 1.615 1.615 0 0 0 0 3.23ZM198.513 249.59a1.615 1.615 0 1 0 0-3.23 1.615 1.615 0 0 0 0 3.23ZM225 249.59a1.615 1.615 0 1 0 0-3.23 1.615 1.615 0 0 0 0 3.23ZM251.487 249.59a1.616 1.616 0 1 0 0-3.232 1.616 1.616 0 0 0 0 3.232ZM277.974 249.59a1.615 1.615 0 1 0 .001-3.23 1.615 1.615 0 0 0-.001 3.23ZM304.462 249.59a1.615 1.615 0 1 0 0-3.23 1.615 1.615 0 0 0 0 3.23ZM330.949 249.59a1.615 1.615 0 1 0 0-3.23 1.615 1.615 0 0 0 0 3.23ZM357.436 249.59a1.615 1.615 0 1 0 0-3.23 1.615 1.615 0 0 0 0 3.23ZM383.923 249.59a1.615 1.615 0 1 0 0-3.23 1.615 1.615 0 0 0 0 3.23ZM410.41 249.59a1.616 1.616 0 1 0 0-3.232 1.616 1.616 0 0 0 0 3.232ZM436.897 249.59a1.615 1.615 0 1 0 .001-3.23 1.615 1.615 0 0 0-.001 3.23ZM463.385 249.59a1.615 1.615 0 1 0 0-3.23 1.615 1.615 0 0 0 0 3.23ZM-13.385 276.077a1.615 1.615 0 1 0 0-3.23 1.615 1.615 0 0 0 0 3.23ZM13.102 276.077a1.615 1.615 0 1 0 .001-3.23 1.615 1.615 0 0 0 0 3.23ZM39.59 276.077a1.615 1.615 0 1 0 0-3.23 1.615 1.615 0 0 0 0 3.23ZM66.077 276.077a1.615 1.615 0 1 0 0-3.23 1.615 1.615 0 0 0 0 3.23ZM92.564 276.077a1.615 1.615 0 1 0 0-3.23 1.615 1.615 0 0 0 0 3.23ZM119.051 276.077a1.616 1.616 0 1 0 0-3.232 1.616 1.616 0 0 0 0 3.232ZM145.538 276.077a1.615 1.615 0 1 0 .002-3.23 1.615 1.615 0 0 0-.002 3.23ZM172.026 276.077a1.615 1.615 0 1 0 0-3.23 1.615 1.615 0 0 0 0 3.23ZM198.513 276.077a1.615 1.615 0 1 0 0-3.23 1.615 1.615 0 0 0 0 3.23ZM225 276.077a1.615 1.615 0 1 0 0-3.23 1.615 1.615 0 0 0 0 3.23ZM251.487 276.077a1.616 1.616 0 1 0 0-3.232 1.616 1.616 0 0 0 0 3.232ZM277.974 276.077a1.615 1.615 0 1 0 .002-3.23 1.615 1.615 0 0 0-.002 3.23ZM304.462 276.077a1.615 1.615 0 1 0 0-3.23 1.615 1.615 0 0 0 0 3.23ZM330.949 276.077a1.615 1.615 0 1 0 0-3.23 1.615 1.615 0 0 0 0 3.23ZM357.436 276.077a1.615 1.615 0 1 0 0-3.23 1.615 1.615 0 0 0 0 3.23ZM383.923 276.077a1.615 1.615 0 1 0 0-3.23 1.615 1.615 0 0 0 0 3.23ZM410.41 276.077a1.616 1.616 0 1 0 0-3.232 1.616 1.616 0 0 0 0 3.232ZM436.897 276.077a1.615 1.615 0 1 0 .002-3.23 1.615 1.615 0 0 0-.002 3.23ZM463.385 276.077a1.615 1.615 0 1 0 0-3.23 1.615 1.615 0 0 0 0 3.23ZM-13.385 302.564a1.615 1.615 0 1 0 0-3.23 1.615 1.615 0 0 0 0 3.23ZM13.102 302.564a1.615 1.615 0 1 0 .001-3.23 1.615 1.615 0 0 0 0 3.23ZM39.59 302.564a1.615 1.615 0 1 0 0-3.23 1.615 1.615 0 0 0 0 3.23ZM66.077 302.564a1.615 1.615 0 1 0 0-3.23 1.615 1.615 0 0 0 0 3.23ZM92.564 302.564a1.615 1.615 0 1 0 0-3.23 1.615 1.615 0 0 0 0 3.23ZM119.051 302.564a1.616 1.616 0 1 0 0-3.232 1.616 1.616 0 0 0 0 3.232ZM145.538 302.564a1.615 1.615 0 1 0 .002-3.23 1.615 1.615 0 0 0-.002 3.23ZM172.026 302.564a1.615 1.615 0 1 0 0-3.23 1.615 1.615 0 0 0 0 3.23ZM198.513 302.564a1.615 1.615 0 1 0 0-3.23 1.615 1.615 0 0 0 0 3.23ZM225 302.564a1.615 1.615 0 1 0 0-3.23 1.615 1.615 0 0 0 0 3.23ZM251.487 302.564a1.616 1.616 0 1 0 0-3.232 1.616 1.616 0 0 0 0 3.232ZM277.974 302.564a1.615 1.615 0 1 0 .002-3.23 1.615 1.615 0 0 0-.002 3.23ZM304.462 302.564a1.615 1.615 0 1 0 0-3.23 1.615 1.615 0 0 0 0 3.23ZM330.949 302.564a1.615 1.615 0 1 0 0-3.23 1.615 1.615 0 0 0 0 3.23ZM357.436 302.564a1.615 1.615 0 1 0 0-3.23 1.615 1.615 0 0 0 0 3.23ZM383.923 302.564a1.615 1.615 0 1 0 0-3.23 1.615 1.615 0 0 0 0 3.23ZM410.41 302.564a1.616 1.616 0 1 0 0-3.232 1.616 1.616 0 0 0 0 3.232ZM436.897 302.564a1.615 1.615 0 1 0 .002-3.23 1.615 1.615 0 0 0-.002 3.23ZM463.385 302.564a1.615 1.615 0 1 0 0-3.23 1.615 1.615 0 0 0 0 3.23ZM-13.385 329.051a1.615 1.615 0 1 0 0-3.23 1.615 1.615 0 0 0 0 3.23ZM13.102 329.051a1.615 1.615 0 1 0 .001-3.23 1.615 1.615 0 0 0 0 3.23ZM39.59 329.051a1.615 1.615 0 1 0 0-3.23 1.615 1.615 0 0 0 0 3.23ZM66.077 329.051a1.615 1.615 0 1 0 0-3.23 1.615 1.615 0 0 0 0 3.23ZM92.564 329.051a1.615 1.615 0 1 0 0-3.23 1.615 1.615 0 0 0 0 3.23ZM119.051 329.051a1.616 1.616 0 1 0 0-3.232 1.616 1.616 0 0 0 0 3.232ZM145.538 329.051a1.615 1.615 0 1 0 .002-3.23 1.615 1.615 0 0 0-.002 3.23ZM172.026 329.051a1.615 1.615 0 1 0 0-3.23 1.615 1.615 0 0 0 0 3.23ZM198.513 329.051a1.615 1.615 0 1 0 0-3.23 1.615 1.615 0 0 0 0 3.23ZM225 329.051a1.615 1.615 0 1 0 0-3.23 1.615 1.615 0 0 0 0 3.23ZM251.487 329.051a1.616 1.616 0 1 0 0-3.232 1.616 1.616 0 0 0 0 3.232ZM277.974 329.051a1.615 1.615 0 1 0 .002-3.23 1.615 1.615 0 0 0-.002 3.23ZM304.462 329.051a1.615 1.615 0 1 0 0-3.23 1.615 1.615 0 0 0 0 3.23ZM330.949 329.051a1.615 1.615 0 1 0 0-3.23 1.615 1.615 0 0 0 0 3.23ZM357.436 329.051a1.615 1.615 0 1 0 0-3.23 1.615 1.615 0 0 0 0 3.23ZM383.923 329.051a1.615 1.615 0 1 0 0-3.23 1.615 1.615 0 0 0 0 3.23ZM410.41 329.051a1.616 1.616 0 1 0 0-3.232 1.616 1.616 0 0 0 0 3.232ZM436.897 329.051a1.615 1.615 0 1 0 .002-3.23 1.615 1.615 0 0 0-.002 3.23ZM463.385 329.051a1.615 1.615 0 1 0 0-3.23 1.615 1.615 0 0 0 0 3.23ZM-13.385 355.538a1.615 1.615 0 1 0 0-3.23 1.615 1.615 0 0 0 0 3.23ZM13.102 355.538a1.615 1.615 0 1 0 .001-3.23 1.615 1.615 0 0 0 0 3.23ZM39.59 355.538a1.615 1.615 0 1 0 0-3.23 1.615 1.615 0 0 0 0 3.23ZM66.077 355.538a1.615 1.615 0 1 0 0-3.23 1.615 1.615 0 0 0 0 3.23ZM92.564 355.538a1.615 1.615 0 1 0 0-3.23 1.615 1.615 0 0 0 0 3.23ZM119.051 355.538a1.616 1.616 0 1 0 0-3.232 1.616 1.616 0 0 0 0 3.232ZM145.538 355.538a1.615 1.615 0 1 0 .002-3.23 1.615 1.615 0 0 0-.002 3.23ZM172.026 355.538a1.615 1.615 0 1 0 0-3.23 1.615 1.615 0 0 0 0 3.23ZM198.513 355.538a1.615 1.615 0 1 0 0-3.23 1.615 1.615 0 0 0 0 3.23ZM225 355.538a1.615 1.615 0 1 0 0-3.23 1.615 1.615 0 0 0 0 3.23ZM251.487 355.538a1.616 1.616 0 1 0 0-3.232 1.616 1.616 0 0 0 0 3.232ZM277.974 355.538a1.615 1.615 0 1 0 .002-3.23 1.615 1.615 0 0 0-.002 3.23ZM304.462 355.538a1.615 1.615 0 1 0 0-3.23 1.615 1.615 0 0 0 0 3.23ZM330.949 355.538a1.615 1.615 0 1 0 0-3.23 1.615 1.615 0 0 0 0 3.23ZM357.436 355.538a1.615 1.615 0 1 0 0-3.23 1.615 1.615 0 0 0 0 3.23ZM383.923 355.538a1.615 1.615 0 1 0 0-3.23 1.615 1.615 0 0 0 0 3.23ZM410.41 355.538a1.616 1.616 0 1 0 0-3.232 1.616 1.616 0 0 0 0 3.232ZM436.897 355.538a1.615 1.615 0 1 0 .002-3.23 1.615 1.615 0 0 0-.002 3.23ZM463.385 355.538a1.615 1.615 0 1 0 0-3.23 1.615 1.615 0 0 0 0 3.23ZM-13.385 382.026a1.616 1.616 0 1 0 0-3.232 1.616 1.616 0 0 0 0 3.232ZM13.102 382.026a1.616 1.616 0 1 0 0-3.232 1.616 1.616 0 0 0 0 3.232ZM39.59 382.026a1.616 1.616 0 1 0-.001-3.232 1.616 1.616 0 0 0 0 3.232ZM66.077 382.026a1.616 1.616 0 1 0-.001-3.232 1.616 1.616 0 0 0 0 3.232ZM92.564 382.026a1.616 1.616 0 1 0-.001-3.232 1.616 1.616 0 0 0 .001 3.232ZM119.051 382.026a1.617 1.617 0 1 0-.001-3.233 1.617 1.617 0 0 0 .001 3.233ZM145.538 382.026a1.616 1.616 0 1 0 0-3.232 1.616 1.616 0 0 0 0 3.232ZM172.026 382.026a1.616 1.616 0 1 0-.002-3.232 1.616 1.616 0 0 0 .002 3.232ZM198.513 382.026a1.616 1.616 0 1 0-.002-3.232 1.616 1.616 0 0 0 .002 3.232ZM225 382.026a1.616 1.616 0 1 0-.002-3.232 1.616 1.616 0 0 0 .002 3.232ZM251.487 382.026a1.617 1.617 0 1 0-.001-3.233 1.617 1.617 0 0 0 .001 3.233ZM277.974 382.026a1.616 1.616 0 1 0 0-3.232 1.616 1.616 0 0 0 0 3.232ZM304.462 382.026a1.616 1.616 0 1 0-.002-3.232 1.616 1.616 0 0 0 .002 3.232ZM330.949 382.026a1.616 1.616 0 1 0-.002-3.232 1.616 1.616 0 0 0 .002 3.232ZM357.436 382.026a1.616 1.616 0 1 0-.002-3.232 1.616 1.616 0 0 0 .002 3.232ZM383.923 382.026a1.616 1.616 0 1 0-.002-3.232 1.616 1.616 0 0 0 .002 3.232ZM410.41 382.026a1.617 1.617 0 1 0-.001-3.233 1.617 1.617 0 0 0 .001 3.233ZM436.897 382.026a1.616 1.616 0 1 0 0-3.232 1.616 1.616 0 0 0 0 3.232ZM463.385 382.026a1.616 1.616 0 1 0-.002-3.232 1.616 1.616 0 0 0 .002 3.232ZM-13.385 408.513a1.615 1.615 0 1 0 0-3.23 1.615 1.615 0 0 0 0 3.23ZM13.102 408.513a1.615 1.615 0 1 0 0-3.23 1.615 1.615 0 0 0 0 3.23ZM39.59 408.513a1.615 1.615 0 1 0 0-3.23 1.615 1.615 0 0 0 0 3.23ZM66.077 408.513a1.615 1.615 0 1 0 0-3.23 1.615 1.615 0 0 0 0 3.23ZM92.564 408.513a1.615 1.615 0 1 0 0-3.23 1.615 1.615 0 0 0 0 3.23ZM119.051 408.513a1.616 1.616 0 1 0 0-3.232 1.616 1.616 0 0 0 0 3.232ZM145.538 408.513a1.615 1.615 0 1 0 .001-3.23 1.615 1.615 0 0 0-.001 3.23ZM172.026 408.513a1.615 1.615 0 1 0 0-3.23 1.615 1.615 0 0 0 0 3.23ZM198.513 408.513a1.615 1.615 0 1 0 0-3.23 1.615 1.615 0 0 0 0 3.23ZM225 408.513a1.615 1.615 0 1 0 0-3.23 1.615 1.615 0 0 0 0 3.23ZM251.487 408.513a1.616 1.616 0 1 0 0-3.232 1.616 1.616 0 0 0 0 3.232ZM277.974 408.513a1.615 1.615 0 1 0 .001-3.23 1.615 1.615 0 0 0-.001 3.23ZM304.462 408.513a1.615 1.615 0 1 0 0-3.23 1.615 1.615 0 0 0 0 3.23ZM330.949 408.513a1.615 1.615 0 1 0 0-3.23 1.615 1.615 0 0 0 0 3.23ZM357.436 408.513a1.615 1.615 0 1 0 0-3.23 1.615 1.615 0 0 0 0 3.23ZM383.923 408.513a1.615 1.615 0 1 0 0-3.23 1.615 1.615 0 0 0 0 3.23ZM410.41 408.513a1.616 1.616 0 1 0 0-3.232 1.616 1.616 0 0 0 0 3.232ZM436.897 408.513a1.615 1.615 0 1 0 .001-3.23 1.615 1.615 0 0 0-.001 3.23ZM463.385 408.513a1.615 1.615 0 1 0 0-3.23 1.615 1.615 0 0 0 0 3.23ZM-13.385 435a1.615 1.615 0 1 0 0-3.23 1.615 1.615 0 0 0 0 3.23ZM13.102 435a1.615 1.615 0 1 0 .001-3.23 1.615 1.615 0 0 0 0 3.23ZM39.59 435a1.615 1.615 0 1 0 0-3.23 1.615 1.615 0 0 0 0 3.23ZM66.077 435a1.615 1.615 0 1 0 0-3.23 1.615 1.615 0 0 0 0 3.23ZM92.564 435a1.615 1.615 0 1 0 0-3.23 1.615 1.615 0 0 0 0 3.23ZM119.051 435a1.616 1.616 0 1 0 0-3.232 1.616 1.616 0 0 0 0 3.232ZM145.538 435a1.615 1.615 0 1 0 .002-3.23 1.615 1.615 0 0 0-.002 3.23ZM172.026 435a1.615 1.615 0 1 0 0-3.23 1.615 1.615 0 0 0 0 3.23ZM198.513 435a1.615 1.615 0 1 0 0-3.23 1.615 1.615 0 0 0 0 3.23ZM225 435a1.615 1.615 0 1 0 0-3.23 1.615 1.615 0 0 0 0 3.23ZM251.487 435a1.616 1.616 0 1 0 0-3.232 1.616 1.616 0 0 0 0 3.232ZM277.974 435a1.615 1.615 0 1 0 .002-3.23 1.615 1.615 0 0 0-.002 3.23ZM304.462 435a1.615 1.615 0 1 0 0-3.23 1.615 1.615 0 0 0 0 3.23ZM330.949 435a1.615 1.615 0 1 0 0-3.23 1.615 1.615 0 0 0 0 3.23ZM357.436 435a1.615 1.615 0 1 0 0-3.23 1.615 1.615 0 0 0 0 3.23ZM383.923 435a1.615 1.615 0 1 0 0-3.23 1.615 1.615 0 0 0 0 3.23ZM410.41 435a1.616 1.616 0 1 0 0-3.232 1.616 1.616 0 0 0 0 3.232ZM436.897 435a1.615 1.615 0 1 0 .002-3.23 1.615 1.615 0 0 0-.002 3.23ZM463.385 435a1.615 1.615 0 1 0 0-3.23 1.615 1.615 0 0 0 0 3.23Z"/><path stroke="#fff" stroke-dasharray="2 2" stroke-linecap="round" stroke-opacity=".15" d="M226 170.5V225"/><path fill="#D5FF61" d="M102.803 220.5h244.955c10.505 0 19.022 8.517 19.022 19.022v98.956c0 10.505-8.517 19.022-19.022 19.022H102.803c-10.506 0-19.023-8.517-19.023-19.022v-98.956l.006-.491c.26-10.279 8.675-18.531 19.017-18.531Z"/><path stroke="#D5FF61" d="M102.803 220.5h244.955c10.505 0 19.022 8.517 19.022 19.022v98.956c0 10.505-8.517 19.022-19.022 19.022H102.803c-10.506 0-19.023-8.517-19.023-19.022v-98.956l.006-.491c.26-10.279 8.675-18.531 19.017-18.531Z"/><path fill="#000" d="M120.675 269v-10.908h3.572c1.133 0 2.114.229 2.943.688a4.847 4.847 0 0 1 1.948 1.918c.458.81.688 1.757.688 2.841 0 1.073-.23 2.025-.688 2.855a4.847 4.847 0 0 1-1.948 1.918c-.829.459-1.81.688-2.943.688h-3.572Zm1.728-1.537h1.874c.771 0 1.439-.161 2.006-.484a3.32 3.32 0 0 0 1.332-1.361c.312-.586.468-1.279.468-2.079 0-.801-.161-1.494-.483-2.079a3.24 3.24 0 0 0-1.317-1.347c-.567-.323-1.235-.484-2.006-.484h-1.874v7.834Zm12.536 1.713c-.791 0-1.494-.181-2.109-.542a3.946 3.946 0 0 1-1.42-1.493c-.342-.635-.512-1.343-.512-2.123 0-.791.17-1.494.512-2.109a3.786 3.786 0 0 1 3.397-2.006c.791 0 1.469.181 2.035.542.566.351.996.82 1.289 1.406a4 4 0 0 1 .453 1.888c0 .127-.004.259-.014.396-.01.136-.029.263-.059.38h-5.9c.049.674.293 1.211.732 1.611.449.39.986.586 1.61.586.479 0 .884-.108 1.216-.323.331-.214.6-.492.805-.834l1.347.659c-.244.566-.669 1.034-1.274 1.405s-1.308.557-2.108.557Zm-.132-6.882c-.547 0-1.02.166-1.42.498-.391.332-.635.8-.732 1.406h4.172c-.029-.557-.239-1.011-.629-1.362a1.947 1.947 0 0 0-1.391-.542Zm9.477 6.882a3.791 3.791 0 0 1-1.537-.308 2.764 2.764 0 0 1-1.113-.878V269h-1.581v-11.084h1.654v4.085a2.857 2.857 0 0 1 1.098-.805c.44-.195.933-.293 1.479-.293.752 0 1.425.181 2.021.542a3.831 3.831 0 0 1 1.42 1.479c.351.624.527 1.327.527 2.108 0 .781-.176 1.484-.527 2.109a3.946 3.946 0 0 1-1.42 1.493c-.596.361-1.269.542-2.021.542Zm-.161-1.538c.459 0 .869-.112 1.23-.336.371-.225.659-.532.864-.923.215-.39.322-.839.322-1.347 0-.498-.107-.942-.322-1.332a2.315 2.315 0 0 0-.864-.923 2.285 2.285 0 0 0-1.23-.336c-.468 0-.883.112-1.244.336-.362.225-.65.532-.864.923a2.82 2.82 0 0 0-.308 1.332c0 .508.103.957.308 1.347.214.391.502.698.864.923.361.224.776.336 1.244.336Zm8.875 1.45c-.83 0-1.474-.234-1.933-.703-.458-.468-.688-1.127-.688-1.977v-3.836h-1.391v-1.493h.22c.361 0 .644-.103.849-.308.215-.214.322-.512.322-.893v-.615h1.655v1.816h1.801v1.493h-1.801v3.763c0 .41.097.727.293.952.205.224.546.337 1.025.337a3.5 3.5 0 0 0 .541-.044V269c-.302.059-.6.088-.893.088Zm4.935-.088v-10.908h7.102v1.537h-5.374v3.28h4.788v1.537h-4.788V269h-1.728Zm8.243-9.005v-1.903h1.655v1.903h-1.655Zm0 9.005v-7.921h1.655V269h-1.655Zm2.652 0 2.767-3.968-2.767-3.953h1.948l1.8 2.635 1.801-2.635h1.948l-2.782 3.953L176.31 269h-1.947l-1.787-2.65-1.8 2.65h-1.948Zm16.135.176a5.604 5.604 0 0 1-2.153-.41 5.245 5.245 0 0 1-1.713-1.186 5.507 5.507 0 0 1-1.142-1.786 6.232 6.232 0 0 1-.395-2.255c0-.81.132-1.557.395-2.24a5.618 5.618 0 0 1 1.128-1.787 5.057 5.057 0 0 1 1.713-1.171 5.465 5.465 0 0 1 2.167-.425c.761 0 1.444.132 2.049.396a4.75 4.75 0 0 1 1.552 1.039c.43.43.737.888.923 1.377l-1.552.732a3.101 3.101 0 0 0-1.128-1.421c-.507-.371-1.122-.556-1.844-.556-.723 0-1.362.171-1.918.512-.557.342-.991.82-1.304 1.435-.302.606-.453 1.308-.453 2.109 0 .81.151 1.522.453 2.137a3.527 3.527 0 0 0 1.304 1.421c.556.331 1.195.497 1.918.497.722 0 1.337-.18 1.844-.541a3.096 3.096 0 0 0 1.128-1.421l1.552.733a3.893 3.893 0 0 1-.923 1.39c-.419.42-.937.762-1.552 1.025-.605.264-1.288.396-2.049.396Zm9.671 0a4.25 4.25 0 0 1-2.093-.527 4.098 4.098 0 0 1-1.494-1.479c-.371-.625-.556-1.337-.556-2.138 0-.79.18-1.498.542-2.123a3.972 3.972 0 0 1 1.493-1.464 4.189 4.189 0 0 1 2.108-.542c.772 0 1.469.181 2.094.542a3.866 3.866 0 0 1 1.479 1.464c.371.615.556 1.323.556 2.123 0 .801-.185 1.513-.556 2.138a4.103 4.103 0 0 1-1.493 1.479 4.174 4.174 0 0 1-2.08.527Zm0-1.538c.459 0 .869-.112 1.23-.336.361-.225.649-.532.864-.923.215-.4.322-.849.322-1.347s-.107-.942-.322-1.332a2.462 2.462 0 0 0-.864-.923 2.285 2.285 0 0 0-1.23-.336 2.36 2.36 0 0 0-1.244.336 2.462 2.462 0 0 0-.864.923 2.82 2.82 0 0 0-.307 1.332c0 .498.102.947.307 1.347.215.391.503.698.864.923a2.36 2.36 0 0 0 1.244.336Zm8.526 1.538c-.819 0-1.532-.2-2.137-.601a3.19 3.19 0 0 1-1.274-1.61l1.274-.6c.215.458.507.819.878 1.083.381.254.801.381 1.259.381.391 0 .708-.088.952-.264a.838.838 0 0 0 .366-.717c0-.283-.112-.493-.337-.63a2.483 2.483 0 0 0-.717-.322l-1.244-.351c-.684-.196-1.196-.488-1.538-.879a2.077 2.077 0 0 1-.498-1.391c0-.468.122-.878.366-1.23.244-.361.576-.639.996-.834a3.358 3.358 0 0 1 1.464-.308c.722 0 1.367.181 1.933.542a2.85 2.85 0 0 1 1.2 1.479l-1.273.6a2.036 2.036 0 0 0-.762-.908 1.945 1.945 0 0 0-1.112-.336c-.371 0-.664.087-.879.263a.806.806 0 0 0-.307.659c0 .283.102.493.307.63.215.126.449.229.703.307l1.288.381c.644.185 1.142.478 1.494.878.361.391.541.859.541 1.406 0 .468-.126.883-.38 1.244-.244.352-.586.63-1.025.835-.439.195-.952.293-1.538.293Zm7.844-.088c-.829 0-1.474-.234-1.932-.703-.459-.468-.689-1.127-.689-1.977v-3.836h-1.391v-1.493h.22c.361 0 .644-.103.849-.308.215-.214.322-.512.322-.893v-.615h1.655v1.816h1.801v1.493h-1.801v3.763c0 .41.098.727.293.952.205.224.546.337 1.025.337a3.5 3.5 0 0 0 .541-.044V269c-.302.059-.6.088-.893.088Zm7.103 2.255c-1.621-1.874-2.431-4.085-2.431-6.633s.81-4.754 2.431-6.618h1.39c-1.405 2.06-2.108 4.266-2.108 6.618 0 2.352.703 4.563 2.108 6.633h-1.39Zm4.854-2.343-3.001-10.908h1.83l2.196 8.58 2.299-8.58h1.801l2.269 8.565 2.226-8.565h1.815L231.41 269h-1.948l-2.284-8.36-2.284 8.36h-1.933Zm12.414-9.005v-1.903h1.654v1.903h-1.654Zm0 9.005v-7.921h1.654V269h-1.654Zm6.868.088c-.829 0-1.474-.234-1.932-.703-.459-.468-.689-1.127-.689-1.977v-3.836h-1.391v-1.493h.22c.361 0 .644-.103.849-.308.215-.214.322-.512.322-.893v-.615h1.655v1.816h1.801v1.493h-1.801v3.763c0 .41.098.727.293.952.205.224.546.337 1.025.337a3.5 3.5 0 0 0 .541-.044V269c-.302.059-.6.088-.893.088Zm2.362-.088v-11.084h1.654v4.012c.225-.332.522-.586.893-.761a3 3 0 0 1 1.274-.264c.576 0 1.088.127 1.537.381a2.74 2.74 0 0 1 1.055 1.054c.263.449.395.962.395 1.537V269h-1.64v-4.671c0-.585-.166-1.044-.498-1.376-.332-.342-.751-.512-1.259-.512-.508 0-.927.17-1.259.512-.332.332-.498.791-.498 1.376V269h-1.654Zm16.087.176a5.608 5.608 0 0 1-2.153-.41 5.255 5.255 0 0 1-1.713-1.186 5.507 5.507 0 0 1-1.142-1.786 6.232 6.232 0 0 1-.395-2.255c0-.81.132-1.557.395-2.24a5.636 5.636 0 0 1 1.128-1.787 5.057 5.057 0 0 1 1.713-1.171 5.468 5.468 0 0 1 2.167-.425c.761 0 1.444.132 2.05.396.615.263 1.132.61 1.552 1.039.429.43.737.888.922 1.377l-1.552.732a3.106 3.106 0 0 0-1.127-1.421c-.508-.371-1.123-.556-1.845-.556-.723 0-1.362.171-1.918.512a3.5 3.5 0 0 0-1.303 1.435c-.303.606-.454 1.308-.454 2.109 0 .81.151 1.522.454 2.137a3.518 3.518 0 0 0 1.303 1.421c.556.331 1.195.497 1.918.497.722 0 1.337-.18 1.845-.541a3.1 3.1 0 0 0 1.127-1.421l1.552.733c-.185.497-.493.961-.922 1.39-.42.42-.937.762-1.552 1.025-.606.264-1.289.396-2.05.396Zm9.672 0c-.762 0-1.46-.176-2.094-.527a4.098 4.098 0 0 1-1.494-1.479c-.37-.625-.556-1.337-.556-2.138 0-.79.181-1.498.542-2.123a3.98 3.98 0 0 1 1.493-1.464 4.193 4.193 0 0 1 2.109-.542c.771 0 1.469.181 2.093.542a3.866 3.866 0 0 1 1.479 1.464c.371.615.557 1.323.557 2.123 0 .801-.186 1.513-.557 2.138a4.103 4.103 0 0 1-1.493 1.479 4.173 4.173 0 0 1-2.079.527Zm0-1.538a2.29 2.29 0 0 0 1.23-.336c.361-.225.649-.532.863-.923a2.8 2.8 0 0 0 .323-1.347c0-.498-.108-.942-.323-1.332a2.452 2.452 0 0 0-.863-.923 2.29 2.29 0 0 0-1.23-.336c-.459 0-.874.112-1.245.336a2.462 2.462 0 0 0-.864.923 2.82 2.82 0 0 0-.307 1.332c0 .498.102.947.307 1.347.215.391.503.698.864.923.371.224.786.336 1.245.336Zm9.258 1.538c-.762 0-1.445-.181-2.05-.542a4.096 4.096 0 0 1-1.42-1.493c-.342-.625-.513-1.328-.513-2.109 0-.781.171-1.484.513-2.108a3.972 3.972 0 0 1 1.42-1.479 3.897 3.897 0 0 1 2.035-.542c.547 0 1.04.098 1.479.293.439.186.81.454 1.113.805v-4.085h1.64V269h-1.567v-1.01c-.293.38-.674.673-1.142.878a3.657 3.657 0 0 1-1.508.308Zm.161-1.538c.459 0 .869-.112 1.23-.336.361-.225.649-.532.864-.923.214-.39.322-.839.322-1.347 0-.498-.108-.942-.322-1.332a2.462 2.462 0 0 0-.864-.923 2.285 2.285 0 0 0-1.23-.336c-.469 0-.888.112-1.259.336a2.352 2.352 0 0 0-.85.923 2.82 2.82 0 0 0-.307 1.332c0 .508.102.957.307 1.347.205.391.489.698.85.923.371.224.79.336 1.259.336Zm9.56 1.538c-.791 0-1.494-.181-2.109-.542a3.946 3.946 0 0 1-1.42-1.493c-.342-.635-.512-1.343-.512-2.123 0-.791.17-1.494.512-2.109a3.786 3.786 0 0 1 3.397-2.006c.79 0 1.469.181 2.035.542.566.351.996.82 1.288 1.406.303.575.454 1.205.454 1.888 0 .127-.005.259-.014.396-.01.136-.03.263-.059.38h-5.9c.048.674.292 1.211.732 1.611.449.39.986.586 1.61.586.479 0 .884-.108 1.215-.323.332-.214.601-.492.806-.834l1.347.659c-.244.566-.669 1.034-1.274 1.405s-1.308.557-2.108.557Zm-.132-6.882c-.547 0-1.02.166-1.42.498-.391.332-.635.8-.732 1.406h4.172c-.029-.557-.239-1.011-.629-1.362a1.949 1.949 0 0 0-1.391-.542Zm5.246 6.706v-7.921h1.581v.981c.215-.381.512-.669.893-.864.39-.195.825-.293 1.303-.293.537 0 1.025.122 1.464.366.44.244.776.571 1.011.981a2.677 2.677 0 0 1 1.054-1.01 3.04 3.04 0 0 1 1.435-.337c.546 0 1.039.127 1.478.381.449.254.806.605 1.069 1.054.264.449.396.962.396 1.537V269h-1.655v-4.671c0-.585-.156-1.044-.468-1.376-.303-.342-.703-.512-1.201-.512-.498 0-.908.17-1.23.512-.312.332-.469.791-.469 1.376V269h-1.639v-4.671c0-.585-.157-1.044-.469-1.376-.312-.342-.717-.512-1.215-.512-.498 0-.903.17-1.215.512-.313.332-.469.791-.469 1.376V269h-1.654Zm17.129.176a4.25 4.25 0 0 1-2.093-.527 4.098 4.098 0 0 1-1.494-1.479c-.371-.625-.556-1.337-.556-2.138 0-.79.18-1.498.542-2.123a3.965 3.965 0 0 1 1.493-1.464 4.186 4.186 0 0 1 2.108-.542 4.11 4.11 0 0 1 2.094.542 3.866 3.866 0 0 1 1.479 1.464c.371.615.556 1.323.556 2.123 0 .801-.185 1.513-.556 2.138a4.098 4.098 0 0 1-1.494 1.479 4.167 4.167 0 0 1-2.079.527Zm0-1.538c.459 0 .869-.112 1.23-.336.361-.225.649-.532.864-.923.215-.4.322-.849.322-1.347s-.107-.942-.322-1.332a2.462 2.462 0 0 0-.864-.923 2.285 2.285 0 0 0-1.23-.336 2.36 2.36 0 0 0-1.244.336 2.462 2.462 0 0 0-.864.923 2.82 2.82 0 0 0-.307 1.332c0 .498.102.947.307 1.347.215.391.503.698.864.923a2.36 2.36 0 0 0 1.244.336Zm9.258 1.538c-.761 0-1.444-.181-2.049-.542a4.098 4.098 0 0 1-1.421-1.493c-.341-.625-.512-1.328-.512-2.109 0-.781.171-1.484.512-2.108a3.975 3.975 0 0 1 1.421-1.479 3.895 3.895 0 0 1 2.035-.542c.546 0 1.039.098 1.479.293.439.186.81.454 1.112.805v-4.085h1.64V269h-1.566v-1.01c-.293.38-.674.673-1.142.878a3.658 3.658 0 0 1-1.509.308Zm.162-1.538c.458 0 .868-.112 1.229-.336.362-.225.65-.532.864-.923.215-.39.322-.839.322-1.347 0-.498-.107-.942-.322-1.332a2.447 2.447 0 0 0-.864-.923 2.284 2.284 0 0 0-1.229-.336 2.39 2.39 0 0 0-1.26.336 2.35 2.35 0 0 0-.849.923 2.82 2.82 0 0 0-.307 1.332c0 .508.102.957.307 1.347.205.391.488.698.849.923a2.39 2.39 0 0 0 1.26.336Zm5.328 3.705c1.406-2.07 2.108-4.281 2.108-6.633 0-2.352-.702-4.558-2.108-6.618h1.391c1.63 1.864 2.445 4.07 2.445 6.618s-.815 4.759-2.445 6.633h-1.391Z" opacity=".8"/><path fill="#000" d="M165.968 323.538v-3.22c-2.099-.306-3.963-1.096-5.59-2.37-1.628-1.274-2.772-2.914-3.433-4.919l4.494-2.016c.495 1.085 1.132 1.993 1.911 2.724a7.18 7.18 0 0 0 2.618 1.592v-6.227l-1.734-.566c-4.222-1.392-6.333-3.881-6.333-7.466 0-1.439.33-2.725.99-3.857.685-1.132 1.628-2.041 2.831-2.725 1.227-.684 2.642-1.097 4.246-1.238v-3.149h3.185v3.29c1.863.331 3.491 1.062 4.883 2.194 1.415 1.133 2.441 2.571 3.078 4.317l-4.458 2.017c-.708-1.769-1.876-2.949-3.503-3.538v6.262l1.627.531c4.223 1.368 6.334 3.822 6.334 7.36 0 1.415-.33 2.677-.991 3.786-.66 1.109-1.592 2.017-2.795 2.725-1.203.707-2.595 1.144-4.175 1.309v3.184h-3.185Zm-.248-19.991.248.07v-5.519c-.802.141-1.451.46-1.946.955-.472.495-.708 1.097-.708 1.804 0 1.251.802 2.147 2.406 2.69Zm3.68 6.687-.247-.071v5.379c.802-.142 1.427-.449 1.875-.92.472-.472.708-1.062.708-1.769 0-1.227-.779-2.1-2.336-2.619Zm9.004 9.766v-4.246l7.077-7.289c1.392-1.439 2.441-2.571 3.149-3.397.731-.849 1.227-1.557 1.486-2.123.283-.566.425-1.12.425-1.663 0-.967-.319-1.722-.956-2.265-.613-.566-1.391-.849-2.335-.849-.967 0-1.828.283-2.583.849-.755.543-1.309 1.38-1.663 2.513l-4.777-1.557c.283-1.368.873-2.56 1.769-3.574a8.983 8.983 0 0 1 3.256-2.335 9.736 9.736 0 0 1 3.998-.849c1.746 0 3.279.306 4.6.92 1.321.613 2.347 1.474 3.078 2.583.732 1.108 1.097 2.406 1.097 3.892 0 1.439-.377 2.83-1.132 4.175-.731 1.321-1.887 2.784-3.468 4.388l-6.05 6.227h10.898v4.6h-17.869Zm28.509.425c-1.817 0-3.432-.378-4.848-1.133-1.415-.778-2.524-1.828-3.326-3.149s-1.203-2.807-1.203-4.458c0-.826.083-1.651.248-2.477.165-.826.495-1.734.991-2.725.495-.99 1.238-2.123 2.229-3.396l7.324-9.448h6.546l-7.395 9.448h.425c1.627 0 3.066.365 4.316 1.097a7.747 7.747 0 0 1 2.973 3.007c.731 1.25 1.097 2.666 1.097 4.246 0 1.722-.402 3.267-1.204 4.635-.802 1.345-1.91 2.407-3.326 3.185-1.391.778-3.007 1.168-4.847 1.168Zm0-4.954c1.085 0 2.005-.366 2.76-1.097.755-.731 1.132-1.687 1.132-2.866 0-1.18-.377-2.123-1.132-2.831-.755-.731-1.675-1.097-2.76-1.097-1.085 0-2.005.366-2.76 1.097-.755.708-1.132 1.651-1.132 2.831 0 1.179.377 2.135 1.132 2.866.755.731 1.675 1.097 2.76 1.097Zm12.792 10.367v-2.653c.825-.189 1.497-.555 2.016-1.097.543-.519.897-1.215 1.062-2.088h-2.371v-5.308h5.308v3.079c0 4.553-2.005 7.242-6.015 8.067Zm20.371-5.413c-2.099 0-3.951-.567-5.555-1.699-1.58-1.132-2.819-2.724-3.715-4.777-.896-2.052-1.345-4.434-1.345-7.147 0-2.736.437-5.119 1.31-7.148.896-2.028 2.134-3.609 3.715-4.741 1.604-1.132 3.456-1.698 5.555-1.698 2.147 0 4.01.566 5.591 1.698 1.604 1.132 2.842 2.725 3.715 4.777.896 2.028 1.345 4.399 1.345 7.112s-.449 5.095-1.345 7.147c-.873 2.029-2.111 3.621-3.715 4.777-1.581 1.132-3.433 1.699-5.556 1.699Zm0-4.954c1.652 0 2.914-.767 3.786-2.3.897-1.533 1.345-3.656 1.345-6.369 0-2.713-.448-4.824-1.345-6.334-.872-1.533-2.146-2.3-3.821-2.3-1.628 0-2.89.755-3.786 2.265-.873 1.51-1.309 3.633-1.309 6.369 0 2.713.448 4.836 1.344 6.369.897 1.533 2.159 2.3 3.786 2.3ZM252.185 320v-4.246l7.076-7.289c1.392-1.439 2.442-2.571 3.149-3.397.732-.849 1.227-1.557 1.487-2.123.283-.566.424-1.12.424-1.663 0-.967-.318-1.722-.955-2.265-.614-.566-1.392-.849-2.336-.849-.967 0-1.828.283-2.583.849-.754.543-1.309 1.38-1.663 2.513l-4.776-1.557c.283-1.368.872-2.56 1.769-3.574a8.971 8.971 0 0 1 3.255-2.335 9.743 9.743 0 0 1 3.998-.849c1.746 0 3.279.306 4.6.92 1.321.613 2.347 1.474 3.079 2.583.731 1.108 1.097 2.406 1.097 3.892 0 1.439-.378 2.83-1.133 4.175-.731 1.321-1.887 2.784-3.467 4.388l-6.051 6.227h10.898v4.6h-17.868Zm30.207.425c-2.1 0-3.951-.567-5.556-1.699-1.58-1.132-2.818-2.724-3.715-4.777-.896-2.052-1.344-4.434-1.344-7.147 0-2.736.436-5.119 1.309-7.148.896-2.028 2.135-3.609 3.715-4.741 1.604-1.132 3.456-1.698 5.555-1.698 2.147 0 4.01.566 5.591 1.698 1.604 1.132 2.842 2.725 3.715 4.777.897 2.028 1.345 4.399 1.345 7.112s-.448 5.095-1.345 7.147c-.873 2.029-2.111 3.621-3.715 4.777-1.581 1.132-3.432 1.699-5.555 1.699Zm0-4.954c1.651 0 2.913-.767 3.786-2.3.896-1.533 1.344-3.656 1.344-6.369 0-2.713-.448-4.824-1.344-6.334-.873-1.533-2.147-2.3-3.822-2.3-1.627 0-2.889.755-3.786 2.265-.873 1.51-1.309 3.633-1.309 6.369 0 2.713.448 4.836 1.345 6.369.896 1.533 2.158 2.3 3.786 2.3Z"/><path fill="#030A11" d="M95.44 59.325c0-10.157 8.233-18.39 18.39-18.39h222.9c10.157 0 18.391 8.233 18.391 18.39v93.35c0 10.156-8.234 18.39-18.391 18.39h-222.9c-10.157 0-18.39-8.234-18.39-18.39v-93.35Z"/><path stroke="#fff" stroke-opacity=".15" stroke-width="1.149" d="M113.83 41.509h222.9c9.84 0 17.816 7.977 17.816 17.816v93.35c0 9.839-7.976 17.815-17.816 17.815h-222.9c-9.839 0-17.816-7.976-17.816-17.815v-93.35c0-9.84 7.977-17.816 17.816-17.816Z"/><path fill="#fff" d="M115.604 86.964V76.688h3.366c1.066 0 1.99.216 2.772.648a4.563 4.563 0 0 1 1.834 1.807c.433.764.649 1.656.649 2.676 0 1.012-.216 1.908-.649 2.69a4.562 4.562 0 0 1-1.834 1.807c-.782.432-1.706.648-2.772.648h-3.366Zm1.628-1.448h1.765c.727 0 1.357-.152 1.89-.456a3.125 3.125 0 0 0 1.255-1.282c.294-.552.441-1.205.441-1.959s-.151-1.407-.455-1.958a3.058 3.058 0 0 0-1.241-1.27c-.533-.303-1.163-.454-1.89-.454h-1.765v7.379Zm11.809 1.613c-.745 0-1.407-.17-1.986-.51a3.712 3.712 0 0 1-1.338-1.407 4.148 4.148 0 0 1-.483-2c0-.745.161-1.407.483-1.986a3.572 3.572 0 0 1 3.2-1.89c.745 0 1.384.17 1.917.51.534.332.938.773 1.214 1.325.285.542.428 1.135.428 1.78 0 .119-.005.243-.014.372a2.133 2.133 0 0 1-.055.358h-5.559c.046.635.276 1.14.69 1.517.423.368.929.552 1.517.552.451 0 .832-.101 1.145-.303a2.39 2.39 0 0 0 .758-.787l1.269.621c-.229.533-.629.975-1.2 1.324-.57.35-1.232.524-1.986.524Zm-.124-6.482a2.03 2.03 0 0 0-1.338.469c-.368.312-.597.754-.689 1.324h3.931c-.028-.524-.226-.952-.594-1.283a1.832 1.832 0 0 0-1.31-.51Zm8.928 6.482a3.572 3.572 0 0 1-1.448-.29 2.606 2.606 0 0 1-1.049-.827v.952h-1.489V76.523h1.558v3.848a2.683 2.683 0 0 1 1.035-.759 3.394 3.394 0 0 1 1.393-.275c.708 0 1.342.17 1.903.51a3.61 3.61 0 0 1 1.338 1.393c.331.588.497 1.25.497 1.986s-.166 1.398-.497 1.986a3.712 3.712 0 0 1-1.338 1.407c-.561.34-1.195.51-1.903.51Zm-.152-1.448a2.15 2.15 0 0 0 1.159-.317 2.19 2.19 0 0 0 .814-.869c.202-.368.303-.79.303-1.269 0-.469-.101-.887-.303-1.255a2.189 2.189 0 0 0-.814-.869 2.15 2.15 0 0 0-1.159-.317c-.441 0-.832.106-1.172.317-.34.211-.612.501-.814.869a2.66 2.66 0 0 0-.29 1.255c0 .478.097.901.29 1.269.202.368.474.657.814.869.34.211.731.317 1.172.317Zm8.361 1.366c-.782 0-1.389-.221-1.821-.662-.432-.442-.648-1.063-.648-1.862v-3.614h-1.31v-1.407h.206c.341 0 .607-.096.8-.29.203-.202.304-.482.304-.841v-.58h1.558v1.711h1.697v1.407h-1.697v3.545c0 .386.092.685.276.896.193.212.515.317.966.317.165 0 .335-.013.51-.041v1.338a4.421 4.421 0 0 1-.841.083Zm4.649-.083V76.688h6.689v1.448h-5.061v3.09h4.51v1.448h-4.51v4.29h-1.628Zm7.765-8.483v-1.793h1.559v1.793h-1.559Zm0 8.483v-7.462h1.559v7.462h-1.559Zm2.498 0 2.607-3.738-2.607-3.724h1.835l1.696 2.483 1.697-2.483h1.834l-2.621 3.724 2.607 3.738h-1.834l-1.683-2.497-1.696 2.497h-1.835Zm15.199.165a5.272 5.272 0 0 1-2.027-.386 4.94 4.94 0 0 1-1.614-1.117 5.176 5.176 0 0 1-1.076-1.683 5.862 5.862 0 0 1-.372-2.124c0-.763.124-1.466.372-2.11a5.31 5.31 0 0 1 1.062-1.683c.46-.478.998-.846 1.614-1.103a5.148 5.148 0 0 1 2.041-.4c.717 0 1.361.124 1.931.372a4.483 4.483 0 0 1 1.462.98c.405.404.694.836.869 1.296l-1.462.69a2.926 2.926 0 0 0-1.062-1.338c-.478-.35-1.057-.524-1.738-.524-.68 0-1.283.16-1.807.482a3.3 3.3 0 0 0-1.227 1.352c-.285.57-.428 1.232-.428 1.986 0 .763.143 1.435.428 2.014a3.32 3.32 0 0 0 1.227 1.338c.524.312 1.127.469 1.807.469.681 0 1.26-.17 1.738-.51.487-.34.841-.787 1.062-1.338l1.462.69a3.665 3.665 0 0 1-.869 1.31 4.603 4.603 0 0 1-1.462.965c-.57.248-1.214.372-1.931.372Zm9.111 0a4.002 4.002 0 0 1-1.972-.496 3.864 3.864 0 0 1-1.407-1.393c-.349-.589-.524-1.26-.524-2.014 0-.745.17-1.411.51-2a3.758 3.758 0 0 1 1.407-1.38c.598-.34 1.26-.51 1.986-.51.727 0 1.384.17 1.973.51a3.65 3.65 0 0 1 1.393 1.38c.349.58.524 1.246.524 2s-.175 1.425-.524 2.014a3.864 3.864 0 0 1-1.407 1.393 3.926 3.926 0 0 1-1.959.496Zm0-1.448c.433 0 .819-.106 1.159-.317.34-.212.611-.501.814-.869.202-.377.303-.8.303-1.269 0-.469-.101-.887-.303-1.255a2.322 2.322 0 0 0-.814-.869 2.148 2.148 0 0 0-1.159-.317c-.432 0-.823.106-1.172.317-.34.211-.611.501-.814.869a2.66 2.66 0 0 0-.289 1.255c0 .469.096.892.289 1.269.203.368.474.657.814.869.349.211.74.317 1.172.317Zm8.032 1.448c-.772 0-1.443-.188-2.014-.565a3.005 3.005 0 0 1-1.2-1.517l1.2-.566c.203.432.479.773.828 1.02.359.24.754.36 1.186.36.368 0 .667-.083.897-.249a.79.79 0 0 0 .345-.676c0-.266-.106-.464-.318-.593a2.333 2.333 0 0 0-.676-.303l-1.172-.331c-.644-.184-1.126-.46-1.448-.828a1.956 1.956 0 0 1-.469-1.31c0-.442.115-.828.345-1.159.23-.34.542-.602.938-.786a3.16 3.16 0 0 1 1.379-.29c.68 0 1.287.17 1.82.51a2.69 2.69 0 0 1 1.132 1.394l-1.2.565a1.922 1.922 0 0 0-.718-.855 1.827 1.827 0 0 0-1.048-.317c-.349 0-.625.083-.827.248a.757.757 0 0 0-.29.62c0 .268.096.465.29.594.202.12.422.216.662.29l1.213.358c.607.175 1.076.45 1.407.828.34.368.511.809.511 1.324 0 .441-.12.832-.359 1.172-.23.331-.552.593-.966.787-.413.183-.896.275-1.448.275Zm7.389-.082c-.781 0-1.388-.221-1.82-.662-.433-.442-.649-1.063-.649-1.862v-3.614h-1.31v-1.407h.207c.34 0 .607-.096.8-.29.202-.202.303-.482.303-.841v-.58h1.559v1.711h1.696v1.407h-1.696v3.545c0 .386.092.685.276.896.193.212.515.317.965.317.166 0 .336-.013.511-.041v1.338a4.44 4.44 0 0 1-.842.083Zm6.691 2.124c-1.527-1.766-2.29-3.849-2.29-6.248 0-2.4.763-4.478 2.29-6.235h1.31c-1.324 1.94-1.986 4.019-1.986 6.235s.662 4.298 1.986 6.248h-1.31Zm4.573-2.207-2.827-10.276h1.724l2.069 8.083 2.165-8.083h1.697l2.138 8.069 2.096-8.069h1.71l-2.813 10.276h-1.835l-2.151-7.876-2.152 7.876h-1.821Zm11.694-8.483v-1.793h1.558v1.793h-1.558Zm0 8.483v-7.462h1.558v7.462h-1.558Zm6.47.083c-.781 0-1.388-.221-1.82-.662-.433-.442-.649-1.063-.649-1.862v-3.614h-1.31v-1.407h.207c.34 0 .607-.096.8-.29.202-.202.303-.482.303-.841v-.58h1.559v1.711h1.696v1.407h-1.696v3.545c0 .386.092.685.276.896.193.212.515.317.965.317.166 0 .336-.013.511-.041v1.338a4.432 4.432 0 0 1-.842.083Zm2.225-.083V76.523h1.558v3.779c.212-.313.492-.552.842-.717a2.825 2.825 0 0 1 1.2-.248c.542 0 1.025.119 1.448.358.423.24.754.57.993.993.248.423.372.906.372 1.448v4.828h-1.545v-4.4c0-.552-.156-.984-.468-1.296-.313-.322-.708-.483-1.187-.483-.478 0-.873.16-1.186.483-.312.312-.469.744-.469 1.296v4.4h-1.558Zm11.543.165a4.002 4.002 0 0 1-1.972-.496 3.857 3.857 0 0 1-1.407-1.393c-.349-.589-.524-1.26-.524-2.014 0-.745.17-1.411.51-2a3.758 3.758 0 0 1 1.407-1.38c.598-.34 1.26-.51 1.986-.51.727 0 1.384.17 1.973.51a3.65 3.65 0 0 1 1.393 1.38c.349.58.524 1.246.524 2s-.175 1.425-.524 2.014a3.864 3.864 0 0 1-1.407 1.393 3.926 3.926 0 0 1-1.959.496Zm0-1.448a2.15 2.15 0 0 0 1.159-.317c.34-.212.611-.501.814-.869.202-.377.303-.8.303-1.269 0-.469-.101-.887-.303-1.255a2.322 2.322 0 0 0-.814-.869 2.15 2.15 0 0 0-1.159-.317c-.432 0-.823.106-1.172.317-.34.211-.612.501-.814.869a2.66 2.66 0 0 0-.289 1.255c0 .469.096.892.289 1.269.202.368.474.657.814.869.349.211.74.317 1.172.317Zm7.936 1.448c-.561 0-1.053-.124-1.476-.372a2.696 2.696 0 0 1-.993-1.062c-.23-.46-.345-.988-.345-1.586v-4.607h1.558v4.469c0 .515.152.929.456 1.241.303.313.698.47 1.186.47.487 0 .887-.157 1.2-.47.312-.322.469-.758.469-1.31v-4.4h1.544v7.462h-1.475v-.91a2.07 2.07 0 0 1-.883.8 2.739 2.739 0 0 1-1.241.275Zm8.509-.082c-.782 0-1.389-.221-1.821-.662-.432-.442-.648-1.063-.648-1.862v-3.614h-1.31v-1.407h.206c.341 0 .607-.096.8-.29.203-.202.304-.482.304-.841v-.58h1.558v1.711h1.697v1.407h-1.697v3.545c0 .386.092.685.276.896.193.212.515.317.966.317.165 0 .335-.013.51-.041v1.338a4.421 4.421 0 0 1-.841.083Zm9.435.082a5.272 5.272 0 0 1-2.027-.386 4.93 4.93 0 0 1-1.614-1.117 5.16 5.16 0 0 1-1.076-1.683 5.862 5.862 0 0 1-.372-2.124c0-.763.124-1.466.372-2.11a5.274 5.274 0 0 1 1.062-1.683c.46-.478.998-.846 1.614-1.103a5.145 5.145 0 0 1 2.041-.4c.717 0 1.361.124 1.931.372a4.483 4.483 0 0 1 1.462.98c.405.404.694.836.869 1.296l-1.462.69a2.926 2.926 0 0 0-1.062-1.338c-.478-.35-1.057-.524-1.738-.524-.68 0-1.283.16-1.807.482a3.3 3.3 0 0 0-1.227 1.352c-.285.57-.428 1.232-.428 1.986 0 .763.143 1.435.428 2.014a3.32 3.32 0 0 0 1.227 1.338c.524.312 1.127.469 1.807.469.681 0 1.26-.17 1.738-.51.487-.34.841-.787 1.062-1.338l1.462.69a3.665 3.665 0 0 1-.869 1.31 4.603 4.603 0 0 1-1.462.965c-.57.248-1.214.372-1.931.372Zm9.111 0a4.002 4.002 0 0 1-1.972-.496 3.849 3.849 0 0 1-1.407-1.393c-.349-.589-.524-1.26-.524-2.014 0-.745.17-1.411.51-2a3.758 3.758 0 0 1 1.407-1.38c.598-.34 1.26-.51 1.986-.51.727 0 1.384.17 1.973.51.588.332 1.052.792 1.393 1.38.349.58.524 1.246.524 2s-.175 1.425-.524 2.014a3.864 3.864 0 0 1-1.407 1.393 3.928 3.928 0 0 1-1.959.496Zm0-1.448a2.15 2.15 0 0 0 1.159-.317c.34-.212.611-.501.814-.869.202-.377.303-.8.303-1.269 0-.469-.101-.887-.303-1.255a2.322 2.322 0 0 0-.814-.869 2.15 2.15 0 0 0-1.159-.317c-.432 0-.823.106-1.172.317-.34.211-.612.501-.814.869a2.66 2.66 0 0 0-.29 1.255c0 .469.097.892.29 1.269.202.368.474.657.814.869.349.211.74.317 1.172.317Zm8.722 1.448c-.718 0-1.361-.17-1.931-.51a3.853 3.853 0 0 1-1.338-1.407c-.322-.588-.483-1.25-.483-1.986s.161-1.398.483-1.986a3.744 3.744 0 0 1 1.338-1.393c.57-.34 1.209-.51 1.917-.51.515 0 .979.091 1.393.275.414.175.763.428 1.048.759v-3.848h1.545v10.44h-1.476v-.95a2.686 2.686 0 0 1-1.076.827c-.432.193-.905.29-1.42.29Zm.151-1.448c.433 0 .819-.106 1.159-.317.34-.212.611-.501.814-.869.202-.368.303-.79.303-1.269 0-.469-.101-.887-.303-1.255a2.322 2.322 0 0 0-.814-.869 2.148 2.148 0 0 0-1.159-.317c-.441 0-.836.106-1.186.317-.34.211-.607.501-.8.869a2.66 2.66 0 0 0-.289 1.255c0 .478.096.901.289 1.269.193.368.46.657.8.869.35.211.745.317 1.186.317Zm9.006 1.448c-.745 0-1.407-.17-1.986-.51a3.712 3.712 0 0 1-1.338-1.407 4.148 4.148 0 0 1-.483-2c0-.745.161-1.407.483-1.986a3.573 3.573 0 0 1 3.2-1.89c.745 0 1.384.17 1.917.51a3.24 3.24 0 0 1 1.214 1.325c.285.542.427 1.135.427 1.78 0 .119-.004.243-.013.372a2.13 2.13 0 0 1-.056.358h-5.558c.046.635.276 1.14.69 1.517.423.368.928.552 1.517.552.45 0 .832-.101 1.145-.303a2.39 2.39 0 0 0 .758-.787l1.269.621c-.23.533-.63.975-1.2 1.324-.57.35-1.232.524-1.986.524Zm-.124-6.482a2.03 2.03 0 0 0-1.338.469c-.368.312-.598.754-.69 1.324h3.931c-.027-.524-.225-.952-.593-1.283a1.832 1.832 0 0 0-1.31-.51Zm4.942 6.317v-7.462h1.489v.924c.202-.359.483-.63.842-.814a2.7 2.7 0 0 1 1.227-.275c.506 0 .966.114 1.379.344.414.23.731.538.952.924.257-.423.589-.74.993-.951a2.874 2.874 0 0 1 1.352-.317c.515 0 .979.119 1.393.358.423.24.758.57 1.007.993.248.423.372.906.372 1.448v4.828h-1.558v-4.4c0-.552-.148-.984-.442-1.296-.285-.322-.662-.483-1.131-.483s-.855.16-1.158.483c-.295.312-.442.744-.442 1.296v4.4h-1.545v-4.4c0-.552-.147-.984-.441-1.296-.294-.322-.676-.483-1.145-.483s-.85.16-1.145.483c-.294.312-.441.744-.441 1.296v4.4h-1.558Zm16.136.165a4.002 4.002 0 0 1-1.972-.496 3.849 3.849 0 0 1-1.407-1.393c-.349-.589-.524-1.26-.524-2.014 0-.745.17-1.411.51-2a3.758 3.758 0 0 1 1.407-1.38c.598-.34 1.26-.51 1.986-.51.727 0 1.384.17 1.973.51.588.332 1.052.792 1.393 1.38.349.58.524 1.246.524 2s-.175 1.425-.524 2.014a3.864 3.864 0 0 1-1.407 1.393 3.928 3.928 0 0 1-1.959.496Zm0-1.448a2.15 2.15 0 0 0 1.159-.317c.34-.212.611-.501.814-.869.202-.377.303-.8.303-1.269 0-.469-.101-.887-.303-1.255a2.322 2.322 0 0 0-.814-.869 2.15 2.15 0 0 0-1.159-.317c-.432 0-.823.106-1.172.317-.34.211-.612.501-.814.869a2.66 2.66 0 0 0-.29 1.255c0 .469.097.892.29 1.269.202.368.474.657.814.869.349.211.74.317 1.172.317Zm8.722 1.448c-.718 0-1.361-.17-1.931-.51a3.853 3.853 0 0 1-1.338-1.407c-.322-.588-.483-1.25-.483-1.986s.161-1.398.483-1.986a3.744 3.744 0 0 1 1.338-1.393c.57-.34 1.209-.51 1.917-.51.515 0 .979.091 1.393.275.414.175.763.428 1.048.759v-3.848h1.545v10.44h-1.476v-.95a2.686 2.686 0 0 1-1.076.827c-.432.193-.905.29-1.42.29Zm.151-1.448c.433 0 .819-.106 1.159-.317.34-.212.611-.501.814-.869.202-.368.303-.79.303-1.269 0-.469-.101-.887-.303-1.255a2.322 2.322 0 0 0-.814-.869 2.148 2.148 0 0 0-1.159-.317c-.441 0-.836.106-1.186.317-.34.211-.607.501-.8.869a2.66 2.66 0 0 0-.289 1.255c0 .478.096.901.289 1.269.193.368.46.657.8.869.35.211.745.317 1.186.317Zm5.02 3.49c1.324-1.95 1.986-4.032 1.986-6.248s-.662-4.294-1.986-6.235h1.31c1.536 1.757 2.304 3.835 2.304 6.235 0 2.4-.768 4.482-2.304 6.248h-1.31ZM160.92 138.369v-3.033c-2-.267-3.745-1-5.233-2.2a9.718 9.718 0 0 1-3.134-4.6l3.767-1.633c.467 1.111 1.089 2.044 1.867 2.8a6.383 6.383 0 0 0 2.733 1.5v-6.7l-1.6-.533c-1.933-.622-3.389-1.522-4.367-2.7-.977-1.2-1.466-2.611-1.466-4.233 0-1.334.311-2.523.933-3.567.622-1.044 1.489-1.878 2.6-2.5 1.111-.644 2.411-1.022 3.9-1.133v-2.967h2.833v3.1c1.756.311 3.278 1 4.567 2.067a9.145 9.145 0 0 1 2.8 3.966l-3.734 1.667c-.733-1.822-1.944-3.011-3.633-3.567v6.767l1.467.433c3.955 1.267 5.933 3.556 5.933 6.867 0 1.311-.311 2.477-.933 3.5-.623 1.022-1.489 1.855-2.6 2.499-1.111.645-2.4 1.045-3.867 1.2v3h-2.833Zm-.267-18.499.267.1v-6.133c-.911.133-1.633.466-2.167 1-.533.533-.8 1.2-.8 2 0 1.444.9 2.455 2.7 3.033Zm3.433 5.633-.333-.1v5.967c.911-.134 1.622-.456 2.133-.967.534-.533.8-1.189.8-1.967 0-.733-.222-1.333-.666-1.8-.423-.466-1.067-.844-1.934-1.133Zm14.182 9.533V114.07h-4.8v-3.867h9.333v24.833h-4.533Zm17.11.4a10.31 10.31 0 0 1-3.866-.733 9.193 9.193 0 0 1-3.1-2.133 7.514 7.514 0 0 1-1.734-3.3l3.967-1.4c.4 1.133 1.011 2 1.833 2.6.823.577 1.789.866 2.9.866 1.311 0 2.378-.366 3.2-1.1.822-.755 1.233-1.789 1.233-3.1 0-1.289-.411-2.3-1.233-3.033-.8-.733-1.878-1.1-3.233-1.1-.933 0-1.778.178-2.533.533l-1.034-2.166 6.433-7.333h-10.133v-3.834h15.233v3.567l-5.1 6c1.845.289 3.323 1.078 4.434 2.366 1.133 1.289 1.7 2.912 1.7 4.867 0 1.6-.389 3.044-1.167 4.333-.778 1.267-1.844 2.267-3.2 3-1.355.733-2.889 1.1-4.6 1.1Zm22.077 0c-1.955 0-3.689-.533-5.2-1.6-1.488-1.066-2.655-2.566-3.5-4.5-.822-1.933-1.233-4.177-1.233-6.733 0-2.555.411-4.789 1.233-6.7.823-1.933 1.978-3.433 3.467-4.5 1.511-1.066 3.244-1.6 5.2-1.6 2 0 3.744.534 5.233 1.6 1.511 1.067 2.678 2.567 3.5 4.5.844 1.911 1.267 4.145 1.267 6.7 0 2.556-.423 4.8-1.267 6.733-.822 1.911-1.978 3.411-3.467 4.5-1.488 1.067-3.233 1.6-5.233 1.6Zm0-4.133c1.711 0 3.045-.778 4-2.333.956-1.556 1.433-3.678 1.433-6.367s-.488-4.8-1.466-6.333c-.956-1.556-2.289-2.333-4-2.333-1.667 0-2.978.777-3.933 2.333-.956 1.533-1.434 3.644-1.434 6.333s.478 4.811 1.434 6.367c.955 1.555 2.277 2.333 3.966 2.333Zm14.9 8.933v-2.167c1.533-.377 2.411-1.388 2.633-3.033h-1.966v-4.666h4.4v2.866c0 3.956-1.689 6.289-5.067 7Zm12.742-5.2V114.07h-4.8v-3.867h9.333v24.833h-4.533Zm19.143.4c-1.955 0-3.688-.533-5.199-1.6-1.489-1.066-2.656-2.566-3.5-4.5-.823-1.933-1.234-4.177-1.234-6.733 0-2.555.411-4.789 1.234-6.7.822-1.933 1.977-3.433 3.466-4.5 1.511-1.066 3.245-1.6 5.2-1.6 2 0 3.744.534 5.233 1.6 1.511 1.067 2.678 2.567 3.5 4.5.845 1.911 1.267 4.145 1.267 6.7 0 2.556-.422 4.8-1.267 6.733-.822 1.911-1.978 3.411-3.466 4.5-1.489 1.067-3.234 1.6-5.234 1.6Zm0-4.133c1.711 0 3.045-.778 4-2.333.956-1.556 1.434-3.678 1.434-6.367s-.489-4.8-1.467-6.333c-.956-1.556-2.289-2.333-4-2.333-1.667 0-2.978.777-3.933 2.333-.956 1.533-1.433 3.644-1.433 6.333s.477 4.811 1.433 6.367c.955 1.555 2.278 2.333 3.966 2.333Zm23.267 4.133c-1.956 0-3.689-.533-5.2-1.6-1.489-1.066-2.656-2.566-3.5-4.5-.822-1.933-1.233-4.177-1.233-6.733 0-2.555.411-4.789 1.233-6.7.822-1.933 1.978-3.433 3.467-4.5 1.511-1.066 3.244-1.6 5.199-1.6 2 0 3.745.534 5.234 1.6 1.511 1.067 2.677 2.567 3.499 4.5.845 1.911 1.267 4.145 1.267 6.7 0 2.556-.422 4.8-1.267 6.733-.822 1.911-1.977 3.411-3.466 4.5-1.489 1.067-3.233 1.6-5.233 1.6Zm0-4.133c1.711 0 3.044-.778 4-2.333.955-1.556 1.433-3.678 1.433-6.367s-.489-4.8-1.467-6.333c-.955-1.556-2.289-2.333-4-2.333-1.666 0-2.977.777-3.933 2.333-.955 1.533-1.433 3.644-1.433 6.333s.478 4.811 1.433 6.367c.956 1.555 2.278 2.333 3.967 2.333Z" opacity=".5"/><rect width="34" height="34" x="209" y="203" fill="#040613" rx="17"/><path fill="#D6FF62" d="M226 204.259c-8.692 0-15.741 7.045-15.741 15.741 0 8.695 7.049 15.74 15.741 15.74s15.741-7.048 15.741-15.74c0-8.693-7.046-15.741-15.741-15.741Zm-9.574 21.527 5.582-14.286h1.858l-5.598 14.286h-1.842Zm11.057.236c-2.849 0-4.729-2.018-4.729-5.065 0-3.048 1.921-5.135 4.751-5.126 2.345.01 4.105 1.357 4.47 3.542h-1.86c-.315-1.225-1.307-1.879-2.554-1.879-1.759 0-2.965 1.347-2.965 3.444 0 2.096 1.127 3.422 2.887 3.422 1.325 0 2.317-.693 2.654-1.839h1.857c-.375 2.097-2.175 3.501-4.511 3.501Zm6.926 0c-.753 0-1.423-.633-1.423-1.385 0-.753.651-1.404 1.423-1.404.771 0 1.404.632 1.404 1.404 0 .771-.652 1.385-1.404 1.385Z"/><path stroke="#fff" stroke-dasharray="2 2" stroke-linecap="round" stroke-opacity=".15" d="M136 171.5c15.333 16.647 57.1 50 89.5 50M315.5 171.5c-15.333 16.647-57.1 50-89.5 50"/></g><defs><clipPath id="a"><path fill="#fff" d="M0 0h450v390H0z"/></clipPath></defs></svg>
