<svg xmlns="http://www.w3.org/2000/svg" width="450" height="390" fill="none"><g clip-path="url(#a)"><path fill="#050D15" d="M0 0h450v390H0z"/><path stroke="#fff" stroke-opacity=".1" d="M30 0H0v30M30 0v30m0-30h30M30 30H0m30 0h30m-30 0v30M0 30v30M60 0v30m0-30h30M60 30h30m-30 0v30M90 0v30m0-30h30M90 30h30m-30 0v30m30-60v30m0-30h30m-30 30h30m-30 0v30m30-60v30m0-30h30m-30 30h30m-30 0v30m30-60v30m0-30h30m-30 30h30m-30 0v30m30-60v30m0-30h30m-30 30h30m-30 0v30m30-60v30m0-30h30m-30 30h30m-30 0v30m30-60v30m0-30h30m-30 30h30m-30 0v30m30-60v30m0-30h30m-30 30h30m-30 0v30m30-60v30m0-30h30m-30 30h30m-30 0v30m30-60v30m0-30h30m-30 30h30m-30 0v30m30-60v30m0-30h30m-30 30h30m-30 0v30m30-60v30m0-30h30v30m-30 0h30m-30 0v30m30-30v30M30 60H0m30 0h30m-30 0v30M0 60v30m60-30h30m-30 0v30m30-30h30m-30 0v30m30-30h30m-30 0v30m30-30h30m-30 0v30m30-30h30m-30 0v30m30-30h30m-30 0v30m30-30h30m-30 0v30m30-30h30m-30 0v30m30-30h30m-30 0v30m30-30h30m-30 0v30m30-30h30m-30 0v30m30-30h30m-30 0v30m30-30h30m-30 0v30m30-30v30M30 90H0m30 0h30m-30 0v30M0 90v30m60-30h30m-30 0v30m30-30h30m-30 0v30m30-30h30m-30 0v30m30-30h30m-30 0v30m30-30h30m-30 0v30m30-30h30m-30 0v30m30-30h30m-30 0v30m30-30h30m-30 0v30m30-30h30m-30 0v30m30-30h30m-30 0v30m30-30h30m-30 0v30m30-30h30m-30 0v30m30-30h30m-30 0v30m30-30v30m-420 0H0m30 0h30m-30 0v30M0 120v30m60-30h30m-30 0v30m30-30h30m-30 0v30m30-30h30m-30 0v30m30-30h30m-30 0v30m30-30h30m-30 0v30m30-30h30m-30 0v30m30-30h30m-30 0v30m30-30h30m-30 0v30m30-30h30m-30 0v30m30-30h30m-30 0v30m30-30h30m-30 0v30m30-30h30m-30 0v30m30-30h30m-30 0v30m30-30v30m-420 0H0m30 0h30m-30 0v30M0 150v30m60-30h30m-30 0v30m30-30h30m-30 0v30m30-30h30m-30 0v30m30-30h30m-30 0v30m30-30h30m-30 0v30m30-30h30m-30 0v30m30-30h30m-30 0v30m30-30h30m-30 0v30m30-30h30m-30 0v30m30-30h30m-30 0v30m30-30h30m-30 0v30m30-30h30m-30 0v30m30-30h30m-30 0v30m30-30v30m-420 0H0m30 0h30m-30 0v30M0 180v30m60-30h30m-30 0v30m30-30h30m-30 0v30m30-30h30m-30 0v30m30-30h30m-30 0v30m30-30h30m-30 0v30m30-30h30m-30 0v30m30-30h30m-30 0v30m30-30h30m-30 0v30m30-30h30m-30 0v30m30-30h30m-30 0v30m30-30h30m-30 0v30m30-30h30m-30 0v30m30-30h30m-30 0v30m30-30v30m-420 0H0m30 0h30m-30 0v30M0 210v30m60-30h30m-30 0v30m30-30h30m-30 0v30m30-30h30m-30 0v30m30-30h30m-30 0v30m30-30h30m-30 0v30m30-30h30m-30 0v30m30-30h30m-30 0v30m30-30h30m-30 0v30m30-30h30m-30 0v30m30-30h30m-30 0v30m30-30h30m-30 0v30m30-30h30m-30 0v30m30-30h30m-30 0v30m30-30v30m-420 0H0m30 0h30m-30 0v30M0 240v30m60-30h30m-30 0v30m30-30h30m-30 0v30m30-30h30m-30 0v30m30-30h30m-30 0v30m30-30h30m-30 0v30m30-30h30m-30 0v30m30-30h30m-30 0v30m30-30h30m-30 0v30m30-30h30m-30 0v30m30-30h30m-30 0v30m30-30h30m-30 0v30m30-30h30m-30 0v30m30-30h30m-30 0v30m30-30v30m-420 0H0m30 0h30m-30 0v30M0 270v30m60-30h30m-30 0v30m30-30h30m-30 0v30m30-30h30m-30 0v30m30-30h30m-30 0v30m30-30h30m-30 0v30m30-30h30m-30 0v30m30-30h30m-30 0v30m30-30h30m-30 0v30m30-30h30m-30 0v30m30-30h30m-30 0v30m30-30h30m-30 0v30m30-30h30m-30 0v30m30-30h30m-30 0v30m30-30v30m-420 0H0m30 0h30m-30 0v30M0 300v30m60-30h30m-30 0v30m30-30h30m-30 0v30m30-30h30m-30 0v30m30-30h30m-30 0v30m30-30h30m-30 0v30m30-30h30m-30 0v30m30-30h30m-30 0v30m30-30h30m-30 0v30m30-30h30m-30 0v30m30-30h30m-30 0v30m30-30h30m-30 0v30m30-30h30m-30 0v30m30-30h30m-30 0v30m30-30v30m-420 0H0m30 0h30m-30 0v30M0 330v30m60-30h30m-30 0v30m30-30h30m-30 0v30m30-30h30m-30 0v30m30-30h30m-30 0v30m30-30h30m-30 0v30m30-30h30m-30 0v30m30-30h30m-30 0v30m30-30h30m-30 0v30m30-30h30m-30 0v30m30-30h30m-30 0v30m30-30h30m-30 0v30m30-30h30m-30 0v30m30-30h30m-30 0v30m30-30v30m-420 0H0m30 0h30m-30 0v30M0 360v30h30m30-30h30m-30 0v30m30-30h30m-30 0v30m30-30h30m-30 0v30m30-30h30m-30 0v30m30-30h30m-30 0v30m30-30h30m-30 0v30m30-30h30m-30 0v30m30-30h30m-30 0v30m30-30h30m-30 0v30m30-30h30m-30 0v30m30-30h30m-30 0v30m30-30h30m-30 0v30m30-30h30m-30 0v30m30-30v30h-30m-390 0h30m0 0h30m0 0h30m0 0h30m0 0h30m0 0h30m0 0h30m0 0h30m0 0h30m0 0h30m0 0h30m0 0h30m0 0h30" opacity=".8"/><path fill="#030A11" d="M90 50c0-11.046 8.954-20 20-20h230c11.046 0 20 8.954 20 20v12H90V50Z"/><path stroke="#fff" stroke-opacity=".15" opacity="0.7" d="M110 30.5h230c10.77 0 19.5 8.73 19.5 19.5v11.5h-269V50c0-10.77 8.73-19.5 19.5-19.5Z"/><path fill="#030A11" d="M61 65c0-11.046 8.954-20 20-20h288c11.046 0 20 8.954 20 20v12H61V65Z"/><path stroke="#fff" stroke-opacity=".15" opacity="0.8" d="M81 45.5h288c10.77 0 19.5 8.73 19.5 19.5v11.5h-327V65c0-10.77 8.73-19.5 19.5-19.5Z"/><rect width="359" height="350" x="46" y="60" fill="#030A11" rx="20"/><rect width="358" height="349" x="46.5" y="60.5" stroke="#fff" stroke-opacity=".15" rx="19.5"/><path fill="#fff" d="M70.459 112V99.5h-3.86v-2.4h10.4v2.4h-3.8V112h-2.74Zm11.534.24c-1.12 0-2.1-.253-2.94-.76a5.337 5.337 0 0 1-1.96-2.04c-.467-.867-.7-1.833-.7-2.9 0-1.08.233-2.047.7-2.9a5.43 5.43 0 0 1 1.94-2.02c.813-.493 1.733-.74 2.76-.74 1.12 0 2.073.247 2.86.74a4.792 4.792 0 0 1 1.8 1.92c.426.8.64 1.687.64 2.66 0 .2-.014.4-.04.6a1.846 1.846 0 0 1-.1.5h-7.84c.08.813.386 1.46.92 1.94.533.467 1.193.7 1.98.7.6 0 1.106-.127 1.52-.38.426-.253.76-.593 1-1.02l2.12 1.04c-.334.773-.92 1.413-1.76 1.92-.827.493-1.794.74-2.9.74Zm-.2-9.2c-.654 0-1.22.2-1.7.6-.467.387-.774.94-.92 1.66h5.12c-.054-.667-.314-1.207-.78-1.62-.454-.427-1.027-.64-1.72-.64Zm10.346 9.2c-1.133 0-2.04-.28-2.72-.84-.68-.56-1.02-1.32-1.02-2.28 0-.907.307-1.66.92-2.26.614-.6 1.56-1.007 2.84-1.22l3.24-.52v-.36c0-.467-.186-.853-.56-1.16-.36-.32-.84-.48-1.44-.48-.573 0-1.073.153-1.5.46a2.57 2.57 0 0 0-.94 1.18l-2.14-1.04c.32-.853.907-1.54 1.76-2.06.854-.52 1.827-.78 2.92-.78.894 0 1.674.167 2.34.5.68.333 1.214.793 1.6 1.38.387.573.58 1.24.58 2V112h-2.48v-1.14c-.853.92-1.986 1.38-3.4 1.38Zm-1.02-3.22c0 .373.14.673.42.9.28.213.64.32 1.08.32.827 0 1.494-.253 2-.76.52-.52.78-1.16.78-1.92v-.44l-2.74.46c-1.026.187-1.54.667-1.54 1.44Zm9.122 2.98v-10.88h2.46v1.36a2.84 2.84 0 0 1 1.24-1.2c.533-.267 1.133-.393 1.8-.38.733-.013 1.393.14 1.98.46.6.32 1.06.747 1.38 1.28a3.629 3.629 0 0 1 1.42-1.32 4.326 4.326 0 0 1 1.96-.44c.773 0 1.46.18 2.06.54a3.745 3.745 0 0 1 1.44 1.44c.347.613.52 1.327.52 2.14v7h-2.62v-6.38c0-.72-.193-1.287-.58-1.7-.373-.427-.88-.64-1.52-.64-.627 0-1.133.213-1.52.64-.387.427-.58.993-.58 1.7V112h-2.62v-6.38c0-.72-.193-1.287-.58-1.7-.373-.427-.88-.64-1.52-.64s-1.153.213-1.54.64c-.373.427-.56.993-.56 1.7V112h-2.62Zm27.171.24a6.661 6.661 0 0 1-2.64-.52 6.339 6.339 0 0 1-2.08-1.44 5.858 5.858 0 0 1-1.26-2.18l2.26-.98c.36.867.88 1.54 1.56 2.02s1.447.72 2.3.72c.707 0 1.274-.16 1.7-.48.44-.333.66-.78.66-1.34 0-.44-.133-.8-.4-1.08-.253-.28-.64-.507-1.16-.68l-2.86-.92c-1.16-.373-2.033-.913-2.62-1.62-.586-.72-.88-1.567-.88-2.54 0-.853.207-1.607.62-2.26.427-.653 1.014-1.16 1.76-1.52.747-.373 1.614-.56 2.6-.56 1.334 0 2.5.34 3.5 1.02 1 .68 1.7 1.58 2.1 2.7l-2.24 1c-.293-.733-.733-1.307-1.32-1.72-.586-.413-1.266-.62-2.04-.62-.693 0-1.253.173-1.68.52-.413.333-.62.773-.62 1.32 0 .867.54 1.473 1.62 1.82l2.74.86c2.374.76 3.56 2.133 3.56 4.12 0 .853-.22 1.607-.66 2.26-.44.653-1.053 1.167-1.84 1.54-.773.373-1.666.56-2.68.56Zm12.17-.12c-1.227 0-2.18-.333-2.86-1-.667-.68-1-1.633-1-2.86v-4.8h-1.88v-2.34h.2c.533 0 .946-.14 1.24-.42.293-.28.44-.687.44-1.22v-.84h2.62v2.48h2.5v2.34h-2.5v4.66c0 .547.146.967.44 1.26.293.293.76.44 1.4.44.2 0 .433-.02.7-.06V112c-.187.027-.4.053-.64.08-.24.027-.46.04-.66.04Zm6.362.12c-1.133 0-2.04-.28-2.72-.84-.68-.56-1.02-1.32-1.02-2.28 0-.907.307-1.66.92-2.26.614-.6 1.56-1.007 2.84-1.22l3.24-.52v-.36c0-.467-.186-.853-.56-1.16-.36-.32-.84-.48-1.44-.48-.573 0-1.073.153-1.5.46-.426.293-.74.687-.94 1.18l-2.14-1.04c.32-.853.907-1.54 1.76-2.06.854-.52 1.827-.78 2.92-.78.894 0 1.674.167 2.34.5.68.333 1.214.793 1.6 1.38.387.573.58 1.24.58 2V112h-2.48v-1.14c-.853.92-1.986 1.38-3.4 1.38Zm-1.02-3.22c0 .373.14.673.42.9.28.213.64.32 1.08.32.827 0 1.494-.253 2-.76.52-.52.78-1.16.78-1.92v-.44l-2.74.46c-1.026.187-1.54.667-1.54 1.44Zm13.886 3.1c-1.226 0-2.18-.333-2.86-1-.666-.68-1-1.633-1-2.86v-4.8h-1.88v-2.34h.2c.534 0 .947-.14 1.24-.42.294-.28.44-.687.44-1.22v-.84h2.62v2.48h2.5v2.34h-2.5v4.66c0 .547.147.967.44 1.26.294.293.76.44 1.4.44.2 0 .434-.02.7-.06V112c-.186.027-.4.053-.64.08-.24.027-.46.04-.66.04Zm6.982.12c-1.28 0-2.286-.407-3.02-1.22-.72-.827-1.08-1.907-1.08-3.24v-6.66h2.62v6.44c0 .693.2 1.247.6 1.66.414.413.947.62 1.6.62.64 0 1.167-.207 1.58-.62.414-.427.62-1 .62-1.72v-6.38h2.62V112h-2.48v-1.32a2.86 2.86 0 0 1-1.24 1.18c-.533.253-1.14.38-1.82.38Zm11.916 0c-1.16 0-2.174-.273-3.04-.82a4.273 4.273 0 0 1-1.76-2.26l1.96-.94c.28.613.666 1.093 1.16 1.44.506.347 1.066.52 1.68.52.466 0 .84-.1 1.12-.3.293-.213.44-.5.44-.86a.844.844 0 0 0-.38-.74 2.685 2.685 0 0 0-.88-.4l-1.78-.5c-.92-.253-1.62-.653-2.1-1.2a2.966 2.966 0 0 1-.7-1.96c0-.667.173-1.247.52-1.74.346-.507.82-.9 1.42-1.18.6-.28 1.293-.42 2.08-.42 1.026 0 1.933.253 2.72.76a4.07 4.07 0 0 1 1.68 2.06l-2 .94a2.413 2.413 0 0 0-.94-1.18 2.613 2.613 0 0 0-1.48-.44c-.44 0-.787.1-1.04.3-.254.2-.38.46-.38.78 0 .307.113.547.34.72.24.173.553.313.94.42l1.74.52c.893.267 1.58.673 2.06 1.22.493.533.74 1.18.74 1.94 0 .667-.174 1.247-.52 1.74-.347.493-.834.88-1.46 1.16-.614.28-1.327.42-2.14.42Z"/><path fill="#fff" d="M72.146 160.168c-.756 0-1.46-.131-2.114-.392a5.217 5.217 0 0 1-1.708-1.134 5.394 5.394 0 0 1-1.148-1.708 5.647 5.647 0 0 1-.406-2.156c0-.775.135-1.489.406-2.142a5.207 5.207 0 0 1 1.134-1.708 5.18 5.18 0 0 1 1.722-1.12 5.462 5.462 0 0 1 2.114-.406c.756 0 1.46.135 2.114.406a5.028 5.028 0 0 1 1.708 1.12 5.1 5.1 0 0 1 1.148 1.708 5.54 5.54 0 0 1 .406 2.142c0 .775-.14 1.493-.42 2.156a5.207 5.207 0 0 1-1.134 1.708 5.217 5.217 0 0 1-1.708 1.134 5.646 5.646 0 0 1-2.114.392Zm0-1.512c.719 0 1.358-.168 1.918-.504a3.785 3.785 0 0 0 1.33-1.386c.327-.588.49-1.251.49-1.988 0-.728-.163-1.381-.49-1.96a3.616 3.616 0 0 0-1.33-1.4c-.56-.345-1.2-.518-1.918-.518-.719 0-1.363.173-1.932.518a3.65 3.65 0 0 0-1.316 1.4c-.317.579-.476 1.232-.476 1.96 0 .737.159 1.4.476 1.988.327.579.77 1.041 1.33 1.386.56.336 1.2.504 1.918.504ZM80.909 160l-2.604-7.574h1.68l1.694 5.152 1.736-5.152h1.442l1.722 5.152 1.708-5.152h1.68L87.349 160h-1.428l-1.792-5.39-1.778 5.39h-1.442Zm10.003 0v-7.574h1.512v.924c.205-.355.494-.625.868-.812.382-.187.807-.28 1.274-.28.55 0 1.04.121 1.47.364.429.243.765.579 1.008 1.008.252.429.378.919.378 1.47v4.9h-1.568v-4.466c0-.56-.16-.999-.476-1.316-.308-.327-.71-.49-1.204-.49-.495 0-.901.163-1.218.49-.308.317-.462.756-.462 1.316V160h-1.582Zm11.619.168c-.756 0-1.428-.173-2.016-.518a3.769 3.769 0 0 1-1.358-1.428 4.212 4.212 0 0 1-.49-2.03c0-.756.163-1.428.49-2.016a3.626 3.626 0 0 1 3.248-1.918c.756 0 1.404.173 1.946.518.541.336.952.784 1.232 1.344a3.83 3.83 0 0 1 .434 1.806c0 .121-.005.247-.014.378-.01.131-.028.252-.056.364h-5.642c.046.644.28 1.157.7 1.54.429.373.942.56 1.54.56.457 0 .844-.103 1.162-.308.317-.205.574-.471.77-.798l1.288.63c-.234.541-.64.989-1.218 1.344-.579.355-1.251.532-2.016.532Zm-.126-6.58a2.06 2.06 0 0 0-1.358.476c-.374.317-.607.765-.7 1.344h3.99c-.028-.532-.229-.966-.602-1.302a1.863 1.863 0 0 0-1.33-.518Zm5.016 6.412v-7.574h1.512v.98c.186-.383.452-.658.798-.826.345-.168.751-.252 1.218-.252h.462v1.442h-.658c-.523 0-.948.163-1.274.49-.318.327-.476.784-.476 1.372V160h-1.582ZM268.507 160.168a4.492 4.492 0 0 1-1.834-.364 4.208 4.208 0 0 1-1.386-1.022 3.916 3.916 0 0 1-.826-1.442l1.19-.49c.242.672.616 1.19 1.12 1.554.504.355 1.092.532 1.764.532.616 0 1.11-.14 1.484-.42.382-.289.574-.677.574-1.162 0-.439-.126-.784-.378-1.036s-.612-.448-1.078-.588l-1.918-.588c-.756-.233-1.335-.602-1.736-1.106a2.706 2.706 0 0 1-.602-1.736c0-.569.135-1.069.406-1.498.28-.439.662-.779 1.148-1.022.494-.252 1.054-.378 1.68-.378.625 0 1.19.112 1.694.336.513.224.947.527 1.302.91.354.383.616.812.784 1.288l-1.176.49c-.224-.579-.56-1.022-1.008-1.33-.448-.308-.976-.462-1.582-.462-.56 0-1.013.145-1.358.434-.346.28-.518.663-.518 1.148 0 .383.121.723.364 1.022.242.299.611.527 1.106.686l1.75.518c1.661.513 2.492 1.451 2.492 2.814 0 .569-.15 1.073-.448 1.512-.29.439-.696.784-1.218 1.036-.523.243-1.12.364-1.792.364Zm8.239-.084c-.738 0-1.307-.21-1.708-.63-.392-.42-.588-1.013-.588-1.778V153.7h-1.372v-1.246h.28c.336 0 .602-.098.798-.294.196-.205.294-.481.294-.826v-.616h1.302v1.736h1.694v1.246h-1.694v3.934c0 .383.093.691.28.924.186.224.513.336.98.336.065 0 .144-.005.238-.014.102-.009.196-.019.28-.028V160a2.487 2.487 0 0 1-.406.056c-.15.019-.276.028-.378.028Zm2.344-.084v-7.546h1.274v.896c.383-.653 1.05-.98 2.002-.98h.462v1.232h-.658c-.532 0-.961.168-1.288.504-.326.327-.49.793-.49 1.4V160h-1.302Zm4.755-8.75v-1.68h1.302v1.68h-1.302Zm0 8.75v-7.546h1.302V160h-1.302Zm3.182 0v-7.546h1.274v.938a2.12 2.12 0 0 1 .882-.812 2.701 2.701 0 0 1 1.274-.294c.532 0 1.013.126 1.442.378.43.243.766.579 1.008 1.008.252.42.378.901.378 1.442V160h-1.316v-4.466c0-.616-.168-1.101-.504-1.456-.336-.355-.77-.532-1.302-.532s-.97.177-1.316.532c-.345.355-.518.84-.518 1.456V160h-1.302Zm11.579 3.08c-.802 0-1.502-.182-2.1-.546-.597-.364-1.022-.84-1.274-1.428l1.218-.56c.131.355.378.653.742.896.374.252.84.378 1.4.378.42 0 .803-.084 1.148-.252.355-.159.635-.401.84-.728.215-.317.322-.705.322-1.162v-1.064c-.28.392-.639.691-1.078.896a3.327 3.327 0 0 1-1.428.308c-.709 0-1.344-.163-1.904-.49a3.611 3.611 0 0 1-1.316-1.358c-.317-.569-.476-1.209-.476-1.918 0-.709.159-1.344.476-1.904a3.65 3.65 0 0 1 1.302-1.358c.56-.336 1.195-.504 1.904-.504.532 0 1.018.107 1.456.322.439.215.808.518 1.106.91v-1.064h1.274v7.224c0 .653-.154 1.237-.462 1.75a3.205 3.205 0 0 1-1.288 1.204c-.541.299-1.162.448-1.862.448Zm-.098-4.522c.448 0 .85-.112 1.204-.336.364-.224.654-.523.868-.896.215-.383.322-.807.322-1.274 0-.457-.107-.873-.322-1.246a2.456 2.456 0 0 0-.868-.91 2.143 2.143 0 0 0-1.204-.35c-.466 0-.882.117-1.246.35a2.464 2.464 0 0 0-.868.91 2.461 2.461 0 0 0-.322 1.246c0 .467.103.891.308 1.274.215.373.504.672.868.896.374.224.794.336 1.26.336Zm8.291 1.61c-.756 0-1.414-.187-1.974-.56a3.024 3.024 0 0 1-1.19-1.512l1.036-.504c.214.457.508.817.882 1.078.373.252.788.378 1.246.378.401 0 .737-.093 1.008-.28.28-.196.42-.457.42-.784a.751.751 0 0 0-.196-.532 1.211 1.211 0 0 0-.448-.322 5.626 5.626 0 0 0-.49-.182l-1.134-.322c-.682-.187-1.181-.462-1.498-.826a1.93 1.93 0 0 1-.462-1.288c0-.448.112-.835.336-1.162.233-.336.546-.597.938-.784.401-.187.849-.28 1.344-.28a3.2 3.2 0 0 1 1.778.518c.532.336.91.803 1.134 1.4l-1.064.49c-.168-.392-.42-.7-.756-.924a1.944 1.944 0 0 0-1.134-.35c-.383 0-.686.098-.91.294a.89.89 0 0 0-.336.714c0 .224.051.401.154.532a1.2 1.2 0 0 0 .406.308c.168.065.326.121.476.168l1.232.364c.606.177 1.082.457 1.428.84.345.373.518.817.518 1.33 0 .429-.117.812-.35 1.148-.234.327-.56.583-.98.77-.411.187-.882.28-1.414.28ZM356.164 160v-10.43h6.608v1.26h-5.236v3.374h4.746v1.26h-4.746V160h-1.372Zm7.868-8.75v-1.68h1.302v1.68h-1.302Zm0 8.75v-7.546h1.302V160h-1.302Zm3.182 0v-10.598h1.302V160h-1.302Zm6.654.168c-.728 0-1.376-.173-1.946-.518a3.7 3.7 0 0 1-1.344-1.414c-.326-.597-.49-1.274-.49-2.03 0-.756.159-1.428.476-2.016a3.592 3.592 0 0 1 1.302-1.386 3.53 3.53 0 0 1 1.89-.518c.738 0 1.368.173 1.89.518.532.345.938.793 1.218 1.344.29.551.434 1.139.434 1.764 0 .103-.009.219-.028.35a3.766 3.766 0 0 1-.042.35h-5.768c.019.485.14.905.364 1.26.234.355.528.63.882.826.364.187.756.28 1.176.28.504 0 .929-.117 1.274-.35a2.74 2.74 0 0 0 .84-.896l1.092.56c-.233.523-.634.966-1.204 1.33-.569.364-1.241.546-2.016.546Zm-.112-6.72c-.56 0-1.054.182-1.484.546-.429.364-.69.863-.784 1.498h4.396a2.003 2.003 0 0 0-.308-1.05 2.125 2.125 0 0 0-1.82-.994Zm7.802 6.72c-.756 0-1.414-.187-1.974-.56a3.024 3.024 0 0 1-1.19-1.512l1.036-.504c.215.457.509.817.882 1.078.373.252.789.378 1.246.378.401 0 .737-.093 1.008-.28.28-.196.42-.457.42-.784a.747.747 0 0 0-.196-.532 1.203 1.203 0 0 0-.448-.322 5.509 5.509 0 0 0-.49-.182l-1.134-.322c-.681-.187-1.181-.462-1.498-.826a1.93 1.93 0 0 1-.462-1.288c0-.448.112-.835.336-1.162.233-.336.546-.597.938-.784.401-.187.849-.28 1.344-.28a3.2 3.2 0 0 1 1.778.518c.532.336.91.803 1.134 1.4l-1.064.49c-.168-.392-.42-.7-.756-.924a1.944 1.944 0 0 0-1.134-.35c-.383 0-.686.098-.91.294a.89.89 0 0 0-.336.714c0 .224.051.401.154.532a1.2 1.2 0 0 0 .406.308c.168.065.327.121.476.168l1.232.364c.607.177 1.083.457 1.428.84.345.373.518.817.518 1.33 0 .429-.117.812-.35 1.148-.233.327-.56.583-.98.77-.411.187-.882.28-1.414.28Z" opacity=".6"/><mask id="b" fill="#fff"><path d="M66 172h319v30H66v-30Z"/></mask><path fill="#fff" fill-opacity=".15" d="M385 202v-1H66v2h319v-1Z" mask="url(#b)"/><path fill="#fff" d="M67.028 182.06h1.904l3.024 7.56v-7.56h1.526V192h-2.03l-2.912-7.266V192h-1.512v-9.94Zm8.66 11.2 4.145-11.886h1.484l-4.144 11.886h-1.484Zm7.177-1.26 3.01-9.94h1.778l3.01 9.94h-1.568l-.714-2.464h-3.234L84.433 192h-1.568Zm2.646-3.752h2.492l-1.246-4.312-1.246 4.312Z" opacity=".75"/><path fill="#fff" d="M267.616 192.168c-.831 0-1.568-.215-2.212-.644a3.276 3.276 0 0 1-1.33-1.764l1.162-.476c.196.523.504.929.924 1.218.42.289.905.434 1.456.434.644 0 1.176-.187 1.596-.56.42-.373.63-.896.63-1.568 0-.681-.21-1.204-.63-1.568-.42-.373-.957-.56-1.61-.56-.327 0-.616.037-.868.112l-.294-.63 2.786-3.402h-4.62v-1.19h6.174v1.148l-2.394 2.94c.56.065 1.05.238 1.47.518.429.271.761.63.994 1.078.243.448.364.957.364 1.526a3.28 3.28 0 0 1-1.736 2.94c-.541.299-1.162.448-1.862.448Zm5.521 1.778v-.63c.569-.159.873-.597.91-1.316h-.63v-1.68h1.358v1.19c0 1.372-.546 2.184-1.638 2.436Zm7.222-1.778c-.7 0-1.321-.14-1.862-.42a3.296 3.296 0 0 1-1.26-1.134 3.034 3.034 0 0 1-.448-1.624c0-.588.149-1.115.448-1.582.298-.476.714-.84 1.246-1.092a2.384 2.384 0 0 1-.882-.924 2.639 2.639 0 0 1-.308-1.246c0-.523.13-.989.392-1.4a2.76 2.76 0 0 1 1.092-.98c.466-.243.994-.364 1.582-.364.588 0 1.11.117 1.568.35.457.233.816.56 1.078.98.27.411.406.882.406 1.414 0 .457-.108.877-.322 1.26a2.464 2.464 0 0 1-.868.91c.541.261.961.625 1.26 1.092.298.467.448.994.448 1.582 0 .607-.154 1.148-.462 1.624a3.273 3.273 0 0 1-1.274 1.134c-.532.28-1.144.42-1.834.42Zm0-6.384c.476 0 .872-.149 1.19-.448.317-.299.476-.686.476-1.162 0-.467-.159-.845-.476-1.134-.318-.299-.714-.448-1.19-.448-.486 0-.892.149-1.218.448-.318.289-.476.667-.476 1.134 0 .476.158.863.476 1.162.326.299.732.448 1.218.448Zm0 5.194c.653 0 1.18-.182 1.582-.546.401-.373.602-.859.602-1.456 0-.607-.201-1.092-.602-1.456-.402-.364-.929-.546-1.582-.546-.663 0-1.195.182-1.596.546-.392.364-.588.849-.588 1.456 0 .597.196 1.083.588 1.456.401.364.933.546 1.596.546Zm5.01 1.022v-.952l2.884-3.122a90.38 90.38 0 0 0 1.358-1.498c.346-.392.598-.742.756-1.05.159-.308.238-.635.238-.98 0-.56-.168-.994-.504-1.302-.336-.317-.779-.476-1.33-.476-.56 0-1.04.163-1.442.49-.392.317-.658.77-.798 1.358l-1.246-.322c.122-.56.346-1.045.672-1.456a3.33 3.33 0 0 1 1.204-.952 3.798 3.798 0 0 1 1.61-.336c.635 0 1.19.126 1.666.378.486.243.864.588 1.134 1.036.28.439.42.943.42 1.512 0 .392-.079.77-.238 1.134-.149.355-.382.737-.7 1.148-.317.411-.718.877-1.204 1.4l-2.576 2.8h4.942V192h-6.846Zm12.567.168c-.821 0-1.545-.224-2.17-.672-.625-.457-1.111-1.087-1.456-1.89-.345-.812-.518-1.755-.518-2.828s.173-2.011.518-2.814c.345-.812.826-1.442 1.442-1.89.625-.448 1.349-.672 2.17-.672s1.54.224 2.156.672c.625.448 1.111 1.078 1.456 1.89.355.803.532 1.741.532 2.814s-.173 2.016-.518 2.828c-.345.812-.831 1.442-1.456 1.89-.616.448-1.335.672-2.156.672Zm0-1.274c.551 0 1.031-.168 1.442-.504.42-.345.742-.826.966-1.442.233-.616.35-1.339.35-2.17s-.117-1.549-.35-2.156c-.224-.616-.546-1.092-.966-1.428a2.193 2.193 0 0 0-1.456-.518c-.56 0-1.045.173-1.456.518-.411.336-.733.812-.966 1.428-.224.607-.336 1.325-.336 2.156 0 .821.112 1.545.336 2.17.233.616.555 1.097.966 1.442.42.336.91.504 1.47.504ZM362.394 192l3.136-4.088a1.8 1.8 0 0 1-.448.14 4.23 4.23 0 0 1-.504.028c-.616 0-1.171-.14-1.666-.42a3.267 3.267 0 0 1-1.162-1.176c-.28-.504-.42-1.078-.42-1.722 0-.644.15-1.218.448-1.722.299-.504.71-.901 1.232-1.19a3.49 3.49 0 0 1 1.764-.448c.672 0 1.265.149 1.778.448.523.289.934.695 1.232 1.218.299.523.448 1.115.448 1.778 0 .541-.098 1.078-.294 1.61-.196.532-.513 1.092-.952 1.68l-2.94 3.864h-1.652Zm2.38-5.124c.402 0 .756-.089 1.064-.266.308-.187.551-.439.728-.756.187-.317.28-.681.28-1.092 0-.411-.093-.775-.28-1.092a1.956 1.956 0 0 0-.742-.77 1.982 1.982 0 0 0-1.05-.28c-.392 0-.746.093-1.064.28-.308.187-.55.443-.728.77a2.202 2.202 0 0 0-.266 1.092c0 .411.089.775.266 1.092.178.317.42.569.728.756.318.177.672.266 1.064.266Zm8.269 5.292c-.541 0-1.05-.093-1.526-.28a3.773 3.773 0 0 1-1.246-.826 3.341 3.341 0 0 1-.756-1.274l1.12-.476c.196.513.513.915.952 1.204.448.28.933.42 1.456.42.429 0 .807-.093 1.134-.28.327-.196.583-.462.77-.798.196-.336.294-.719.294-1.148 0-.439-.098-.826-.294-1.162a1.984 1.984 0 0 0-.784-.784 2.108 2.108 0 0 0-1.106-.294c-.429 0-.821.098-1.176.294-.355.196-.611.443-.77.742l-1.106-.238.798-5.698h5.404v1.19h-4.438l-.42 3.038c.261-.187.551-.322.868-.406.317-.084.644-.126.98-.126.681 0 1.279.154 1.792.462.513.299.915.709 1.204 1.232.289.523.434 1.106.434 1.75 0 .653-.159 1.241-.476 1.764a3.402 3.402 0 0 1-1.274 1.246c-.532.299-1.143.448-1.834.448Zm5.365-.168 4.578-9.24h-5.11v-1.19h6.552v1.19l-4.536 9.24h-1.484Z"/><mask id="c" fill="#fff"><path d="M66 212h319v30H66v-30Z"/></mask><path fill="#fff" fill-opacity=".15" d="M385 242v-1H66v2h319v-1Z" mask="url(#c)"/><path fill="#fff" d="M71.494 225.098h1.134l-.252 3.262c-.084.98-.014 1.512.28 1.512.462 0 .686-.686.756-2.422.084-2.59-.84-4.27-2.31-4.27-1.806 0-3.178 1.946-3.276 4.62-.14 3.626 1.806 4.886 4.144 3.57l.476 1.05c-2.898 1.75-5.95-.182-5.782-4.62.112-3.374 1.988-5.74 4.466-5.74 2.156 0 3.542 2.128 3.444 5.32-.14 4.018-2.842 4.144-3.22 2.464-.28.616-.812 1.022-1.344 1.022-1.134 0-1.82-1.232-1.61-2.926.182-1.722 1.064-2.968 2.114-2.968.448 0 .784.224.938.588l.042-.462Zm-1.876 2.8c-.112 1.176.154 1.974.644 1.974.476 0 .854-.798.966-1.974.126-1.204-.098-2.002-.602-2.002-.476 0-.882.798-1.008 2.002Zm11.11-.658c-.14-.91-.854-1.484-1.68-1.484-1.218 0-1.918.952-1.918 2.534 0 1.568.7 2.52 1.918 2.52.854 0 1.582-.588 1.722-1.568l1.568.084c-.224 1.736-1.624 2.842-3.29 2.842-2.114 0-3.472-1.512-3.472-3.878s1.358-3.878 3.472-3.878c1.624 0 3.038 1.064 3.234 2.73l-1.554.098Zm3.187-.434c.28-1.47 1.512-2.394 3.108-2.394 1.82 0 2.996 1.05 2.996 3.108v2.688c0 .336.14.476.448.476h.322V232h-.392c-.896 0-1.428-.476-1.568-1.134-.294.7-1.176 1.302-2.338 1.302-1.498 0-2.702-.798-2.702-2.114 0-1.526 1.12-2.016 2.87-2.352l1.876-.35c-.014-1.064-.616-1.596-1.54-1.596-.798 0-1.372.476-1.526 1.148l-1.554-.098Zm1.428 3.192c.014.49.448.882 1.358.882 1.05 0 1.862-.728 1.862-1.988v-.294l-1.498.266c-.994.168-1.722.28-1.722 1.134Zm7.162.686h2.549v-6.482c0-.574-.252-.84-.799-.84h-1.75v-1.302h1.75c1.47 0 2.269.742 2.269 2.142v6.482h2.267V232h-6.285v-1.316Zm12.987-3.444c-.14-.91-.854-1.484-1.68-1.484-1.218 0-1.918.952-1.918 2.534 0 1.568.7 2.52 1.918 2.52.854 0 1.582-.588 1.722-1.568l1.568.084c-.224 1.736-1.624 2.842-3.29 2.842-2.114 0-3.472-1.512-3.472-3.878s1.358-3.878 3.472-3.878c1.624 0 3.038 1.064 3.234 2.73l-1.554.098Zm6.393 4.928c-2.058 0-3.472-1.54-3.472-3.878 0-2.352 1.414-3.878 3.472-3.878 2.072 0 3.472 1.526 3.472 3.878 0 2.338-1.4 3.878-3.472 3.878Zm-1.918-3.878c0 1.568.714 2.52 1.918 2.52s1.918-.952 1.918-2.52c0-1.582-.714-2.534-1.918-2.534s-1.918.952-1.918 2.534Zm6.518-3.71h1.302l.042 1.008c.28-.77.784-1.176 1.498-1.176.658 0 1.064.406 1.316 1.33.252-.84.812-1.33 1.554-1.33 1.134 0 1.666.966 1.666 3.01V232h-1.456v-4.578c0-1.302-.182-1.792-.658-1.792-.546 0-.854.616-.854 1.792V232h-1.456v-4.578c0-1.302-.196-1.792-.728-1.792-.49 0-.77.616-.77 1.792V232h-1.456v-7.42Zm9.095 8.68 4.144-11.886h1.484l-4.144 11.886h-1.484Z" opacity=".75"/><path fill="#fff" d="M139.433 232.168a5.36 5.36 0 0 1-2.058-.392 5.026 5.026 0 0 1-1.638-1.134 5.237 5.237 0 0 1-1.092-1.708 5.943 5.943 0 0 1-.378-2.156c0-.775.126-1.489.378-2.142a5.37 5.37 0 0 1 1.078-1.708 4.84 4.84 0 0 1 1.638-1.12 5.22 5.22 0 0 1 2.072-.406c.728 0 1.381.126 1.96.378a4.544 4.544 0 0 1 1.484.994c.411.411.705.849.882 1.316l-1.484.7a2.962 2.962 0 0 0-1.078-1.358c-.485-.355-1.073-.532-1.764-.532-.691 0-1.302.163-1.834.49a3.355 3.355 0 0 0-1.246 1.372c-.289.579-.434 1.251-.434 2.016 0 .775.145 1.456.434 2.044a3.374 3.374 0 0 0 1.246 1.358c.532.317 1.143.476 1.834.476.691 0 1.279-.173 1.764-.518a2.962 2.962 0 0 0 1.078-1.358l1.484.7c-.177.476-.471.919-.882 1.33a4.675 4.675 0 0 1-1.484.98c-.579.252-1.232.378-1.96.378Zm9.248 0a4.064 4.064 0 0 1-2.002-.504 3.919 3.919 0 0 1-1.428-1.414c-.355-.597-.532-1.279-.532-2.044 0-.756.173-1.433.518-2.03a3.813 3.813 0 0 1 1.428-1.4 4.008 4.008 0 0 1 2.016-.518 3.93 3.93 0 0 1 2.002.518 3.706 3.706 0 0 1 1.414 1.4c.355.588.532 1.265.532 2.03 0 .765-.177 1.447-.532 2.044a3.919 3.919 0 0 1-1.428 1.414 3.984 3.984 0 0 1-1.988.504Zm0-1.47c.439 0 .831-.107 1.176-.322.345-.215.621-.509.826-.882.205-.383.308-.812.308-1.288s-.103-.901-.308-1.274a2.355 2.355 0 0 0-.826-.882 2.177 2.177 0 0 0-1.176-.322 2.25 2.25 0 0 0-1.19.322 2.355 2.355 0 0 0-.826.882 2.698 2.698 0 0 0-.294 1.274c0 .476.098.905.294 1.288.205.373.481.667.826.882a2.25 2.25 0 0 0 1.19.322Zm5.352 1.302v-7.574h1.512v.924c.206-.355.495-.625.868-.812.383-.187.808-.28 1.274-.28.551 0 1.041.121 1.47.364.43.243.766.579 1.008 1.008.252.429.378.919.378 1.47v4.9h-1.568v-4.466c0-.56-.158-.999-.476-1.316-.308-.327-.709-.49-1.204-.49-.494 0-.9.163-1.218.49-.308.317-.462.756-.462 1.316V232h-1.582Zm10.864.168c-.784 0-1.466-.191-2.044-.574a3.047 3.047 0 0 1-1.218-1.54l1.218-.574c.205.439.485.784.84 1.036.364.243.765.364 1.204.364.373 0 .676-.084.91-.252a.802.802 0 0 0 .35-.686c0-.271-.108-.471-.322-.602a2.386 2.386 0 0 0-.686-.308l-1.19-.336c-.654-.187-1.144-.467-1.47-.84a1.984 1.984 0 0 1-.476-1.33c0-.448.116-.84.35-1.176.233-.345.55-.611.952-.798.41-.196.877-.294 1.4-.294.69 0 1.306.173 1.848.518a2.73 2.73 0 0 1 1.148 1.414l-1.218.574a1.954 1.954 0 0 0-.728-.868 1.855 1.855 0 0 0-1.064-.322c-.355 0-.635.084-.84.252a.771.771 0 0 0-.294.63c0 .271.098.471.294.602.205.121.429.219.672.294l1.232.364c.616.177 1.092.457 1.428.84.345.373.518.821.518 1.344 0 .448-.122.845-.364 1.19-.234.336-.56.602-.98.798-.42.187-.91.28-1.47.28Zm6.926 0c-.57 0-1.069-.126-1.498-.378a2.728 2.728 0 0 1-1.008-1.078c-.234-.467-.35-1.003-.35-1.61v-4.676h1.582v4.536c0 .523.154.943.462 1.26.308.317.709.476 1.204.476.494 0 .9-.159 1.218-.476.317-.327.476-.77.476-1.33v-4.466h1.568V232h-1.498v-.924a2.104 2.104 0 0 1-.896.812c-.374.187-.794.28-1.26.28Zm5.361-.168v-7.574h1.512v.938c.205-.364.49-.639.854-.826a2.74 2.74 0 0 1 1.246-.28c.513 0 .98.117 1.4.35.42.233.742.546.966.938a2.563 2.563 0 0 1 1.008-.966 2.91 2.91 0 0 1 1.372-.322c.522 0 .994.121 1.414.364.429.243.77.579 1.022 1.008.252.429.378.919.378 1.47v4.9h-1.582v-4.466c0-.56-.15-.999-.448-1.316-.29-.327-.672-.49-1.148-.49-.476 0-.868.163-1.176.49-.299.317-.448.756-.448 1.316V232h-1.568v-4.466c0-.56-.15-.999-.448-1.316-.299-.327-.686-.49-1.162-.49-.476 0-.864.163-1.162.49-.299.317-.448.756-.448 1.316V232h-1.582Zm16.281.168c-.756 0-1.428-.173-2.016-.518a3.77 3.77 0 0 1-1.358-1.428c-.327-.607-.49-1.283-.49-2.03 0-.756.163-1.428.49-2.016a3.628 3.628 0 0 1 3.248-1.918c.756 0 1.405.173 1.946.518.541.336.952.784 1.232 1.344a3.83 3.83 0 0 1 .434 1.806c0 .121-.005.247-.014.378a2.088 2.088 0 0 1-.056.364h-5.642c.047.644.28 1.157.7 1.54.429.373.943.56 1.54.56.457 0 .845-.103 1.162-.308.317-.205.574-.471.77-.798l1.288.63c-.233.541-.639.989-1.218 1.344-.579.355-1.251.532-2.016.532Zm-.126-6.58c-.523 0-.975.159-1.358.476-.373.317-.607.765-.7 1.344h3.99c-.028-.532-.229-.966-.602-1.302a1.862 1.862 0 0 0-1.33-.518Zm5.016 6.412v-7.574h1.512v.98c.187-.383.453-.658.798-.826.345-.168.751-.252 1.218-.252h.462v1.442h-.658c-.523 0-.947.163-1.274.49-.317.327-.476.784-.476 1.372V232h-1.582ZM269.226 232v-2.408h-5.124v-1.134l5.096-6.888h1.316v6.888h1.358v1.134h-1.358V232h-1.288Zm0-3.542v-5.082l-3.724 5.082h3.724Zm8.788 3.542v-2.408h-5.124v-1.134l5.096-6.888h1.316v6.888h1.358v1.134h-1.358V232h-1.288Zm0-3.542v-5.082l-3.724 5.082h3.724Zm7.275 3.71c-.672 0-1.269-.145-1.792-.434a3.26 3.26 0 0 1-1.232-1.232c-.289-.523-.434-1.115-.434-1.778 0-.541.094-1.078.28-1.61.196-.532.518-1.092.966-1.68l2.94-3.864h1.652l-3.136 4.088c.14-.065.29-.107.448-.126.159-.028.327-.042.504-.042.616 0 1.167.145 1.652.434.495.28.882.672 1.162 1.176.29.495.434 1.059.434 1.694 0 .644-.149 1.223-.448 1.736a3.312 3.312 0 0 1-1.232 1.204 3.58 3.58 0 0 1-1.764.434Zm0-1.232a2.07 2.07 0 0 0 1.05-.266c.308-.187.551-.439.728-.756.187-.327.28-.695.28-1.106 0-.411-.088-.775-.266-1.092a1.987 1.987 0 0 0-.742-.756 1.982 1.982 0 0 0-1.05-.28c-.401 0-.76.093-1.078.28-.308.187-.55.439-.728.756a2.202 2.202 0 0 0-.266 1.092c0 .411.089.779.266 1.106.187.317.434.569.742.756.308.177.663.266 1.064.266ZM369.411 232v-9.24h-1.974v-1.19h3.36V232h-1.386Zm5.205 0v-9.24h-1.974v-1.19h3.36V232h-1.386Zm3.792 0 4.578-9.24h-5.11v-1.19h6.552v1.19l-4.536 9.24h-1.484Z"/><mask id="d" fill="#fff"><path d="M66 252h319v30H66v-30Z"/></mask><path fill="#fff" fill-opacity=".15" d="M385 282v-1H66v2h319v-1Z" mask="url(#d)"/><path fill="#fff" d="M71.494 265.098h1.134l-.252 3.262c-.084.98-.014 1.512.28 1.512.462 0 .686-.686.756-2.422.084-2.59-.84-4.27-2.31-4.27-1.806 0-3.178 1.946-3.276 4.62-.14 3.626 1.806 4.886 4.144 3.57l.476 1.05c-2.898 1.75-5.95-.182-5.782-4.62.112-3.374 1.988-5.74 4.466-5.74 2.156 0 3.542 2.128 3.444 5.32-.14 4.018-2.842 4.144-3.22 2.464-.28.616-.812 1.022-1.344 1.022-1.134 0-1.82-1.232-1.61-2.926.182-1.722 1.064-2.968 2.114-2.968.448 0 .784.224.938.588l.042-.462Zm-1.876 2.8c-.112 1.176.154 1.974.644 1.974.476 0 .854-.798.966-1.974.126-1.204-.098-2.002-.602-2.002-.476 0-.882.798-1.008 2.002Zm11.11-.658c-.14-.91-.854-1.484-1.68-1.484-1.218 0-1.918.952-1.918 2.534 0 1.568.7 2.52 1.918 2.52.854 0 1.582-.588 1.722-1.568l1.568.084c-.224 1.736-1.624 2.842-3.29 2.842-2.114 0-3.472-1.512-3.472-3.878s1.358-3.878 3.472-3.878c1.624 0 3.038 1.064 3.234 2.73l-1.554.098Zm3.187-.434c.28-1.47 1.512-2.394 3.108-2.394 1.82 0 2.996 1.05 2.996 3.108v2.688c0 .336.14.476.448.476h.322V272h-.392c-.896 0-1.428-.476-1.568-1.134-.294.7-1.176 1.302-2.338 1.302-1.498 0-2.702-.798-2.702-2.114 0-1.526 1.12-2.016 2.87-2.352l1.876-.35c-.014-1.064-.616-1.596-1.54-1.596-.798 0-1.372.476-1.526 1.148l-1.554-.098Zm1.428 3.192c.014.49.448.882 1.358.882 1.05 0 1.862-.728 1.862-1.988v-.294l-1.498.266c-.994.168-1.722.28-1.722 1.134Zm7.162.686h2.549v-6.482c0-.574-.252-.84-.799-.84h-1.75v-1.302h1.75c1.47 0 2.269.742 2.269 2.142v6.482h2.267V272h-6.285v-1.316Zm12.987-3.444c-.14-.91-.854-1.484-1.68-1.484-1.218 0-1.918.952-1.918 2.534 0 1.568.7 2.52 1.918 2.52.854 0 1.582-.588 1.722-1.568l1.568.084c-.224 1.736-1.624 2.842-3.29 2.842-2.114 0-3.472-1.512-3.472-3.878s1.358-3.878 3.472-3.878c1.624 0 3.038 1.064 3.234 2.73l-1.554.098Zm6.393 4.928c-2.058 0-3.472-1.54-3.472-3.878 0-2.352 1.414-3.878 3.472-3.878 2.072 0 3.472 1.526 3.472 3.878 0 2.338-1.4 3.878-3.472 3.878Zm-1.918-3.878c0 1.568.714 2.52 1.918 2.52s1.918-.952 1.918-2.52c0-1.582-.714-2.534-1.918-2.534s-1.918.952-1.918 2.534Zm6.518-3.71h1.302l.042 1.008c.28-.77.784-1.176 1.498-1.176.658 0 1.064.406 1.316 1.33.252-.84.812-1.33 1.554-1.33 1.134 0 1.666.966 1.666 3.01V272h-1.456v-4.578c0-1.302-.182-1.792-.658-1.792-.546 0-.854.616-.854 1.792V272h-1.456v-4.578c0-1.302-.196-1.792-.728-1.792-.49 0-.77.616-.77 1.792V272h-1.456v-7.42Zm9.095 8.68 4.144-11.886h1.484l-4.144 11.886h-1.484Z" opacity=".75"/><path fill="#fff" d="M134.336 272v-10.43h3.416c1.083 0 2.021.219 2.814.658a4.636 4.636 0 0 1 1.862 1.834c.439.775.658 1.68.658 2.716 0 1.027-.219 1.937-.658 2.73a4.636 4.636 0 0 1-1.862 1.834c-.793.439-1.731.658-2.814.658h-3.416Zm1.652-1.47h1.792c.737 0 1.377-.154 1.918-.462a3.17 3.17 0 0 0 1.274-1.302c.299-.56.448-1.223.448-1.988 0-.765-.154-1.428-.462-1.988a3.11 3.11 0 0 0-1.26-1.288c-.541-.308-1.181-.462-1.918-.462h-1.792v7.49Zm8.585 1.47v-10.43h4.396c.98 0 1.75.257 2.31.77.569.504.854 1.19.854 2.058 0 .392-.079.761-.238 1.106-.149.336-.383.63-.7.882.485.289.835.649 1.05 1.078.215.429.322.891.322 1.386 0 .989-.322 1.764-.966 2.324-.635.551-1.507.826-2.618.826h-4.41Zm1.652-6.272h2.786c.448 0 .807-.126 1.078-.378.271-.261.406-.602.406-1.022 0-.411-.135-.733-.406-.966-.271-.243-.63-.364-1.078-.364h-2.786v2.73Zm0 4.802h2.884c.541 0 .975-.149 1.302-.448.336-.299.504-.705.504-1.218 0-.504-.168-.91-.504-1.218-.327-.308-.761-.462-1.302-.462h-2.884v3.346Zm6.977 1.47 3.668-10.43h2.044l3.668 10.43h-1.764l-.798-2.338h-4.242l-.812 2.338h-1.764Zm3.052-3.808h3.262l-1.624-4.788-1.638 4.788ZM265.992 272v-9.24h-1.974v-1.19h3.36V272h-1.386Zm8.44 0v-2.408h-5.124v-1.134l5.096-6.888h1.316v6.888h1.358v1.134h-1.358V272h-1.288Zm0-3.542v-5.082l-3.724 5.082h3.724Zm5.553 3.542v-9.24h-1.974v-1.19h3.36V272h-1.386ZM373.905 272v-9.24h-1.974v-1.19h3.36V272h-1.386Zm3.47 0v-.952l2.884-3.122a90.38 90.38 0 0 0 1.358-1.498c.345-.392.597-.742.756-1.05.159-.308.238-.635.238-.98 0-.56-.168-.994-.504-1.302-.336-.317-.779-.476-1.33-.476-.56 0-1.041.163-1.442.49-.392.317-.658.77-.798 1.358l-1.246-.322a3.48 3.48 0 0 1 .672-1.456 3.33 3.33 0 0 1 1.204-.952 3.795 3.795 0 0 1 1.61-.336c.635 0 1.19.126 1.666.378.485.243.863.588 1.134 1.036.28.439.42.943.42 1.512 0 .392-.079.77-.238 1.134-.149.355-.383.737-.7 1.148-.317.411-.719.877-1.204 1.4l-2.576 2.8h4.942V272h-6.846Z"/><mask id="e" fill="#fff"><path d="M66 292h319v30H66v-30Z"/></mask><path fill="#fff" fill-opacity=".15" d="M385 322v-1H66v2h319v-1Z" mask="url(#e)"/><path fill="#fff" d="M71.494 305.098h1.134l-.252 3.262c-.084.98-.014 1.512.28 1.512.462 0 .686-.686.756-2.422.084-2.59-.84-4.27-2.31-4.27-1.806 0-3.178 1.946-3.276 4.62-.14 3.626 1.806 4.886 4.144 3.57l.476 1.05c-2.898 1.75-5.95-.182-5.782-4.62.112-3.374 1.988-5.74 4.466-5.74 2.156 0 3.542 2.128 3.444 5.32-.14 4.018-2.842 4.144-3.22 2.464-.28.616-.812 1.022-1.344 1.022-1.134 0-1.82-1.232-1.61-2.926.182-1.722 1.064-2.968 2.114-2.968.448 0 .784.224.938.588l.042-.462Zm-1.876 2.8c-.112 1.176.154 1.974.644 1.974.476 0 .854-.798.966-1.974.126-1.204-.098-2.002-.602-2.002-.476 0-.882.798-1.008 2.002Zm11.11-.658c-.14-.91-.854-1.484-1.68-1.484-1.218 0-1.918.952-1.918 2.534 0 1.568.7 2.52 1.918 2.52.854 0 1.582-.588 1.722-1.568l1.568.084c-.224 1.736-1.624 2.842-3.29 2.842-2.114 0-3.472-1.512-3.472-3.878s1.358-3.878 3.472-3.878c1.624 0 3.038 1.064 3.234 2.73l-1.554.098Zm3.187-.434c.28-1.47 1.512-2.394 3.108-2.394 1.82 0 2.996 1.05 2.996 3.108v2.688c0 .336.14.476.448.476h.322V312h-.392c-.896 0-1.428-.476-1.568-1.134-.294.7-1.176 1.302-2.338 1.302-1.498 0-2.702-.798-2.702-2.114 0-1.526 1.12-2.016 2.87-2.352l1.876-.35c-.014-1.064-.616-1.596-1.54-1.596-.798 0-1.372.476-1.526 1.148l-1.554-.098Zm1.428 3.192c.014.49.448.882 1.358.882 1.05 0 1.862-.728 1.862-1.988v-.294l-1.498.266c-.994.168-1.722.28-1.722 1.134Zm7.162.686h2.549v-6.482c0-.574-.252-.84-.799-.84h-1.75v-1.302h1.75c1.47 0 2.269.742 2.269 2.142v6.482h2.267V312h-6.285v-1.316Zm12.987-3.444c-.14-.91-.854-1.484-1.68-1.484-1.218 0-1.918.952-1.918 2.534 0 1.568.7 2.52 1.918 2.52.854 0 1.582-.588 1.722-1.568l1.568.084c-.224 1.736-1.624 2.842-3.29 2.842-2.114 0-3.472-1.512-3.472-3.878s1.358-3.878 3.472-3.878c1.624 0 3.038 1.064 3.234 2.73l-1.554.098Zm6.393 4.928c-2.058 0-3.472-1.54-3.472-3.878 0-2.352 1.414-3.878 3.472-3.878 2.072 0 3.472 1.526 3.472 3.878 0 2.338-1.4 3.878-3.472 3.878Zm-1.918-3.878c0 1.568.714 2.52 1.918 2.52s1.918-.952 1.918-2.52c0-1.582-.714-2.534-1.918-2.534s-1.918.952-1.918 2.534Zm6.518-3.71h1.302l.042 1.008c.28-.77.784-1.176 1.498-1.176.658 0 1.064.406 1.316 1.33.252-.84.812-1.33 1.554-1.33 1.134 0 1.666.966 1.666 3.01V312h-1.456v-4.578c0-1.302-.182-1.792-.658-1.792-.546 0-.854.616-.854 1.792V312h-1.456v-4.578c0-1.302-.196-1.792-.728-1.792-.49 0-.77.616-.77 1.792V312h-1.456v-7.42Zm9.095 8.68 4.144-11.886h1.484l-4.144 11.886h-1.484Z" opacity=".75"/><path fill="#fff" d="M134.551 312v-10.43h6.79v1.47h-5.138v3.136h4.578v1.47h-4.578V312h-1.652Zm11.33.168a4.064 4.064 0 0 1-2.002-.504 3.919 3.919 0 0 1-1.428-1.414c-.354-.597-.532-1.279-.532-2.044 0-.756.173-1.433.518-2.03a3.813 3.813 0 0 1 1.428-1.4 4.008 4.008 0 0 1 2.016-.518c.738 0 1.405.173 2.002.518a3.7 3.7 0 0 1 1.414 1.4c.355.588.532 1.265.532 2.03 0 .765-.177 1.447-.532 2.044a3.904 3.904 0 0 1-1.428 1.414 3.984 3.984 0 0 1-1.988.504Zm0-1.47c.439 0 .831-.107 1.176-.322.346-.215.621-.509.826-.882.206-.383.308-.812.308-1.288s-.102-.901-.308-1.274a2.347 2.347 0 0 0-.826-.882 2.177 2.177 0 0 0-1.176-.322c-.438 0-.835.107-1.19.322-.345.215-.62.509-.826.882a2.698 2.698 0 0 0-.294 1.274c0 .476.098.905.294 1.288.206.373.481.667.826.882.355.215.752.322 1.19.322Zm8.055 1.47c-.569 0-1.069-.126-1.498-.378a2.742 2.742 0 0 1-1.008-1.078c-.233-.467-.35-1.003-.35-1.61v-4.676h1.582v4.536c0 .523.154.943.462 1.26.308.317.709.476 1.204.476s.901-.159 1.218-.476c.317-.327.476-.77.476-1.33v-4.466h1.568V312h-1.498v-.924a2.098 2.098 0 0 1-.896.812c-.373.187-.793.28-1.26.28Zm5.361-.168v-7.574h1.512v.924c.205-.355.495-.625.868-.812.383-.187.807-.28 1.274-.28.551 0 1.041.121 1.47.364.429.243.765.579 1.008 1.008.252.429.378.919.378 1.47v4.9h-1.568v-4.466c0-.56-.159-.999-.476-1.316-.308-.327-.709-.49-1.204-.49s-.901.163-1.218.49c-.308.317-.462.756-.462 1.316V312h-1.582Zm11.563.168c-.728 0-1.381-.173-1.96-.518a3.92 3.92 0 0 1-1.358-1.428c-.326-.597-.49-1.269-.49-2.016 0-.747.164-1.419.49-2.016a3.804 3.804 0 0 1 1.358-1.414 3.73 3.73 0 0 1 1.946-.518c.523 0 .994.093 1.414.28.42.177.775.434 1.064.77v-3.906h1.568V312h-1.498v-.966c-.28.364-.644.644-1.092.84a3.491 3.491 0 0 1-1.442.294Zm.154-1.47c.439 0 .831-.107 1.176-.322.346-.215.621-.509.826-.882.206-.373.308-.803.308-1.288 0-.476-.102-.901-.308-1.274a2.347 2.347 0 0 0-.826-.882 2.177 2.177 0 0 0-1.176-.322c-.448 0-.849.107-1.204.322a2.252 2.252 0 0 0-.812.882 2.698 2.698 0 0 0-.294 1.274c0 .485.098.915.294 1.288.196.373.467.667.812.882.355.215.756.322 1.204.322Zm7.853 1.47c-.765 0-1.386-.196-1.862-.588-.476-.392-.714-.919-.714-1.582 0-.607.205-1.12.616-1.54.42-.429 1.069-.719 1.946-.868l2.408-.392v-.294c0-.364-.14-.667-.42-.91-.28-.243-.644-.364-1.092-.364-.42 0-.789.112-1.106.336a1.829 1.829 0 0 0-.686.84l-1.316-.658c.14-.364.364-.686.672-.966a3.394 3.394 0 0 1 1.12-.672 3.692 3.692 0 0 1 1.358-.252c.597 0 1.125.112 1.582.336.457.224.817.537 1.078.938.261.392.392.849.392 1.372V312h-1.512v-.882c-.28.336-.63.597-1.05.784-.42.177-.891.266-1.414.266Zm-.924-2.226c0 .289.107.527.322.714.224.177.509.266.854.266.42 0 .789-.089 1.106-.266.327-.187.579-.439.756-.756.187-.317.28-.667.28-1.05v-.406l-2.1.364c-.42.075-.728.21-.924.406a.99.99 0 0 0-.294.728Zm9.749 2.142c-.793 0-1.409-.224-1.848-.672-.439-.448-.658-1.078-.658-1.89v-3.668h-1.33v-1.428h.21c.345 0 .616-.098.812-.294.205-.205.308-.49.308-.854v-.588h1.582v1.736h1.722v1.428h-1.722v3.598c0 .392.093.695.28.91.196.215.523.322.98.322.168 0 .341-.014.518-.042V312a4.485 4.485 0 0 1-.854.084Zm2.258-8.694v-1.82h1.582v1.82h-1.582Zm0 8.61v-7.574h1.582V312h-1.582Zm6.946.168a4.061 4.061 0 0 1-2.002-.504 3.904 3.904 0 0 1-1.428-1.414c-.355-.597-.532-1.279-.532-2.044 0-.756.172-1.433.518-2.03a3.799 3.799 0 0 1 1.428-1.4 4.003 4.003 0 0 1 2.016-.518c.737 0 1.404.173 2.002.518a3.713 3.713 0 0 1 1.414 1.4c.354.588.532 1.265.532 2.03 0 .765-.178 1.447-.532 2.044a3.919 3.919 0 0 1-1.428 1.414 3.986 3.986 0 0 1-1.988.504Zm0-1.47c.438 0 .83-.107 1.176-.322.345-.215.62-.509.826-.882.205-.383.308-.812.308-1.288s-.103-.901-.308-1.274a2.363 2.363 0 0 0-.826-.882 2.182 2.182 0 0 0-1.176-.322c-.439 0-.836.107-1.19.322a2.347 2.347 0 0 0-.826.882 2.698 2.698 0 0 0-.294 1.274c0 .476.098.905.294 1.288.205.373.48.667.826.882.354.215.751.322 1.19.322Zm5.352 1.302v-7.574h1.512v.924c.205-.355.495-.625.868-.812.383-.187.807-.28 1.274-.28.551 0 1.041.121 1.47.364.429.243.765.579 1.008 1.008.252.429.378.919.378 1.47v4.9h-1.568v-4.466c0-.56-.159-.999-.476-1.316-.308-.327-.709-.49-1.204-.49s-.901.163-1.218.49c-.308.317-.462.756-.462 1.316V312h-1.582ZM264.256 312v-.952l2.884-3.122a90.38 90.38 0 0 0 1.358-1.498c.345-.392.597-.742.756-1.05.159-.308.238-.635.238-.98 0-.56-.168-.994-.504-1.302-.336-.317-.779-.476-1.33-.476-.56 0-1.041.163-1.442.49-.392.317-.658.77-.798 1.358l-1.246-.322a3.48 3.48 0 0 1 .672-1.456 3.33 3.33 0 0 1 1.204-.952 3.795 3.795 0 0 1 1.61-.336c.635 0 1.19.126 1.666.378.485.243.863.588 1.134 1.036.28.439.42.943.42 1.512 0 .392-.079.77-.238 1.134-.149.355-.383.737-.7 1.148-.317.411-.719.877-1.204 1.4l-2.576 2.8h4.942V312h-6.846Zm11.699.168c-.672 0-1.269-.145-1.792-.434a3.254 3.254 0 0 1-1.232-1.232c-.289-.523-.434-1.115-.434-1.778 0-.541.093-1.078.28-1.61.196-.532.518-1.092.966-1.68l2.94-3.864h1.652l-3.136 4.088a1.47 1.47 0 0 1 .448-.126c.159-.028.327-.042.504-.042.616 0 1.167.145 1.652.434.495.28.882.672 1.162 1.176.289.495.434 1.059.434 1.694 0 .644-.149 1.223-.448 1.736a3.32 3.32 0 0 1-1.232 1.204 3.586 3.586 0 0 1-1.764.434Zm0-1.232a2.07 2.07 0 0 0 1.05-.266c.308-.187.551-.439.728-.756.187-.327.28-.695.28-1.106 0-.411-.089-.775-.266-1.092a1.994 1.994 0 0 0-.742-.756 1.982 1.982 0 0 0-1.05-.28c-.401 0-.761.093-1.078.28a2.024 2.024 0 0 0-.728.756 2.202 2.202 0 0 0-.266 1.092c0 .411.089.779.266 1.106.187.317.434.569.742.756.308.177.663.266 1.064.266Zm6.519 1.064v-9.24H280.5v-1.19h3.36V312h-1.386ZM369.743 312l4.578-9.24h-5.11v-1.19h6.552v1.19l-4.536 9.24h-1.484Zm10.862.168c-.7 0-1.32-.14-1.862-.42a3.296 3.296 0 0 1-1.26-1.134 3.043 3.043 0 0 1-.448-1.624c0-.588.15-1.115.448-1.582.299-.476.714-.84 1.246-1.092a2.399 2.399 0 0 1-.882-.924 2.65 2.65 0 0 1-.308-1.246c0-.523.131-.989.392-1.4.271-.42.635-.747 1.092-.98a3.375 3.375 0 0 1 1.582-.364c.588 0 1.111.117 1.568.35.458.233.817.56 1.078.98.271.411.406.882.406 1.414a2.53 2.53 0 0 1-1.19 2.17c.542.261.962.625 1.26 1.092.299.467.448.994.448 1.582 0 .607-.154 1.148-.462 1.624a3.266 3.266 0 0 1-1.274 1.134c-.532.28-1.143.42-1.834.42Zm0-6.384c.476 0 .873-.149 1.19-.448.318-.299.476-.686.476-1.162 0-.467-.158-.845-.476-1.134-.317-.299-.714-.448-1.19-.448-.485 0-.891.149-1.218.448-.317.289-.476.667-.476 1.134 0 .476.159.863.476 1.162.327.299.733.448 1.218.448Zm0 5.194c.654 0 1.181-.182 1.582-.546.402-.373.602-.859.602-1.456 0-.607-.2-1.092-.602-1.456-.401-.364-.928-.546-1.582-.546-.662 0-1.194.182-1.596.546-.392.364-.588.849-.588 1.456 0 .597.196 1.083.588 1.456.402.364.934.546 1.596.546Z"/><path fill="#fff" d="M71.494 345.098h1.134l-.252 3.262c-.084.98-.014 1.512.28 1.512.462 0 .686-.686.756-2.422.084-2.59-.84-4.27-2.31-4.27-1.806 0-3.178 1.946-3.276 4.62-.14 3.626 1.806 4.886 4.144 3.57l.476 1.05c-2.898 1.75-5.95-.182-5.782-4.62.112-3.374 1.988-5.74 4.466-5.74 2.156 0 3.542 2.128 3.444 5.32-.14 4.018-2.842 4.144-3.22 2.464-.28.616-.812 1.022-1.344 1.022-1.134 0-1.82-1.232-1.61-2.926.182-1.722 1.064-2.968 2.114-2.968.448 0 .784.224.938.588l.042-.462Zm-1.876 2.8c-.112 1.176.154 1.974.644 1.974.476 0 .854-.798.966-1.974.126-1.204-.098-2.002-.602-2.002-.476 0-.882.798-1.008 2.002Zm11.11-.658c-.14-.91-.854-1.484-1.68-1.484-1.218 0-1.918.952-1.918 2.534 0 1.568.7 2.52 1.918 2.52.854 0 1.582-.588 1.722-1.568l1.568.084c-.224 1.736-1.624 2.842-3.29 2.842-2.114 0-3.472-1.512-3.472-3.878s1.358-3.878 3.472-3.878c1.624 0 3.038 1.064 3.234 2.73l-1.554.098Zm3.187-.434c.28-1.47 1.512-2.394 3.108-2.394 1.82 0 2.996 1.05 2.996 3.108v2.688c0 .336.14.476.448.476h.322V352h-.392c-.896 0-1.428-.476-1.568-1.134-.294.7-1.176 1.302-2.338 1.302-1.498 0-2.702-.798-2.702-2.114 0-1.526 1.12-2.016 2.87-2.352l1.876-.35c-.014-1.064-.616-1.596-1.54-1.596-.798 0-1.372.476-1.526 1.148l-1.554-.098Zm1.428 3.192c.014.49.448.882 1.358.882 1.05 0 1.862-.728 1.862-1.988v-.294l-1.498.266c-.994.168-1.722.28-1.722 1.134Zm7.162.686h2.549v-6.482c0-.574-.252-.84-.799-.84h-1.75v-1.302h1.75c1.47 0 2.269.742 2.269 2.142v6.482h2.267V352h-6.285v-1.316Zm12.987-3.444c-.14-.91-.854-1.484-1.68-1.484-1.218 0-1.918.952-1.918 2.534 0 1.568.7 2.52 1.918 2.52.854 0 1.582-.588 1.722-1.568l1.568.084c-.224 1.736-1.624 2.842-3.29 2.842-2.114 0-3.472-1.512-3.472-3.878s1.358-3.878 3.472-3.878c1.624 0 3.038 1.064 3.234 2.73l-1.554.098Zm6.393 4.928c-2.058 0-3.472-1.54-3.472-3.878 0-2.352 1.414-3.878 3.472-3.878 2.072 0 3.472 1.526 3.472 3.878 0 2.338-1.4 3.878-3.472 3.878Zm-1.918-3.878c0 1.568.714 2.52 1.918 2.52s1.918-.952 1.918-2.52c0-1.582-.714-2.534-1.918-2.534s-1.918.952-1.918 2.534Zm6.518-3.71h1.302l.042 1.008c.28-.77.784-1.176 1.498-1.176.658 0 1.064.406 1.316 1.33.252-.84.812-1.33 1.554-1.33 1.134 0 1.666.966 1.666 3.01V352h-1.456v-4.578c0-1.302-.182-1.792-.658-1.792-.546 0-.854.616-.854 1.792V352h-1.456v-4.578c0-1.302-.196-1.792-.728-1.792-.49 0-.77.616-.77 1.792V352h-1.456v-7.42Zm9.095 8.68 4.144-11.886h1.484l-4.144 11.886h-1.484Z" opacity=".75"/><path fill="#fff" d="M134.29 352v-10.43h3.794c.7 0 1.316.131 1.848.392.541.261.961.635 1.26 1.12.298.485.448 1.069.448 1.75 0 .672-.154 1.251-.462 1.736a2.963 2.963 0 0 1-1.246 1.12c-.532.261-1.148.392-1.848.392h-2.142V352h-1.652Zm1.652-5.39h2.184c.56 0 1.012-.159 1.358-.476.345-.327.518-.765.518-1.316 0-.541-.173-.971-.518-1.288-.346-.327-.798-.49-1.358-.49h-2.184v3.57Zm7.104 5.39v-10.598h1.582V352h-1.582Zm5.56.168c-.765 0-1.386-.196-1.862-.588-.476-.392-.714-.919-.714-1.582 0-.607.205-1.12.616-1.54.42-.429 1.069-.719 1.946-.868l2.408-.392v-.294c0-.364-.14-.667-.42-.91-.28-.243-.644-.364-1.092-.364-.42 0-.789.112-1.106.336a1.829 1.829 0 0 0-.686.84l-1.316-.658c.14-.364.364-.686.672-.966a3.394 3.394 0 0 1 1.12-.672 3.692 3.692 0 0 1 1.358-.252c.597 0 1.125.112 1.582.336.457.224.817.537 1.078.938.261.392.392.849.392 1.372V352h-1.512v-.882c-.28.336-.63.597-1.05.784-.42.177-.891.266-1.414.266Zm-.924-2.226c0 .289.107.527.322.714.224.177.509.266.854.266.42 0 .789-.089 1.106-.266.327-.187.579-.439.756-.756.187-.317.28-.667.28-1.05v-.406l-2.1.364c-.42.075-.728.21-.924.406a.99.99 0 0 0-.294.728Zm9.749 2.142c-.793 0-1.409-.224-1.848-.672-.439-.448-.658-1.078-.658-1.89v-3.668h-1.33v-1.428h.21c.345 0 .616-.098.812-.294.205-.205.308-.49.308-.854v-.588h1.582v1.736h1.722v1.428h-1.722v3.598c0 .392.093.695.28.91.196.215.523.322.98.322.168 0 .341-.014.518-.042V352a4.485 4.485 0 0 1-.854.084Zm3.112-.084v-6.146h-1.4v-1.428h1.4v-.392c0-.84.257-1.489.77-1.946.513-.457 1.176-.686 1.988-.686.103 0 .219.009.35.028.131.009.238.023.322.042v1.372a1.028 1.028 0 0 0-.252-.028 2.477 2.477 0 0 0-.224-.014c-.42 0-.756.098-1.008.294-.252.187-.378.499-.378.938v.392h1.736v1.428h-1.736V352h-1.568Zm8.019.168a4.064 4.064 0 0 1-2.002-.504 3.919 3.919 0 0 1-1.428-1.414c-.354-.597-.532-1.279-.532-2.044 0-.756.173-1.433.518-2.03a3.813 3.813 0 0 1 1.428-1.4 4.008 4.008 0 0 1 2.016-.518c.738 0 1.405.173 2.002.518a3.7 3.7 0 0 1 1.414 1.4c.355.588.532 1.265.532 2.03 0 .765-.177 1.447-.532 2.044a3.904 3.904 0 0 1-1.428 1.414 3.984 3.984 0 0 1-1.988.504Zm0-1.47c.439 0 .831-.107 1.176-.322.346-.215.621-.509.826-.882.206-.383.308-.812.308-1.288s-.102-.901-.308-1.274a2.347 2.347 0 0 0-.826-.882 2.177 2.177 0 0 0-1.176-.322c-.438 0-.835.107-1.19.322-.345.215-.62.509-.826.882a2.698 2.698 0 0 0-.294 1.274c0 .476.098.905.294 1.288.206.373.481.667.826.882.355.215.752.322 1.19.322Zm5.353 1.302v-7.574h1.512v.98c.186-.383.452-.658.798-.826.345-.168.751-.252 1.218-.252h.462v1.442h-.658c-.523 0-.948.163-1.274.49-.318.327-.476.784-.476 1.372V352h-1.582Zm4.932 0v-7.574h1.512v.938c.205-.364.49-.639.854-.826.373-.187.789-.28 1.246-.28.513 0 .98.117 1.4.35.42.233.742.546.966.938a2.563 2.563 0 0 1 1.008-.966 2.913 2.913 0 0 1 1.372-.322c.523 0 .994.121 1.414.364.429.243.77.579 1.022 1.008.252.429.378.919.378 1.47v4.9h-1.582v-4.466c0-.56-.149-.999-.448-1.316-.289-.327-.672-.49-1.148-.49-.476 0-.868.163-1.176.49-.299.317-.448.756-.448 1.316V352h-1.568v-4.466c0-.56-.149-.999-.448-1.316-.299-.327-.686-.49-1.162-.49-.476 0-.863.163-1.162.49-.299.317-.448.756-.448 1.316V352h-1.582ZM265.992 352v-9.24h-1.974v-1.19h3.36V352h-1.386Zm3.946 1.946v-.63c.569-.159.872-.597.91-1.316h-.63v-1.68h1.358v1.19c0 1.372-.546 2.184-1.638 2.436Zm7.221-1.778c-.7 0-1.32-.14-1.862-.42a3.296 3.296 0 0 1-1.26-1.134 3.043 3.043 0 0 1-.448-1.624c0-.588.15-1.115.448-1.582.299-.476.714-.84 1.246-1.092a2.399 2.399 0 0 1-.882-.924 2.65 2.65 0 0 1-.308-1.246c0-.523.131-.989.392-1.4.271-.42.635-.747 1.092-.98a3.375 3.375 0 0 1 1.582-.364c.588 0 1.111.117 1.568.35.458.233.817.56 1.078.98.271.411.406.882.406 1.414a2.53 2.53 0 0 1-1.19 2.17c.542.261.962.625 1.26 1.092.299.467.448.994.448 1.582 0 .607-.154 1.148-.462 1.624a3.266 3.266 0 0 1-1.274 1.134c-.532.28-1.143.42-1.834.42Zm0-6.384c.476 0 .873-.149 1.19-.448.318-.299.476-.686.476-1.162 0-.467-.158-.845-.476-1.134-.317-.299-.714-.448-1.19-.448-.485 0-.891.149-1.218.448-.317.289-.476.667-.476 1.134 0 .476.159.863.476 1.162.327.299.733.448 1.218.448Zm0 5.194c.654 0 1.181-.182 1.582-.546.402-.373.602-.859.602-1.456 0-.607-.2-1.092-.602-1.456-.401-.364-.928-.546-1.582-.546-.662 0-1.194.182-1.596.546-.392.364-.588.849-.588 1.456 0 .597.196 1.083.588 1.456.402.364.934.546 1.596.546Zm8.371 1.19c-.831 0-1.568-.215-2.212-.644a3.276 3.276 0 0 1-1.33-1.764l1.162-.476c.196.523.504.929.924 1.218.42.289.905.434 1.456.434.644 0 1.176-.187 1.596-.56.42-.373.63-.896.63-1.568 0-.681-.21-1.204-.63-1.568-.42-.373-.957-.56-1.61-.56-.327 0-.616.037-.868.112l-.294-.63 2.786-3.402h-4.62v-1.19h6.174v1.148l-2.394 2.94c.56.065 1.05.238 1.47.518.429.271.761.63.994 1.078.243.448.364.957.364 1.526a3.28 3.28 0 0 1-1.736 2.94c-.541.299-1.162.448-1.862.448Zm5.367-.168 4.578-9.24h-5.11v-1.19h6.552v1.19l-4.536 9.24h-1.484ZM365.375 352.168c-.831 0-1.568-.215-2.212-.644a3.27 3.27 0 0 1-1.33-1.764l1.162-.476c.196.523.504.929.924 1.218.42.289.905.434 1.456.434.644 0 1.176-.187 1.596-.56.42-.373.63-.896.63-1.568 0-.681-.21-1.204-.63-1.568-.42-.373-.957-.56-1.61-.56-.327 0-.616.037-.868.112l-.294-.63 2.786-3.402h-4.62v-1.19h6.174v1.148l-2.394 2.94c.56.065 1.05.238 1.47.518.429.271.76.63.994 1.078.242.448.364.957.364 1.526a3.28 3.28 0 0 1-1.736 2.94c-.542.299-1.162.448-1.862.448Zm6.78-.168v-9.24h-1.974v-1.19h3.36V352h-1.386Zm7.796.168c-.821 0-1.545-.224-2.17-.672-.625-.457-1.111-1.087-1.456-1.89-.345-.812-.518-1.755-.518-2.828s.173-2.011.518-2.814c.345-.812.826-1.442 1.442-1.89.625-.448 1.349-.672 2.17-.672s1.54.224 2.156.672c.625.448 1.111 1.078 1.456 1.89.355.803.532 1.741.532 2.814s-.173 2.016-.518 2.828c-.345.812-.831 1.442-1.456 1.89-.616.448-1.335.672-2.156.672Zm0-1.274c.551 0 1.031-.168 1.442-.504.42-.345.742-.826.966-1.442.233-.616.35-1.339.35-2.17s-.117-1.549-.35-2.156c-.224-.616-.546-1.092-.966-1.428a2.193 2.193 0 0 0-1.456-.518c-.56 0-1.045.173-1.456.518-.411.336-.733.812-.966 1.428-.224.607-.336 1.325-.336 2.156 0 .821.112 1.545.336 2.17.233.616.555 1.097.966 1.442.42.336.91.504 1.47.504Z"/></g><defs><clipPath id="a"><path fill="#fff" d="M0 0h450v390H0z"/></clipPath></defs></svg>
