<svg xmlns="http://www.w3.org/2000/svg" width="450" height="390" fill="none"><g clip-path="url(#a)"><path fill="#f3f4f6" d="M0 0h450v390H0z"/><path stroke="#0b151e" stroke-opacity=".05" d="M30 0H0v30M30 0v30m0-30h30M30 30H0m30 0h30m-30 0v30M0 30v30M60 0v30m0-30h30M60 30h30m-30 0v30M90 0v30m0-30h30M90 30h30m-30 0v30m30-60v30m0-30h30m-30 30h30m-30 0v30m30-60v30m0-30h30m-30 30h30m-30 0v30m30-60v30m0-30h30m-30 30h30m-30 0v30m30-60v30m0-30h30m-30 30h30m-30 0v30m30-60v30m0-30h30m-30 30h30m-30 0v30m30-60v30m0-30h30m-30 30h30m-30 0v30m30-60v30m0-30h30m-30 30h30m-30 0v30m30-60v30m0-30h30m-30 30h30m-30 0v30m30-60v30m0-30h30m-30 30h30m-30 0v30m30-60v30m0-30h30m-30 30h30m-30 0v30m30-60v30m0-30h30v30m-30 0h30m-30 0v30m30-30v30M30 60H0m30 0h30m-30 0v30M0 60v30m60-30h30m-30 0v30m30-30h30m-30 0v30m30-30h30m-30 0v30m30-30h30m-30 0v30m30-30h30m-30 0v30m30-30h30m-30 0v30m30-30h30m-30 0v30m30-30h30m-30 0v30m30-30h30m-30 0v30m30-30h30m-30 0v30m30-30h30m-30 0v30m30-30h30m-30 0v30m30-30h30m-30 0v30m30-30v30M30 90H0m30 0h30m-30 0v30M0 90v30m60-30h30m-30 0v30m30-30h30m-30 0v30m30-30h30m-30 0v30m30-30h30m-30 0v30m30-30h30m-30 0v30m30-30h30m-30 0v30m30-30h30m-30 0v30m30-30h30m-30 0v30m30-30h30m-30 0v30m30-30h30m-30 0v30m30-30h30m-30 0v30m30-30h30m-30 0v30m30-30h30m-30 0v30m30-30v30m-420 0H0m30 0h30m-30 0v30M0 120v30m60-30h30m-30 0v30m30-30h30m-30 0v30m30-30h30m-30 0v30m30-30h30m-30 0v30m30-30h30m-30 0v30m30-30h30m-30 0v30m30-30h30m-30 0v30m30-30h30m-30 0v30m30-30h30m-30 0v30m30-30h30m-30 0v30m30-30h30m-30 0v30m30-30h30m-30 0v30m30-30h30m-30 0v30m30-30v30m-420 0H0m30 0h30m-30 0v30M0 150v30m60-30h30m-30 0v30m30-30h30m-30 0v30m30-30h30m-30 0v30m30-30h30m-30 0v30m30-30h30m-30 0v30m30-30h30m-30 0v30m30-30h30m-30 0v30m30-30h30m-30 0v30m30-30h30m-30 0v30m30-30h30m-30 0v30m30-30h30m-30 0v30m30-30h30m-30 0v30m30-30h30m-30 0v30m30-30v30m-420 0H0m30 0h30m-30 0v30M0 180v30m60-30h30m-30 0v30m30-30h30m-30 0v30m30-30h30m-30 0v30m30-30h30m-30 0v30m30-30h30m-30 0v30m30-30h30m-30 0v30m30-30h30m-30 0v30m30-30h30m-30 0v30m30-30h30m-30 0v30m30-30h30m-30 0v30m30-30h30m-30 0v30m30-30h30m-30 0v30m30-30h30m-30 0v30m30-30v30m-420 0H0m30 0h30m-30 0v30M0 210v30m60-30h30m-30 0v30m30-30h30m-30 0v30m30-30h30m-30 0v30m30-30h30m-30 0v30m30-30h30m-30 0v30m30-30h30m-30 0v30m30-30h30m-30 0v30m30-30h30m-30 0v30m30-30h30m-30 0v30m30-30h30m-30 0v30m30-30h30m-30 0v30m30-30h30m-30 0v30m30-30h30m-30 0v30m30-30v30m-420 0H0m30 0h30m-30 0v30M0 240v30m60-30h30m-30 0v30m30-30h30m-30 0v30m30-30h30m-30 0v30m30-30h30m-30 0v30m30-30h30m-30 0v30m30-30h30m-30 0v30m30-30h30m-30 0v30m30-30h30m-30 0v30m30-30h30m-30 0v30m30-30h30m-30 0v30m30-30h30m-30 0v30m30-30h30m-30 0v30m30-30h30m-30 0v30m30-30v30m-420 0H0m30 0h30m-30 0v30M0 270v30m60-30h30m-30 0v30m30-30h30m-30 0v30m30-30h30m-30 0v30m30-30h30m-30 0v30m30-30h30m-30 0v30m30-30h30m-30 0v30m30-30h30m-30 0v30m30-30h30m-30 0v30m30-30h30m-30 0v30m30-30h30m-30 0v30m30-30h30m-30 0v30m30-30h30m-30 0v30m30-30h30m-30 0v30m30-30v30m-420 0H0m30 0h30m-30 0v30M0 300v30m60-30h30m-30 0v30m30-30h30m-30 0v30m30-30h30m-30 0v30m30-30h30m-30 0v30m30-30h30m-30 0v30m30-30h30m-30 0v30m30-30h30m-30 0v30m30-30h30m-30 0v30m30-30h30m-30 0v30m30-30h30m-30 0v30m30-30h30m-30 0v30m30-30h30m-30 0v30m30-30h30m-30 0v30m30-30v30m-420 0H0m30 0h30m-30 0v30M0 330v30m60-30h30m-30 0v30m30-30h30m-30 0v30m30-30h30m-30 0v30m30-30h30m-30 0v30m30-30h30m-30 0v30m30-30h30m-30 0v30m30-30h30m-30 0v30m30-30h30m-30 0v30m30-30h30m-30 0v30m30-30h30m-30 0v30m30-30h30m-30 0v30m30-30h30m-30 0v30m30-30h30m-30 0v30m30-30v30m-420 0H0m30 0h30m-30 0v30M0 360v30h30m30-30h30m-30 0v30m30-30h30m-30 0v30m30-30h30m-30 0v30m30-30h30m-30 0v30m30-30h30m-30 0v30m30-30h30m-30 0v30m30-30h30m-30 0v30m30-30h30m-30 0v30m30-30h30m-30 0v30m30-30h30m-30 0v30m30-30h30m-30 0v30m30-30h30m-30 0v30m30-30h30m-30 0v30m30-30v30h-30m-390 0h30m0 0h30m0 0h30m0 0h30m0 0h30m0 0h30m0 0h30m0 0h30m0 0h30m0 0h30m0 0h30m0 0h30m0 0h30"/><g opacity=".8"><path fill="#f3f4f6" d="M90 51c0-11.046 8.954-20 20-20h230c11.046 0 20 8.954 20 20v12H90z"/><path stroke="#0b151e" stroke-opacity=".1" d="M340 30.5c11.322 0 20.5 9.178 20.5 20.5v12.5h-271V51c0-11.322 9.178-20.5 20.5-20.5z"/></g><path fill="#f4f5f7" d="M61 66c0-11.046 8.954-20 20-20h288c11.046 0 20 8.954 20 20v12H61z"/><path stroke="#0b151e" stroke-opacity=".1" d="M369 45.5c11.322 0 20.5 9.178 20.5 20.5v12.5h-329V66c0-11.322 9.178-20.5 20.5-20.5z"/><rect width="359" height="350" x="46" y="60" fill="#fff" rx="20"/><rect width="360" height="351" x="45.5" y="59.5" stroke="#0b151e" stroke-opacity=".1" rx="20.5"/><path fill="#0b151e" d="M70.459 112V99.5h-3.86v-2.4h10.4v2.4h-3.8V112zm11.534.24q-1.68 0-2.94-.76a5.34 5.34 0 0 1-1.96-2.04q-.7-1.3-.7-2.9 0-1.62.7-2.9a5.43 5.43 0 0 1 1.94-2.02q1.22-.74 2.76-.74 1.68 0 2.86.74a4.8 4.8 0 0 1 1.8 1.92q.64 1.2.64 2.66 0 .3-.04.6a1.9 1.9 0 0 1-.1.5h-7.84q.12 1.22.92 1.94.8.7 1.98.7.9 0 1.52-.38.64-.38 1-1.02l2.12 1.04q-.5 1.16-1.76 1.92-1.24.74-2.9.74m-.2-9.2q-.98 0-1.7.6-.7.58-.92 1.66h5.12q-.081-1-.78-1.62-.68-.64-1.72-.64m10.346 9.2q-1.7 0-2.72-.84t-1.02-2.28q0-1.36.92-2.26t2.84-1.22l3.24-.52v-.36q0-.7-.56-1.16-.54-.48-1.44-.48-.86 0-1.5.46a2.57 2.57 0 0 0-.94 1.18l-2.14-1.04q.48-1.28 1.76-2.06t2.92-.78q1.341 0 2.34.5 1.02.5 1.6 1.38.58.86.58 2V112h-2.48v-1.14q-1.28 1.38-3.4 1.38m-1.02-3.22q0 .56.42.9.42.32 1.08.32 1.24 0 2-.76.78-.78.78-1.92v-.44l-2.74.46q-1.54.28-1.54 1.44m9.122 2.98v-10.88h2.46v1.36a2.84 2.84 0 0 1 1.24-1.2q.8-.4 1.8-.38 1.1-.02 1.98.46.9.48 1.38 1.28a3.63 3.63 0 0 1 1.42-1.32 4.3 4.3 0 0 1 1.96-.44q1.16 0 2.06.54a3.75 3.75 0 0 1 1.44 1.44q.52.92.52 2.14v7h-2.62v-6.38q0-1.08-.58-1.7-.56-.64-1.52-.64-.94 0-1.52.64t-.58 1.7V112h-2.62v-6.38q0-1.08-.58-1.7-.56-.64-1.52-.64t-1.54.64q-.56.64-.56 1.7V112zm27.171.24a6.7 6.7 0 0 1-2.64-.52 6.3 6.3 0 0 1-2.08-1.44 5.9 5.9 0 0 1-1.26-2.18l2.26-.98q.54 1.3 1.56 2.02t2.3.72q1.06 0 1.7-.48.66-.5.66-1.34 0-.66-.4-1.08-.38-.42-1.16-.68l-2.86-.92q-1.74-.56-2.62-1.62-.88-1.08-.88-2.54 0-1.28.62-2.26.64-.98 1.76-1.52 1.12-.56 2.6-.56 2 0 3.5 1.02t2.1 2.7l-2.24 1q-.44-1.1-1.32-1.72-.879-.62-2.04-.62-1.04 0-1.68.52-.62.5-.62 1.32 0 1.3 1.62 1.82l2.74.86q3.56 1.14 3.56 4.12 0 1.28-.66 2.26t-1.84 1.54q-1.16.56-2.68.56m12.17-.12q-1.84 0-2.86-1-1-1.02-1-2.86v-4.8h-1.88v-2.34h.2q.8 0 1.24-.42t.44-1.22v-.84h2.62v2.48h2.5v2.34h-2.5v4.66q0 .82.44 1.26t1.4.44q.3 0 .7-.06V112q-.28.04-.64.08t-.66.04m6.362.12q-1.7 0-2.72-.84t-1.02-2.28q0-1.36.92-2.26t2.84-1.22l3.24-.52v-.36q0-.7-.56-1.16-.54-.48-1.44-.48-.86 0-1.5.46-.64.44-.94 1.18l-2.14-1.04q.48-1.28 1.76-2.06t2.92-.78q1.341 0 2.34.5 1.02.5 1.6 1.38.58.86.58 2V112h-2.48v-1.14q-1.28 1.38-3.4 1.38m-1.02-3.22q0 .56.42.9.42.32 1.08.32 1.24 0 2-.76.78-.78.78-1.92v-.44l-2.74.46q-1.54.28-1.54 1.44m13.886 3.1q-1.84 0-2.86-1-1-1.02-1-2.86v-4.8h-1.88v-2.34h.2q.8 0 1.24-.42t.44-1.22v-.84h2.62v2.48h2.5v2.34h-2.5v4.66q0 .82.44 1.26t1.4.44q.3 0 .7-.06V112q-.28.04-.64.08t-.66.04m6.982.12q-1.92 0-3.02-1.22-1.08-1.24-1.08-3.24v-6.66h2.62v6.44q0 1.04.6 1.66.62.62 1.6.62.96 0 1.58-.62.62-.64.62-1.72v-6.38h2.62V112h-2.48v-1.32a2.86 2.86 0 0 1-1.24 1.18q-.8.38-1.82.38m11.916 0q-1.74 0-3.04-.82a4.27 4.27 0 0 1-1.76-2.26l1.96-.94q.42.92 1.16 1.44.759.52 1.68.52.7 0 1.12-.3.44-.32.44-.86a.84.84 0 0 0-.38-.74 2.7 2.7 0 0 0-.88-.4l-1.78-.5q-1.38-.38-2.1-1.2a2.97 2.97 0 0 1-.7-1.96q0-1 .52-1.74.52-.76 1.42-1.18t2.08-.42q1.54 0 2.72.76a4.07 4.07 0 0 1 1.68 2.06l-2 .94a2.4 2.4 0 0 0-.94-1.18 2.6 2.6 0 0 0-1.48-.44q-.66 0-1.04.3t-.38.78q0 .46.34.72.36.26.94.42l1.74.52q1.34.4 2.06 1.22.74.8.74 1.94 0 1-.52 1.74t-1.46 1.16q-.92.42-2.14.42"/><path fill="#0b151e" d="M72.146 160.168q-1.133 0-2.114-.392a5.2 5.2 0 0 1-1.708-1.134 5.4 5.4 0 0 1-1.148-1.708 5.65 5.65 0 0 1-.406-2.156q0-1.162.406-2.142a5.2 5.2 0 0 1 1.134-1.708 5.2 5.2 0 0 1 1.722-1.12 5.5 5.5 0 0 1 2.114-.406q1.133 0 2.114.406a5 5 0 0 1 1.708 1.12 5.1 5.1 0 0 1 1.148 1.708 5.5 5.5 0 0 1 .406 2.142q0 1.162-.42 2.156a5.2 5.2 0 0 1-1.134 1.708 5.2 5.2 0 0 1-1.708 1.134 5.7 5.7 0 0 1-2.114.392m0-1.512q1.078 0 1.918-.504a3.8 3.8 0 0 0 1.33-1.386q.49-.882.49-1.988 0-1.092-.49-1.96a3.6 3.6 0 0 0-1.33-1.4q-.84-.518-1.918-.518-1.079 0-1.932.518a3.65 3.65 0 0 0-1.316 1.4q-.476.868-.476 1.96 0 1.106.476 1.988.49.869 1.33 1.386.84.504 1.918.504M80.909 160l-2.604-7.574h1.68l1.694 5.152 1.736-5.152h1.442l1.722 5.152 1.708-5.152h1.68L87.349 160h-1.428l-1.792-5.39-1.778 5.39zm10.003 0v-7.574h1.512v.924q.307-.532.868-.812.573-.28 1.274-.28.825 0 1.47.364.644.365 1.008 1.008.378.644.378 1.47v4.9h-1.568v-4.466q-.001-.84-.476-1.316-.463-.49-1.204-.49-.743 0-1.218.49-.462.476-.462 1.316V160zm11.619.168q-1.134 0-2.016-.518a3.77 3.77 0 0 1-1.358-1.428 4.2 4.2 0 0 1-.49-2.03q0-1.134.49-2.016a3.63 3.63 0 0 1 3.248-1.918q1.133 0 1.946.518.812.504 1.232 1.344a3.8 3.8 0 0 1 .434 1.806q0 .182-.014.378t-.056.364h-5.642q.07.966.7 1.54.643.56 1.54.56.685 0 1.162-.308t.77-.798l1.288.63q-.351.811-1.218 1.344-.869.532-2.016.532m-.126-6.58a2.06 2.06 0 0 0-1.358.476q-.56.476-.7 1.344h3.99q-.042-.798-.602-1.302a1.86 1.86 0 0 0-1.33-.518m5.016 6.412v-7.574h1.512v.98q.279-.574.798-.826.517-.252 1.218-.252h.462v1.442h-.658q-.785 0-1.274.49-.476.49-.476 1.372V160zM268.507 160.168a4.5 4.5 0 0 1-1.834-.364 4.2 4.2 0 0 1-1.386-1.022 3.9 3.9 0 0 1-.826-1.442l1.19-.49q.363 1.008 1.12 1.554.756.532 1.764.532.923 0 1.484-.42.573-.434.574-1.162 0-.658-.378-1.036-.379-.378-1.078-.588l-1.918-.588q-1.134-.35-1.736-1.106a2.7 2.7 0 0 1-.602-1.736q0-.854.406-1.498.42-.658 1.148-1.022.741-.378 1.68-.378.938 0 1.694.336.77.336 1.302.91.531.574.784 1.288l-1.176.49q-.336-.868-1.008-1.33-.673-.462-1.582-.462-.84 0-1.358.434-.518.42-.518 1.148 0 .574.364 1.022.363.448 1.106.686l1.75.518q2.492.77 2.492 2.814 0 .853-.448 1.512-.435.658-1.218 1.036-.784.364-1.792.364m8.239-.084q-1.107 0-1.708-.63-.588-.63-.588-1.778V153.7h-1.372v-1.246h.28q.504 0 .798-.294.294-.308.294-.826v-.616h1.302v1.736h1.694v1.246h-1.694v3.934q0 .575.28.924.28.336.98.336.097 0 .238-.014.154-.014.28-.028V160a2.5 2.5 0 0 1-.406.056q-.225.028-.378.028m2.344-.084v-7.546h1.274v.896q.574-.98 2.002-.98h.462v1.232h-.658q-.798 0-1.288.504-.49.49-.49 1.4V160zm4.755-8.75v-1.68h1.302v1.68zm0 8.75v-7.546h1.302V160zm3.182 0v-7.546h1.274v.938a2.1 2.1 0 0 1 .882-.812 2.7 2.7 0 0 1 1.274-.294q.798 0 1.442.378.645.365 1.008 1.008.378.63.378 1.442V160h-1.316v-4.466q0-.924-.504-1.456t-1.302-.532-1.316.532-.518 1.456V160zm11.579 3.08q-1.203 0-2.1-.546-.896-.546-1.274-1.428l1.218-.56q.196.532.742.896.56.378 1.4.378.63 0 1.148-.252.533-.238.84-.728.322-.476.322-1.162v-1.064q-.42.588-1.078.896a3.3 3.3 0 0 1-1.428.308q-1.064 0-1.904-.49a3.6 3.6 0 0 1-1.316-1.358q-.476-.854-.476-1.918t.476-1.904a3.65 3.65 0 0 1 1.302-1.358q.84-.504 1.904-.504.798 0 1.456.322.659.322 1.106.91v-1.064h1.274v7.224q0 .98-.462 1.75a3.2 3.2 0 0 1-1.288 1.204q-.812.448-1.862.448m-.098-4.522q.673 0 1.204-.336.546-.336.868-.896.322-.574.322-1.274 0-.686-.322-1.246a2.46 2.46 0 0 0-.868-.91 2.14 2.14 0 0 0-1.204-.35q-.7 0-1.246.35a2.46 2.46 0 0 0-.868.91 2.46 2.46 0 0 0-.322 1.246q0 .7.308 1.274.322.56.868.896.561.336 1.26.336m8.291 1.61q-1.134 0-1.974-.56a3.02 3.02 0 0 1-1.19-1.512l1.036-.504q.321.686.882 1.078.56.378 1.246.378.601 0 1.008-.28.42-.294.42-.784a.75.75 0 0 0-.196-.532 1.2 1.2 0 0 0-.448-.322 6 6 0 0 0-.49-.182l-1.134-.322q-1.023-.28-1.498-.826a1.93 1.93 0 0 1-.462-1.288q0-.672.336-1.162.35-.504.938-.784.601-.28 1.344-.28a3.2 3.2 0 0 1 1.778.518q.798.504 1.134 1.4l-1.064.49q-.252-.588-.756-.924a1.94 1.94 0 0 0-1.134-.35q-.574 0-.91.294a.89.89 0 0 0-.336.714q0 .336.154.532a1.2 1.2 0 0 0 .406.308q.252.097.476.168l1.232.364q.909.265 1.428.84.518.56.518 1.33 0 .644-.35 1.148-.35.49-.98.77-.616.28-1.414.28M356.164 160v-10.43h6.608v1.26h-5.236v3.374h4.746v1.26h-4.746V160zm7.868-8.75v-1.68h1.302v1.68zm0 8.75v-7.546h1.302V160zm3.182 0v-10.598h1.302V160zm6.654.168q-1.091 0-1.946-.518a3.7 3.7 0 0 1-1.344-1.414q-.49-.896-.49-2.03t.476-2.016a3.6 3.6 0 0 1 1.302-1.386 3.53 3.53 0 0 1 1.89-.518q1.107 0 1.89.518.798.518 1.218 1.344.435.826.434 1.764 0 .154-.028.35a4 4 0 0 1-.042.35h-5.768q.028.728.364 1.26.351.532.882.826.546.28 1.176.28.756 0 1.274-.35a2.74 2.74 0 0 0 .84-.896l1.092.56q-.35.784-1.204 1.33-.853.546-2.016.546m-.112-6.72q-.84 0-1.484.546-.643.546-.784 1.498h4.396a2 2 0 0 0-.308-1.05 2.13 2.13 0 0 0-1.82-.994m7.802 6.72q-1.134 0-1.974-.56a3.02 3.02 0 0 1-1.19-1.512l1.036-.504q.322.686.882 1.078.56.378 1.246.378.601 0 1.008-.28.42-.294.42-.784a.75.75 0 0 0-.196-.532 1.2 1.2 0 0 0-.448-.322 6 6 0 0 0-.49-.182l-1.134-.322q-1.022-.28-1.498-.826a1.93 1.93 0 0 1-.462-1.288q0-.672.336-1.162.35-.504.938-.784.602-.28 1.344-.28a3.2 3.2 0 0 1 1.778.518q.798.504 1.134 1.4l-1.064.49q-.252-.588-.756-.924a1.94 1.94 0 0 0-1.134-.35q-.574 0-.91.294a.89.89 0 0 0-.336.714q0 .336.154.532a1.2 1.2 0 0 0 .406.308q.252.097.476.168l1.232.364q.91.265 1.428.84.518.56.518 1.33 0 .644-.35 1.148-.35.49-.98.77-.616.28-1.414.28" opacity=".6"/><mask id="b" fill="#fff"><path d="M66 172h319v30H66z"/></mask><path fill="#0b151e" fill-opacity=".1" d="M385 202v-1H66v2h319z" mask="url(#b)"/><path fill="#0b151e" d="M67.028 182.06h1.904l3.024 7.56v-7.56h1.526V192h-2.03l-2.912-7.266V192h-1.512zm8.66 11.2 4.145-11.886h1.484l-4.144 11.886zm7.177-1.26 3.01-9.94h1.778l3.01 9.94h-1.568l-.714-2.464h-3.234L84.433 192zm2.646-3.752h2.492l-1.246-4.312z" opacity=".75"/><path fill="#0b151e" d="M267.616 192.168q-1.246 0-2.212-.644a3.28 3.28 0 0 1-1.33-1.764l1.162-.476q.294.785.924 1.218.63.434 1.456.434.966 0 1.596-.56t.63-1.568q0-1.022-.63-1.568-.63-.56-1.61-.56-.49 0-.868.112l-.294-.63 2.786-3.402h-4.62v-1.19h6.174v1.148l-2.394 2.94q.84.098 1.47.518.644.406.994 1.078.364.672.364 1.526a3.28 3.28 0 0 1-1.736 2.94q-.812.448-1.862.448m5.521 1.778v-.63q.854-.238.91-1.316h-.63v-1.68h1.358v1.19q0 2.058-1.638 2.436m7.222-1.778q-1.05 0-1.862-.42a3.3 3.3 0 0 1-1.26-1.134 3.03 3.03 0 0 1-.448-1.624q0-.882.448-1.582.447-.714 1.246-1.092a2.4 2.4 0 0 1-.882-.924 2.64 2.64 0 0 1-.308-1.246q0-.784.392-1.4a2.76 2.76 0 0 1 1.092-.98q.7-.364 1.582-.364t1.568.35q.685.35 1.078.98.405.616.406 1.414 0 .686-.322 1.26a2.46 2.46 0 0 1-.868.91q.812.391 1.26 1.092.447.7.448 1.582 0 .91-.462 1.624a3.3 3.3 0 0 1-1.274 1.134q-.798.42-1.834.42m0-6.384q.714 0 1.19-.448t.476-1.162q0-.7-.476-1.134-.476-.448-1.19-.448-.729 0-1.218.448-.476.434-.476 1.134 0 .714.476 1.162.489.448 1.218.448m0 5.194q.98 0 1.582-.546.602-.56.602-1.456 0-.91-.602-1.456-.603-.546-1.582-.546-.994 0-1.596.546-.588.546-.588 1.456 0 .896.588 1.456.602.546 1.596.546m5.01 1.022v-.952l2.884-3.122a90 90 0 0 0 1.358-1.498q.519-.588.756-1.05.238-.462.238-.98 0-.84-.504-1.302-.504-.476-1.33-.476-.84 0-1.442.49-.588.476-.798 1.358l-1.246-.322q.183-.84.672-1.456a3.3 3.3 0 0 1 1.204-.952 3.8 3.8 0 0 1 1.61-.336q.952 0 1.666.378.729.364 1.134 1.036.42.659.42 1.512 0 .588-.238 1.134-.223.532-.7 1.148-.475.616-1.204 1.4l-2.576 2.8h4.942V192zm12.567.168q-1.232 0-2.17-.672-.938-.685-1.456-1.89-.518-1.218-.518-2.828t.518-2.814q.518-1.218 1.442-1.89.938-.672 2.17-.672t2.156.672q.938.672 1.456 1.89.532 1.204.532 2.814t-.518 2.828-1.456 1.89q-.924.672-2.156.672m0-1.274q.826 0 1.442-.504.63-.518.966-1.442.35-.924.35-2.17t-.35-2.156q-.336-.924-.966-1.428a2.2 2.2 0 0 0-1.456-.518q-.84 0-1.456.518-.616.504-.966 1.428-.336.91-.336 2.156 0 1.232.336 2.17.35.924.966 1.442.63.504 1.47.504M362.394 192l3.136-4.088a1.8 1.8 0 0 1-.448.14 4 4 0 0 1-.504.028q-.924 0-1.666-.42a3.27 3.27 0 0 1-1.162-1.176q-.42-.756-.42-1.722t.448-1.722 1.232-1.19a3.5 3.5 0 0 1 1.764-.448q1.008 0 1.778.448.785.433 1.232 1.218.448.784.448 1.778 0 .812-.294 1.61t-.952 1.68l-2.94 3.864zm2.38-5.124q.602 0 1.064-.266.462-.28.728-.756.28-.476.28-1.092t-.28-1.092a1.96 1.96 0 0 0-.742-.77 2 2 0 0 0-1.05-.28q-.587 0-1.064.28-.462.28-.728.77a2.2 2.2 0 0 0-.266 1.092q0 .616.266 1.092.267.475.728.756.476.266 1.064.266m8.269 5.292q-.812 0-1.526-.28a3.8 3.8 0 0 1-1.246-.826 3.34 3.34 0 0 1-.756-1.274l1.12-.476q.294.77.952 1.204.672.42 1.456.42.644 0 1.134-.28.49-.294.77-.798.294-.504.294-1.148 0-.658-.294-1.162a2 2 0 0 0-.784-.784 2.1 2.1 0 0 0-1.106-.294q-.644 0-1.176.294t-.77.742l-1.106-.238.798-5.698h5.404v1.19h-4.438l-.42 3.038q.392-.28.868-.406t.98-.126q1.022 0 1.792.462.77.448 1.204 1.232t.434 1.75q0 .98-.476 1.764a3.4 3.4 0 0 1-1.274 1.246q-.798.448-1.834.448m5.365-.168 4.578-9.24h-5.11v-1.19h6.552v1.19l-4.536 9.24z"/><mask id="c" fill="#fff"><path d="M66 212h319v30H66z"/></mask><path fill="#0b151e" fill-opacity=".1" d="M385 242v-1H66v2h319z" mask="url(#c)"/><path fill="#0b151e" d="M72.433 232.168a5.4 5.4 0 0 1-2.058-.392 5 5 0 0 1-1.638-1.134 5.3 5.3 0 0 1-1.092-1.708 6 6 0 0 1-.378-2.156q0-1.162.378-2.142a5.4 5.4 0 0 1 1.078-1.708 4.8 4.8 0 0 1 1.638-1.12 5.2 5.2 0 0 1 2.072-.406q1.092 0 1.96.378a4.55 4.55 0 0 1 1.484.994q.616.616.882 1.316l-1.484.7a2.96 2.96 0 0 0-1.078-1.358q-.728-.532-1.764-.532-1.035 0-1.834.49a3.35 3.35 0 0 0-1.246 1.372q-.434.868-.434 2.016 0 1.162.434 2.044a3.37 3.37 0 0 0 1.246 1.358q.798.476 1.834.476 1.035 0 1.764-.518a2.96 2.96 0 0 0 1.078-1.358l1.484.7a3.7 3.7 0 0 1-.882 1.33 4.7 4.7 0 0 1-1.484.98q-.868.378-1.96.378m9.248 0a4.06 4.06 0 0 1-2.002-.504 3.9 3.9 0 0 1-1.428-1.414q-.532-.896-.532-2.044 0-1.134.518-2.03a3.8 3.8 0 0 1 1.428-1.4 4 4 0 0 1 2.016-.518 3.93 3.93 0 0 1 2.002.518 3.7 3.7 0 0 1 1.414 1.4q.532.882.532 2.03t-.532 2.044a3.9 3.9 0 0 1-1.428 1.414 4 4 0 0 1-1.988.504m0-1.47q.658 0 1.176-.322t.826-.882a2.7 2.7 0 0 0 .308-1.288q0-.714-.308-1.274a2.35 2.35 0 0 0-.826-.882 2.2 2.2 0 0 0-1.176-.322 2.25 2.25 0 0 0-1.19.322q-.517.322-.826.882a2.7 2.7 0 0 0-.294 1.274q0 .714.294 1.288.307.56.826.882a2.25 2.25 0 0 0 1.19.322M87.033 232v-7.574h1.512v.924q.309-.532.868-.812.575-.28 1.274-.28.827 0 1.47.364.645.365 1.008 1.008.378.644.378 1.47v4.9h-1.568v-4.466q0-.84-.476-1.316-.462-.49-1.204-.49-.741 0-1.218.49-.462.476-.462 1.316V232zm10.864.168q-1.177 0-2.044-.574a3.05 3.05 0 0 1-1.218-1.54l1.218-.574q.308.658.84 1.036.546.364 1.204.364.56 0 .91-.252a.8.8 0 0 0 .35-.686q0-.406-.322-.602a2.4 2.4 0 0 0-.686-.308l-1.19-.336q-.981-.28-1.47-.84a2 2 0 0 1-.477-1.33q0-.672.35-1.176.35-.518.953-.798.615-.294 1.4-.294 1.035 0 1.847.518.813.504 1.149 1.414l-1.218.574a1.95 1.95 0 0 0-.728-.868 1.85 1.85 0 0 0-1.064-.322q-.532 0-.84.252a.77.77 0 0 0-.294.63q0 .406.294.602.308.181.671.294l1.233.364q.922.265 1.428.84.518.56.518 1.344 0 .672-.364 1.19-.35.504-.98.798-.63.28-1.47.28m6.926 0q-.855 0-1.498-.378a2.73 2.73 0 0 1-1.008-1.078q-.35-.7-.35-1.61v-4.676h1.582v4.536q0 .785.462 1.26.462.476 1.204.476.741 0 1.218-.476.476-.49.476-1.33v-4.466h1.568V232h-1.498v-.924a2.1 2.1 0 0 1-.896.812q-.561.28-1.26.28m5.361-.168v-7.574h1.512v.938q.308-.546.854-.826a2.74 2.74 0 0 1 1.246-.28q.77 0 1.4.35t.966.938a2.56 2.56 0 0 1 1.008-.966 2.9 2.9 0 0 1 1.372-.322q.784 0 1.414.364.644.365 1.022 1.008.378.644.378 1.47v4.9h-1.582v-4.466q0-.84-.448-1.316-.435-.49-1.148-.49-.714 0-1.176.49-.448.476-.448 1.316V232h-1.568v-4.466q0-.84-.448-1.316-.448-.49-1.162-.49t-1.162.49q-.448.476-.448 1.316V232zm16.281.168q-1.134 0-2.016-.518a3.77 3.77 0 0 1-1.358-1.428q-.49-.91-.49-2.03 0-1.134.49-2.016a3.628 3.628 0 0 1 3.248-1.918q1.134 0 1.946.518.812.504 1.232 1.344a3.8 3.8 0 0 1 .434 1.806q0 .182-.014.378a2 2 0 0 1-.056.364h-5.642q.07.966.7 1.54.644.56 1.54.56.686 0 1.162-.308t.77-.798l1.288.63q-.35.812-1.218 1.344t-2.016.532m-.126-6.58q-.784 0-1.358.476-.56.476-.7 1.344h3.99q-.042-.798-.602-1.302a1.86 1.86 0 0 0-1.33-.518m5.016 6.412v-7.574h1.512v.98q.28-.574.798-.826t1.218-.252h.462v1.442h-.658q-.784 0-1.274.49-.476.49-.476 1.372V232zM269.226 232v-2.408h-5.124v-1.134l5.096-6.888h1.316v6.888h1.358v1.134h-1.358V232zm0-3.542v-5.082l-3.724 5.082zm8.788 3.542v-2.408h-5.124v-1.134l5.096-6.888h1.316v6.888h1.358v1.134h-1.358V232zm0-3.542v-5.082l-3.724 5.082zm7.275 3.71q-1.008 0-1.792-.434a3.26 3.26 0 0 1-1.232-1.232q-.434-.784-.434-1.778 0-.812.28-1.61.294-.798.966-1.68l2.94-3.864h1.652l-3.136 4.088q.21-.097.448-.126.238-.042.504-.042.924 0 1.652.434.742.42 1.162 1.176.435.742.434 1.694 0 .966-.448 1.736a3.3 3.3 0 0 1-1.232 1.204 3.6 3.6 0 0 1-1.764.434m0-1.232a2.07 2.07 0 0 0 1.05-.266q.462-.28.728-.756.28-.49.28-1.106t-.266-1.092a2 2 0 0 0-.742-.756 2 2 0 0 0-1.05-.28q-.601 0-1.078.28-.462.28-.728.756a2.2 2.2 0 0 0-.266 1.092q0 .616.266 1.106.28.476.742.756.462.266 1.064.266M369.411 232v-9.24h-1.974v-1.19h3.36V232zm5.205 0v-9.24h-1.974v-1.19h3.36V232zm3.792 0 4.578-9.24h-5.11v-1.19h6.552v1.19l-4.536 9.24z"/><mask id="d" fill="#fff"><path d="M66 252h319v30H66z"/></mask><path fill="#0b151e" fill-opacity=".1" d="M385 282v-1H66v2h319z" mask="url(#d)"/><path fill="#0b151e" d="M67.336 272v-10.43h3.416q1.624 0 2.814.658a4.64 4.64 0 0 1 1.862 1.834q.658 1.162.658 2.716 0 1.54-.658 2.73a4.64 4.64 0 0 1-1.862 1.834q-1.19.658-2.814.658zm1.652-1.47h1.792q1.106 0 1.918-.462.826-.462 1.274-1.302t.448-1.988-.462-1.988a3.1 3.1 0 0 0-1.26-1.288q-.811-.462-1.918-.462h-1.792zm8.585 1.47v-10.43h4.396q1.47 0 2.31.77.854.756.854 2.058 0 .588-.238 1.106-.224.504-.7.882.729.434 1.05 1.078.322.643.322 1.386 0 1.484-.966 2.324-.952.826-2.618.826zm1.652-6.272h2.786q.673 0 1.078-.378.405-.392.406-1.022 0-.616-.406-.966-.405-.364-1.078-.364h-2.786zm0 4.802h2.884q.812 0 1.302-.448.504-.448.504-1.218 0-.756-.504-1.218-.489-.462-1.302-.462h-2.884zm6.978 1.47 3.668-10.43h2.044L95.582 272H93.82l-.799-2.338h-4.242L87.967 272zm3.051-3.808h3.262l-1.624-4.788zM265.992 272v-9.24h-1.974v-1.19h3.36V272zm8.44 0v-2.408h-5.124v-1.134l5.096-6.888h1.316v6.888h1.358v1.134h-1.358V272zm0-3.542v-5.082l-3.724 5.082zm5.553 3.542v-9.24h-1.974v-1.19h3.36V272zM373.905 272v-9.24h-1.974v-1.19h3.36V272zm3.47 0v-.952l2.884-3.122a90 90 0 0 0 1.358-1.498q.518-.588.756-1.05t.238-.98q0-.84-.504-1.302-.504-.476-1.33-.476-.84 0-1.442.49-.588.476-.798 1.358l-1.246-.322a3.5 3.5 0 0 1 .672-1.456 3.3 3.3 0 0 1 1.204-.952 3.8 3.8 0 0 1 1.61-.336q.952 0 1.666.378.728.364 1.134 1.036.42.659.42 1.512 0 .588-.238 1.134-.224.532-.7 1.148t-1.204 1.4l-2.576 2.8h4.942V272z"/><mask id="e" fill="#fff"><path d="M66 292h319v30H66z"/></mask><path fill="#0b151e" fill-opacity=".1" d="M385 322v-1H66v2h319z" mask="url(#e)"/><path fill="#0b151e" d="M67.55 312v-10.43h6.79v1.47h-5.137v3.136h4.578v1.47h-4.578V312zm11.332.168a4.06 4.06 0 0 1-2.003-.504 3.9 3.9 0 0 1-1.428-1.414q-.531-.896-.531-2.044 0-1.134.517-2.03a3.8 3.8 0 0 1 1.428-1.4 4 4 0 0 1 2.017-.518 3.93 3.93 0 0 1 2.001.518 3.7 3.7 0 0 1 1.415 1.4q.531.882.531 2.03t-.531 2.044a3.9 3.9 0 0 1-1.428 1.414 4 4 0 0 1-1.989.504m0-1.47q.657 0 1.175-.322.519-.322.826-.882.309-.574.309-1.288t-.308-1.274a2.36 2.36 0 0 0-.826-.882 2.2 2.2 0 0 0-1.177-.322 2.25 2.25 0 0 0-1.19.322q-.517.322-.826.882a2.7 2.7 0 0 0-.293 1.274q0 .714.293 1.288.308.56.827.882a2.25 2.25 0 0 0 1.19.322m8.054 1.47q-.855 0-1.498-.378a2.74 2.74 0 0 1-1.008-1.078q-.35-.7-.35-1.61v-4.676h1.582v4.536q0 .784.462 1.26.463.476 1.204.476.742 0 1.218-.476.476-.49.476-1.33v-4.466h1.568V312h-1.498v-.924a2.1 2.1 0 0 1-.896.812q-.56.28-1.26.28m5.361-.168v-7.574h1.512v.924q.308-.532.868-.812.574-.28 1.274-.28.825 0 1.47.364.644.364 1.008 1.008.378.643.378 1.47v4.9H97.24v-4.466q0-.84-.476-1.316-.463-.49-1.204-.49-.742 0-1.218.49-.462.476-.462 1.316V312zm11.563.168q-1.092 0-1.96-.518a3.9 3.9 0 0 1-1.358-1.428q-.49-.895-.49-2.016t.49-2.016a3.8 3.8 0 0 1 1.358-1.414 3.73 3.73 0 0 1 1.946-.518q.784 0 1.414.28.63.266 1.064.77v-3.906h1.568V312h-1.498v-.966q-.42.546-1.092.84a3.5 3.5 0 0 1-1.442.294m.154-1.47q.658 0 1.176-.322.519-.322.826-.882.309-.56.308-1.288 0-.714-.308-1.274a2.35 2.35 0 0 0-.826-.882 2.2 2.2 0 0 0-1.176-.322q-.672 0-1.204.322a2.25 2.25 0 0 0-.812.882 2.7 2.7 0 0 0-.294 1.274q0 .728.294 1.288t.812.882q.532.322 1.204.322m7.853 1.47q-1.148 0-1.862-.588t-.714-1.582q0-.91.616-1.54.63-.644 1.946-.868l2.408-.392v-.294q0-.546-.42-.91t-1.092-.364q-.63 0-1.106.336a1.83 1.83 0 0 0-.686.84l-1.316-.658q.21-.546.672-.966a3.4 3.4 0 0 1 1.12-.672 3.7 3.7 0 0 1 1.358-.252q.896 0 1.582.336t1.078.938q.392.588.392 1.372V312h-1.512v-.882q-.42.504-1.05.784-.63.266-1.414.266m-.924-2.226q0 .433.322.714.336.266.854.266.63 0 1.106-.266.49-.28.756-.756.28-.475.28-1.05v-.406l-2.1.364q-.63.112-.924.406a1 1 0 0 0-.294.728m9.749 2.142q-1.19 0-1.848-.672t-.658-1.89v-3.668h-1.33v-1.428h.21q.518 0 .812-.294.308-.308.308-.854v-.588h1.582v1.736h1.722v1.428h-1.722v3.598q0 .588.28.91.294.322.98.322.252 0 .518-.042V312a4.5 4.5 0 0 1-.854.084m2.258-8.694v-1.82h1.582v1.82zm0 8.61v-7.574h1.582V312zm6.946.168a4.06 4.06 0 0 1-2.002-.504 3.9 3.9 0 0 1-1.428-1.414q-.532-.896-.532-2.044 0-1.134.518-2.03a3.8 3.8 0 0 1 1.428-1.4 4 4 0 0 1 2.016-.518q1.105 0 2.002.518a3.7 3.7 0 0 1 1.414 1.4q.531.882.532 2.03 0 1.148-.532 2.044a3.9 3.9 0 0 1-1.428 1.414 4 4 0 0 1-1.988.504m0-1.47q.657 0 1.176-.322.517-.322.826-.882.308-.574.308-1.288t-.308-1.274a2.36 2.36 0 0 0-.826-.882 2.2 2.2 0 0 0-1.176-.322q-.659 0-1.19.322a2.35 2.35 0 0 0-.826.882 2.7 2.7 0 0 0-.294 1.274q0 .714.294 1.288.307.56.826.882.531.322 1.19.322m5.352 1.302v-7.574h1.512v.924q.308-.532.868-.812.574-.28 1.274-.28.827 0 1.47.364t1.008 1.008q.378.643.378 1.47v4.9h-1.568v-4.466q0-.84-.476-1.316-.462-.49-1.204-.49-.743 0-1.218.49-.462.476-.462 1.316V312zM264.256 312v-.952l2.884-3.122a90 90 0 0 0 1.358-1.498q.517-.588.756-1.05.238-.462.238-.98 0-.84-.504-1.302-.504-.476-1.33-.476-.84 0-1.442.49-.588.476-.798 1.358l-1.246-.322a3.5 3.5 0 0 1 .672-1.456 3.3 3.3 0 0 1 1.204-.952 3.8 3.8 0 0 1 1.61-.336q.952 0 1.666.378.728.364 1.134 1.036.42.659.42 1.512 0 .588-.238 1.134-.224.532-.7 1.148t-1.204 1.4l-2.576 2.8h4.942V312zm11.699.168q-1.008 0-1.792-.434a3.25 3.25 0 0 1-1.232-1.232q-.434-.784-.434-1.778 0-.812.28-1.61.294-.798.966-1.68l2.94-3.864h1.652l-3.136 4.088a1.5 1.5 0 0 1 .448-.126q.238-.042.504-.042.924 0 1.652.434.742.42 1.162 1.176.434.742.434 1.694 0 .966-.448 1.736a3.3 3.3 0 0 1-1.232 1.204 3.6 3.6 0 0 1-1.764.434m0-1.232a2.07 2.07 0 0 0 1.05-.266q.462-.28.728-.756.28-.49.28-1.106t-.266-1.092a2 2 0 0 0-.742-.756 2 2 0 0 0-1.05-.28q-.602 0-1.078.28a2 2 0 0 0-.728.756 2.2 2.2 0 0 0-.266 1.092q0 .616.266 1.106.28.476.742.756.462.266 1.064.266m6.519 1.064v-9.24H280.5v-1.19h3.36V312zM369.743 312l4.578-9.24h-5.11v-1.19h6.552v1.19l-4.536 9.24zm10.862.168q-1.05 0-1.862-.42a3.3 3.3 0 0 1-1.26-1.134 3.04 3.04 0 0 1-.448-1.624q0-.882.448-1.582.448-.714 1.246-1.092a2.4 2.4 0 0 1-.882-.924 2.65 2.65 0 0 1-.308-1.246q0-.784.392-1.4.406-.63 1.092-.98a3.4 3.4 0 0 1 1.582-.364q.882 0 1.568.35.687.35 1.078.98.406.616.406 1.414a2.53 2.53 0 0 1-1.19 2.17q.813.392 1.26 1.092t.448 1.582q0 .91-.462 1.624a3.27 3.27 0 0 1-1.274 1.134q-.798.42-1.834.42m0-6.384q.714 0 1.19-.448t.476-1.162q0-.7-.476-1.134-.476-.448-1.19-.448-.727 0-1.218.448-.476.433-.476 1.134 0 .714.476 1.162.49.448 1.218.448m0 5.194q.98 0 1.582-.546.602-.56.602-1.456 0-.91-.602-1.456-.601-.546-1.582-.546-.993 0-1.596.546-.588.546-.588 1.456 0 .896.588 1.456.603.546 1.596.546M67.29 352v-10.43h3.794q1.05 0 1.848.392.811.392 1.26 1.12.447.728.448 1.75 0 1.008-.462 1.736a2.96 2.96 0 0 1-1.246 1.12q-.798.392-1.848.392h-2.142V352zm1.652-5.39h2.184q.84 0 1.358-.476.518-.49.518-1.316 0-.812-.518-1.288-.519-.49-1.358-.49h-2.184zm7.105 5.39v-10.598h1.582V352zm5.56.168q-1.149 0-1.863-.588t-.714-1.582q0-.91.616-1.54.63-.644 1.946-.868l2.408-.392v-.294q0-.546-.42-.91t-1.092-.364q-.63 0-1.106.336a1.83 1.83 0 0 0-.686.84l-1.316-.658q.21-.546.672-.966.475-.433 1.12-.672.645-.252 1.358-.252.896 0 1.582.336t1.078.938q.392.588.392 1.372V352H84.07v-.882q-.42.504-1.05.784-.63.266-1.414.266m-.925-2.226q0 .433.322.714.336.266.854.266.63 0 1.106-.266.49-.28.756-.756a2.03 2.03 0 0 0 .28-1.05v-.406l-2.1.364q-.63.112-.924.406a1 1 0 0 0-.294.728m9.75 2.142q-1.19 0-1.849-.672-.658-.672-.658-1.89v-3.668h-1.33v-1.428h.21q.518 0 .812-.294.309-.308.308-.854v-.588h1.582v1.736h1.722v1.428h-1.722v3.598q0 .588.28.91.294.322.98.322.251 0 .518-.042V352q-.434.084-.854.084m3.111-.084v-6.146h-1.4v-1.428h1.4v-.392q0-1.26.77-1.946t1.988-.686q.155 0 .35.028.195.014.322.042v1.372a1 1 0 0 0-.252-.028 3 3 0 0 0-.224-.014q-.63 0-1.008.294-.378.28-.378.938v.392h1.736v1.428h-1.736V352zm8.019.168a4.06 4.06 0 0 1-2.002-.504 3.9 3.9 0 0 1-1.428-1.414q-.531-.896-.532-2.044 0-1.134.518-2.03a3.8 3.8 0 0 1 1.428-1.4 4 4 0 0 1 2.016-.518q1.107 0 2.002.518a3.7 3.7 0 0 1 1.414 1.4q.532.882.532 2.03t-.532 2.044a3.9 3.9 0 0 1-1.428 1.414 4 4 0 0 1-1.988.504m0-1.47q.658 0 1.176-.322.519-.322.826-.882.309-.574.308-1.288 0-.714-.308-1.274a2.35 2.35 0 0 0-.826-.882 2.2 2.2 0 0 0-1.176-.322q-.657 0-1.19.322-.517.323-.826.882a2.7 2.7 0 0 0-.294 1.274q0 .714.294 1.288.309.56.826.882.533.322 1.19.322m5.353 1.302v-7.574h1.512v.98q.279-.574.798-.826.518-.252 1.218-.252h.462v1.442h-.658q-.785 0-1.274.49-.477.49-.476 1.372V352zm4.932 0v-7.574h1.512v.938q.308-.546.854-.826.56-.28 1.246-.28.77 0 1.4.35t.966.938a2.56 2.56 0 0 1 1.008-.966 2.9 2.9 0 0 1 1.372-.322q.784 0 1.414.364.644.364 1.022 1.008.378.643.378 1.47v4.9h-1.582v-4.466q0-.84-.448-1.316-.434-.49-1.148-.49t-1.176.49q-.448.476-.448 1.316V352h-1.568v-4.466q0-.84-.448-1.316-.448-.49-1.162-.49t-1.162.49q-.448.476-.448 1.316V352zM265.992 352v-9.24h-1.974v-1.19h3.36V352zm3.946 1.946v-.63q.853-.238.91-1.316h-.63v-1.68h1.358v1.19q0 2.058-1.638 2.436m7.221-1.778q-1.05 0-1.862-.42a3.3 3.3 0 0 1-1.26-1.134 3.04 3.04 0 0 1-.448-1.624q0-.882.448-1.582.448-.714 1.246-1.092a2.4 2.4 0 0 1-.882-.924 2.65 2.65 0 0 1-.308-1.246q0-.784.392-1.4.406-.63 1.092-.98a3.4 3.4 0 0 1 1.582-.364q.882 0 1.568.35.687.35 1.078.98.406.616.406 1.414a2.53 2.53 0 0 1-1.19 2.17q.813.392 1.26 1.092t.448 1.582q0 .91-.462 1.624a3.27 3.27 0 0 1-1.274 1.134q-.798.42-1.834.42m0-6.384q.714 0 1.19-.448t.476-1.162q0-.7-.476-1.134-.476-.448-1.19-.448-.728 0-1.218.448-.476.434-.476 1.134 0 .714.476 1.162.49.448 1.218.448m0 5.194q.98 0 1.582-.546.602-.56.602-1.456 0-.91-.602-1.456-.601-.546-1.582-.546-.993 0-1.596.546-.588.546-.588 1.456 0 .896.588 1.456.603.546 1.596.546m8.371 1.19q-1.246 0-2.212-.644a3.28 3.28 0 0 1-1.33-1.764l1.162-.476q.294.784.924 1.218t1.456.434q.966 0 1.596-.56t.63-1.568q0-1.022-.63-1.568-.63-.56-1.61-.56-.49 0-.868.112l-.294-.63 2.786-3.402h-4.62v-1.19h6.174v1.148l-2.394 2.94q.84.098 1.47.518.644.406.994 1.078.364.672.364 1.526a3.28 3.28 0 0 1-1.736 2.94q-.812.448-1.862.448m5.367-.168 4.578-9.24h-5.11v-1.19h6.552v1.19l-4.536 9.24zM365.375 352.168q-1.246 0-2.212-.644a3.27 3.27 0 0 1-1.33-1.764l1.162-.476q.294.784.924 1.218t1.456.434q.966 0 1.596-.56t.63-1.568q0-1.022-.63-1.568-.63-.56-1.61-.56-.49 0-.868.112l-.294-.63 2.786-3.402h-4.62v-1.19h6.174v1.148l-2.394 2.94q.84.098 1.47.518.643.406.994 1.078.363.672.364 1.526a3.28 3.28 0 0 1-1.736 2.94q-.812.448-1.862.448m6.78-.168v-9.24h-1.974v-1.19h3.36V352zm7.796.168q-1.232 0-2.17-.672-.938-.686-1.456-1.89-.518-1.218-.518-2.828t.518-2.814q.518-1.218 1.442-1.89.938-.672 2.17-.672t2.156.672q.938.672 1.456 1.89.532 1.204.532 2.814t-.518 2.828-1.456 1.89q-.924.672-2.156.672m0-1.274q.826 0 1.442-.504.63-.518.966-1.442.35-.924.35-2.17t-.35-2.156q-.336-.924-.966-1.428a2.2 2.2 0 0 0-1.456-.518q-.84 0-1.456.518-.616.504-.966 1.428-.336.91-.336 2.156 0 1.232.336 2.17.35.924.966 1.442.63.504 1.47.504"/></g><defs><clipPath id="a"><path fill="#fff" d="M0 0h450v390H0z"/></clipPath></defs></svg>
