<svg xmlns="http://www.w3.org/2000/svg" width="450" height="390" fill="none"><g clip-path="url(#a)"><path fill="#050d15" d="M0 0h450v390H0z"/><path stroke="#fff" stroke-opacity=".1" d="m465-45 26.667 26.667M-15 435l26.667 26.667M-15-45l506.667 506.667M11.667-45l480 480M38.333-45l453.334 453.333M65-45l426.667 426.667M91.667-45l400 400M118.333-45l373.334 373.333M145-45l346.667 346.667M171.667-45l320 320M198.333-45l293.334 293.333M225-45l266.667 266.667M251.667-45l240 240M278.333-45l213.334 213.333M305-45l186.667 186.667M331.667-45l160 160M358.333-45 491.667 88.333M385-45 491.667 61.667M411.667-45l80 80m-53.334-80 53.334 53.333M-15-18.333l480 480M-15 8.333l453.333 453.334M-15 35l426.667 426.667M-15 61.667l400 400M-15 88.333l373.333 373.334M-15 115l346.667 346.667M-15 141.667l320 320M-15 168.333l293.333 293.334M-15 195l266.667 266.667M-15 221.667l240 240M-15 248.333l213.333 213.334M-15 275l186.667 186.667M-15 301.667l160 160M-15 328.333l133.333 133.334M-15 355 91.667 461.667m-106.667-80 80 80m-80-53.334 53.333 53.334"/><path fill="#030a11" d="M58 71.522C58 60.74 66.74 52 77.522 52h389.956C478.26 52 487 60.74 487 71.522v341.956C487 424.26 478.26 433 467.478 433H77.522C66.74 433 58 424.26 58 413.478z"/><path stroke="#fff" stroke-opacity=".15" d="M77.523 52.5h389.955c10.505 0 19.022 8.517 19.022 19.022v341.956c0 10.505-8.517 19.022-19.022 19.022H77.523c-10.506 0-19.023-8.517-19.023-19.022V71.523c0-10.506 8.517-19.023 19.022-19.023Z"/><path fill="#fff" d="M83.691 96V81.1h6.28q2.2 0 3.46 1.12t1.26 3.08q0 .76-.3 1.44a3.4 3.4 0 0 1-.9 1.24q1 .66 1.4 1.56.4.88.4 1.9 0 2.16-1.42 3.36-1.4 1.2-3.9 1.2zm2.72-9.12h3.7q.84 0 1.34-.48.5-.5.5-1.28t-.5-1.24-1.34-.46h-3.7zm0 6.72h3.84q1.04 0 1.68-.58.64-.6.64-1.58t-.64-1.58-1.68-.6h-3.84zm14.568 2.64q-1.92 0-3.02-1.22-1.08-1.24-1.08-3.24v-6.66h2.62v6.44q0 1.04.6 1.66.62.62 1.6.62.96 0 1.58-.62.62-.64.62-1.72v-6.38h2.62V96h-2.48v-1.32q-.44.78-1.24 1.18-.8.38-1.82.38m7.776-.24V85.12h2.46v1.52q.42-.9 1.18-1.26.76-.38 1.76-.38h.64v2.32h-.94q-1.101 0-1.8.7-.68.68-.68 1.92V96zm7.28 0V85.12h2.46v1.34a2.87 2.87 0 0 1 1.24-1.18q.8-.4 1.84-.4 1.2 0 2.12.54a3.73 3.73 0 0 1 1.44 1.44q.54.92.54 2.14v7h-2.62v-6.38q0-1.08-.62-1.7-.6-.64-1.58-.64t-1.6.64q-.6.64-.6 1.7V96zm16.716.24q-1.58 0-2.84-.74a5.53 5.53 0 0 1-1.96-2.04q-.7-1.3-.7-2.9t.72-2.88a5.53 5.53 0 0 1 1.96-2.04q1.24-.76 2.8-.76 1.04 0 1.88.36.86.34 1.46.98v-5.36h2.62V96h-2.48v-1.22q-.58.72-1.5 1.1-.9.36-1.96.36m.28-2.4q.879 0 1.56-.42.699-.42 1.08-1.16.4-.74.4-1.7 0-.94-.4-1.68a2.84 2.84 0 0 0-1.08-1.16 2.8 2.8 0 0 0-1.56-.44q-.88 0-1.58.44-.7.42-1.1 1.16-.38.74-.38 1.68 0 .96.38 1.7.4.74 1.1 1.16t1.58.42m13.217 2.4q-1.6 0-2.92-.74a5.7 5.7 0 0 1-2.08-2.02q-.76-1.28-.76-2.92t.76-2.92a5.7 5.7 0 0 1 2.08-2.02q1.3-.74 2.92-.74 1.581 0 2.88.74a5.7 5.7 0 0 1 2.08 2.02q.78 1.28.78 2.92t-.78 2.94a5.7 5.7 0 0 1-2.08 2.02q-1.299.72-2.88.72m0-2.4q.86 0 1.54-.42a2.87 2.87 0 0 0 1.06-1.16q.4-.74.4-1.7 0-.94-.4-1.68a2.87 2.87 0 0 0-1.06-1.16 2.77 2.77 0 0 0-1.54-.44q-.9 0-1.58.44-.68.42-1.08 1.16-.38.74-.38 1.68 0 .96.38 1.7.4.74 1.08 1.16t1.58.42M156.32 96l-3.74-10.88h2.76l2.26 6.86 2.44-6.86h2.32l2.4 6.86 2.28-6.86h2.76L166.06 96h-2.34l-2.52-7.34-2.56 7.34zm14.716 0V85.12h2.46v1.34q.44-.78 1.24-1.18t1.84-.4q1.2 0 2.12.54a3.74 3.74 0 0 1 1.44 1.44q.54.92.54 2.14v7h-2.62v-6.38q0-1.08-.62-1.7-.6-.64-1.58-.64t-1.6.64q-.6.64-.6 1.7V96zm20.33.24q-1.6 0-2.92-.74a5.7 5.7 0 0 1-2.08-2.02q-.76-1.28-.76-2.92t.76-2.92a5.7 5.7 0 0 1 2.08-2.02q1.3-.74 2.92-.74 1.581 0 2.88.74a5.7 5.7 0 0 1 2.08 2.02q.78 1.28.78 2.92t-.78 2.94a5.7 5.7 0 0 1-2.08 2.02q-1.299.72-2.88.72m0-2.4q.86 0 1.54-.42a2.87 2.87 0 0 0 1.06-1.16q.4-.74.4-1.7 0-.94-.4-1.68a2.87 2.87 0 0 0-1.06-1.16 2.77 2.77 0 0 0-1.54-.44q-.9 0-1.58.44-.68.42-1.08 1.16-.38.74-.38 1.68 0 .96.38 1.7.4.74 1.08 1.16t1.58.42m8.553 2.16v-8.54h-1.92v-2.34h1.92v-.36q0-1.86 1.12-2.88 1.119-1.02 3-1.02.24 0 .52.04.3.02.5.06v2.26q-.36-.06-.68-.06-.88 0-1.36.4-.48.38-.48 1.2v.36h2.42v2.34h-2.42V96zm14.159.24q-1.74 0-3.04-.82a4.28 4.28 0 0 1-1.76-2.26l1.96-.94q.42.92 1.16 1.44.76.52 1.68.52.7 0 1.12-.3.44-.32.44-.86a.84.84 0 0 0-.38-.74 2.7 2.7 0 0 0-.88-.4l-1.78-.5q-1.38-.38-2.1-1.2a2.97 2.97 0 0 1-.7-1.96q0-1 .52-1.74.52-.76 1.42-1.18t2.08-.42q1.54 0 2.72.76a4.06 4.06 0 0 1 1.68 2.06l-2 .94a2.4 2.4 0 0 0-.94-1.18 2.6 2.6 0 0 0-1.48-.44q-.66 0-1.04.3t-.38.78q0 .46.34.72.36.26.94.42l1.74.52q1.34.4 2.06 1.22.74.8.74 1.94 0 1-.52 1.74t-1.46 1.16q-.92.42-2.14.42m10.894-.12q-1.84 0-2.86-1-1-1.02-1-2.86v-4.8h-1.88v-2.34h.2q.8 0 1.24-.42t.44-1.22v-.84h2.62v2.48h2.5v2.34h-2.5v4.66q0 .82.44 1.26t1.4.44q.3 0 .7-.06V96q-.28.04-.64.08t-.66.04m3.102-.12V85.12h2.46v1.52q.42-.9 1.18-1.26.76-.38 1.76-.38h.64v2.32h-.94q-1.101 0-1.8.7-.68.68-.68 1.92V96zm7.28-12.1v-2.8h2.62v2.8zm0 12.1V85.12h2.62V96zm4.839 0V85.12h2.46v1.34q.44-.78 1.24-1.18t1.84-.4q1.2 0 2.12.54a3.74 3.74 0 0 1 1.44 1.44q.54.92.54 2.14v7h-2.62v-6.38q0-1.08-.62-1.7-.6-.64-1.58-.64t-1.6.64q-.6.64-.6 1.7V96zm16.936 4.4q-1.84 0-3.24-.88-1.38-.86-1.9-2.3l2.44-.92q.24.76.94 1.22.72.48 1.76.48 1.18 0 1.94-.68.76-.66.76-1.86v-1.18q-1.16 1.28-3.14 1.28-1.54 0-2.74-.7a5.1 5.1 0 0 1-1.86-1.9q-.68-1.22-.68-2.76 0-1.52.66-2.72a5.1 5.1 0 0 1 1.86-1.9q1.2-.7 2.7-.7 2.12 0 3.34 1.52v-1.28h2.48v10.34q0 1.44-.7 2.54a4.8 4.8 0 0 1-1.88 1.76q-1.2.64-2.74.64m-.12-7.26q1.24 0 2.02-.82.8-.82.8-2.1 0-1.26-.8-2.1t-2.02-.84q-.84 0-1.5.4-.64.38-1.02 1.04-.36.66-.36 1.5t.36 1.5q.38.66 1.02 1.04.66.38 1.5.38m11.826 3.1q-1.74 0-3.04-.82a4.28 4.28 0 0 1-1.76-2.26l1.96-.94q.42.92 1.16 1.44.76.52 1.68.52.7 0 1.12-.3.44-.32.44-.86a.84.84 0 0 0-.38-.74 2.7 2.7 0 0 0-.88-.4l-1.78-.5q-1.38-.38-2.1-1.2a2.97 2.97 0 0 1-.7-1.96q0-1 .52-1.74.52-.76 1.42-1.18t2.08-.42q1.54 0 2.72.76a4.06 4.06 0 0 1 1.68 2.06l-2 .94a2.4 2.4 0 0 0-.94-1.18 2.6 2.6 0 0 0-1.48-.44q-.66 0-1.04.3t-.38.78q0 .46.34.72.36.26.94.42l1.74.52q1.34.4 2.06 1.22.74.8.74 1.94 0 1-.52 1.74t-1.46 1.16q-.92.42-2.14.42"/><path fill="#fff" fill-opacity=".35" d="M89.801 124.119a3.3 3.3 0 0 1-1.074-.204 2.6 2.6 0 0 1-.98-.661q-.442-.468-.712-1.265-.267-.801-.268-2.012 0-1.158.217-2.054.218-.898.631-1.512.414-.618.997-.938.588-.32 1.326-.32.733 0 1.303.294a2.5 2.5 0 0 1 .938.81q.363.52.469 1.198h-1.04a1.92 1.92 0 0 0-.562-.976q-.418-.388-1.109-.388-1.014 0-1.597.882-.58.882-.584 2.476h.068a2.55 2.55 0 0 1 2.148-1.159q.75 0 1.372.375.622.37.997 1.027.375.651.375 1.496 0 .81-.362 1.482a2.76 2.76 0 0 1-1.019 1.066q-.651.392-1.534.383m0-.937q.538 0 .963-.269.43-.269.678-.72a2.03 2.03 0 0 0 .251-1.005q0-.541-.243-.985a1.86 1.86 0 0 0-.66-.712 1.75 1.75 0 0 0-.955-.264q-.405 0-.754.162a1.9 1.9 0 0 0-.614.435 2.1 2.1 0 0 0-.409.635 2.02 2.02 0 0 0 .767 2.446q.43.276.976.277m7.437.937q-.963 0-1.64-.524-.678-.528-1.036-1.53-.358-1.005-.358-2.429 0-1.414.358-2.416.362-1.006 1.04-1.534.681-.533 1.636-.533t1.632.533q.682.529 1.04 1.534.363 1.002.362 2.416 0 1.424-.358 2.429-.357 1.002-1.035 1.53-.678.524-1.64.524m0-.937q.955 0 1.483-.921.528-.92.529-2.625 0-1.133-.243-1.93-.24-.797-.69-1.215a1.53 1.53 0 0 0-1.079-.417q-.945 0-1.478.933-.534.929-.533 2.629 0 1.134.239 1.926.238.793.686 1.206.45.414 1.086.414m7.5.937q-.963 0-1.64-.524-.678-.528-1.036-1.53-.358-1.005-.358-2.429 0-1.414.358-2.416.362-1.006 1.04-1.534.681-.533 1.636-.533.956 0 1.632.533.683.529 1.04 1.534.363 1.002.362 2.416 0 1.424-.358 2.429-.357 1.002-1.035 1.53-.678.524-1.641.524m0-.937q.955 0 1.483-.921.53-.92.529-2.625 0-1.133-.243-1.93-.238-.797-.691-1.215a1.52 1.52 0 0 0-1.078-.417q-.945 0-1.478.933-.533.929-.533 2.629 0 1.134.239 1.926.238.793.686 1.206a1.55 1.55 0 0 0 1.086.414M86.699 179.678v-.87l3.835-6.068h.63v1.347h-.425l-2.898 4.585v.068h5.165v.938zm4.108 1.789v-8.727h1.005v8.727zm6.642.12q-.963 0-1.64-.525-.678-.528-1.036-1.529-.358-1.006-.358-2.429 0-1.416.358-2.417.362-1.005 1.04-1.534.681-.532 1.636-.532t1.632.532q.682.53 1.04 1.534.362 1.001.362 2.417 0 1.423-.358 2.429-.358 1-1.035 1.529-.678.525-1.64.525m0-.938q.954 0 1.483-.92.529-.921.529-2.625 0-1.133-.243-1.931-.24-.797-.69-1.214a1.52 1.52 0 0 0-1.079-.418q-.945 0-1.478.933-.534.93-.533 2.63 0 1.132.239 1.926.238.792.686 1.206.45.413 1.086.413m7.5.938q-.963 0-1.64-.525-.678-.528-1.036-1.529-.358-1.006-.358-2.429 0-1.416.358-2.417.363-1.005 1.04-1.534.681-.532 1.636-.532t1.632.532q.682.53 1.04 1.534.362 1.001.362 2.417 0 1.423-.358 2.429-.357 1-1.035 1.529-.678.525-1.641.525m0-.938q.955 0 1.483-.92.528-.921.529-2.625 0-1.133-.243-1.931-.239-.797-.691-1.214a1.52 1.52 0 0 0-1.078-.418q-.945 0-1.478.933-.533.93-.533 2.63 0 1.132.238 1.926.24.792.687 1.206.451.413 1.086.413M86.903 238.935v-.767l2.881-3.154q.507-.554.835-.963.33-.413.486-.776.162-.366.162-.767 0-.46-.221-.796a1.43 1.43 0 0 0-.597-.52 1.9 1.9 0 0 0-.852-.184q-.504 0-.878.209a1.44 1.44 0 0 0-.575.576q-.2.37-.2.869h-1.007q0-.767.354-1.347a2.46 2.46 0 0 1 .963-.903q.614-.324 1.377-.324.766 0 1.36.324.592.324.928.873.337.55.337 1.223 0 .481-.175.942-.17.456-.597 1.019-.42.558-1.171 1.363l-1.96 2.097v.068h4.056v.938zm10.113.119q-.964 0-1.641-.524-.678-.529-1.035-1.53-.36-1.006-.359-2.429 0-1.415.359-2.416.362-1.006 1.04-1.534.681-.533 1.636-.533t1.632.533q.68.528 1.04 1.534.362 1.001.362 2.416 0 1.423-.358 2.429-.358 1.001-1.036 1.53-.677.524-1.64.524m0-.938q.954 0 1.483-.92.528-.921.528-2.625 0-1.134-.243-1.93-.24-.798-.69-1.215a1.53 1.53 0 0 0-1.078-.418q-.946 0-1.48.934-.532.928-.532 2.629 0 1.134.239 1.926t.686 1.206a1.55 1.55 0 0 0 1.087.413m7.5.938q-.963 0-1.641-.524-.678-.529-1.036-1.53-.357-1.006-.357-2.429 0-1.415.357-2.416.363-1.006 1.04-1.534.682-.533 1.637-.533.954 0 1.632.533.681.528 1.04 1.534.362 1.001.362 2.416 0 1.423-.358 2.429-.358 1.001-1.036 1.53-.677.524-1.64.524m0-.938q.954 0 1.483-.92.528-.921.528-2.625 0-1.134-.243-1.93-.238-.798-.69-1.215a1.53 1.53 0 0 0-1.078-.418q-.947 0-1.479.934-.533.928-.533 2.629 0 1.134.239 1.926t.686 1.206a1.55 1.55 0 0 0 1.087.413M104.75 296.521q-.963 0-1.641-.524-.677-.528-1.035-1.53-.358-1.005-.358-2.429 0-1.414.358-2.416.362-1.006 1.04-1.534.681-.532 1.636-.532t1.632.532q.682.528 1.04 1.534.362 1.002.362 2.416 0 1.424-.358 2.429-.358 1.002-1.035 1.53-.678.525-1.641.524m0-.937q.955 0 1.483-.921.528-.92.528-2.625 0-1.133-.243-1.93-.239-.797-.69-1.214a1.52 1.52 0 0 0-1.078-.418q-.947 0-1.479.933-.532.93-.532 2.629 0 1.134.238 1.927.239.792.686 1.206.452.413 1.087.413"/><path stroke="#fff" stroke-dasharray="2" stroke-opacity=".15" d="M114 117.5h345M114 175.833h345M114 234.167h345"/><path stroke="#fff" stroke-opacity=".15" d="M114 292.5h345"/><path stroke="#fff" stroke-dasharray="2" stroke-opacity=".15" d="M113.5 293V118M142.25 293V118M171 293V118M199.75 293V118M228.5 293V118M257.25 293V118M286 293V118M314.75 293V118M343.5 293V118M372.25 293V118M401 293V118M429.75 293V118"/><path stroke="#ffae4c" d="M127.458 266.392h318.083m0 0Z"/><circle cx="127.458" cy="266.392" r="3.5" fill="#ffae4c" stroke="#18324b"/><circle cx="156.375" cy="266.392" r="3.5" fill="#ffae4c" stroke="#18324b"/><circle cx="185.292" cy="266.392" r="3.5" fill="#ffae4c" stroke="#18324b"/><circle cx="214.208" cy="266.392" r="3.5" fill="#ffae4c" stroke="#18324b"/><circle cx="243.125" cy="266.392" r="3.5" fill="#ffae4c" stroke="#18324b"/><circle cx="272.042" cy="266.392" r="3.5" fill="#ffae4c" stroke="#18324b"/><circle cx="300.958" cy="266.392" r="3.5" fill="#ffae4c" stroke="#18324b"/><circle cx="329.875" cy="266.392" r="3.5" fill="#ffae4c" stroke="#18324b"/><circle cx="358.792" cy="266.392" r="3.5" fill="#ffae4c" stroke="#18324b"/><circle cx="387.708" cy="266.392" r="3.5" fill="#ffae4c" stroke="#18324b"/><circle cx="416.625" cy="266.392" r="3.5" fill="#ffae4c" stroke="#18324b"/><circle cx="445.542" cy="266.392" r="3.5" fill="#ffae4c" stroke="#18324b"/><path stroke="#3cc3df" d="m127.458 136.875 28.917.708 28.916 2.384 28.917-.159 28.917-.208 28.916.867 28.917 25.369 28.917 6.867 28.916.667 28.917 13.161 28.917 34.993 28.916 16.673m0 0Z"/><circle cx="127.458" cy="136.875" r="3.5" fill="#3cc3df" stroke="#18324b"/><circle cx="156.375" cy="137.583" r="3.5" fill="#3cc3df" stroke="#18324b"/><circle cx="185.292" cy="139.967" r="3.5" fill="#3cc3df" stroke="#18324b"/><circle cx="214.208" cy="139.808" r="3.5" fill="#3cc3df" stroke="#18324b"/><circle cx="243.125" cy="139.6" r="3.5" fill="#3cc3df" stroke="#18324b"/><circle cx="272.042" cy="140.467" r="3.5" fill="#3cc3df" stroke="#18324b"/><circle cx="300.958" cy="165.836" r="3.5" fill="#3cc3df" stroke="#18324b"/><circle cx="329.875" cy="172.703" r="3.5" fill="#3cc3df" stroke="#18324b"/><circle cx="358.792" cy="173.37" r="3.5" fill="#3cc3df" stroke="#18324b"/><circle cx="387.708" cy="186.531" r="3.5" fill="#3cc3df" stroke="#18324b"/><circle cx="416.625" cy="221.524" r="3.5" fill="#3cc3df" stroke="#18324b"/><circle cx="445.542" cy="238.197" r="3.5" fill="#3cc3df" stroke="#18324b"/><path stroke="#d5ff5e" stroke-width="2" d="M127.458 199h144.583l28.917 31h57.833l28.917 5.72 28.917 31.568 28.916 2.956"/><circle cx="127.458" cy="199" r="3.5" fill="#d5ff5e" stroke="#18324b"/><circle cx="156.375" cy="199" r="3.5" fill="#d5ff5e" stroke="#18324b"/><circle cx="185.292" cy="199" r="3.5" fill="#d5ff5e" stroke="#18324b"/><circle cx="214.208" cy="199" r="3.5" fill="#d5ff5e" stroke="#18324b"/><circle cx="243.125" cy="199" r="3.5" fill="#d5ff5e" stroke="#18324b"/><circle cx="272.042" cy="199" r="3.5" fill="#d5ff5e" stroke="#18324b"/><circle cx="300.958" cy="230" r="3.5" fill="#d5ff5e" stroke="#18324b"/><circle cx="329.875" cy="230" r="3.5" fill="#d5ff5e" stroke="#18324b"/><circle cx="358.792" cy="230" r="3.5" fill="#d5ff5e" stroke="#18324b"/><circle cx="387.708" cy="235.72" r="3.5" fill="#d5ff5e" stroke="#18324b"/><circle cx="416.625" cy="267.288" r="3.5" fill="#d5ff5e" stroke="#18324b"/><circle cx="445.542" cy="270.244" r="3.5" fill="#d5ff5e" stroke="#18324b"/><path stroke="#8979ff" d="m127.458 140.418 28.917.119 28.916 20.155 28.917 23.605 28.917.336 28.916-.694 28.917.867 28.917 21.45 28.916 14.219 28.917-1.217 28.917 25.49 28.916 17.89m0 0Z"/><circle cx="127.458" cy="140.418" r="3.5" fill="#8979ff" stroke="#18324b"/><circle cx="156.375" cy="140.536" r="3.5" fill="#8979ff" stroke="#18324b"/><circle cx="185.292" cy="160.692" r="3.5" fill="#8979ff" stroke="#18324b"/><circle cx="214.208" cy="184.297" r="3.5" fill="#8979ff" stroke="#18324b"/><circle cx="243.125" cy="184.633" r="3.5" fill="#8979ff" stroke="#18324b"/><circle cx="272.042" cy="183.939" r="3.5" fill="#8979ff" stroke="#18324b"/><circle cx="300.958" cy="184.806" r="3.5" fill="#8979ff" stroke="#18324b"/><circle cx="329.875" cy="206.256" r="3.5" fill="#8979ff" stroke="#18324b"/><circle cx="358.792" cy="220.475" r="3.5" fill="#8979ff" stroke="#18324b"/><circle cx="387.708" cy="219.258" r="3.5" fill="#8979ff" stroke="#18324b"/><circle cx="416.625" cy="244.748" r="3.5" fill="#8979ff" stroke="#18324b"/><circle cx="445.542" cy="262.637" r="3.5" fill="#8979ff" stroke="#18324b"/><path fill="#fff" fill-opacity=".35" d="M104.827 322.932a1.34 1.34 0 0 0-1.151-.271q-.64.133-1.199.693a2.5 2.5 0 0 0-.585.85 1.6 1.6 0 0 0-.111.841q.063.4.358.696.248.246.542.307.296.054.6-.015.302-.072.582-.202.276-.132.494-.259l.795-.458q.305-.178.711-.362.41-.187.874-.265a2.2 2.2 0 0 1 .94.036q.477.122.91.555.501.5.642 1.166.145.663-.117 1.401-.259.735-.971 1.446-.661.663-1.362.935a2.6 2.6 0 0 1-1.355.162 2.4 2.4 0 0 1-1.2-.578l.772-.772q.38.32.813.344.434.018.862-.187a3 3 0 0 0 .795-.578q.429-.429.63-.907.2-.482.148-.932a1.3 1.3 0 0 0-.392-.789q-.308-.307-.672-.328a1.8 1.8 0 0 0-.765.138q-.401.16-.817.395l-.976.542q-.931.516-1.739.552-.807.036-1.431-.588a2.12 2.12 0 0 1-.624-1.184 2.63 2.63 0 0 1 .157-1.362 3.6 3.6 0 0 1 .853-1.287q.597-.597 1.274-.846.675-.253 1.314-.157.642.093 1.124.545zm8.605.845q-.669.669-1.449.859a2.8 2.8 0 0 1-1.576-.088q-.796-.277-1.507-.988-.712-.71-.994-1.513a2.9 2.9 0 0 1-.121-1.579q.163-.777.79-1.404.362-.362.834-.593.473-.232 1.034-.251.557-.02 1.172.251.615.27 1.263.919l.301.301-3.568 3.568-.615-.615 2.845-2.845a2.14 2.14 0 0 0-.856-.542 1.67 1.67 0 0 0-.925-.045q-.46.105-.847.491a1.8 1.8 0 0 0-.524.946q-.099.515.069 1.016.17.5.552.882l.41.41q.524.525 1.069.708.546.178 1.061.043a2.1 2.1 0 0 0 .943-.57q.28-.28.428-.585.148-.31.154-.635a1.56 1.56 0 0 0-.148-.66l.88-.494q.241.457.25.979.006.518-.223 1.043a3.3 3.3 0 0 1-.702.991m4.637-1.359-6.364-6.364.687-.687.736.735.084-.084a9 9 0 0 1-.09-.525q-.049-.33.066-.741.114-.415.566-.868.585-.583 1.323-.738.739-.153 1.525.133t1.516 1.015q.735.736 1.024 1.525.286.786.139 1.525-.151.735-.73 1.313-.445.447-.861.567-.42.117-.754.072a7 7 0 0 1-.542-.096l-.06.06 2.446 2.447zm-3.35-4.749q.524.525 1.078.771.552.244 1.073.175.519-.072.946-.5.446-.446.509-.979.064-.54-.186-1.091a3.6 3.6 0 0 0-.745-1.052 3.5 3.5 0 0 0-1.03-.729 1.9 1.9 0 0 0-1.073-.175q-.53.067-.982.519-.434.433-.509.949-.079.512.162 1.054.238.54.757 1.058m5.158-12.873 6.171 6.172-.747.747-5.388-5.388-.036.036-.506 2.507-.759-.759.518-2.567zm3.945-3.944 6.171 6.171-.748.748-5.387-5.388-.036.036-.507 2.507-.759-.759.518-2.568zM132.551 324.126a1.34 1.34 0 0 0-1.151-.271q-.639.132-1.2.693a2.5 2.5 0 0 0-.584.849 1.6 1.6 0 0 0-.112.841q.064.4.359.696.247.247.542.307.296.055.6-.015.302-.072.582-.202.276-.132.494-.259l.795-.458q.304-.178.711-.361a3.5 3.5 0 0 1 .874-.265q.465-.086.94.036.477.12.91.554.501.5.642 1.166.145.663-.117 1.401-.26.736-.971 1.447-.663.663-1.362.934a2.6 2.6 0 0 1-1.356.163 2.4 2.4 0 0 1-1.199-.579l.772-.771q.38.32.813.343.434.018.862-.187.427-.21.795-.578.429-.428.63-.907.2-.483.148-.931a1.3 1.3 0 0 0-.392-.79q-.308-.307-.672-.328a1.8 1.8 0 0 0-.765.138q-.401.16-.817.395l-.976.543q-.931.515-1.739.551-.807.036-1.431-.588a2.1 2.1 0 0 1-.624-1.184 2.63 2.63 0 0 1 .157-1.362q.262-.696.853-1.286.596-.597 1.274-.847.675-.253 1.314-.157.642.093 1.124.546zm8.605.844q-.669.669-1.45.859a2.8 2.8 0 0 1-1.575-.087q-.796-.278-1.507-.989-.712-.711-.994-1.512a2.9 2.9 0 0 1-.121-1.579q.163-.779.79-1.404.362-.362.834-.594a2.5 2.5 0 0 1 1.034-.25q.557-.021 1.172.25t1.262.919l.302.301-3.568 3.568-.615-.615 2.845-2.844a2.16 2.16 0 0 0-.856-.543 1.7 1.7 0 0 0-.925-.045q-.461.105-.847.491-.425.426-.524.946-.099.515.069 1.016.17.5.552.883l.41.41q.524.523 1.069.708.546.177 1.061.042.512-.139.943-.57.28-.28.428-.584a1.5 1.5 0 0 0 .154-.636 1.56 1.56 0 0 0-.148-.66l.88-.494q.241.458.25.979a2.5 2.5 0 0 1-.223 1.043 3.3 3.3 0 0 1-.702.991m4.637-1.359-6.364-6.364.687-.687.736.735.084-.084a10 10 0 0 1-.091-.524 1.8 1.8 0 0 1 .067-.741q.114-.417.566-.868.585-.585 1.323-.739.738-.153 1.525.133t1.515 1.016q.736.735 1.025 1.524.286.787.139 1.525-.151.735-.73 1.314-.446.446-.861.566-.42.118-.754.073a7 7 0 0 1-.542-.097l-.06.06 2.446 2.447zm-3.35-4.749q.524.525 1.078.772.552.243 1.073.175.518-.073.946-.501.446-.445.509-.979.064-.54-.186-1.091a3.5 3.5 0 0 0-.745-1.051 3.4 3.4 0 0 0-1.03-.73 1.9 1.9 0 0 0-1.073-.174q-.53.066-.982.518-.434.434-.51.949-.078.512.163 1.055.238.539.757 1.057m5.158-12.872 6.171 6.171-.747.747-5.388-5.387-.036.036-.506 2.507-.759-.76.518-2.567zm7.946 4.396-.542-.542-.193-4.267a19 19 0 0 0-.091-1.272 3.6 3.6 0 0 0-.204-.892 1.9 1.9 0 0 0-.428-.656 1.4 1.4 0 0 0-.72-.407 1.45 1.45 0 0 0-.79.054 1.9 1.9 0 0 0-.732.473 1.77 1.77 0 0 0-.473.769 1.42 1.42 0 0 0 0 .813q.12.404.473.756l-.711.712q-.543-.543-.702-1.203-.16-.66.042-1.32a2.9 2.9 0 0 1 .744-1.202q.542-.542 1.19-.732t1.275-.039q.626.15 1.103.627.34.34.542.789.202.443.298 1.142.097.693.136 1.793l.096 2.869.049.048 2.868-2.869.663.663zM161.202 324.391a1.34 1.34 0 0 0-1.151-.271q-.639.132-1.2.693a2.5 2.5 0 0 0-.584.849 1.6 1.6 0 0 0-.112.841q.063.4.359.696.247.247.542.308.295.054.6-.015a3 3 0 0 0 .581-.202q.278-.133.495-.259l.795-.459q.304-.178.711-.361.41-.187.874-.265.464-.085.94.036.477.12.91.554.501.501.642 1.166.144.663-.118 1.402-.258.735-.97 1.446-.663.663-1.362.934a2.6 2.6 0 0 1-1.356.163 2.4 2.4 0 0 1-1.199-.579l.771-.771q.38.32.814.343.433.018.862-.186.428-.212.795-.579.428-.428.63-.907.2-.482.148-.931a1.32 1.32 0 0 0-.392-.79q-.308-.307-.672-.328a1.8 1.8 0 0 0-.765.139q-.402.16-.817.394l-.976.543q-.932.515-1.739.551t-1.431-.587a2.1 2.1 0 0 1-.624-1.185 2.63 2.63 0 0 1 .157-1.362q.262-.696.853-1.286.596-.597 1.274-.847.675-.253 1.314-.157a2.04 2.04 0 0 1 1.124.546zm8.605.844q-.669.67-1.45.859a2.8 2.8 0 0 1-1.576-.087q-.795-.277-1.506-.989-.711-.711-.995-1.512a2.9 2.9 0 0 1-.12-1.579q.163-.777.789-1.404a3.1 3.1 0 0 1 .835-.594q.473-.232 1.034-.25.557-.021 1.172.25t1.262.919l.302.301-3.568 3.568-.615-.615 2.845-2.844a2.14 2.14 0 0 0-.856-.542 1.67 1.67 0 0 0-.925-.046 1.75 1.75 0 0 0-.847.491q-.425.425-.524.947-.099.515.069 1.015.169.5.552.883l.409.41q.524.523 1.07.708.546.177 1.061.042.512-.138.943-.569.28-.28.428-.585.147-.31.153-.636a1.56 1.56 0 0 0-.147-.66l.88-.494q.24.458.25.979.006.519-.223 1.043a3.3 3.3 0 0 1-.702.991m4.637-1.359-6.364-6.364.687-.687.735.736.085-.085a9 9 0 0 1-.091-.524 1.8 1.8 0 0 1 .067-.741q.114-.416.566-.868.585-.585 1.323-.738.738-.155 1.525.132t1.515 1.016q.735.735 1.025 1.524.286.787.138 1.525-.15.735-.729 1.314-.445.446-.862.566-.418.118-.753.073a6 6 0 0 1-.542-.097l-.061.061 2.447 2.446zm-3.351-4.748q.524.523 1.079.771.552.244 1.073.175.518-.073.946-.501.446-.445.509-.979a2.03 2.03 0 0 0-.187-1.091 3.5 3.5 0 0 0-.744-1.051 3.4 3.4 0 0 0-1.03-.729 1.93 1.93 0 0 0-1.073-.175q-.53.066-.982.518-.434.434-.51.949-.078.512.163 1.055.238.539.756 1.058m5.159-12.873 6.171 6.171-.747.747-5.388-5.387-.036.036-.506 2.507-.76-.759.519-2.568zm10.115 2.396q-.596.596-1.268.858a2.6 2.6 0 0 1-1.308.169 2.17 2.17 0 0 1-1.148-.557l.759-.76q.322.274.721.311a1.7 1.7 0 0 0 .804-.142q.41-.175.765-.53a2.4 2.4 0 0 0 .567-.844q.169-.446.096-.868a1.36 1.36 0 0 0-.397-.747 1.5 1.5 0 0 0-.769-.431 1.6 1.6 0 0 0-.904.084q-.472.178-.943.648l-.494.494-.663-.663.494-.494q.368-.368.513-.777.147-.413.063-.811a1.4 1.4 0 0 0-.407-.726 1.5 1.5 0 0 0-.684-.407 1.35 1.35 0 0 0-.753.03 1.8 1.8 0 0 0-.72.461 2.2 2.2 0 0 0-.486.721q-.165.394-.123.792.039.394.331.717l-.723.723a2.08 2.08 0 0 1-.557-1.142 2.6 2.6 0 0 1 .144-1.289 3.3 3.3 0 0 1 .775-1.184q.572-.573 1.214-.751.64-.18 1.235-.024a2.24 2.24 0 0 1 1.034.594q.521.52.615 1.163.096.64-.229 1.247l.048.049q.681-.489 1.41-.416.726.069 1.314.657.502.503.63 1.178.126.669-.115 1.368t-.841 1.299M190.077 324.432a1.34 1.34 0 0 0-1.151-.271q-.638.133-1.199.693a2.6 2.6 0 0 0-.585.85 1.6 1.6 0 0 0-.111.841q.064.4.358.696.248.246.543.307.296.054.599-.015.302-.072.582-.202.278-.132.494-.259l.796-.458q.304-.178.711-.362.41-.187.874-.265.463-.084.94.036.475.122.91.555.5.5.642 1.166.144.663-.118 1.401-.26.735-.97 1.446-.663.663-1.362.935a2.6 2.6 0 0 1-1.356.162 2.4 2.4 0 0 1-1.199-.578l.771-.772q.38.32.814.344.434.018.861-.187.429-.21.796-.579.428-.427.63-.907a1.9 1.9 0 0 0 .147-.931 1.3 1.3 0 0 0-.392-.789q-.306-.307-.671-.329a1.8 1.8 0 0 0-.766.139 7 7 0 0 0-.816.395l-.977.542q-.93.515-1.738.552-.808.036-1.432-.588a2.1 2.1 0 0 1-.623-1.184 2.63 2.63 0 0 1 .156-1.362 3.6 3.6 0 0 1 .853-1.287q.597-.597 1.275-.847.675-.253 1.313-.156.642.093 1.124.545zm8.605.845q-.669.669-1.449.859a2.8 2.8 0 0 1-1.576-.088q-.795-.277-1.507-.988-.71-.71-.994-1.513a2.9 2.9 0 0 1-.121-1.579q.163-.777.79-1.404.361-.362.835-.594a2.5 2.5 0 0 1 1.033-.25q.558-.02 1.172.25.615.272 1.263.92l.301.301-3.568 3.568-.614-.615 2.844-2.845a2.14 2.14 0 0 0-.855-.542 1.66 1.66 0 0 0-.926-.045 1.74 1.74 0 0 0-.846.491 1.8 1.8 0 0 0-.525.946q-.1.515.07 1.016.168.5.551.882l.41.41q.524.525 1.07.708.545.178 1.06.043.513-.14.943-.57.28-.28.428-.585.148-.31.154-.635a1.54 1.54 0 0 0-.148-.66l.88-.494q.241.457.25.979.006.518-.223 1.042a3.3 3.3 0 0 1-.702.992m4.638-1.359-6.364-6.364.687-.687.735.735.084-.084a9 9 0 0 1-.09-.525 1.8 1.8 0 0 1 .066-.741q.115-.415.567-.868.584-.583 1.322-.738.74-.153 1.525.133.787.286 1.516 1.015.736.736 1.024 1.525.286.786.139 1.525-.15.735-.729 1.313-.447.446-.862.567-.418.117-.753.072a7 7 0 0 1-.543-.096l-.06.06 2.447 2.447zm-3.351-4.749q.524.525 1.079.771.551.244 1.072.175.519-.072.947-.5.446-.446.509-.979a2.03 2.03 0 0 0-.187-1.091 3.6 3.6 0 0 0-.744-1.052 3.5 3.5 0 0 0-1.031-.729 1.9 1.9 0 0 0-1.073-.175q-.53.066-.982.519-.434.433-.509.949-.078.512.163 1.054.237.54.756 1.058m5.159-12.873 6.171 6.172-.748.747-5.387-5.388-.036.036-.507 2.507-.759-.759.518-2.567zm6.535 3.276-.614-.615-1.579-7.003.446-.446.952.953-.302.301 1.194 5.291.048.048 3.652-3.652.663.663zm4.171-1.639-1.453-1.453-.286-.286-4.432-4.433.711-.711 6.171 6.171zM219.276 324.151a1.34 1.34 0 0 0-1.151-.272q-.64.133-1.199.693a2.6 2.6 0 0 0-.585.85 1.6 1.6 0 0 0-.111.841q.063.4.358.696.248.247.543.307.294.054.599-.015.301-.072.582-.202.277-.132.494-.259l.795-.458q.305-.178.711-.361.41-.187.874-.266.465-.084.94.037.477.12.91.554.501.5.642 1.166.145.663-.117 1.401-.259.736-.971 1.447-.662.663-1.361.934a2.6 2.6 0 0 1-1.356.162 2.4 2.4 0 0 1-1.2-.578l.772-.771q.38.318.813.343.435.018.862-.187.427-.21.796-.578.428-.429.629-.907.2-.483.148-.931a1.3 1.3 0 0 0-.392-.79q-.308-.307-.672-.328a1.8 1.8 0 0 0-.765.138 7 7 0 0 0-.817.395l-.976.542q-.931.516-1.739.552-.807.036-1.431-.588a2.12 2.12 0 0 1-.624-1.184 2.63 2.63 0 0 1 .157-1.362 3.6 3.6 0 0 1 .853-1.287q.596-.596 1.274-.846.675-.253 1.314-.157.642.093 1.124.545zm8.605.844q-.669.669-1.449.859a2.8 2.8 0 0 1-1.576-.088q-.796-.276-1.507-.988-.71-.71-.994-1.513a2.9 2.9 0 0 1-.121-1.578q.163-.778.79-1.405.362-.362.834-.593a2.5 2.5 0 0 1 1.034-.25q.557-.021 1.172.25t1.263.919l.301.301-3.568 3.568-.614-.615 2.844-2.844a2.14 2.14 0 0 0-.856-.543 1.7 1.7 0 0 0-.925-.045q-.46.105-.847.491a1.8 1.8 0 0 0-.524.946q-.099.516.069 1.016.17.5.552.883l.41.409q.524.525 1.069.709.546.177 1.061.042.513-.139.943-.57.28-.28.428-.584a1.5 1.5 0 0 0 .154-.636 1.54 1.54 0 0 0-.148-.66l.88-.494q.241.458.25.979a2.5 2.5 0 0 1-.223 1.043 3.3 3.3 0 0 1-.702.991m4.637-1.359-6.364-6.364.687-.687.736.735.084-.084a9 9 0 0 1-.09-.524 1.8 1.8 0 0 1 .066-.742q.114-.415.566-.867.585-.585 1.323-.739.738-.153 1.525.133t1.516 1.015q.735.736 1.024 1.525.286.787.139 1.525-.151.735-.73 1.314-.445.446-.861.566-.42.118-.754.072a7 7 0 0 1-.542-.096l-.06.06 2.446 2.447zm-3.35-4.749q.524.525 1.078.772.552.244 1.073.174.519-.072.946-.5.447-.446.509-.979.064-.54-.186-1.091a3.6 3.6 0 0 0-.745-1.052 3.5 3.5 0 0 0-1.03-.729 1.9 1.9 0 0 0-1.073-.174q-.53.066-.982.518-.434.433-.509.949-.079.512.162 1.055.238.539.757 1.057m5.158-12.872 6.171 6.171-.747.747-5.388-5.388-.036.037-.506 2.507-.759-.76.518-2.567zm9.959 2.552a3 3 0 0 1-1.166.744 2.5 2.5 0 0 1-1.26.103 2.24 2.24 0 0 1-1.118-.558l.724-.723q.461.377 1.072.313a1.8 1.8 0 0 0 1.085-.542 1.8 1.8 0 0 0 .497-.853 1.76 1.76 0 0 0-.021-.955 2.05 2.05 0 0 0-.536-.88 2.04 2.04 0 0 0-.898-.542 1.83 1.83 0 0 0-.985-.021 1.9 1.9 0 0 0-.889.515q-.287.28-.494.669a2.3 2.3 0 0 0-.266.717l-.783.615-2.664-3.411 3.206-3.206.663.663-2.579 2.579 1.603 2.037.036-.036q.04-.34.226-.726.187-.387.497-.697a2.69 2.69 0 0 1 2.715-.702q.723.211 1.323.811.591.591.789 1.32.2.723.007 1.452a2.9 2.9 0 0 1-.784 1.314M248.059 324.283a1.34 1.34 0 0 0-1.151-.271q-.638.132-1.199.693a2.55 2.55 0 0 0-.585.85 1.6 1.6 0 0 0-.111.84q.063.402.359.697.246.246.542.307.296.054.6-.015.3-.072.581-.202.278-.133.494-.259l.796-.458q.304-.178.711-.362.41-.187.874-.265.463-.084.94.036t.91.555q.5.5.642 1.166.144.663-.118 1.401-.26.735-.97 1.446-.663.663-1.362.934a2.6 2.6 0 0 1-1.356.163 2.4 2.4 0 0 1-1.199-.578l.771-.772q.38.32.814.344.433.018.861-.187.429-.212.796-.579.428-.427.63-.907a1.86 1.86 0 0 0 .147-.931 1.3 1.3 0 0 0-.391-.789q-.308-.308-.672-.329a1.8 1.8 0 0 0-.766.139 7 7 0 0 0-.816.395l-.977.542q-.93.516-1.738.551-.808.037-1.431-.587a2.1 2.1 0 0 1-.624-1.184 2.63 2.63 0 0 1 .156-1.362q.263-.696.853-1.287.597-.597 1.275-.847.675-.253 1.314-.156.64.093 1.124.545zm8.605.845q-.669.669-1.449.858a2.8 2.8 0 0 1-1.576-.087q-.795-.277-1.506-.988-.712-.711-.995-1.513a2.9 2.9 0 0 1-.12-1.579q.162-.777.789-1.404.361-.361.835-.594a2.5 2.5 0 0 1 1.033-.25q.558-.02 1.172.25.615.271 1.263.919l.301.302-3.567 3.567-.615-.614 2.844-2.845a2.14 2.14 0 0 0-.855-.542 1.66 1.66 0 0 0-.925-.045q-.462.105-.847.491a1.8 1.8 0 0 0-.524.946q-.1.515.069 1.015.168.5.551.883l.41.41q.524.525 1.07.708.545.179 1.06.042.512-.138.944-.569.28-.28.427-.585.148-.31.154-.636a1.55 1.55 0 0 0-.147-.659l.879-.495q.241.459.25.98.007.518-.222 1.042a3.3 3.3 0 0 1-.703.992m4.638-1.359-6.364-6.364.687-.687.735.735.084-.084a9 9 0 0 1-.09-.525 1.8 1.8 0 0 1 .066-.741q.115-.415.567-.868.584-.585 1.323-.738.738-.154 1.524.133.787.286 1.516 1.015.735.735 1.025 1.525.286.786.138 1.524-.15.736-.729 1.314-.446.445-.862.567-.418.117-.753.072a7 7 0 0 1-.543-.096l-.06.06 2.447 2.447zm-3.351-4.749q.524.524 1.079.771.55.244 1.073.175.517-.072.946-.5.446-.447.509-.98a2.03 2.03 0 0 0-.187-1.09 3.6 3.6 0 0 0-.744-1.052 3.5 3.5 0 0 0-1.031-.729 1.9 1.9 0 0 0-1.072-.175q-.53.066-.983.518-.434.435-.509.95-.078.512.163 1.054.238.54.756 1.058m5.159-12.873 6.171 6.171-.747.748-5.388-5.388-.036.036-.506 2.507-.76-.759.518-2.567zm10.079 2.432a3.3 3.3 0 0 1-.904.615 2.6 2.6 0 0 1-1.16.226q-.645-.018-1.398-.392-.756-.376-1.612-1.233-.82-.819-1.299-1.606-.482-.789-.624-1.515a2.86 2.86 0 0 1 .042-1.368q.19-.642.712-1.163a2.8 2.8 0 0 1 1.13-.714 2.5 2.5 0 0 1 1.235-.091q.624.111 1.178.515l-.735.736a1.93 1.93 0 0 0-1.088-.293q-.57.021-1.057.51-.718.717-.507 1.753.214 1.033 1.338 2.164l.048-.048a2.58 2.58 0 0 1 .199-1.64q.185-.382.5-.699a2.6 2.6 0 0 1 1.236-.705 2.8 2.8 0 0 1 1.431.021q.726.196 1.323.793.573.571.792 1.305.217.729.034 1.473-.184.738-.814 1.356m-.663-.663q.38-.38.491-.871a1.9 1.9 0 0 0-.03-.988 2 2 0 0 0-.533-.889 2 2 0 0 0-.868-.524 1.85 1.85 0 0 0-.97-.037 1.75 1.75 0 0 0-.862.489q-.287.285-.419.647-.135.36-.126.742.012.38.159.738.145.356.422.633a2.01 2.01 0 0 0 1.85.554 1.76 1.76 0 0 0 .886-.494M277.424 323.836a1.34 1.34 0 0 0-1.151-.271q-.639.132-1.2.693a2.5 2.5 0 0 0-.584.849 1.6 1.6 0 0 0-.112.841q.064.4.359.696.247.247.542.307.296.055.6-.015.302-.072.582-.201.276-.133.494-.26l.795-.458q.304-.177.711-.361a3.5 3.5 0 0 1 .874-.265q.465-.086.94.036.477.12.91.554.501.5.642 1.166.145.663-.117 1.402-.26.735-.971 1.446-.663.663-1.362.934a2.6 2.6 0 0 1-1.356.163 2.4 2.4 0 0 1-1.199-.579l.771-.771q.38.32.814.343.434.018.862-.187.428-.21.795-.578.429-.428.63-.907.2-.483.148-.931a1.3 1.3 0 0 0-.392-.79q-.307-.307-.672-.328a1.8 1.8 0 0 0-.765.139q-.401.16-.817.394l-.976.543q-.931.515-1.739.551-.807.036-1.431-.588a2.1 2.1 0 0 1-.624-1.184 2.63 2.63 0 0 1 .157-1.362q.262-.696.853-1.286.596-.597 1.274-.847.675-.253 1.314-.157.642.093 1.124.546zm8.605.844q-.669.669-1.45.859a2.8 2.8 0 0 1-1.575-.087q-.796-.278-1.507-.989t-.994-1.512a2.9 2.9 0 0 1-.121-1.579q.163-.779.789-1.404.363-.362.835-.594a2.5 2.5 0 0 1 1.034-.25q.557-.021 1.172.25t1.262.919l.302.301-3.568 3.568-.615-.615 2.845-2.844a2.16 2.16 0 0 0-.856-.543 1.7 1.7 0 0 0-.925-.045 1.75 1.75 0 0 0-.847.491q-.425.425-.524.947-.099.515.069 1.015.17.5.552.883l.409.41q.525.524 1.07.708.546.177 1.061.042.512-.138.943-.57.28-.28.428-.584a1.5 1.5 0 0 0 .154-.636 1.56 1.56 0 0 0-.148-.66l.88-.494q.24.458.25.979a2.5 2.5 0 0 1-.223 1.043 3.3 3.3 0 0 1-.702.991m4.637-1.359-6.364-6.364.687-.687.735.736.085-.085a10 10 0 0 1-.091-.524 1.8 1.8 0 0 1 .067-.741q.114-.417.566-.868.585-.585 1.323-.738.738-.155 1.525.132.786.286 1.515 1.016.736.735 1.025 1.524.286.787.139 1.525-.151.735-.73 1.314-.446.446-.861.566-.42.118-.754.073a7 7 0 0 1-.542-.097l-.06.06 2.446 2.447zm-3.351-4.749q.525.525 1.079.772.552.244 1.073.175.518-.073.946-.501.446-.445.509-.979a2.03 2.03 0 0 0-.187-1.091 3.5 3.5 0 0 0-.744-1.051 3.4 3.4 0 0 0-1.03-.73 1.9 1.9 0 0 0-1.073-.174q-.53.066-.982.518-.434.434-.51.949-.078.512.163 1.055.238.539.756 1.057m5.159-12.872 6.171 6.171-.747.747-5.388-5.387-.036.036-.506 2.507-.759-.76.518-2.567zm8.139 4.203-2.7-8.22-.048-.048-3.182 3.182-.663-.663 3.953-3.953.699.699 2.724 8.22zM305.96 324.217a1.34 1.34 0 0 0-1.151-.271q-.639.132-1.2.693a2.5 2.5 0 0 0-.584.849 1.6 1.6 0 0 0-.112.841q.063.4.359.696.247.247.542.308.296.054.6-.015a3 3 0 0 0 .581-.202q.278-.133.495-.26l.795-.458q.304-.178.711-.361.41-.187.874-.265.464-.085.94.036.477.12.91.554.501.5.642 1.166.144.663-.118 1.402-.259.735-.97 1.446-.663.663-1.362.934a2.6 2.6 0 0 1-1.356.163 2.4 2.4 0 0 1-1.199-.579l.771-.771q.38.32.814.343.433.018.862-.186.428-.212.795-.579.428-.428.63-.907.2-.482.148-.931a1.32 1.32 0 0 0-.392-.79q-.307-.307-.672-.328a1.8 1.8 0 0 0-.765.139q-.402.16-.817.394l-.976.543q-.932.515-1.739.551t-1.431-.587a2.1 2.1 0 0 1-.624-1.185 2.63 2.63 0 0 1 .157-1.362q.262-.696.853-1.286.596-.597 1.274-.847.675-.253 1.314-.157a2.04 2.04 0 0 1 1.124.546zm8.605.844q-.669.67-1.45.859a2.8 2.8 0 0 1-1.576-.087q-.795-.278-1.506-.989t-.995-1.512a2.9 2.9 0 0 1-.12-1.579q.163-.778.789-1.404a3.1 3.1 0 0 1 .835-.594q.473-.232 1.034-.25.557-.021 1.172.25t1.262.919l.302.301-3.568 3.568-.615-.615 2.845-2.844a2.16 2.16 0 0 0-.856-.543 1.7 1.7 0 0 0-.925-.045 1.75 1.75 0 0 0-.847.491q-.425.425-.524.947-.099.515.069 1.015.169.5.552.883l.409.41q.524.523 1.07.708.545.177 1.061.042.512-.138.943-.569.28-.28.428-.585.147-.31.153-.636a1.56 1.56 0 0 0-.147-.66l.88-.494q.24.458.25.979.005.518-.223 1.043a3.3 3.3 0 0 1-.702.991m4.637-1.359-6.364-6.364.687-.687.735.736.085-.085a9 9 0 0 1-.091-.524 1.8 1.8 0 0 1 .067-.741q.114-.417.566-.868.585-.585 1.323-.738.738-.155 1.525.132t1.515 1.016q.735.735 1.025 1.524.287.787.138 1.525-.15.735-.729 1.314-.445.446-.862.566-.418.118-.753.073a6 6 0 0 1-.542-.097l-.061.061 2.447 2.446zm-3.351-4.748q.524.523 1.079.771.552.244 1.073.175.518-.073.946-.501.446-.445.509-.979a2.03 2.03 0 0 0-.187-1.091 3.5 3.5 0 0 0-.744-1.051 3.4 3.4 0 0 0-1.03-.729 1.93 1.93 0 0 0-1.073-.175q-.53.066-.982.518-.434.434-.51.949-.078.512.163 1.055.238.539.756 1.058m5.159-12.873 6.171 6.171-.747.747-5.388-5.387-.036.036-.506 2.507-.76-.759.519-2.568zm10.007 2.504q-.621.62-1.317.877a2.53 2.53 0 0 1-1.35.126 2.17 2.17 0 0 1-1.154-.629 2.33 2.33 0 0 1-.699-1.863q.048-.5.326-.898l-.037-.036a1.68 1.68 0 0 1-1.202.208 2.13 2.13 0 0 1-1.136-.617 2.1 2.1 0 0 1-.603-1.079 2.4 2.4 0 0 1 .079-1.248q.21-.638.753-1.181a2.96 2.96 0 0 1 1.172-.744q.636-.208 1.248-.079.615.127 1.088.594.488.494.608 1.145.121.645-.199 1.193l.037.037q.394-.275.888-.317.491-.045.986.13.49.171.886.56.497.504.62 1.163.125.654-.126 1.35-.25.69-.868 1.308m-.663-.663q.418-.418.588-.859.168-.44.087-.852a1.46 1.46 0 0 0-.41-.748 1.58 1.58 0 0 0-.798-.437q-.447-.09-.907.064-.459.15-.85.542a2.2 2.2 0 0 0-.551.859 1.73 1.73 0 0 0-.064.907q.094.442.446.789.328.335.739.419.413.081.855-.09.444-.173.865-.594m-2.929-2.929q.332-.331.455-.72.127-.391.036-.777a1.5 1.5 0 0 0-.406-.709 1.46 1.46 0 0 0-.693-.397 1.35 1.35 0 0 0-.763.039q-.386.126-.726.467-.347.346-.476.735a1.3 1.3 0 0 0-.039.763q.09.373.407.684.315.322.699.415.386.091.777-.036.392-.126.729-.464M334.809 324.283a1.34 1.34 0 0 0-1.151-.271q-.639.132-1.199.693a2.55 2.55 0 0 0-.585.85 1.6 1.6 0 0 0-.111.84q.063.402.359.697.246.246.542.307.296.054.6-.015.3-.072.581-.202.278-.133.494-.259l.796-.458q.304-.178.711-.362.41-.187.874-.265.463-.084.94.036t.91.555q.5.5.642 1.166.144.663-.118 1.401-.26.735-.97 1.446-.663.663-1.362.934a2.6 2.6 0 0 1-1.356.163 2.4 2.4 0 0 1-1.199-.578l.771-.772q.38.32.814.344.434.018.861-.187.429-.212.796-.579.428-.427.63-.907a1.86 1.86 0 0 0 .147-.931 1.3 1.3 0 0 0-.391-.789q-.307-.308-.672-.329a1.8 1.8 0 0 0-.766.139 7 7 0 0 0-.816.395l-.977.542q-.93.516-1.738.551-.808.037-1.431-.587a2.1 2.1 0 0 1-.624-1.184 2.63 2.63 0 0 1 .156-1.362q.263-.696.853-1.287.597-.597 1.275-.847.675-.253 1.314-.156.64.093 1.124.545zm8.605.845q-.669.669-1.449.858a2.8 2.8 0 0 1-1.576-.087q-.795-.277-1.506-.988-.712-.711-.995-1.513a2.9 2.9 0 0 1-.12-1.579q.162-.777.789-1.404.361-.361.835-.594a2.5 2.5 0 0 1 1.033-.25q.558-.02 1.172.25.615.271 1.263.919l.301.302-3.567 3.567-.615-.614 2.844-2.845a2.14 2.14 0 0 0-.855-.542 1.66 1.66 0 0 0-.925-.045q-.462.105-.847.491a1.8 1.8 0 0 0-.524.946q-.1.515.069 1.015.168.5.551.883l.41.41q.524.525 1.07.708.545.179 1.06.042.512-.138.944-.569.28-.28.427-.585.148-.31.154-.636a1.55 1.55 0 0 0-.147-.659l.879-.495q.241.459.25.98.007.518-.222 1.042a3.3 3.3 0 0 1-.703.992m4.638-1.359-6.364-6.364.687-.687.735.735.084-.084a9 9 0 0 1-.09-.525 1.8 1.8 0 0 1 .066-.741q.115-.415.567-.868.584-.585 1.323-.738.738-.154 1.524.133.787.286 1.516 1.015.735.735 1.025 1.525.286.786.138 1.524-.15.736-.729 1.314-.446.445-.862.567-.418.117-.753.072a7 7 0 0 1-.543-.096l-.06.06 2.447 2.447zm-3.351-4.749q.525.524 1.079.771.55.244 1.073.175.517-.072.946-.5.446-.447.509-.98a2.03 2.03 0 0 0-.187-1.09 3.6 3.6 0 0 0-.744-1.052 3.5 3.5 0 0 0-1.031-.729 1.9 1.9 0 0 0-1.072-.175q-.53.066-.983.518-.434.435-.509.95-.078.512.163 1.054.238.54.756 1.058m5.159-12.873 6.171 6.171-.747.748-5.388-5.388-.036.036-.506 2.507-.76-.759.518-2.567zm3.655-3.824q.382-.377.904-.614a2.6 2.6 0 0 1 1.163-.223q.639.012 1.392.385.753.374 1.603 1.224.822.823 1.305 1.618.481.789.627 1.519.147.726-.043 1.368-.186.639-.708 1.16a2.9 2.9 0 0 1-1.13.72q-.612.196-1.238.087a2.8 2.8 0 0 1-1.187-.53l.735-.735q.524.325 1.097.307.572-.024 1.06-.512.714-.714.504-1.751-.209-1.04-1.347-2.178l-.049.048q.085.421.037.837-.05.417-.232.799a2.6 2.6 0 0 1-.504.702 2.64 2.64 0 0 1-1.235.711q-.705.176-1.431-.021-.727-.202-1.323-.798a3.05 3.05 0 0 1-.784-1.29 2.8 2.8 0 0 1-.036-1.471q.184-.744.82-1.362m.663.663a1.8 1.8 0 0 0-.494.874 1.9 1.9 0 0 0 .027.986q.141.49.527.876.385.386.871.534.485.141.967.033a1.8 1.8 0 0 0 .862-.494 1.82 1.82 0 0 0 .542-1.386 2.1 2.1 0 0 0-.156-.742 1.963 1.963 0 0 0-1.275-1.136 1.97 1.97 0 0 0-.988-.036 1.75 1.75 0 0 0-.883.491M362.525 325.485a1.34 1.34 0 0 0-1.151-.271q-.64.132-1.199.693a2.5 2.5 0 0 0-.585.849 1.6 1.6 0 0 0-.111.841q.063.4.358.696.248.247.543.308.294.054.599-.016.301-.072.582-.201a7 7 0 0 0 .494-.26l.795-.458q.304-.177.712-.361a3.5 3.5 0 0 1 .873-.265q.465-.085.941.036.475.12.91.554.5.5.641 1.166.145.663-.117 1.402-.26.735-.97 1.446-.663.663-1.362.934a2.6 2.6 0 0 1-1.356.163 2.4 2.4 0 0 1-1.2-.579l.772-.771q.38.32.813.343.435.018.862-.187.428-.21.796-.578.428-.428.629-.907.2-.482.148-.931a1.3 1.3 0 0 0-.392-.79q-.307-.307-.672-.328a1.8 1.8 0 0 0-.765.139 7 7 0 0 0-.817.394l-.976.543q-.931.515-1.739.551-.807.036-1.431-.588a2.12 2.12 0 0 1-.624-1.184 2.63 2.63 0 0 1 .157-1.362q.262-.696.853-1.286.597-.597 1.274-.847.675-.253 1.314-.157.642.094 1.124.546zm8.605.844q-.669.669-1.449.859a2.8 2.8 0 0 1-1.576-.087q-.796-.278-1.507-.989t-.994-1.512a2.9 2.9 0 0 1-.121-1.579q.163-.779.79-1.404.361-.361.834-.594a2.5 2.5 0 0 1 1.034-.25q.558-.021 1.172.25.615.271 1.263.919l.301.301-3.568 3.568-.614-.615 2.844-2.844a2.15 2.15 0 0 0-.856-.543 1.7 1.7 0 0 0-.925-.045 1.75 1.75 0 0 0-.846.491q-.426.425-.525.947-.1.515.07 1.015.168.5.551.883l.41.41q.524.523 1.069.708.546.177 1.061.042.513-.138.943-.57.28-.28.428-.584.148-.31.154-.636a1.54 1.54 0 0 0-.148-.66l.88-.494q.241.458.25.979a2.5 2.5 0 0 1-.223 1.043 3.3 3.3 0 0 1-.702.991m4.637-1.359-6.364-6.364.687-.687.736.736.084-.085a9 9 0 0 1-.09-.524 1.8 1.8 0 0 1 .066-.741q.114-.417.566-.868.585-.585 1.323-.738.739-.155 1.525.132.786.286 1.516 1.016.735.735 1.024 1.524.286.787.139 1.525-.151.735-.729 1.314-.447.446-.862.566a1.9 1.9 0 0 1-.754.073 7 7 0 0 1-.542-.097l-.06.06 2.447 2.447zm-3.35-4.749q.524.525 1.078.772.552.244 1.073.175.519-.073.946-.501.446-.445.51-.979a2.04 2.04 0 0 0-.187-1.091 3.5 3.5 0 0 0-.745-1.051 3.4 3.4 0 0 0-1.03-.73 1.9 1.9 0 0 0-1.073-.174q-.53.066-.982.518-.434.434-.509.949-.079.512.162 1.055.238.539.757 1.057m9.16-4.531-.542-.543-.193-4.267q-.034-.75-.091-1.271a3.5 3.5 0 0 0-.205-.892 1.9 1.9 0 0 0-.427-.657 1.4 1.4 0 0 0-.721-.407 1.44 1.44 0 0 0-.789.054 1.94 1.94 0 0 0-.732.474 1.8 1.8 0 0 0-.473.768 1.42 1.42 0 0 0 0 .813q.12.405.473.757l-.711.711q-.543-.543-.703-1.202-.16-.66.043-1.32.204-.663.744-1.202.542-.543 1.19-.733a2.45 2.45 0 0 1 1.275-.039q.627.151 1.103.627.34.34.542.789.202.443.298 1.142.097.693.136 1.793l.096 2.869.049.048 2.868-2.868.663.662zm7.235-7.067q-.681.681-1.531.79-.852.106-1.814-.35-.964-.457-1.971-1.464-1-1-1.455-1.962-.455-.966-.35-1.82.106-.858.781-1.533t1.531-.778q.855-.109 1.82.35.963.452 1.964 1.452 1.006 1.006 1.465 1.971.455.961.349 1.814-.108.849-.789 1.53m-.663-.662q.674-.675.398-1.7-.277-1.024-1.483-2.23-.802-.801-1.537-1.193-.732-.395-1.347-.371-.611.021-1.057.467-.67.67-.386 1.706.28 1.033 1.483 2.236.801.801 1.53 1.193t1.338.368a1.56 1.56 0 0 0 1.061-.476M392.801 324.126a1.34 1.34 0 0 0-1.151-.271q-.639.132-1.2.693a2.5 2.5 0 0 0-.584.849 1.6 1.6 0 0 0-.112.841q.064.4.359.696.247.247.542.307.296.055.6-.015.301-.072.582-.202.276-.132.494-.259l.795-.458q.304-.178.711-.361a3.5 3.5 0 0 1 .874-.265q.465-.086.94.036.477.12.91.554.501.5.642 1.166.145.663-.117 1.401-.26.736-.971 1.447-.663.663-1.362.934a2.6 2.6 0 0 1-1.356.163 2.4 2.4 0 0 1-1.199-.579l.772-.771q.38.32.813.343.434.018.862-.187.428-.21.795-.578.429-.428.63-.907.2-.483.148-.931a1.3 1.3 0 0 0-.392-.79q-.307-.307-.672-.328a1.8 1.8 0 0 0-.765.138q-.401.16-.817.395l-.976.543q-.931.515-1.739.551-.807.036-1.431-.588a2.1 2.1 0 0 1-.624-1.184 2.63 2.63 0 0 1 .157-1.362q.262-.696.853-1.286.596-.597 1.274-.847.675-.253 1.314-.157.642.093 1.124.546zm8.605.844q-.669.669-1.45.859a2.8 2.8 0 0 1-1.575-.087q-.796-.278-1.507-.989-.712-.711-.994-1.512a2.9 2.9 0 0 1-.121-1.579q.163-.779.79-1.404.361-.362.834-.594a2.5 2.5 0 0 1 1.034-.25q.557-.021 1.172.25t1.262.919l.302.301-3.568 3.568-.615-.615 2.845-2.844a2.16 2.16 0 0 0-.856-.543 1.7 1.7 0 0 0-.925-.045q-.461.105-.847.491-.425.426-.524.946-.099.515.069 1.016.17.5.552.883l.41.41q.524.523 1.069.708.546.177 1.061.042.512-.139.943-.57.28-.28.428-.584a1.5 1.5 0 0 0 .154-.636 1.56 1.56 0 0 0-.148-.66l.88-.494q.241.458.25.979a2.5 2.5 0 0 1-.223 1.043 3.3 3.3 0 0 1-.702.991m4.637-1.359-6.364-6.364.687-.687.736.735.084-.084a10 10 0 0 1-.091-.524 1.8 1.8 0 0 1 .067-.741q.114-.417.566-.868.585-.585 1.323-.739.738-.153 1.525.133t1.515 1.016q.736.735 1.025 1.524.286.787.139 1.525-.151.735-.73 1.314-.446.446-.861.566-.42.118-.754.073a7 7 0 0 1-.542-.097l-.06.06 2.446 2.447zm-3.35-4.749q.524.525 1.078.772.551.243 1.073.175.518-.073.946-.501.446-.445.509-.979.064-.54-.186-1.091a3.5 3.5 0 0 0-.745-1.051 3.4 3.4 0 0 0-1.03-.73 1.9 1.9 0 0 0-1.073-.174q-.53.066-.982.518-.434.434-.51.949-.078.512.163 1.055.238.539.757 1.057m9.16-4.532-.543-.542-.192-4.267q-.034-.75-.091-1.271a3.5 3.5 0 0 0-.205-.892 1.9 1.9 0 0 0-.428-.657 1.4 1.4 0 0 0-.72-.407 1.44 1.44 0 0 0-.789.054q-.398.139-.733.473a1.8 1.8 0 0 0-.473.769 1.44 1.44 0 0 0 0 .813q.121.405.473.757l-.711.711q-.542-.543-.702-1.202-.159-.66.042-1.32a2.9 2.9 0 0 1 .745-1.202 2.8 2.8 0 0 1 1.19-.733 2.45 2.45 0 0 1 1.275-.039q.626.15 1.102.627.34.34.543.789.202.444.298 1.142.097.693.136 1.793l.096 2.869.048.048 2.869-2.869.663.663zm1.136-13.478 6.171 6.171-.747.748-5.388-5.388-.036.036-.506 2.507-.76-.759.518-2.567zM420.524 325.319a1.34 1.34 0 0 0-1.151-.271q-.639.132-1.2.693a2.5 2.5 0 0 0-.584.85 1.6 1.6 0 0 0-.112.84q.063.4.359.696.247.247.542.308.295.054.6-.015a3 3 0 0 0 .581-.202q.277-.133.495-.259l.795-.458q.305-.179.711-.362.41-.187.874-.265.464-.085.94.036.477.12.91.554.501.501.642 1.166.144.663-.118 1.402-.258.735-.97 1.446-.663.663-1.362.934a2.6 2.6 0 0 1-1.356.163 2.4 2.4 0 0 1-1.199-.579l.771-.771q.38.32.814.343.433.018.862-.186.428-.212.795-.579.428-.428.63-.907.2-.482.148-.931a1.32 1.32 0 0 0-.392-.79q-.307-.307-.672-.328a1.8 1.8 0 0 0-.765.139q-.402.16-.817.394l-.976.543q-.932.515-1.739.551t-1.431-.587a2.1 2.1 0 0 1-.624-1.185 2.63 2.63 0 0 1 .157-1.362q.262-.696.853-1.286.596-.597 1.274-.847.675-.253 1.314-.157a2.04 2.04 0 0 1 1.124.546zm8.605.844q-.669.67-1.45.859a2.8 2.8 0 0 1-1.576-.087q-.795-.277-1.506-.989-.711-.711-.995-1.512a2.9 2.9 0 0 1-.12-1.579q.163-.777.789-1.404a3.1 3.1 0 0 1 .835-.594q.473-.232 1.034-.25.557-.021 1.172.25t1.262.919l.302.301-3.568 3.568-.615-.615 2.845-2.844a2.14 2.14 0 0 0-.856-.542 1.67 1.67 0 0 0-.925-.046 1.75 1.75 0 0 0-.847.491q-.425.425-.524.947-.099.515.069 1.015.169.5.552.883l.409.41q.525.523 1.07.708.545.177 1.061.042.512-.138.943-.569.28-.28.428-.585.147-.31.153-.636a1.56 1.56 0 0 0-.147-.66l.88-.494q.24.458.25.979.005.519-.223 1.043a3.3 3.3 0 0 1-.702.991m4.637-1.359-6.364-6.364.687-.687.735.736.085-.085a9 9 0 0 1-.091-.524 1.8 1.8 0 0 1 .067-.741q.114-.416.566-.868.585-.585 1.323-.738t1.525.132q.786.287 1.515 1.016.735.735 1.025 1.524.286.787.138 1.525-.15.735-.729 1.314-.445.446-.862.566-.418.118-.753.073a6 6 0 0 1-.542-.097l-.061.061 2.447 2.446zm-3.351-4.748q.525.523 1.079.771.552.244 1.073.175.518-.073.946-.501.446-.445.509-.979a2.03 2.03 0 0 0-.187-1.091 3.5 3.5 0 0 0-.744-1.051 3.4 3.4 0 0 0-1.03-.729 1.93 1.93 0 0 0-1.073-.175q-.53.066-.982.518-.434.434-.51.949-.078.512.163 1.055.239.539.756 1.058m9.161-4.532-.543-.543-.193-4.267q-.033-.75-.09-1.271a3.6 3.6 0 0 0-.205-.892 1.9 1.9 0 0 0-.428-.657 1.42 1.42 0 0 0-.72-.407 1.43 1.43 0 0 0-.789.055q-.399.138-.733.473a1.8 1.8 0 0 0-.473.768 1.45 1.45 0 0 0 0 .814q.121.404.473.756l-.711.711q-.541-.543-.702-1.202-.159-.66.042-1.32a2.9 2.9 0 0 1 .745-1.202 2.8 2.8 0 0 1 1.19-.733 2.44 2.44 0 0 1 1.274-.039q.627.152 1.103.627.34.34.543.79.202.442.298 1.142.096.693.136 1.792l.096 2.869.048.048 2.869-2.868.663.663zm5.137-5.138-.542-.542-.193-4.267q-.033-.75-.09-1.272a3.6 3.6 0 0 0-.205-.892 1.9 1.9 0 0 0-.428-.656 1.4 1.4 0 0 0-.72-.407 1.44 1.44 0 0 0-.79.054 1.9 1.9 0 0 0-.732.473 1.8 1.8 0 0 0-.473.768 1.43 1.43 0 0 0 0 .814q.12.404.473.756l-.711.711q-.543-.542-.702-1.202-.16-.66.042-1.32.205-.663.744-1.202.543-.542 1.19-.732.648-.19 1.275-.039.627.15 1.103.626.34.341.542.79.202.443.299 1.142.096.693.135 1.793l.097 2.868.048.049 2.868-2.869.663.663z"/><path fill="#8979ff" d="M109 356h16v2h-16z"/><circle cx="117" cy="357" r="3.5" fill="#8979ff" stroke="#18324b"/><path fill="#fff" fill-opacity=".35" d="M137.08 355.5h-1.057a2.2 2.2 0 0 0-.891-1.381 2.4 2.4 0 0 0-.729-.358 3 3 0 0 0-.835-.119q-.792 0-1.436.401-.64.4-1.018 1.18-.375.78-.375 1.913t.375 1.914q.379.78 1.018 1.18.644.4 1.436.401.435 0 .835-.12a2.4 2.4 0 0 0 .729-.353q.332-.239.563-.584.234-.35.328-.801h1.057q-.12.669-.435 1.197a3.28 3.28 0 0 1-1.837 1.458 4 4 0 0 1-1.24.191q-1.116 0-1.986-.545-.869-.546-1.368-1.551-.498-1.006-.498-2.387 0-1.38.498-2.386.5-1.006 1.368-1.551.87-.546 1.986-.546.661 0 1.24.192.584.192 1.053.563.469.366.784.895.315.524.435 1.197m4.23 6.136q-.886 0-1.555-.422a2.86 2.86 0 0 1-1.04-1.18q-.37-.759-.371-1.773 0-1.022.371-1.785.374-.764 1.04-1.185.669-.422 1.555-.422.887 0 1.551.422.67.421 1.04 1.185.375.763.375 1.785 0 1.014-.375 1.773a2.8 2.8 0 0 1-1.04 1.18q-.665.423-1.551.422m0-.903q.673 0 1.108-.345t.643-.908q.21-.562.209-1.219 0-.656-.209-1.223a2.06 2.06 0 0 0-.643-.916q-.435-.35-1.108-.349-.673 0-1.108.349-.435.35-.643.916-.21.567-.209 1.223 0 .657.209 1.219.208.563.643.908t1.108.345m5.507-3.171v3.938h-1.006v-6.545h.972v1.022h.085q.23-.498.699-.801.469-.306 1.21-.307.665 0 1.163.273.499.269.776.818.277.546.277 1.381v4.159h-1.006v-4.091q0-.771-.4-1.202-.4-.434-1.1-.434-.482 0-.861.209-.375.209-.592.609t-.217.971m10.65-1.142-.903.256a1.7 1.7 0 0 0-.252-.439 1.2 1.2 0 0 0-.443-.358q-.282-.14-.72-.14-.602 0-1.002.277-.396.272-.396.694 0 .375.273.593.273.216.852.362l.972.238q.877.214 1.308.652.43.435.43 1.121 0 .562-.324 1.006a2.16 2.16 0 0 1-.894.699q-.576.255-1.339.255-1.001 0-1.657-.434-.657-.435-.831-1.27l.954-.239q.137.529.516.793.383.264 1.001.264.703 0 1.117-.298.417-.303.418-.725a.76.76 0 0 0-.239-.571q-.239-.234-.733-.349l-1.091-.256q-.899-.213-1.321-.66-.417-.452-.418-1.13 0-.554.311-.98.316-.426.857-.669a3 3 0 0 1 1.236-.243q.972 0 1.525.426a2.3 2.3 0 0 1 .793 1.125m5.758 2.404v-3.869h1.006v6.545h-1.006v-1.108h-.068a2.15 2.15 0 0 1-.716.848q-.486.345-1.227.345-.614 0-1.091-.268a1.9 1.9 0 0 1-.75-.818q-.273-.55-.273-1.385v-4.159h1.006v4.09q0 .716.4 1.143.405.426 1.032.426.375 0 .762-.192.393-.192.657-.588.268-.396.268-1.01m2.848 2.676v-6.545h.971v1.022h.086q.204-.523.66-.814.456-.294 1.095-.294.648 0 1.078.294.435.29.678.814h.068a1.9 1.9 0 0 1 .754-.805q.504-.303 1.206-.303.879 0 1.436.55.56.546.559 1.7v4.381h-1.006v-4.381q0-.725-.396-1.035a1.47 1.47 0 0 0-.934-.311q-.69 0-1.069.417-.38.413-.379 1.049v4.261h-1.023v-4.483q0-.558-.362-.899-.363-.345-.934-.345-.391 0-.733.209a1.6 1.6 0 0 0-.545.579 1.7 1.7 0 0 0-.205.848v4.091zm13.174.136q-.947 0-1.632-.417a2.8 2.8 0 0 1-1.053-1.176q-.366-.759-.366-1.765t.366-1.772a2.9 2.9 0 0 1 1.031-1.202q.666-.435 1.552-.435.51 0 1.009.171.499.17.908.554.41.38.652 1.005.243.627.243 1.543v.426h-5.045v-.869h4.022q0-.554-.221-.989a1.7 1.7 0 0 0-.622-.686 1.75 1.75 0 0 0-.946-.251q-.602 0-1.04.298a1.96 1.96 0 0 0-.669.767 2.24 2.24 0 0 0-.235 1.014v.58q0 .741.256 1.257.26.512.72.78.46.264 1.07.264.396 0 .716-.111.324-.115.558-.341.234-.23.362-.571l.972.273a2.16 2.16 0 0 1-.516.869q-.362.371-.895.58a3.3 3.3 0 0 1-1.197.204m4.24-.136v-6.545h.971v.988h.069q.179-.486.647-.788a1.9 1.9 0 0 1 1.057-.303 11 11 0 0 1 .529.017v1.023a4 4 0 0 0-.235-.038 2.3 2.3 0 0 0-.379-.03q-.477 0-.852.2a1.468 1.468 0 0 0-.801 1.334v4.142z"/><path fill="#8ebf00" d="M204 356h16v2h-16z"/><circle cx="212" cy="357" r="3.5" fill="#8ebf00" stroke="#18324b"/><path fill="#fff" fill-opacity=".35" d="M227.75 361.5h-2.693v-8.727h2.812q1.27 0 2.174.524a3.43 3.43 0 0 1 1.385 1.496q.481.971.481 2.326 0 1.364-.486 2.348a3.46 3.46 0 0 1-1.414 1.509q-.93.524-2.259.524m-1.636-.938h1.568q1.081 0 1.794-.417a2.58 2.58 0 0 0 1.061-1.189q.35-.77.349-1.837 0-1.056-.345-1.819a2.54 2.54 0 0 0-1.031-1.176q-.686-.414-1.709-.414h-1.687zm7.568.938v-8.727h3.051q.912 0 1.504.315.593.31.882.84.29.524.29 1.163 0 .563-.2.929a1.56 1.56 0 0 1-.52.579 2.4 2.4 0 0 1-.695.316V357q.4.026.806.281.404.256.677.733.273.478.273 1.168 0 .656-.298 1.18-.298.525-.942.831-.643.307-1.675.307zm1.057-.938h2.096q1.036 0 1.47-.4.44-.405.439-.98a1.55 1.55 0 0 0-.226-.818 1.63 1.63 0 0 0-.643-.605q-.417-.231-.989-.231h-2.147zm0-3.954h1.96q.477 0 .861-.188.387-.188.613-.528.23-.34.23-.801 0-.576-.4-.976-.4-.405-1.27-.405h-1.994zm7.105 4.892h-1.107l3.204-8.727h1.091l3.205 8.727h-1.108l-2.608-7.347h-.069zm.41-3.409h4.465v.937h-4.465z"/><path fill="#3cc3df" d="M265 356h16v2h-16z"/><circle cx="273" cy="357" r="3.5" fill="#3cc3df" stroke="#18324b"/><path fill="#fff" fill-opacity=".35" d="M286.057 361.5v-8.727h5.233v.937h-4.176v2.949h3.784v.938h-3.784v3.903zm9.085.136q-.886 0-1.555-.422a2.86 2.86 0 0 1-1.04-1.18q-.37-.759-.371-1.773 0-1.022.371-1.785.375-.764 1.04-1.185.669-.422 1.555-.422.887 0 1.551.422.67.421 1.04 1.185.375.763.375 1.785 0 1.014-.375 1.773a2.8 2.8 0 0 1-1.04 1.18q-.664.423-1.551.422m0-.903q.673 0 1.108-.345t.643-.908q.21-.562.209-1.219 0-.656-.209-1.223a2.06 2.06 0 0 0-.643-.916q-.435-.35-1.108-.349-.673 0-1.108.349-.435.35-.643.916-.21.567-.209 1.223 0 .657.209 1.219.208.563.643.908t1.108.345m8.626-1.909v-3.869h1.006v6.545h-1.006v-1.108h-.068a2.15 2.15 0 0 1-.716.848q-.486.345-1.227.345-.614 0-1.091-.268a1.9 1.9 0 0 1-.75-.818q-.273-.55-.273-1.385v-4.159h1.006v4.09q0 .716.4 1.143.405.426 1.032.426.375 0 .762-.192.393-.192.657-.588.268-.396.268-1.01m3.853-1.262v3.938h-1.005v-6.545h.971v1.022h.086q.23-.498.698-.801.469-.306 1.211-.307.665 0 1.163.273.498.269.776.818.276.546.277 1.381v4.159h-1.006v-4.091q0-.771-.401-1.202-.4-.434-1.099-.434-.482 0-.861.209-.375.209-.592.609-.218.4-.218.971m8.486 4.074q-.819 0-1.445-.413-.626-.417-.98-1.176-.354-.763-.354-1.803 0-1.031.354-1.789.354-.76.985-1.172.63-.414 1.457-.414.64 0 1.01.213.375.21.571.478.2.264.311.434h.085v-3.221h1.006v8.727h-.972v-1.006h-.119q-.111.18-.315.452-.205.269-.584.482-.38.208-1.01.208m.136-.903q.606 0 1.023-.315.417-.32.635-.882.217-.567.217-1.309 0-.732-.213-1.282a1.86 1.86 0 0 0-.63-.861q-.418-.312-1.032-.311-.639 0-1.065.328-.422.324-.635.882a3.5 3.5 0 0 0-.209 1.244q0 .699.213 1.27.217.567.639.904.427.332 1.057.332m6.772.92q-.623 0-1.13-.234a1.94 1.94 0 0 1-.805-.686q-.298-.452-.298-1.091 0-.562.221-.912.222-.354.593-.554.37-.2.818-.298.451-.102.907-.162.597-.077.968-.115.375-.043.545-.141.175-.098.175-.341v-.034q0-.63-.345-.98-.342-.35-1.036-.349-.72 0-1.129.315t-.575.673l-.955-.341q.256-.596.682-.929.43-.336.937-.468a4 4 0 0 1 1.006-.137q.315 0 .725.077.413.072.796.303.388.23.644.694.255.465.256 1.245v4.312h-1.006v-.886h-.051a1.8 1.8 0 0 1-.341.456 2 2 0 0 1-.635.413q-.397.17-.967.17m.153-.903q.597 0 1.006-.234.413-.235.622-.605.213-.372.213-.78v-.921q-.064.076-.281.141-.213.06-.495.106a21 21 0 0 1-.963.128 4 4 0 0 0-.733.166 1.26 1.26 0 0 0-.545.337q-.205.222-.205.605 0 .525.388.793.392.264.993.264m7.529-5.795v.852h-3.392v-.852zm-2.404-1.569h1.006v6.239q0 .426.124.639a.64.64 0 0 0 .323.281q.201.069.422.069.166 0 .273-.017l.171-.035.204.904a2.2 2.2 0 0 1-.75.119q-.426 0-.835-.183a1.66 1.66 0 0 1-.673-.558q-.265-.375-.265-.946zm3.917 8.114v-6.545h1.005v6.545zm.511-7.636a.71.71 0 0 1-.507-.201.64.64 0 0 1-.209-.481q0-.282.209-.482a.72.72 0 0 1 .507-.2q.294 0 .503.2a.64.64 0 0 1 .213.482.64.64 0 0 1-.213.481.7.7 0 0 1-.503.201m4.995 7.772q-.886 0-1.555-.422a2.86 2.86 0 0 1-1.04-1.18q-.37-.759-.371-1.773 0-1.022.371-1.785.375-.764 1.04-1.185.669-.422 1.555-.422t1.551.422q.67.421 1.04 1.185.375.763.375 1.785 0 1.014-.375 1.773a2.8 2.8 0 0 1-1.04 1.18q-.665.423-1.551.422m0-.903q.673 0 1.108-.345t.644-.908.208-1.219q0-.656-.208-1.223a2.07 2.07 0 0 0-.644-.916q-.435-.35-1.108-.349-.673 0-1.108.349a2.07 2.07 0 0 0-.643.916 3.5 3.5 0 0 0-.209 1.223q0 .657.209 1.219t.643.908 1.108.345m5.507-3.171v3.938h-1.006v-6.545h.972v1.022h.085a1.9 1.9 0 0 1 .699-.801q.47-.306 1.21-.307.664 0 1.164.273.498.269.775.818.277.546.277 1.381v4.159h-1.006v-4.091q0-.771-.4-1.202-.4-.434-1.1-.434-.481 0-.86.209-.375.209-.593.609t-.217.971"/><path fill="#ffae4c" d="M365 356h16v2h-16z"/><circle cx="373" cy="357" r="3.5" fill="#ffae4c" stroke="#18324b"/><path fill="#fff" fill-opacity=".35" d="M386.057 361.5v-8.727h2.949q1.026 0 1.679.37.656.368.971.993.315.627.316 1.398 0 .772-.316 1.402a2.34 2.34 0 0 1-.963 1.006q-.651.37-1.67.37h-2.114v-.937h2.08q.703 0 1.129-.243t.618-.656q.196-.418.196-.942a2.2 2.2 0 0 0-.196-.937 1.4 1.4 0 0 0-.622-.648q-.43-.239-1.142-.239h-1.858v7.79zm8.486-8.727v8.727h-1.005v-8.727zm3.768 8.88q-.621 0-1.129-.234a1.94 1.94 0 0 1-.805-.686q-.299-.452-.299-1.091 0-.562.222-.912.222-.354.592-.554.371-.2.819-.298.451-.102.907-.162.597-.077.968-.115.374-.043.545-.141.175-.098.175-.341v-.034q0-.63-.345-.98-.342-.35-1.036-.349-.72 0-1.129.315t-.575.673l-.955-.341q.255-.596.682-.929.43-.336.937-.468a4 4 0 0 1 1.006-.137q.315 0 .724.077.414.072.797.303.388.23.644.694.255.465.255 1.245v4.312h-1.005v-.886h-.051a1.8 1.8 0 0 1-.341.456 2 2 0 0 1-.635.413q-.396.17-.968.17m.154-.903q.597 0 1.006-.234a1.6 1.6 0 0 0 .622-.605q.213-.372.213-.78v-.921q-.065.076-.281.141-.214.06-.495.106a21 21 0 0 1-.963.128q-.392.051-.733.166a1.26 1.26 0 0 0-.545.337q-.205.222-.205.605 0 .525.388.793.392.264.993.264m7.529-5.795v.852h-3.392v-.852zm-2.404-1.569h1.006v6.239q0 .426.123.639a.65.65 0 0 0 .324.281q.2.069.422.069.166 0 .273-.017l.17-.035.205.904a2.2 2.2 0 0 1-.75.119q-.426 0-.835-.183a1.66 1.66 0 0 1-.674-.558q-.264-.375-.264-.946zm6.831 1.569v.852h-3.528v-.852zm-2.471 6.545v-7.449q0-.562.264-.937t.686-.563.89-.187q.371 0 .606.059.234.06.349.111l-.29.869a6 6 0 0 0-.213-.064 1.3 1.3 0 0 0-.349-.038q-.5 0-.72.252-.218.25-.218.737v7.21zm6.27.136q-.886 0-1.555-.422a2.86 2.86 0 0 1-1.04-1.18q-.37-.759-.371-1.773 0-1.022.371-1.785.375-.764 1.04-1.185.669-.422 1.555-.422.887 0 1.551.422.67.421 1.04 1.185.375.763.375 1.785 0 1.014-.375 1.773a2.8 2.8 0 0 1-1.04 1.18q-.664.423-1.551.422m0-.903q.673 0 1.108-.345t.644-.908q.208-.562.208-1.219 0-.656-.208-1.223a2.07 2.07 0 0 0-.644-.916q-.435-.35-1.108-.349-.673 0-1.108.349-.435.35-.643.916a3.5 3.5 0 0 0-.209 1.223q0 .657.209 1.219.208.563.643.908t1.108.345m4.501.767v-6.545h.972v.988h.068q.178-.486.648-.788a1.9 1.9 0 0 1 1.057-.303 11 11 0 0 1 .528.017v1.023a3 3 0 0 0-.234-.038q-.18-.03-.38-.03-.477 0-.852.2a1.468 1.468 0 0 0-.801 1.334v4.142zm4.465 0v-6.545h.972v1.022h.085q.204-.523.66-.814.456-.294 1.096-.294.647 0 1.078.294.434.29.677.814h.068q.251-.507.755-.805.502-.303 1.206-.303.878 0 1.436.55.558.546.558 1.7v4.381h-1.006v-4.381q0-.725-.396-1.035a1.46 1.46 0 0 0-.933-.311q-.69 0-1.07.417-.38.413-.379 1.049v4.261h-1.023v-4.483q0-.558-.362-.899-.363-.345-.933-.345a1.37 1.37 0 0 0-.733.209 1.6 1.6 0 0 0-.546.579 1.7 1.7 0 0 0-.204.848v4.091z"/></g><defs><clipPath id="a"><path fill="#fff" d="M0 0h450v390H0z"/></clipPath></defs></svg>
