<svg xmlns="http://www.w3.org/2000/svg" width="450" height="390" fill="none"><g clip-path="url(#a)"><path fill="#F3F4F6" d="M0 0h450v390H0z"/><path stroke="#0B151E" stroke-opacity=".1" stroke-width="1.2" d="m465-45 26.667 26.667M-15 435l26.667 26.667M-15-45l506.667 506.667M11.667-45l480 480M38.333-45l453.334 453.333M65-45l426.667 426.667M91.667-45l400 400M118.333-45l373.334 373.333M145-45l346.667 346.667M171.667-45l320 320M198.333-45l293.334 293.333M225-45l266.667 266.667M251.667-45l240 240M278.333-45l213.334 213.333M305-45l186.667 186.667M331.667-45l160 160M358.333-45 491.667 88.333M385-45 491.667 61.667M411.667-45l80 80m-53.334-80 53.334 53.333M-15-18.333l480 480M-15 8.333l453.333 453.334M-15 35l426.667 426.667M-15 61.667l400 400M-15 88.333l373.333 373.334M-15 115l346.667 346.667M-15 141.667l320 320M-15 168.333l293.333 293.334M-15 195l266.667 266.667M-15 221.667l240 240M-15 248.333l213.333 213.334M-15 275l186.667 186.667M-15 301.667l160 160M-15 328.333l133.333 133.334M-15 355 91.667 461.667m-106.667-80 80 80m-80-53.334 53.333 53.334"/><path fill="#fff" d="M58 71.522C58 60.74 66.74 52 77.522 52h389.956C478.26 52 487 60.74 487 71.522v341.956C487 424.26 478.26 433 467.478 433H77.522C66.74 433 58 424.26 58 413.478V71.522Z"/><path stroke="#0B151E" stroke-opacity=".1" d="M77.522 52.5h389.956c10.505 0 19.022 8.517 19.022 19.022v341.956c0 10.505-8.517 19.022-19.022 19.022H77.522c-10.505 0-19.022-8.517-19.022-19.022V71.522c0-10.505 8.517-19.022 19.022-19.022Z"/><path fill="#0B151E" d="M83.691 96V81.1h6.28c1.467 0 2.62.373 3.46 1.12.84.747 1.26 1.773 1.26 3.08 0 .507-.1.987-.3 1.44a3.436 3.436 0 0 1-.9 1.24c.667.44 1.133.96 1.4 1.56.267.587.4 1.22.4 1.9 0 1.44-.473 2.56-1.42 3.36-.933.8-2.233 1.2-3.9 1.2h-6.28Zm2.72-9.12h3.7c.56 0 1.007-.16 1.34-.48.334-.333.5-.76.5-1.28s-.166-.933-.5-1.24c-.333-.307-.78-.46-1.34-.46h-3.7v3.46Zm0 6.72h3.84c.694 0 1.253-.193 1.68-.58.427-.4.64-.927.64-1.58s-.213-1.18-.64-1.58c-.427-.4-.986-.6-1.68-.6h-3.84v4.34Zm14.568 2.64c-1.28 0-2.286-.407-3.02-1.22-.72-.827-1.08-1.907-1.08-3.24v-6.66h2.62v6.44c0 .693.2 1.247.6 1.66.414.413.947.62 1.6.62.64 0 1.167-.207 1.58-.62.414-.427.62-1 .62-1.72v-6.38h2.62V96h-2.48v-1.32c-.293.52-.706.913-1.24 1.18-.533.253-1.14.38-1.82.38Zm7.776-.24V85.12h2.46v1.52c.28-.6.673-1.02 1.18-1.26.506-.253 1.093-.38 1.76-.38h.64v2.32h-.94c-.734 0-1.334.233-1.8.7-.454.453-.68 1.093-.68 1.92V96h-2.62Zm7.28 0V85.12h2.46v1.34a2.87 2.87 0 0 1 1.24-1.18c.534-.267 1.147-.4 1.84-.4.8 0 1.507.18 2.12.54a3.728 3.728 0 0 1 1.44 1.44c.36.613.54 1.327.54 2.14v7h-2.62v-6.38c0-.72-.206-1.287-.62-1.7-.4-.427-.926-.64-1.58-.64-.653 0-1.186.213-1.6.64-.4.427-.6.993-.6 1.7V96h-2.62Zm16.716.24c-1.054 0-2-.247-2.84-.74a5.532 5.532 0 0 1-1.96-2.04c-.467-.867-.7-1.833-.7-2.9s.24-2.027.72-2.88a5.532 5.532 0 0 1 1.96-2.04c.826-.507 1.76-.76 2.8-.76.693 0 1.32.12 1.88.36.573.227 1.06.553 1.46.98v-5.36h2.62V96h-2.48v-1.22c-.387.48-.887.847-1.5 1.1-.6.24-1.254.36-1.96.36Zm.28-2.4c.586 0 1.106-.14 1.56-.42.466-.28.826-.667 1.08-1.16.266-.493.4-1.06.4-1.7 0-.627-.134-1.187-.4-1.68a2.843 2.843 0 0 0-1.08-1.16 2.811 2.811 0 0 0-1.56-.44c-.587 0-1.114.147-1.58.44-.467.28-.834.667-1.1 1.16-.254.493-.38 1.053-.38 1.68 0 .64.126 1.207.38 1.7.266.493.633.88 1.1 1.16.466.28.993.42 1.58.42Zm13.217 2.4c-1.066 0-2.04-.247-2.92-.74a5.706 5.706 0 0 1-2.08-2.02c-.506-.853-.76-1.827-.76-2.92s.254-2.067.76-2.92a5.706 5.706 0 0 1 2.08-2.02c.867-.493 1.84-.74 2.92-.74 1.054 0 2.014.247 2.88.74a5.698 5.698 0 0 1 2.08 2.02c.52.853.78 1.827.78 2.92s-.26 2.073-.78 2.94a5.698 5.698 0 0 1-2.08 2.02c-.866.48-1.826.72-2.88.72Zm0-2.4c.574 0 1.087-.14 1.54-.42a2.87 2.87 0 0 0 1.06-1.16c.267-.493.4-1.06.4-1.7 0-.627-.133-1.187-.4-1.68a2.87 2.87 0 0 0-1.06-1.16 2.77 2.77 0 0 0-1.54-.44c-.6 0-1.126.147-1.58.44-.453.28-.813.667-1.08 1.16-.253.493-.38 1.053-.38 1.68 0 .64.127 1.207.38 1.7.267.493.627.88 1.08 1.16.454.28.98.42 1.58.42ZM156.32 96l-3.74-10.88h2.76l2.26 6.86 2.44-6.86h2.32l2.4 6.86 2.28-6.86h2.76L166.06 96h-2.34l-2.52-7.34-2.56 7.34h-2.32Zm14.716 0V85.12h2.46v1.34c.293-.52.707-.913 1.24-1.18.533-.267 1.147-.4 1.84-.4.8 0 1.507.18 2.12.54a3.741 3.741 0 0 1 1.44 1.44c.36.613.54 1.327.54 2.14v7h-2.62v-6.38c0-.72-.207-1.287-.62-1.7-.4-.427-.927-.64-1.58-.64s-1.187.213-1.6.64c-.4.427-.6.993-.6 1.7V96h-2.62Zm20.33.24c-1.066 0-2.04-.247-2.92-.74a5.706 5.706 0 0 1-2.08-2.02c-.506-.853-.76-1.827-.76-2.92s.254-2.067.76-2.92a5.706 5.706 0 0 1 2.08-2.02c.867-.493 1.84-.74 2.92-.74 1.054 0 2.014.247 2.88.74a5.698 5.698 0 0 1 2.08 2.02c.52.853.78 1.827.78 2.92s-.26 2.073-.78 2.94a5.698 5.698 0 0 1-2.08 2.02c-.866.48-1.826.72-2.88.72Zm0-2.4c.574 0 1.087-.14 1.54-.42a2.87 2.87 0 0 0 1.06-1.16c.267-.493.4-1.06.4-1.7 0-.627-.133-1.187-.4-1.68a2.87 2.87 0 0 0-1.06-1.16 2.77 2.77 0 0 0-1.54-.44c-.6 0-1.126.147-1.58.44-.453.28-.813.667-1.08 1.16-.253.493-.38 1.053-.38 1.68 0 .64.127 1.207.38 1.7.267.493.627.88 1.08 1.16.454.28.98.42 1.58.42Zm8.553 2.16v-8.54h-1.92v-2.34h1.92v-.36c0-1.24.373-2.2 1.12-2.88.746-.68 1.746-1.02 3-1.02.16 0 .333.013.52.04.2.013.366.033.5.06v2.26c-.24-.04-.467-.06-.68-.06-.587 0-1.04.133-1.36.4-.32.253-.48.653-.48 1.2v.36h2.42v2.34h-2.42V96h-2.62Zm14.159.24c-1.16 0-2.173-.273-3.04-.82a4.28 4.28 0 0 1-1.76-2.26l1.96-.94c.28.613.667 1.093 1.16 1.44.507.347 1.067.52 1.68.52.467 0 .84-.1 1.12-.3.294-.213.44-.5.44-.86a.842.842 0 0 0-.38-.74 2.675 2.675 0 0 0-.88-.4l-1.78-.5c-.92-.253-1.62-.653-2.1-1.2a2.972 2.972 0 0 1-.7-1.96c0-.667.174-1.247.52-1.74.347-.507.82-.9 1.42-1.18.6-.28 1.294-.42 2.08-.42 1.027 0 1.934.253 2.72.76a4.062 4.062 0 0 1 1.68 2.06l-2 .94a2.407 2.407 0 0 0-.94-1.18 2.608 2.608 0 0 0-1.48-.44c-.44 0-.786.1-1.04.3-.253.2-.38.46-.38.78 0 .307.114.547.34.72.24.173.554.313.94.42l1.74.52c.894.267 1.58.673 2.06 1.22.494.533.74 1.18.74 1.94 0 .667-.173 1.247-.52 1.74-.346.493-.833.88-1.46 1.16-.613.28-1.326.42-2.14.42Zm10.894-.12c-1.227 0-2.18-.333-2.86-1-.667-.68-1-1.633-1-2.86v-4.8h-1.88v-2.34h.2c.533 0 .946-.14 1.24-.42.293-.28.44-.687.44-1.22v-.84h2.62v2.48h2.5v2.34h-2.5v4.66c0 .547.146.967.44 1.26.293.293.76.44 1.4.44.2 0 .433-.02.7-.06V96c-.187.027-.4.053-.64.08-.24.027-.46.04-.66.04Zm3.102-.12V85.12h2.46v1.52c.28-.6.673-1.02 1.18-1.26.506-.253 1.093-.38 1.76-.38h.64v2.32h-.94c-.734 0-1.334.233-1.8.7-.454.453-.68 1.093-.68 1.92V96h-2.62Zm7.28-12.1v-2.8h2.62v2.8h-2.62Zm0 12.1V85.12h2.62V96h-2.62Zm4.839 0V85.12h2.46v1.34c.293-.52.707-.913 1.24-1.18.533-.267 1.147-.4 1.84-.4.8 0 1.507.18 2.12.54a3.741 3.741 0 0 1 1.44 1.44c.36.613.54 1.327.54 2.14v7h-2.62v-6.38c0-.72-.207-1.287-.62-1.7-.4-.427-.927-.64-1.58-.64s-1.187.213-1.6.64c-.4.427-.6.993-.6 1.7V96h-2.62Zm16.936 4.4c-1.227 0-2.307-.293-3.24-.88-.92-.573-1.554-1.34-1.9-2.3l2.44-.92c.16.507.473.913.94 1.22.48.32 1.066.48 1.76.48.786 0 1.433-.227 1.94-.68.506-.44.76-1.06.76-1.86v-1.18c-.774.853-1.82 1.28-3.14 1.28-1.027 0-1.94-.233-2.74-.7a5.083 5.083 0 0 1-1.86-1.9c-.454-.813-.68-1.733-.68-2.76 0-1.013.22-1.92.66-2.72a5.083 5.083 0 0 1 1.86-1.9c.8-.467 1.7-.7 2.7-.7 1.413 0 2.526.507 3.34 1.52v-1.28h2.48v10.34c0 .96-.234 1.807-.7 2.54a4.79 4.79 0 0 1-1.88 1.76c-.8.427-1.714.64-2.74.64Zm-.12-7.26c.826 0 1.5-.273 2.02-.82.533-.547.8-1.247.8-2.1 0-.84-.267-1.54-.8-2.1-.534-.56-1.207-.84-2.02-.84-.56 0-1.06.133-1.5.4-.427.253-.767.6-1.02 1.04-.24.44-.36.94-.36 1.5s.12 1.06.36 1.5c.253.44.593.787 1.02 1.04.44.253.94.38 1.5.38Zm11.826 3.1c-1.16 0-2.173-.273-3.04-.82a4.28 4.28 0 0 1-1.76-2.26l1.96-.94c.28.613.667 1.093 1.16 1.44.507.347 1.067.52 1.68.52.467 0 .84-.1 1.12-.3.294-.213.44-.5.44-.86a.842.842 0 0 0-.38-.74 2.675 2.675 0 0 0-.88-.4l-1.78-.5c-.92-.253-1.62-.653-2.1-1.2a2.972 2.972 0 0 1-.7-1.96c0-.667.174-1.247.52-1.74.347-.507.82-.9 1.42-1.18.6-.28 1.294-.42 2.08-.42 1.027 0 1.934.253 2.72.76a4.062 4.062 0 0 1 1.68 2.06l-2 .94a2.407 2.407 0 0 0-.94-1.18 2.608 2.608 0 0 0-1.48-.44c-.44 0-.786.1-1.04.3-.253.2-.38.46-.38.78 0 .307.114.547.34.72.24.173.554.313.94.42l1.74.52c.894.267 1.58.673 2.06 1.22.494.533.74 1.18.74 1.94 0 .667-.173 1.247-.52 1.74-.346.493-.833.88-1.46 1.16-.613.28-1.326.42-2.14.42Z"/><path fill="#0B151E" fill-opacity=".4" d="M89.852 124.119c-.562 0-1.064-.096-1.504-.289a2.583 2.583 0 0 1-1.044-.806 2.162 2.162 0 0 1-.418-1.206h1.074c.023.281.12.524.29.729.17.202.394.358.669.469.276.11.581.166.916.166.375 0 .708-.066.997-.196a1.64 1.64 0 0 0 .682-.546c.165-.233.247-.502.247-.809 0-.321-.08-.604-.238-.848a1.58 1.58 0 0 0-.7-.58c-.306-.139-.681-.209-1.124-.209H89v-.937h.699c.347 0 .65-.063.912-.188a1.415 1.415 0 0 0 .844-1.329c0-.296-.066-.553-.197-.772a1.344 1.344 0 0 0-.553-.511 1.795 1.795 0 0 0-.836-.183c-.3 0-.585.055-.852.166-.264.108-.48.266-.648.473a1.234 1.234 0 0 0-.272.742h-1.023c.017-.458.155-.858.413-1.202a2.598 2.598 0 0 1 1.014-.81 3.28 3.28 0 0 1 1.385-.29c.54 0 1.003.11 1.39.329.386.215.683.501.89.856.208.355.311.739.311 1.151 0 .491-.129.91-.388 1.257a1.971 1.971 0 0 1-1.043.72v.068c.55.091.981.325 1.29.703.31.375.465.84.465 1.394 0 .474-.13.9-.388 1.278a2.627 2.627 0 0 1-1.048.886c-.443.216-.947.324-1.513.324Zm7.539 0c-.642 0-1.19-.174-1.641-.524-.452-.352-.797-.862-1.035-1.53-.24-.67-.359-1.48-.359-2.429 0-.943.12-1.748.359-2.416.241-.67.588-1.182 1.04-1.534.454-.355 1-.533 1.636-.533.636 0 1.18.178 1.632.533.454.352.8.864 1.039 1.534.242.668.363 1.473.363 2.416 0 .949-.12 1.759-.358 2.429-.239.668-.584 1.178-1.036 1.53-.452.35-.998.524-1.64.524Zm0-.937c.636 0 1.13-.307 1.483-.921.352-.613.528-1.488.528-2.625 0-.755-.081-1.399-.243-1.93-.159-.531-.39-.936-.69-1.215a1.525 1.525 0 0 0-1.078-.417c-.631 0-1.124.311-1.48.933-.354.619-.532 1.496-.532 2.629 0 .756.08 1.398.239 1.926.159.529.388.931.686 1.206.301.276.663.414 1.087.414Zm7.5.937c-.642 0-1.189-.174-1.641-.524-.452-.352-.797-.862-1.036-1.53-.238-.67-.357-1.48-.357-2.429 0-.943.119-1.748.357-2.416.242-.67.589-1.182 1.04-1.534.455-.355 1-.533 1.637-.533.636 0 1.18.178 1.632.533.454.352.801.864 1.039 1.534.242.668.363 1.473.363 2.416 0 .949-.12 1.759-.358 2.429-.239.668-.584 1.178-1.036 1.53-.451.35-.998.524-1.64.524Zm0-.937c.636 0 1.13-.307 1.483-.921.352-.613.528-1.488.528-2.625 0-.755-.081-1.399-.243-1.93-.159-.531-.389-.936-.69-1.215a1.527 1.527 0 0 0-1.078-.417c-.631 0-1.124.311-1.479.933-.355.619-.533 1.496-.533 2.629 0 .756.08 1.398.239 1.926.159.529.388.931.686 1.206.301.276.663.414 1.087.414ZM86.903 176.605v-.767l2.881-3.153c.338-.369.617-.69.835-.963.22-.276.381-.534.486-.776.108-.244.162-.5.162-.767a1.42 1.42 0 0 0-.221-.797 1.438 1.438 0 0 0-.597-.519 1.923 1.923 0 0 0-.852-.184c-.336 0-.628.07-.878.209a1.441 1.441 0 0 0-.575.575c-.134.248-.2.537-.2.87h-1.007c0-.512.118-.96.354-1.347a2.46 2.46 0 0 1 .963-.903c.41-.216.868-.324 1.377-.324.511 0 .964.108 1.36.324.394.216.704.507.928.873.225.367.337.774.337 1.223 0 .321-.059.635-.175.942-.114.304-.313.644-.597 1.019-.28.372-.671.826-1.171 1.363l-1.96 2.097v.068h4.056v.937h-5.506Zm10.113.12c-.642 0-1.19-.175-1.641-.524-.452-.353-.797-.863-1.035-1.53-.24-.671-.359-1.48-.359-2.429 0-.943.12-1.749.359-2.416.241-.671.588-1.182 1.04-1.534.454-.356 1-.533 1.636-.533.636 0 1.18.177 1.632.533.454.352.8.863 1.04 1.534.241.667.362 1.473.362 2.416 0 .949-.12 1.758-.358 2.429-.239.667-.584 1.177-1.036 1.53-.452.349-.998.524-1.64.524Zm0-.938c.636 0 1.13-.307 1.483-.92.352-.614.528-1.489.528-2.625 0-.756-.081-1.399-.243-1.931-.159-.531-.39-.936-.69-1.214a1.526 1.526 0 0 0-1.078-.418c-.631 0-1.124.311-1.48.934-.354.619-.532 1.495-.532 2.629 0 .756.08 1.398.239 1.926.159.528.388.93.686 1.206a1.55 1.55 0 0 0 1.087.413Zm7.5.938c-.642 0-1.189-.175-1.641-.524-.452-.353-.797-.863-1.036-1.53-.238-.671-.357-1.48-.357-2.429 0-.943.119-1.749.357-2.416.242-.671.589-1.182 1.04-1.534.455-.356 1-.533 1.637-.533.636 0 1.18.177 1.632.533.454.352.801.863 1.04 1.534.241.667.362 1.473.362 2.416 0 .949-.12 1.758-.358 2.429-.239.667-.584 1.177-1.036 1.53-.451.349-.998.524-1.64.524Zm0-.938c.636 0 1.13-.307 1.483-.92.352-.614.528-1.489.528-2.625 0-.756-.081-1.399-.243-1.931-.159-.531-.389-.936-.69-1.214a1.528 1.528 0 0 0-1.078-.418c-.631 0-1.124.311-1.479.934-.355.619-.533 1.495-.533 2.629 0 .756.08 1.398.239 1.926.159.528.388.93.686 1.206a1.55 1.55 0 0 0 1.087.413ZM91.972 220.484v8.727h-1.057v-7.619h-.051l-2.131 1.414v-1.073l2.182-1.449h1.057Zm5.356 8.846c-.642 0-1.189-.174-1.64-.524-.452-.352-.797-.862-1.036-1.53-.239-.67-.358-1.48-.358-2.429 0-.943.12-1.748.358-2.416.242-.67.588-1.182 1.04-1.534.454-.355 1-.533 1.636-.533.636 0 1.18.178 1.632.533.455.352.801.864 1.04 1.534.241.668.362 1.473.362 2.416 0 .949-.119 1.759-.358 2.429-.238.668-.584 1.178-1.035 1.53-.452.35-.999.524-1.64.524Zm0-.937c.636 0 1.13-.307 1.483-.921.352-.613.528-1.488.528-2.625 0-.755-.08-1.399-.242-1.93-.16-.531-.39-.936-.69-1.215a1.525 1.525 0 0 0-1.079-.417c-.63 0-1.124.311-1.479.933-.355.619-.532 1.496-.532 2.629 0 .756.08 1.398.238 1.926.16.529.388.931.686 1.206.302.276.664.414 1.087.414Zm7.5.937c-.642 0-1.189-.174-1.64-.524-.452-.352-.797-.862-1.036-1.53-.239-.67-.358-1.48-.358-2.429 0-.943.119-1.748.358-2.416.241-.67.588-1.182 1.04-1.534.454-.355 1-.533 1.636-.533.636 0 1.181.178 1.632.533.455.352.801.864 1.04 1.534.241.668.362 1.473.362 2.416 0 .949-.119 1.759-.358 2.429-.238.668-.584 1.178-1.035 1.53-.452.35-.999.524-1.641.524Zm0-.937c.636 0 1.131-.307 1.483-.921.352-.613.528-1.488.528-2.625 0-.755-.08-1.399-.242-1.93-.159-.531-.39-.936-.691-1.215a1.523 1.523 0 0 0-1.078-.417c-.631 0-1.123.311-1.479.933-.355.619-.532 1.496-.532 2.629 0 .756.079 1.398.238 1.926.159.529.388.931.686 1.206.302.276.664.414 1.087.414ZM104.75 281.936c-.642 0-1.189-.175-1.641-.524-.451-.353-.796-.863-1.035-1.53-.239-.671-.358-1.48-.358-2.429 0-.943.119-1.749.358-2.416.241-.671.588-1.182 1.04-1.535.454-.355 1-.532 1.636-.532.636 0 1.18.177 1.632.532.455.353.801.864 1.04 1.535.241.667.362 1.473.362 2.416 0 .949-.119 1.758-.358 2.429-.238.667-.584 1.177-1.035 1.53-.452.349-.999.524-1.641.524Zm0-.938c.636 0 1.131-.307 1.483-.92.352-.614.528-1.489.528-2.625 0-.756-.081-1.399-.243-1.931-.159-.531-.389-.936-.69-1.214a1.522 1.522 0 0 0-1.078-.418c-.631 0-1.124.311-1.479.934-.355.619-.532 1.495-.532 2.629 0 .755.079 1.397.238 1.926.159.528.388.93.686 1.206.301.275.664.413 1.087.413Z"/><path stroke="#0B151E" stroke-opacity=".1" d="M114 117.5h348M114 171.167h348M114 224.833h348M114 278.5h348M113.5 279V118M152.167 279V118M190.833 279V118M229.5 279V118M268.167 279V118M306.833 279V118M345.5 279V118M384.167 279V118M422.833 279V118"/><path stroke="#749D00" d="m127.583 153.066 29.167 1.493 29.167 4.151 29.166 4.108 29.167 6.644 29.167 2.985 29.166 5.337 29.167 20.55 29.167 20.144 29.166 14.012 29.167 14.114 29.167 6.384m0 0Z"/><path stroke="#FF4F42" d="m127.583 188.439 29.167 2.176 29.167 4.421 29.166 4.129 29.167 6.109 29.167 1.376 29.166 3.484 29.167 12.816 29.167 12.912 29.166 8.031 29.167 9.201 29.167 5.283m0 0Z"/><path stroke="#7461FF" d="m127.583 230.987 29.167-.17 29.167 2.997 29.166 3.631 29.167 5.448 29.167 1.646 29.166 2.674 29.167 5.765 29.167 3.801 29.166 3.128 29.167 4.225 29.167 2.244m0 0Z"/><path fill="#0B151E" fill-opacity=".4" d="M109.466 308.347a1.336 1.336 0 0 0-1.151-.271c-.426.088-.826.319-1.2.693a2.529 2.529 0 0 0-.584.85 1.614 1.614 0 0 0-.112.84c.043.267.162.499.359.696.165.165.345.267.542.308.197.036.397.031.6-.015.201-.049.395-.116.582-.202.184-.089.349-.175.494-.259l.795-.458c.203-.119.44-.24.711-.362a3.49 3.49 0 0 1 .874-.265 2.2 2.2 0 0 1 .94.036c.318.08.621.265.91.554.334.334.548.723.642 1.167.097.441.057.909-.117 1.401-.173.49-.497.972-.971 1.446-.442.442-.896.753-1.362.934a2.588 2.588 0 0 1-1.356.163 2.4 2.4 0 0 1-1.199-.579l.771-.771c.254.213.525.327.814.343.289.012.577-.05.862-.186.285-.141.55-.334.795-.579.286-.285.496-.588.63-.907.133-.321.182-.632.148-.931a1.312 1.312 0 0 0-.392-.789c-.205-.205-.429-.315-.672-.329a1.774 1.774 0 0 0-.765.139c-.267.106-.54.238-.817.394l-.976.543c-.621.343-1.2.527-1.739.551-.538.024-1.015-.172-1.431-.587a2.116 2.116 0 0 1-.624-1.185 2.633 2.633 0 0 1 .157-1.362c.175-.464.459-.892.853-1.286.397-.398.822-.68 1.274-.847.45-.169.888-.221 1.314-.157.428.063.803.244 1.124.546l-.723.723Zm8.605.844c-.446.446-.929.733-1.45.859a2.794 2.794 0 0 1-1.575-.087c-.531-.185-1.033-.514-1.507-.989-.474-.474-.806-.978-.994-1.512a2.895 2.895 0 0 1-.121-1.579c.108-.518.372-.986.789-1.404.242-.241.52-.439.835-.594a2.5 2.5 0 0 1 1.034-.25c.371-.014.762.069 1.172.25.41.181.83.487 1.262.919l.302.301-3.568 3.568-.615-.615 2.845-2.844a2.144 2.144 0 0 0-.856-.542 1.668 1.668 0 0 0-.925-.046c-.307.071-.59.234-.847.492a1.801 1.801 0 0 0-.524.946c-.066.343-.043.682.069 1.015.113.334.297.628.552.883l.409.41c.35.349.707.585 1.07.708.364.118.717.133 1.061.042.341-.092.656-.282.943-.569.187-.187.329-.382.428-.585a1.54 1.54 0 0 0 .154-.636 1.556 1.556 0 0 0-.148-.66l.88-.494c.16.306.244.632.25.979.004.346-.07.694-.223 1.043a3.32 3.32 0 0 1-.702.991Zm4.637-1.359-6.364-6.364.687-.687.735.736.085-.085a9.666 9.666 0 0 1-.091-.524 1.79 1.79 0 0 1 .067-.741c.076-.277.265-.567.566-.868.39-.39.831-.636 1.323-.738.492-.103 1-.059 1.525.132.524.191 1.029.53 1.515 1.016.491.49.832.998 1.025 1.524.191.525.237 1.033.139 1.525-.101.49-.344.928-.73 1.314-.297.297-.584.486-.861.566-.28.079-.531.103-.754.073a6.357 6.357 0 0 1-.542-.097l-.06.061 2.446 2.446-.711.711Zm-3.351-4.748c.35.349.71.606 1.079.771.368.163.725.221 1.073.175.345-.048.661-.215.946-.5.297-.298.467-.624.509-.98a2.034 2.034 0 0 0-.187-1.091 3.52 3.52 0 0 0-.744-1.051 3.42 3.42 0 0 0-1.03-.729 1.923 1.923 0 0 0-1.073-.175c-.354.044-.681.217-.982.518-.29.289-.459.606-.51.949-.052.342.002.693.163 1.055.159.36.411.712.756 1.058Zm5.159-12.873 6.171 6.171-.747.747-5.388-5.387-.036.036-.506 2.507-.759-.759.518-2.568.747-.747Zm3.944-3.944 6.172 6.171-.748.747-5.387-5.388-.037.037-.506 2.507-.759-.76.518-2.567.747-.747ZM147.161 309.54a1.336 1.336 0 0 0-1.151-.271c-.425.088-.825.319-1.199.693a2.529 2.529 0 0 0-.584.85 1.614 1.614 0 0 0-.112.84c.042.268.162.5.359.696.164.165.345.268.542.308.197.036.397.031.6-.015.201-.049.394-.116.581-.202.185-.089.35-.175.494-.259l.796-.458c.203-.119.44-.239.711-.362.273-.124.564-.213.874-.265a2.2 2.2 0 0 1 .94.036c.317.08.621.265.91.554.333.334.547.723.642 1.167.096.442.057.909-.118 1.401-.172.49-.496.972-.97 1.446-.442.442-.896.753-1.362.934a2.588 2.588 0 0 1-1.356.163 2.397 2.397 0 0 1-1.199-.579l.771-.771c.253.213.524.327.814.344.289.012.576-.051.862-.187.285-.141.55-.334.795-.579.285-.285.495-.587.63-.907.132-.321.182-.632.147-.931a1.31 1.31 0 0 0-.391-.789c-.205-.205-.429-.315-.672-.329a1.781 1.781 0 0 0-.766.139 6.597 6.597 0 0 0-.816.395l-.976.542c-.621.343-1.201.527-1.739.551-.538.024-1.016-.171-1.431-.587a2.116 2.116 0 0 1-.624-1.184 2.633 2.633 0 0 1 .157-1.362c.174-.464.459-.893.852-1.287.398-.398.823-.68 1.275-.847.45-.169.888-.221 1.314-.157.428.063.802.245 1.124.546l-.724.723Zm8.606.845c-.446.445-.93.732-1.45.858a2.798 2.798 0 0 1-1.576-.087c-.53-.185-1.032-.514-1.506-.988-.474-.475-.806-.979-.995-1.513a2.884 2.884 0 0 1-.12-1.579c.108-.518.371-.986.789-1.404.241-.241.519-.439.835-.594a2.51 2.51 0 0 1 1.033-.25c.372-.014.763.069 1.173.25.409.181.83.487 1.262.919l.301.302-3.567 3.567-.615-.614 2.845-2.845a2.15 2.15 0 0 0-.856-.542 1.668 1.668 0 0 0-.925-.046 1.74 1.74 0 0 0-.847.492 1.801 1.801 0 0 0-.524.946c-.067.343-.044.682.069 1.015.112.334.296.628.551.883l.41.41c.35.349.706.585 1.07.708.363.119.717.133 1.061.042.341-.092.655-.282.943-.569.187-.187.329-.382.428-.585.098-.207.149-.419.153-.636a1.555 1.555 0 0 0-.147-.66l.879-.494c.161.306.245.632.251.98.004.345-.071.693-.223 1.042a3.335 3.335 0 0 1-.702.992Zm4.637-1.359-6.364-6.364.687-.687.735.735.085-.085a8.024 8.024 0 0 1-.091-.524 1.804 1.804 0 0 1 .066-.741c.077-.277.266-.567.567-.868.39-.39.831-.636 1.323-.738.492-.103 1-.058 1.524.132.525.191 1.03.53 1.516 1.016.49.49.832.998 1.025 1.525.19.524.237 1.032.138 1.524-.1.49-.343.928-.729 1.314-.297.297-.585.486-.862.567-.279.078-.53.102-.753.072a5.982 5.982 0 0 1-.542-.097l-.061.061 2.447 2.446-.711.712Zm-3.351-4.749c.35.349.709.606 1.079.771.368.163.725.221 1.073.175.345-.048.661-.215.946-.5.297-.298.467-.624.509-.98a2.029 2.029 0 0 0-.187-1.09 3.548 3.548 0 0 0-.744-1.052 3.424 3.424 0 0 0-1.031-.729 1.92 1.92 0 0 0-1.072-.175c-.354.044-.681.217-.983.518-.289.289-.459.606-.509.949-.052.342.002.693.163 1.055.159.36.411.712.756 1.058Zm5.159-12.873 6.171 6.171-.747.748-5.388-5.388-.036.036-.506 2.507-.76-.759.519-2.568.747-.747Zm7.946 4.396-.543-.542-.192-4.267c-.023-.5-.053-.924-.091-1.271a3.527 3.527 0 0 0-.205-.892 1.873 1.873 0 0 0-.428-.657 1.415 1.415 0 0 0-.72-.407 1.442 1.442 0 0 0-.789.054c-.265.093-.51.25-.733.473a1.785 1.785 0 0 0-.473.769 1.442 1.442 0 0 0 0 .813c.081.27.238.522.473.757l-.711.711c-.361-.362-.595-.763-.702-1.202-.106-.44-.092-.88.042-1.32a2.91 2.91 0 0 1 .745-1.203 2.792 2.792 0 0 1 1.19-.732 2.448 2.448 0 0 1 1.275-.039c.417.101.785.309 1.102.627.227.227.408.49.543.789.134.296.234.676.298 1.142.064.462.11 1.06.136 1.793l.096 2.869.048.048 2.869-2.869.663.663-3.893 3.893ZM185.785 309.805a1.339 1.339 0 0 0-1.151-.271c-.426.088-.826.319-1.199.693a2.557 2.557 0 0 0-.585.85 1.626 1.626 0 0 0-.111.841c.042.267.161.499.358.696.165.164.346.267.543.307.197.036.396.031.599-.015.201-.048.395-.116.582-.202.185-.088.349-.175.494-.259l.796-.458c.202-.119.44-.239.711-.362.273-.124.564-.213.874-.265.309-.056.622-.044.94.036.317.081.62.265.91.555.333.333.547.722.641 1.166.097.442.058.909-.117 1.401-.173.49-.496.972-.97 1.446-.442.442-.896.754-1.362.934a2.588 2.588 0 0 1-1.356.163 2.41 2.41 0 0 1-1.2-.578l.772-.772c.253.213.524.328.813.344.29.012.577-.051.862-.187a3.02 3.02 0 0 0 .796-.579c.285-.285.495-.587.63-.907a1.87 1.87 0 0 0 .147-.931 1.312 1.312 0 0 0-.392-.789c-.204-.205-.428-.315-.672-.329a1.774 1.774 0 0 0-.765.139 6.597 6.597 0 0 0-.816.395l-.977.542c-.62.344-1.2.527-1.738.551-.539.025-1.016-.171-1.432-.587a2.118 2.118 0 0 1-.623-1.184 2.622 2.622 0 0 1 .156-1.362 3.63 3.63 0 0 1 .853-1.287c.398-.398.823-.68 1.275-.847.45-.168.888-.221 1.313-.156.428.062.803.244 1.124.545l-.723.723Zm8.605.845c-.446.446-.929.732-1.449.858a2.797 2.797 0 0 1-1.576-.087c-.53-.185-1.033-.514-1.507-.988s-.805-.979-.994-1.513a2.894 2.894 0 0 1-.121-1.579c.109-.518.372-.986.79-1.404.241-.241.519-.439.835-.594a2.507 2.507 0 0 1 1.033-.25c.372-.014.762.07 1.172.25.41.181.831.488 1.263.919l.301.302-3.568 3.567-.614-.614 2.844-2.845a2.137 2.137 0 0 0-.856-.542 1.658 1.658 0 0 0-.925-.045 1.74 1.74 0 0 0-.846.491 1.803 1.803 0 0 0-.525.946c-.066.343-.043.682.07 1.015.112.334.296.628.551.883l.41.41c.349.35.706.586 1.07.708.363.119.717.133 1.06.042.342-.092.656-.282.943-.569.187-.187.33-.382.428-.585.099-.207.15-.419.154-.635a1.542 1.542 0 0 0-.148-.66l.88-.495c.161.306.244.632.25.98.004.345-.07.693-.223 1.042a3.3 3.3 0 0 1-.702.992Zm4.638-1.359-6.364-6.364.687-.687.735.735.084-.084a9.1 9.1 0 0 1-.09-.525 1.804 1.804 0 0 1 .066-.741c.076-.277.265-.566.567-.868.389-.389.83-.636 1.322-.738.493-.102 1.001-.058 1.525.133.524.19 1.03.529 1.516 1.015.49.49.831.998 1.024 1.525.191.524.237 1.032.139 1.524a2.57 2.57 0 0 1-.729 1.314c-.298.297-.585.486-.862.567-.279.078-.53.102-.753.072a6.527 6.527 0 0 1-.543-.096l-.06.06 2.447 2.447-.711.711Zm-3.351-4.749c.349.349.709.607 1.079.771.367.163.725.221 1.072.175.346-.048.661-.215.946-.5.298-.298.468-.624.51-.979a2.03 2.03 0 0 0-.187-1.091 3.561 3.561 0 0 0-.744-1.052 3.46 3.46 0 0 0-1.031-.729 1.923 1.923 0 0 0-1.073-.175c-.353.044-.681.217-.982.518-.289.29-.459.606-.509.95-.052.341.002.693.163 1.054.158.36.41.712.756 1.058Zm5.159-12.873 6.171 6.171-.748.748-5.387-5.388-.036.036-.507 2.507-.759-.759.518-2.567.748-.748Zm10.115 2.396c-.398.398-.821.684-1.269.859a2.574 2.574 0 0 1-1.307.168 2.163 2.163 0 0 1-1.148-.557l.759-.759c.215.182.455.286.72.31.263.022.531-.025.805-.142.273-.116.528-.293.765-.53a2.39 2.39 0 0 0 .566-.844c.113-.297.145-.586.097-.868a1.365 1.365 0 0 0-.398-.747 1.525 1.525 0 0 0-.768-.431 1.579 1.579 0 0 0-.904.085c-.316.118-.63.334-.943.647l-.495.495-.662-.663.494-.494c.245-.246.416-.505.512-.778a1.414 1.414 0 0 0-.344-1.537 1.462 1.462 0 0 0-.684-.406 1.328 1.328 0 0 0-.753.03 1.79 1.79 0 0 0-.72.461 2.195 2.195 0 0 0-.485.72 1.582 1.582 0 0 0-.124.792c.026.264.137.503.332.718l-.723.723a2.074 2.074 0 0 1-.558-1.142 2.603 2.603 0 0 1 .145-1.29c.161-.434.419-.829.774-1.184.382-.382.787-.632 1.215-.75a2.308 2.308 0 0 1 1.235-.025c.398.105.742.303 1.034.594.347.348.552.735.614 1.163.064.426-.012.842-.229 1.248l.048.048c.454-.326.924-.464 1.411-.416.484.046.922.265 1.313.657.336.335.546.728.63 1.178.085.446.046.902-.114 1.368-.161.466-.441.899-.841 1.299ZM224.633 309.847a1.338 1.338 0 0 0-1.151-.272c-.426.089-.826.32-1.2.694a2.535 2.535 0 0 0-.584.849 1.62 1.62 0 0 0-.112.841c.042.267.162.499.359.696.164.165.345.267.542.307.197.036.397.031.6-.015.201-.048.395-.115.581-.202.185-.088.35-.174.494-.259l.796-.458c.203-.118.44-.239.711-.361a3.52 3.52 0 0 1 .874-.266c.309-.056.623-.044.94.037.317.08.621.265.91.554a2.3 2.3 0 0 1 .642 1.166c.096.442.057.909-.118 1.401-.172.491-.496.973-.97 1.447-.442.442-.896.753-1.362.934a2.588 2.588 0 0 1-1.356.163 2.417 2.417 0 0 1-1.199-.579l.771-.771c.253.213.525.327.814.343a1.8 1.8 0 0 0 .862-.187c.285-.14.55-.333.795-.578.285-.286.495-.588.63-.907.133-.322.182-.632.148-.931a1.317 1.317 0 0 0-.392-.79c-.205-.205-.429-.314-.672-.328a1.788 1.788 0 0 0-.765.138c-.268.107-.54.238-.817.395l-.976.542c-.621.344-1.201.528-1.739.552-.538.024-1.015-.172-1.431-.588a2.11 2.11 0 0 1-.624-1.184 2.633 2.633 0 0 1 .157-1.362c.174-.464.459-.893.852-1.287.398-.397.823-.68 1.275-.846.45-.169.888-.221 1.314-.157a2.04 2.04 0 0 1 1.124.545l-.723.724Zm8.605.844c-.446.446-.929.732-1.45.859a2.816 2.816 0 0 1-1.576-.087c-.53-.185-1.032-.515-1.506-.989s-.806-.978-.995-1.512a2.894 2.894 0 0 1-.12-1.579c.108-.519.371-.987.789-1.405.241-.241.52-.439.835-.593.315-.155.66-.238 1.033-.25.372-.014.763.069 1.173.25.409.181.83.487 1.262.919l.302.301-3.568 3.568-.615-.615 2.845-2.844a2.154 2.154 0 0 0-.856-.543 1.677 1.677 0 0 0-.925-.045c-.308.07-.59.234-.847.491a1.805 1.805 0 0 0-.524.946c-.067.344-.043.682.069 1.016.113.333.296.628.552.883l.409.41c.35.349.706.585 1.07.708.364.118.717.132 1.061.042.341-.093.656-.282.943-.57.187-.187.329-.381.428-.584.098-.207.149-.419.153-.636a1.555 1.555 0 0 0-.147-.66l.88-.494c.16.305.244.632.25.979.004.346-.071.693-.223 1.043a3.332 3.332 0 0 1-.702.991Zm4.637-1.359-6.364-6.364.687-.687.735.735.085-.084a8.915 8.915 0 0 1-.091-.524 1.795 1.795 0 0 1 .067-.742c.076-.277.265-.566.566-.867.39-.39.831-.636 1.323-.739.492-.102 1-.058 1.525.133.524.191 1.029.529 1.515 1.015.49.491.832.999 1.025 1.525.191.524.237 1.033.138 1.525-.1.49-.343.928-.729 1.314-.297.297-.584.486-.862.566a1.86 1.86 0 0 1-.753.072 6.417 6.417 0 0 1-.542-.096l-.061.06 2.447 2.447-.711.711Zm-3.351-4.749c.35.35.709.607 1.079.772.368.162.725.221 1.073.174.345-.048.661-.215.946-.5.297-.297.467-.624.509-.979.042-.36-.02-.723-.187-1.091a3.539 3.539 0 0 0-.744-1.051 3.442 3.442 0 0 0-1.03-.73 1.924 1.924 0 0 0-1.073-.174c-.354.044-.681.217-.983.518-.289.289-.459.605-.509.949-.052.341.002.693.163 1.055.159.359.411.712.756 1.057Zm5.159-12.872 6.171 6.171-.747.747-5.388-5.388-.036.037-.506 2.507-.76-.76.519-2.567.747-.747Zm6.536 3.275-.615-.615-1.579-7.002.446-.446.952.952-.301.301 1.193 5.291.048.049 3.652-3.652.663.663-4.459 4.459Zm4.17-1.639-1.452-1.452-.287-.287-4.432-4.432.711-.711 6.171 6.171-.711.711ZM263.803 309.565a1.336 1.336 0 0 0-1.151-.271c-.426.088-.825.319-1.199.693a2.547 2.547 0 0 0-.585.85 1.624 1.624 0 0 0-.111.84c.042.267.162.499.358.696.165.165.346.267.543.308.197.036.397.031.599-.015.201-.049.395-.116.582-.202.185-.089.35-.175.494-.259l.796-.459c.203-.118.44-.239.711-.361.273-.125.564-.213.874-.265.309-.057.622-.044.94.036.317.08.62.265.91.554.333.334.547.723.642 1.166.096.442.057.909-.118 1.402-.173.49-.496.972-.97 1.446-.442.442-.896.753-1.362.934a2.588 2.588 0 0 1-1.356.163 2.405 2.405 0 0 1-1.199-.579l.771-.771c.253.213.524.327.814.343.289.012.576-.05.861-.186.286-.141.551-.334.796-.579.285-.285.495-.588.63-.907.132-.321.181-.632.147-.931a1.319 1.319 0 0 0-.391-.79c-.205-.204-.429-.314-.672-.328a1.776 1.776 0 0 0-.766.139 6.732 6.732 0 0 0-.816.394l-.977.543c-.62.343-1.2.527-1.738.551-.539.024-1.016-.172-1.432-.587a2.12 2.12 0 0 1-.623-1.185 2.632 2.632 0 0 1 .156-1.362c.175-.464.459-.893.853-1.286.398-.398.823-.68 1.275-.847.45-.169.888-.221 1.313-.157.428.063.803.244 1.124.546l-.723.723Zm8.605.844c-.446.446-.929.733-1.449.859a2.797 2.797 0 0 1-1.576-.087c-.53-.185-1.033-.514-1.507-.989-.474-.474-.805-.978-.994-1.512a2.895 2.895 0 0 1-.121-1.579c.109-.518.372-.986.79-1.404.241-.241.519-.439.835-.594a2.491 2.491 0 0 1 1.033-.25c.372-.014.762.069 1.172.25.41.181.831.487 1.263.919l.301.301-3.568 3.568-.614-.615 2.844-2.844a2.14 2.14 0 0 0-.855-.542 1.671 1.671 0 0 0-.926-.046 1.747 1.747 0 0 0-.846.491 1.81 1.81 0 0 0-.525.947c-.066.343-.043.682.07 1.015.112.334.296.628.551.883l.41.41c.349.349.706.585 1.07.708a1.85 1.85 0 0 0 1.06.042c.342-.092.656-.282.943-.569.187-.187.33-.382.428-.585.099-.207.15-.419.154-.636a1.542 1.542 0 0 0-.148-.66l.88-.494c.161.305.244.632.25.979a2.51 2.51 0 0 1-.223 1.043 3.284 3.284 0 0 1-.702.991Zm4.638-1.359-6.364-6.364.687-.687.735.736.084-.085a8.894 8.894 0 0 1-.09-.524 1.804 1.804 0 0 1 .066-.741c.077-.277.265-.567.567-.868.389-.39.83-.636 1.323-.738.492-.103 1-.059 1.524.132.525.191 1.03.53 1.516 1.016.49.49.832.998 1.024 1.524.191.525.237 1.033.139 1.525-.1.49-.344.928-.729 1.314-.298.297-.585.486-.862.566-.279.079-.53.103-.753.073a6.466 6.466 0 0 1-.543-.097l-.06.061 2.447 2.446-.711.711Zm-3.351-4.748c.349.349.709.606 1.079.771.367.163.725.221 1.072.175.346-.049.661-.215.947-.501.297-.297.467-.623.509-.979a2.034 2.034 0 0 0-.187-1.091 3.557 3.557 0 0 0-.744-1.051 3.424 3.424 0 0 0-1.031-.729 1.922 1.922 0 0 0-1.073-.175c-.353.044-.681.217-.982.518-.289.289-.459.606-.509.949-.052.342.002.693.163 1.055.158.359.41.712.756 1.058Zm5.159-12.873 6.171 6.171-.748.747-5.387-5.387-.036.036-.507 2.507-.759-.759.518-2.568.748-.747Zm9.958 2.552a2.978 2.978 0 0 1-1.166.744 2.507 2.507 0 0 1-1.259.103 2.22 2.22 0 0 1-1.118-.558l.723-.723c.307.251.665.356 1.073.314a1.791 1.791 0 0 0 1.084-.543 1.785 1.785 0 0 0 .477-1.808 2.066 2.066 0 0 0-.537-.88 2.036 2.036 0 0 0-.898-.542 1.852 1.852 0 0 0-.985-.021 1.92 1.92 0 0 0-.889.515c-.191.187-.356.41-.494.669a2.27 2.27 0 0 0-.265.717l-.784.615-2.663-3.411 3.206-3.206.663.663-2.58 2.579 1.603 2.037.036-.036a2.567 2.567 0 0 1 .724-1.422 2.667 2.667 0 0 1 1.28-.738 2.669 2.669 0 0 1 1.434.036c.483.14.924.41 1.323.81.394.394.657.834.79 1.32.132.482.134.966.006 1.452a2.92 2.92 0 0 1-.784 1.314ZM302.56 309.697a1.342 1.342 0 0 0-1.152-.271c-.425.089-.825.32-1.199.693a2.549 2.549 0 0 0-.584.85 1.618 1.618 0 0 0-.112.841c.042.267.162.499.359.696.164.165.345.267.542.307.197.036.397.031.6-.015.201-.048.394-.115.581-.202.185-.088.35-.175.494-.259l.796-.458c.203-.118.44-.239.711-.362.273-.124.565-.212.874-.265a2.2 2.2 0 0 1 .94.036c.317.081.621.266.91.555.334.333.547.722.642 1.166.096.442.057.909-.118 1.401-.172.49-.496.972-.97 1.447-.442.441-.896.753-1.362.934a2.587 2.587 0 0 1-1.356.162 2.403 2.403 0 0 1-1.199-.578l.771-.772c.253.213.525.328.814.344a1.8 1.8 0 0 0 .862-.187c.285-.14.55-.333.795-.578.285-.286.495-.588.63-.907.132-.322.182-.632.148-.931a1.317 1.317 0 0 0-.392-.79c-.205-.205-.429-.314-.672-.328a1.788 1.788 0 0 0-.765.138c-.268.107-.54.238-.817.395l-.976.542c-.621.344-1.201.528-1.739.552-.538.024-1.015-.172-1.431-.588a2.11 2.11 0 0 1-.624-1.184 2.633 2.633 0 0 1 .157-1.362c.174-.464.459-.893.852-1.287.398-.397.823-.68 1.275-.846.45-.169.888-.221 1.314-.157a2.04 2.04 0 0 1 1.124.545l-.723.723Zm8.605.845c-.446.446-.929.732-1.45.859a2.807 2.807 0 0 1-1.576-.088c-.53-.184-1.032-.514-1.506-.988s-.806-.978-.995-1.513a2.884 2.884 0 0 1-.12-1.579c.108-.518.371-.986.789-1.404.241-.241.52-.439.835-.593.315-.155.66-.238 1.033-.25.372-.015.763.069 1.173.25.409.18.83.487 1.262.919l.301.301-3.567 3.568-.615-.615 2.845-2.845a2.162 2.162 0 0 0-.856-.542 1.677 1.677 0 0 0-.925-.045c-.308.07-.59.234-.847.491a1.805 1.805 0 0 0-.524.946c-.067.344-.043.682.069 1.016.113.333.296.627.551.883l.41.409c.35.35.706.586 1.07.708.364.119.717.133 1.061.043a2.12 2.12 0 0 0 .943-.57 2.2 2.2 0 0 0 .428-.584c.098-.207.149-.419.153-.636a1.555 1.555 0 0 0-.147-.66l.88-.494c.16.305.244.631.25.979.004.346-.071.693-.223 1.043a3.332 3.332 0 0 1-.702.991Zm4.637-1.359-6.364-6.364.687-.687.735.735.085-.084a8.915 8.915 0 0 1-.091-.524 1.795 1.795 0 0 1 .067-.742c.076-.277.265-.566.566-.868.39-.389.831-.635 1.323-.738.492-.102 1-.058 1.525.133.524.191 1.029.529 1.515 1.015.49.49.832.999 1.025 1.525.191.524.237 1.033.138 1.525-.1.49-.343.928-.729 1.313-.297.298-.584.487-.862.567-.279.078-.53.102-.753.072a6.417 6.417 0 0 1-.542-.096l-.061.06 2.447 2.447-.711.711Zm-3.351-4.749c.35.35.709.607 1.079.772.368.162.725.22 1.073.174.345-.048.661-.215.946-.5.297-.297.467-.624.509-.979.042-.36-.02-.723-.187-1.091a3.543 3.543 0 0 0-.744-1.052 3.447 3.447 0 0 0-1.031-.729 1.92 1.92 0 0 0-1.072-.175c-.354.045-.681.217-.983.519-.289.289-.459.605-.509.949-.052.341.002.693.163 1.054.159.36.411.713.756 1.058Zm5.159-12.872 6.171 6.171-.747.747-5.388-5.388-.036.036-.506 2.507-.76-.759.519-2.567.747-.747Zm10.079 2.431a3.267 3.267 0 0 1-.904.615 2.566 2.566 0 0 1-1.16.226c-.43-.012-.896-.143-1.398-.392-.504-.251-1.042-.662-1.612-1.232-.546-.547-.979-1.082-1.299-1.606-.321-.527-.529-1.032-.624-1.516a2.842 2.842 0 0 1 .043-1.368c.126-.428.363-.816.711-1.163a2.791 2.791 0 0 1 1.13-.714 2.485 2.485 0 0 1 1.235-.091 2.84 2.84 0 0 1 1.178.516l-.735.735a1.926 1.926 0 0 0-1.088-.292c-.379.014-.732.183-1.057.509-.478.478-.647 1.063-.507 1.754.143.689.589 1.41 1.338 2.163l.049-.048a2.551 2.551 0 0 1 .699-2.338 2.596 2.596 0 0 1 1.235-.705 2.76 2.76 0 0 1 1.431.021c.484.13.925.394 1.323.792.382.382.646.817.793 1.305.144.486.155.977.033 1.473-.123.492-.394.944-.814 1.356Zm-.663-.663c.253-.253.417-.543.491-.87.077-.33.067-.659-.03-.989a2.031 2.031 0 0 0-.533-.889 2.007 2.007 0 0 0-.868-.524 1.849 1.849 0 0 0-.97-.036 1.743 1.743 0 0 0-.862.488 1.78 1.78 0 0 0-.419.648c-.09.239-.132.486-.126.741.008.253.061.499.159.738a2.019 2.019 0 0 0 2.272 1.188 1.77 1.77 0 0 0 .886-.495ZM341.896 309.25a1.34 1.34 0 0 0-1.151-.271c-.426.088-.826.319-1.199.693a2.518 2.518 0 0 0-.585.85 1.614 1.614 0 0 0-.112.84c.043.268.162.5.359.696.165.165.346.268.542.308.197.036.397.031.6-.015.201-.048.395-.116.582-.202.184-.089.349-.175.494-.259l.795-.458c.203-.119.44-.239.711-.362.274-.124.565-.213.874-.265a2.2 2.2 0 0 1 .94.036c.318.08.621.265.91.555.334.333.548.722.642 1.166.097.442.057.909-.117 1.401-.173.49-.496.972-.971 1.446-.442.442-.896.753-1.362.934a2.588 2.588 0 0 1-1.356.163 2.405 2.405 0 0 1-1.199-.579l.772-.771c.253.213.524.327.813.344.289.012.577-.051.862-.187.285-.141.55-.334.795-.579a2.83 2.83 0 0 0 .63-.907c.133-.321.182-.632.148-.931a1.312 1.312 0 0 0-.392-.789c-.205-.205-.429-.315-.672-.329a1.774 1.774 0 0 0-.765.139c-.267.106-.54.238-.817.395l-.976.542c-.621.343-1.2.527-1.739.551-.538.024-1.015-.171-1.431-.587a2.126 2.126 0 0 1-.624-1.184 2.633 2.633 0 0 1 .157-1.362 3.63 3.63 0 0 1 .853-1.287c.397-.398.822-.68 1.274-.847.45-.169.888-.221 1.314-.156.428.062.803.244 1.124.545l-.723.723Zm8.605.845c-.446.446-.929.732-1.449.858a2.797 2.797 0 0 1-1.576-.087c-.531-.185-1.033-.514-1.507-.988s-.806-.979-.994-1.513a2.894 2.894 0 0 1-.121-1.579c.109-.518.372-.986.79-1.404.241-.241.519-.439.834-.594.316-.154.66-.238 1.034-.25.371-.014.762.069 1.172.25.41.181.831.487 1.262.919l.302.302-3.568 3.567-.615-.614 2.845-2.845a2.137 2.137 0 0 0-.856-.542 1.658 1.658 0 0 0-.925-.045c-.307.07-.589.234-.847.491a1.801 1.801 0 0 0-.524.946c-.066.343-.043.682.069 1.015.113.334.297.628.552.883l.41.41c.349.35.706.586 1.069.708.364.119.717.133 1.061.042.341-.092.656-.282.943-.569.187-.187.33-.382.428-.585a1.54 1.54 0 0 0 .154-.636 1.556 1.556 0 0 0-.148-.66l.88-.494c.161.306.244.632.25.98.004.345-.07.693-.223 1.042a3.335 3.335 0 0 1-.702.992Zm4.637-1.359-6.364-6.364.687-.687.736.735.084-.085a8.894 8.894 0 0 1-.09-.524 1.787 1.787 0 0 1 .066-.741c.076-.277.265-.567.566-.868.39-.39.831-.636 1.323-.738.492-.103 1.001-.058 1.525.132.524.191 1.029.53 1.515 1.016.491.49.832.998 1.025 1.525.191.524.237 1.032.139 1.524-.101.49-.344.928-.73 1.314-.297.297-.584.486-.861.567-.28.078-.531.102-.754.072a6.048 6.048 0 0 1-.542-.097l-.06.061 2.446 2.446-.711.712Zm-3.35-4.749a3.65 3.65 0 0 0 1.078.771c.368.163.725.221 1.073.175.346-.048.661-.215.946-.5.297-.298.467-.624.509-.98a2.028 2.028 0 0 0-.186-1.09 3.534 3.534 0 0 0-.745-1.052 3.438 3.438 0 0 0-1.03-.729 1.923 1.923 0 0 0-1.073-.175c-.353.044-.681.217-.982.518-.29.29-.459.606-.509.949-.053.342.002.693.162 1.055.159.36.411.712.757 1.058Zm5.158-12.873 6.171 6.171-.747.748-5.388-5.388-.036.036-.506 2.507-.759-.759.518-2.568.747-.747Zm8.139 4.204-2.7-8.22-.048-.049-3.182 3.182-.663-.663 3.953-3.953.699.699 2.724 8.22-.783.784ZM380.404 309.631a1.342 1.342 0 0 0-1.152-.271c-.425.088-.825.319-1.199.693a2.539 2.539 0 0 0-.584.85 1.614 1.614 0 0 0-.112.84c.042.268.162.5.359.697.164.164.345.267.542.307.197.036.397.031.6-.015.201-.048.394-.116.581-.202.185-.088.35-.175.494-.259l.796-.458c.203-.119.44-.239.711-.362.273-.124.565-.213.874-.265a2.2 2.2 0 0 1 .94.036c.317.081.621.265.91.555.334.333.547.722.642 1.166.096.442.057.909-.118 1.401-.172.49-.496.972-.97 1.446-.442.442-.896.754-1.362.934a2.588 2.588 0 0 1-1.356.163 2.403 2.403 0 0 1-1.199-.578l.771-.772c.253.213.525.328.814.344.289.012.576-.051.862-.187.285-.141.55-.334.795-.579.285-.285.495-.587.63-.907.132-.321.182-.631.148-.931a1.317 1.317 0 0 0-.392-.789c-.205-.205-.429-.315-.672-.329a1.774 1.774 0 0 0-.765.139 6.54 6.54 0 0 0-.817.395l-.976.542c-.621.344-1.201.527-1.739.551-.538.025-1.015-.171-1.431-.587a2.113 2.113 0 0 1-.624-1.184 2.633 2.633 0 0 1 .157-1.362c.174-.464.459-.893.852-1.287.398-.398.823-.68 1.275-.847.45-.168.888-.221 1.314-.156a2.04 2.04 0 0 1 1.124.545l-.723.723Zm8.605.845c-.446.446-.929.732-1.45.858a2.798 2.798 0 0 1-1.576-.087c-.53-.185-1.032-.514-1.506-.988s-.806-.979-.995-1.513a2.884 2.884 0 0 1-.12-1.579c.108-.518.371-.986.789-1.404a3.12 3.12 0 0 1 .835-.594 2.51 2.51 0 0 1 1.033-.25c.372-.014.763.07 1.173.25.409.181.83.487 1.262.919l.301.302-3.567 3.567-.615-.614 2.845-2.845a2.15 2.15 0 0 0-.856-.542 1.658 1.658 0 0 0-.925-.045c-.308.07-.59.234-.847.491a1.801 1.801 0 0 0-.524.946c-.067.343-.043.682.069 1.015.113.334.296.628.551.883l.41.41c.35.35.706.586 1.07.708.364.119.717.133 1.061.042.341-.092.656-.282.943-.569.187-.187.329-.382.428-.585.098-.207.149-.419.153-.636a1.554 1.554 0 0 0-.147-.659l.88-.495c.16.306.244.632.25.98.004.345-.071.693-.223 1.042a3.335 3.335 0 0 1-.702.992Zm4.637-1.359-6.364-6.364.687-.687.735.735.085-.084a8.972 8.972 0 0 1-.091-.525 1.79 1.79 0 0 1 .067-.741c.076-.277.265-.566.566-.868.39-.39.831-.636 1.323-.738.492-.102 1-.058 1.525.133.524.19 1.029.529 1.515 1.015.49.49.832.998 1.025 1.525.191.524.237 1.032.138 1.524-.1.491-.343.928-.729 1.314-.297.297-.584.486-.862.567-.279.078-.53.102-.753.072a6.417 6.417 0 0 1-.542-.096l-.061.06 2.447 2.447-.711.711Zm-3.351-4.749c.35.349.709.606 1.079.771.368.163.725.221 1.073.175.345-.048.661-.215.946-.5.297-.298.467-.624.509-.98a2.029 2.029 0 0 0-.187-1.09 3.543 3.543 0 0 0-.744-1.052 3.447 3.447 0 0 0-1.031-.729 1.92 1.92 0 0 0-1.072-.175c-.354.044-.681.217-.983.518-.289.29-.459.606-.509.95-.052.341.002.693.163 1.054.159.36.411.712.756 1.058Zm5.159-12.873 6.171 6.171-.747.748-5.388-5.388-.036.036-.506 2.507-.76-.759.519-2.567.747-.748Zm10.007 2.504c-.414.414-.853.706-1.317.877a2.543 2.543 0 0 1-1.35.127 2.183 2.183 0 0 1-1.154-.63 2.317 2.317 0 0 1-.699-1.862c.032-.334.141-.633.325-.898l-.036-.036a1.685 1.685 0 0 1-1.202.208 2.136 2.136 0 0 1-1.136-.618 2.117 2.117 0 0 1-.603-1.079 2.369 2.369 0 0 1 .079-1.247c.14-.426.391-.82.753-1.182a2.966 2.966 0 0 1 1.172-.744c.424-.138.84-.165 1.248-.078.409.084.772.282 1.087.593.326.33.529.712.609 1.145.08.43.014.828-.199 1.194l.036.036a1.81 1.81 0 0 1 .889-.317 2.385 2.385 0 0 1 1.872.69c.331.336.538.724.62 1.164.083.436.04.885-.126 1.35-.167.46-.456.895-.868 1.307Zm-.663-.663c.279-.279.475-.565.588-.858a1.53 1.53 0 0 0 .087-.853 1.457 1.457 0 0 0-.41-.747 1.568 1.568 0 0 0-.798-.437 1.72 1.72 0 0 0-.907.063c-.306.1-.589.281-.85.542a2.23 2.23 0 0 0-.552.859c-.102.307-.123.61-.063.907.062.295.211.559.446.79.219.223.465.362.738.418.276.055.561.024.856-.09a2.54 2.54 0 0 0 .865-.594Zm-2.929-2.929c.221-.22.373-.461.455-.72.084-.261.097-.52.036-.777a1.49 1.49 0 0 0-.407-.708 1.444 1.444 0 0 0-.693-.398 1.359 1.359 0 0 0-.762.039c-.257.085-.499.24-.726.467-.231.231-.39.476-.476.736a1.31 1.31 0 0 0-.039.762c.06.249.195.477.406.684.211.215.444.353.699.416.258.06.517.048.778-.036.261-.085.504-.24.729-.465ZM419.226 309.697a1.339 1.339 0 0 0-1.151-.271c-.426.089-.826.32-1.199.693a2.567 2.567 0 0 0-.585.85 1.627 1.627 0 0 0-.111.841c.042.267.161.499.358.696.165.165.346.267.543.307.197.036.396.031.599-.015.201-.048.395-.115.582-.202.185-.088.349-.175.494-.259l.796-.458c.202-.118.439-.239.711-.362.273-.124.564-.212.874-.265.309-.056.622-.044.94.036.317.081.62.266.91.555.333.333.547.722.641 1.166.097.442.058.909-.117 1.401-.173.49-.496.972-.97 1.447-.442.441-.896.753-1.362.934a2.587 2.587 0 0 1-1.356.162 2.41 2.41 0 0 1-1.2-.578l.772-.772c.253.213.524.328.813.344.29.012.577-.05.862-.187.285-.14.551-.333.796-.578.285-.286.495-.588.629-.907.133-.322.182-.632.148-.931a1.312 1.312 0 0 0-.392-.79c-.204-.205-.428-.314-.672-.328a1.788 1.788 0 0 0-.765.138 6.743 6.743 0 0 0-.816.395l-.977.542c-.621.344-1.2.528-1.738.552-.539.024-1.016-.172-1.432-.588a2.115 2.115 0 0 1-.623-1.184 2.622 2.622 0 0 1 .156-1.362 3.63 3.63 0 0 1 .853-1.287c.398-.397.823-.68 1.275-.846.45-.169.887-.221 1.313-.157.428.062.803.244 1.124.545l-.723.723Zm8.605.845c-.446.446-.929.732-1.449.859a2.806 2.806 0 0 1-1.576-.088c-.53-.184-1.033-.514-1.507-.988s-.805-.978-.994-1.513a2.894 2.894 0 0 1-.121-1.579c.109-.518.372-.986.79-1.404.241-.241.519-.439.834-.593a2.5 2.5 0 0 1 1.034-.25c.372-.015.762.069 1.172.25.41.18.831.487 1.263.919l.301.301-3.568 3.568-.614-.615 2.844-2.845a2.148 2.148 0 0 0-.856-.542 1.676 1.676 0 0 0-.925-.045 1.74 1.74 0 0 0-.846.491 1.807 1.807 0 0 0-.525.946c-.066.344-.043.682.07 1.016.112.333.296.627.551.883l.41.409c.349.35.706.586 1.07.708.363.119.717.133 1.06.043.342-.093.656-.283.943-.57.187-.187.33-.382.428-.584.099-.207.15-.419.154-.636a1.542 1.542 0 0 0-.148-.66l.88-.494c.161.305.244.631.25.979a2.51 2.51 0 0 1-.223 1.043 3.296 3.296 0 0 1-.702.991Zm4.638-1.359-6.364-6.364.687-.687.735.735.084-.084a9.043 9.043 0 0 1-.09-.524 1.81 1.81 0 0 1 .066-.742c.076-.277.265-.566.567-.868.389-.389.83-.635 1.322-.738.493-.102 1.001-.058 1.525.133s1.03.529 1.516 1.015c.49.49.831.999 1.024 1.525.191.524.237 1.033.139 1.525-.101.49-.344.928-.729 1.313-.298.298-.585.487-.862.567-.279.078-.53.102-.753.072a6.527 6.527 0 0 1-.543-.096l-.06.06 2.447 2.447-.711.711Zm-3.351-4.749c.349.35.709.607 1.079.772.367.162.725.22 1.072.174.346-.048.661-.215.946-.5.298-.297.467-.624.51-.979.042-.36-.02-.723-.187-1.091a3.561 3.561 0 0 0-.744-1.052 3.46 3.46 0 0 0-1.031-.729 1.923 1.923 0 0 0-1.073-.175c-.353.045-.681.217-.982.519-.289.289-.459.605-.509.949-.052.341.002.693.163 1.054.158.36.41.713.756 1.058Zm5.158-12.872 6.172 6.171-.748.747-5.387-5.388-.037.036-.506 2.507-.759-.759.518-2.567.747-.747Zm3.656-3.824c.255-.251.556-.456.904-.615a2.61 2.61 0 0 1 1.163-.223c.426.008.89.137 1.392.386.502.249 1.036.657 1.603 1.223.548.549.983 1.088 1.305 1.618.321.527.53 1.033.626 1.519.099.484.085.94-.042 1.368-.124.426-.36.813-.708 1.16a2.858 2.858 0 0 1-1.13.72c-.408.131-.821.16-1.238.088a2.85 2.85 0 0 1-1.188-.531l.736-.735c.349.217.715.319 1.096.307.382-.016.736-.186 1.061-.512.476-.476.644-1.06.503-1.751-.138-.693-.587-1.419-1.347-2.178l-.048.048c.056.281.068.561.036.838a2.479 2.479 0 0 1-.232.798c-.122.255-.29.489-.503.702a2.64 2.64 0 0 1-1.235.711c-.47.117-.948.11-1.432-.021-.484-.134-.925-.4-1.322-.798a3.048 3.048 0 0 1-.784-1.29 2.758 2.758 0 0 1-.036-1.47c.122-.496.396-.95.82-1.362Zm.662.663a1.793 1.793 0 0 0-.494.874c-.076.325-.067.653.027.985.095.327.271.62.528.877s.547.435.871.533c.323.094.645.106.967.033.321-.076.608-.241.862-.494.19-.191.331-.406.421-.645.089-.241.129-.488.121-.741a2.114 2.114 0 0 0-.157-.741 1.914 1.914 0 0 0-.422-.633 1.948 1.948 0 0 0-.852-.503 1.95 1.95 0 0 0-.989-.036c-.331.07-.625.234-.883.491Z"/><path fill="#749D00" d="M141 350h16v2h-16z"/><path fill="#0B151E" d="M173.08 349.5h-1.057a2.208 2.208 0 0 0-.891-1.381 2.405 2.405 0 0 0-.729-.358 2.926 2.926 0 0 0-.835-.119c-.528 0-1.007.134-1.436.401-.426.267-.766.66-1.018 1.18-.25.52-.375 1.158-.375 1.913 0 .756.125 1.394.375 1.914.252.52.592.913 1.018 1.18.429.267.908.401 1.436.401.29 0 .568-.04.835-.12a2.44 2.44 0 0 0 .729-.353c.222-.159.409-.354.563-.584.156-.233.265-.5.328-.801h1.057c-.08.446-.225.845-.435 1.197a3.278 3.278 0 0 1-1.837 1.458 3.942 3.942 0 0 1-1.24.191c-.744 0-1.406-.181-1.986-.545-.579-.364-1.035-.881-1.368-1.551-.332-.671-.498-1.466-.498-2.387 0-.92.166-1.716.498-2.386.333-.67.789-1.188 1.368-1.551.58-.364 1.242-.546 1.986-.546.441 0 .854.064 1.24.192.389.128.74.316 1.053.563.312.244.574.542.784.895.21.349.355.748.435 1.197Zm4.23 6.136c-.591 0-1.109-.14-1.555-.422a2.856 2.856 0 0 1-1.04-1.18c-.247-.506-.371-1.097-.371-1.773 0-.681.124-1.277.371-1.785.25-.509.596-.904 1.04-1.185.446-.281.964-.422 1.555-.422s1.108.141 1.551.422c.446.281.793.676 1.04 1.185.25.508.375 1.104.375 1.785 0 .676-.125 1.267-.375 1.773a2.822 2.822 0 0 1-1.04 1.18c-.443.282-.96.422-1.551.422Zm0-.903c.449 0 .818-.115 1.108-.345.29-.23.504-.533.643-.908.14-.375.209-.781.209-1.219 0-.437-.069-.845-.209-1.223a2.061 2.061 0 0 0-.643-.916c-.29-.233-.659-.349-1.108-.349-.449 0-.818.116-1.108.349-.29.233-.504.539-.643.916-.14.378-.209.786-.209 1.223 0 .438.069.844.209 1.219.139.375.353.678.643.908.29.23.659.345 1.108.345Zm5.507-3.171v3.938h-1.006v-6.545h.972v1.022h.085c.153-.332.386-.599.699-.801.312-.204.716-.307 1.21-.307.443 0 .831.091 1.163.273.333.179.591.452.776.818.185.364.277.824.277 1.381v4.159h-1.006v-4.091c0-.514-.133-.915-.4-1.202-.267-.289-.634-.434-1.1-.434-.321 0-.608.069-.861.209-.25.139-.447.342-.592.609-.145.267-.217.591-.217.971Zm10.65-1.142-.903.256a1.689 1.689 0 0 0-.252-.439 1.226 1.226 0 0 0-.443-.358c-.188-.093-.428-.14-.72-.14-.401 0-.735.092-1.002.277-.264.181-.396.413-.396.694 0 .25.091.448.273.593.182.144.466.265.852.362l.972.238c.585.142 1.021.36 1.308.652.287.29.43.664.43 1.121 0 .375-.108.71-.324 1.006a2.156 2.156 0 0 1-.894.699c-.384.17-.83.255-1.339.255-.667 0-1.22-.145-1.657-.434-.438-.29-.715-.713-.831-1.27l.954-.239c.091.352.263.617.516.793.256.176.589.264 1.001.264.469 0 .841-.099 1.117-.298.278-.202.418-.443.418-.725a.763.763 0 0 0-.239-.571c-.159-.156-.404-.272-.733-.349l-1.091-.256c-.599-.142-1.04-.362-1.321-.66-.278-.302-.418-.678-.418-1.13 0-.369.104-.696.311-.98.211-.284.496-.507.857-.669a3.01 3.01 0 0 1 1.236-.243c.648 0 1.156.142 1.525.426a2.3 2.3 0 0 1 .793 1.125Zm5.758 2.404v-3.869h1.006v6.545h-1.006v-1.108h-.068a2.146 2.146 0 0 1-.716.848c-.324.23-.733.345-1.227.345-.409 0-.773-.089-1.091-.268a1.885 1.885 0 0 1-.75-.818c-.182-.367-.273-.829-.273-1.385v-4.159h1.006v4.09c0 .478.133.858.4 1.143.27.284.614.426 1.032.426.25 0 .504-.064.762-.192.262-.128.481-.324.657-.588.179-.264.268-.601.268-1.01Zm2.848 2.676v-6.545h.971v1.022h.086c.136-.349.356-.62.66-.814.304-.196.669-.294 1.095-.294.432 0 .791.098 1.078.294.29.194.516.465.678.814h.068a1.91 1.91 0 0 1 .754-.805c.336-.202.738-.303 1.206-.303.586 0 1.064.184 1.436.55.373.364.559.93.559 1.7v4.381h-1.006v-4.381c0-.483-.132-.828-.396-1.035a1.465 1.465 0 0 0-.934-.311c-.46 0-.816.139-1.069.417-.253.276-.379.625-.379 1.049v4.261h-1.023v-4.483c0-.372-.121-.672-.362-.899-.242-.23-.553-.345-.934-.345-.261 0-.505.069-.733.209a1.576 1.576 0 0 0-.545.579 1.714 1.714 0 0 0-.205.848v4.091h-1.005Zm13.174.136c-.631 0-1.175-.139-1.632-.417a2.803 2.803 0 0 1-1.053-1.176c-.244-.506-.366-1.094-.366-1.765 0-.67.122-1.261.366-1.772a2.888 2.888 0 0 1 1.031-1.202c.444-.29.961-.435 1.552-.435.34 0 .677.057 1.009.171.333.113.635.298.908.554.273.253.49.588.652 1.005.162.418.243.932.243 1.543v.426h-5.045v-.869h4.022c0-.369-.074-.699-.221-.989a1.677 1.677 0 0 0-.622-.686 1.749 1.749 0 0 0-.946-.251c-.401 0-.748.099-1.04.298a1.96 1.96 0 0 0-.669.767 2.242 2.242 0 0 0-.235 1.014v.58c0 .494.086.913.256 1.257.173.341.413.601.72.78.307.176.664.264 1.07.264.264 0 .503-.037.716-.111.216-.077.402-.19.558-.341.156-.153.277-.344.362-.571l.972.273a2.16 2.16 0 0 1-.516.869c-.241.247-.54.441-.895.58a3.325 3.325 0 0 1-1.197.204Zm4.24-.136v-6.545h.971v.988h.069c.119-.324.335-.586.647-.788a1.906 1.906 0 0 1 1.057-.303 10.862 10.862 0 0 1 .529.017v1.023a3.49 3.49 0 0 0-.235-.038 2.292 2.292 0 0 0-.379-.03c-.318 0-.602.067-.852.2a1.468 1.468 0 0 0-.801 1.334v4.142h-1.006Z"/><path fill="#FF4F42" d="M232 350h16v2h-16z"/><path fill="#0B151E" d="M259.75 355.5h-2.693v-8.727h2.812c.847 0 1.571.174 2.174.524a3.428 3.428 0 0 1 1.385 1.496c.321.647.481 1.423.481 2.326 0 .909-.162 1.692-.486 2.348a3.459 3.459 0 0 1-1.414 1.509c-.62.349-1.373.524-2.259.524Zm-1.636-.938h1.568c.721 0 1.319-.139 1.794-.417a2.58 2.58 0 0 0 1.061-1.189c.233-.514.349-1.126.349-1.837 0-.704-.115-1.311-.345-1.819a2.54 2.54 0 0 0-1.031-1.176c-.457-.276-1.027-.414-1.709-.414h-1.687v6.852Zm7.568.938v-8.727h3.051c.608 0 1.109.105 1.504.315.395.207.689.487.882.84.194.349.29.737.29 1.163 0 .375-.067.685-.2.929a1.56 1.56 0 0 1-.52.579 2.365 2.365 0 0 1-.695.316V351c.267.017.536.111.806.281.27.171.495.415.677.733.182.318.273.708.273 1.168 0 .437-.099.831-.298 1.18-.199.35-.513.627-.942.831-.429.205-.987.307-1.675.307h-3.153Zm1.057-.938h2.096c.691 0 1.181-.133 1.47-.4.293-.27.439-.597.439-.98a1.55 1.55 0 0 0-.226-.818 1.627 1.627 0 0 0-.643-.605c-.278-.154-.608-.231-.989-.231h-2.147v3.034Zm0-3.954h1.96c.318 0 .605-.063.861-.188.258-.125.463-.301.613-.528.154-.227.23-.494.23-.801 0-.384-.133-.709-.4-.976-.267-.27-.69-.405-1.27-.405h-1.994v2.898Zm7.105 4.892h-1.107l3.204-8.727h1.091l3.205 8.727h-1.108l-2.608-7.347h-.069l-2.608 7.347Zm.41-3.409h4.465v.937h-4.465v-.937Z"/><path fill="#7461FF" d="M289 350h16v2h-16z"/><path fill="#0B151E" d="M314.057 355.5v-8.727h5.233v.937h-4.176v2.949h3.784v.938h-3.784v3.903h-1.057Zm9.085.136c-.591 0-1.109-.14-1.555-.422a2.856 2.856 0 0 1-1.04-1.18c-.247-.506-.371-1.097-.371-1.773 0-.681.124-1.277.371-1.785.25-.509.596-.904 1.04-1.185.446-.281.964-.422 1.555-.422s1.108.141 1.551.422c.446.281.793.676 1.04 1.185.25.508.375 1.104.375 1.785 0 .676-.125 1.267-.375 1.773a2.822 2.822 0 0 1-1.04 1.18c-.443.282-.96.422-1.551.422Zm0-.903c.449 0 .818-.115 1.108-.345.29-.23.504-.533.643-.908.14-.375.209-.781.209-1.219 0-.437-.069-.845-.209-1.223a2.061 2.061 0 0 0-.643-.916c-.29-.233-.659-.349-1.108-.349-.449 0-.818.116-1.108.349-.29.233-.504.539-.643.916-.14.378-.209.786-.209 1.223 0 .438.069.844.209 1.219.139.375.353.678.643.908.29.23.659.345 1.108.345Zm8.626-1.909v-3.869h1.006v6.545h-1.006v-1.108h-.068a2.146 2.146 0 0 1-.716.848c-.324.23-.733.345-1.227.345-.409 0-.773-.089-1.091-.268a1.885 1.885 0 0 1-.75-.818c-.182-.367-.273-.829-.273-1.385v-4.159h1.006v4.09c0 .478.133.858.4 1.143.27.284.614.426 1.032.426.25 0 .504-.064.762-.192.262-.128.481-.324.657-.588.179-.264.268-.601.268-1.01Zm3.853-1.262v3.938h-1.005v-6.545h.971v1.022h.086c.153-.332.386-.599.698-.801.313-.204.716-.307 1.211-.307.443 0 .831.091 1.163.273.332.179.591.452.776.818.184.364.277.824.277 1.381v4.159h-1.006v-4.091c0-.514-.134-.915-.401-1.202-.267-.289-.633-.434-1.099-.434-.321 0-.608.069-.861.209-.25.139-.447.342-.592.609-.145.267-.218.591-.218.971Zm8.486 4.074c-.546 0-1.027-.137-1.445-.413-.417-.278-.744-.67-.98-1.176-.236-.509-.354-1.109-.354-1.803 0-.687.118-1.284.354-1.789.236-.506.564-.897.985-1.172.42-.276.906-.414 1.457-.414.426 0 .763.071 1.01.213.25.14.44.299.571.478.133.176.237.321.311.434h.085v-3.221h1.006v8.727h-.972v-1.006h-.119c-.074.12-.179.27-.315.452-.137.179-.331.34-.584.482-.253.139-.59.208-1.01.208Zm.136-.903c.404 0 .745-.105 1.023-.315.278-.213.49-.507.635-.882.145-.378.217-.814.217-1.309 0-.488-.071-.916-.213-1.282a1.862 1.862 0 0 0-.63-.861c-.279-.208-.623-.311-1.032-.311-.426 0-.781.109-1.065.328-.281.216-.493.51-.635.882a3.51 3.51 0 0 0-.209 1.244c0 .466.071.889.213 1.27.145.378.358.679.639.904.285.221.637.332 1.057.332Zm6.772.92c-.415 0-.792-.078-1.13-.234a1.94 1.94 0 0 1-.805-.686c-.199-.301-.298-.665-.298-1.091 0-.375.073-.679.221-.912.148-.236.345-.42.593-.554.247-.133.519-.233.818-.298.301-.068.603-.122.907-.162.398-.051.721-.09.968-.115.25-.029.432-.075.545-.141.117-.065.175-.179.175-.341v-.034c0-.42-.115-.747-.345-.98-.228-.233-.573-.349-1.036-.349-.48 0-.856.105-1.129.315-.273.21-.465.435-.575.673l-.955-.341c.171-.397.398-.707.682-.929.287-.224.599-.38.937-.468a3.896 3.896 0 0 1 1.006-.137c.21 0 .452.026.725.077.275.048.541.149.796.303.259.153.473.385.644.694.17.31.256.725.256 1.245v4.312h-1.006v-.886h-.051a1.77 1.77 0 0 1-.341.456 1.973 1.973 0 0 1-.635.413c-.264.114-.587.17-.967.17Zm.153-.903c.398 0 .733-.078 1.006-.234.275-.157.483-.358.622-.605.142-.248.213-.508.213-.78v-.921c-.043.051-.136.098-.281.141-.142.04-.307.075-.495.106a20.68 20.68 0 0 1-.963.128 3.91 3.91 0 0 0-.733.166 1.261 1.261 0 0 0-.545.337c-.137.148-.205.349-.205.605 0 .35.13.614.388.793.261.176.592.264.993.264Zm7.529-5.795v.852h-3.392v-.852h3.392Zm-2.404-1.569h1.006v6.239c0 .284.041.497.124.639a.64.64 0 0 0 .323.281c.134.046.275.069.422.069.111 0 .202-.006.273-.017l.171-.035.204.904a2.178 2.178 0 0 1-.75.119c-.284 0-.562-.061-.835-.183a1.656 1.656 0 0 1-.673-.558c-.177-.25-.265-.566-.265-.946v-6.512Zm3.917 8.114v-6.545h1.005v6.545h-1.005Zm.511-7.636a.713.713 0 0 1-.507-.201.643.643 0 0 1-.209-.481c0-.188.07-.348.209-.482a.717.717 0 0 1 .507-.2c.196 0 .364.067.503.2a.639.639 0 0 1 .213.482.636.636 0 0 1-.213.481.7.7 0 0 1-.503.201Zm4.995 7.772c-.591 0-1.109-.14-1.555-.422a2.863 2.863 0 0 1-1.04-1.18c-.247-.506-.371-1.097-.371-1.773 0-.681.124-1.277.371-1.785.25-.509.597-.904 1.04-1.185.446-.281.964-.422 1.555-.422s1.108.141 1.551.422c.446.281.793.676 1.04 1.185.25.508.375 1.104.375 1.785 0 .676-.125 1.267-.375 1.773a2.822 2.822 0 0 1-1.04 1.18c-.443.282-.96.422-1.551.422Zm0-.903c.449 0 .818-.115 1.108-.345.29-.23.504-.533.644-.908.139-.375.208-.781.208-1.219 0-.437-.069-.845-.208-1.223a2.071 2.071 0 0 0-.644-.916c-.29-.233-.659-.349-1.108-.349-.449 0-.818.116-1.108.349a2.07 2.07 0 0 0-.643.916 3.518 3.518 0 0 0-.209 1.223c0 .438.07.844.209 1.219.139.375.354.678.643.908.29.23.659.345 1.108.345Zm5.507-3.171v3.938h-1.006v-6.545h.972v1.022h.085a1.88 1.88 0 0 1 .699-.801c.313-.204.716-.307 1.21-.307.443 0 .831.091 1.164.273.332.179.591.452.775.818.185.364.277.824.277 1.381v4.159h-1.006v-4.091c0-.514-.133-.915-.4-1.202-.267-.289-.634-.434-1.1-.434-.321 0-.607.069-.86.209-.25.139-.448.342-.593.609-.145.267-.217.591-.217.971Z"/></g><defs><clipPath id="a"><path fill="#fff" d="M0 0h450v390H0z"/></clipPath></defs></svg>
