<svg width="203" height="58" viewBox="0 0 203 58" fill="none" xmlns="http://www.w3.org/2000/svg">
<g clip-path="url(#clip0_9143_14707)">
<path d="M46.558 21.1105L34.0175 13.8703C33.7037 13.6891 33.3169 13.6891 33.0031 13.8703L20.4624 21.1105C20.1488 21.2917 19.9551 21.6265 19.9551 21.989V36.4693C19.9551 36.8316 20.1488 37.1666 20.4624 37.3482L33.0031 44.5883C33.3169 44.7696 33.7037 44.7696 34.0175 44.5883L46.558 37.3482C46.8718 37.1669 47.0652 36.8318 47.0652 36.4693V21.989C47.0649 21.6265 46.8715 21.2917 46.558 21.1105Z" fill="#8080F2"/>
<path d="M0.904457 27.7046L15.8879 1.63772C16.4322 0.695223 17.4376 0 18.5259 0H48.4932C49.5818 0 50.5874 0.695223 51.1317 1.63772L66.1151 27.6471C66.6594 28.5899 66.6594 29.7796 66.1151 30.7224L51.1317 56.5756C50.5874 57.5181 49.5818 58 48.4932 58H18.5261C17.4378 58 16.4322 57.5326 15.8882 56.5899L0.904716 30.6944C0.35993 29.7522 0.35993 28.6471 0.904457 27.7046ZM13.3116 40.2393C13.3116 40.6225 13.5423 40.977 13.8745 41.1689L32.9601 52.1803C33.292 52.3719 33.7079 52.3719 34.0398 52.1803L53.1402 41.1689C53.4722 40.977 53.7044 40.6228 53.7044 40.2393V18.2161C53.7044 17.8327 53.4755 17.4785 53.1433 17.2866L34.0585 6.27513C33.7265 6.08327 33.3112 6.08327 32.9793 6.27513L13.8776 17.2866C13.5454 17.4785 13.3116 17.8327 13.3116 18.2161V40.2393Z" fill="#4B32C3"/>
<path d="M86.6973 43.7094V14.2891H105.442V18.8702H91.7828V26.6036H104.265V31.1847H91.7828V39.1282H105.652V43.7094H86.6973Z" fill="white"/>
<path d="M118.919 44.3002C116.678 44.3002 114.688 43.9079 112.951 43.1234C111.242 42.3108 109.897 41.148 108.916 39.635C107.936 38.1219 107.445 36.2726 107.445 34.0871V32.9944H112.447V34.0871C112.447 36.0205 113.035 37.4635 114.212 38.4161C115.389 39.3688 116.958 39.8451 118.919 39.8451C120.909 39.8451 122.408 39.4388 123.416 38.6263C124.425 37.8137 124.929 36.763 124.929 35.4741C124.929 34.6055 124.691 33.905 124.215 33.3726C123.739 32.8123 123.038 32.3639 122.113 32.0277C121.217 31.6915 120.124 31.3693 118.835 31.061L117.574 30.8089C115.641 30.3606 113.96 29.8002 112.531 29.1277C111.13 28.4272 110.051 27.5306 109.295 26.4379C108.538 25.3451 108.16 23.9161 108.16 22.1509C108.16 20.3857 108.58 18.8726 109.421 17.6118C110.261 16.3509 111.452 15.3842 112.993 14.7118C114.534 14.0393 116.341 13.7031 118.415 13.7031C120.488 13.7031 122.338 14.0533 123.963 14.7538C125.588 15.4543 126.863 16.505 127.787 17.906C128.74 19.3069 129.216 21.0582 129.216 23.1596V24.5466H124.215V23.1596C124.215 21.9548 123.977 20.9881 123.5 20.2596C123.024 19.5311 122.352 18.9987 121.483 18.6625C120.614 18.3263 119.592 18.1582 118.415 18.1582C116.678 18.1582 115.361 18.4944 114.464 19.1668C113.568 19.8393 113.119 20.792 113.119 22.0248C113.119 22.8094 113.315 23.4818 113.708 24.0422C114.128 24.5746 114.73 25.0229 115.515 25.3871C116.327 25.7234 117.336 26.0176 118.541 26.2697L119.802 26.5639C121.819 27.0123 123.584 27.5867 125.098 28.2871C126.611 28.9596 127.787 29.8562 128.628 30.977C129.497 32.0978 129.931 33.5548 129.931 35.348C129.931 37.1132 129.469 38.6683 128.544 40.0132C127.647 41.3582 126.372 42.4089 124.719 43.1654C123.094 43.9219 121.161 44.3002 118.919 44.3002Z" fill="white"/>
<path d="M133.1 43.7094V14.2891H138.185V39.1282H151.971V43.7094H133.1Z" fill="white"/>
<path d="M154.827 43.7106V22.9483H159.661V43.7106H154.827ZM157.223 20.3004C156.354 20.3004 155.598 20.0202 154.954 19.4599C154.337 18.8714 154.029 18.1009 154.029 17.1483C154.029 16.1956 154.337 15.4391 154.954 14.8787C155.598 14.2903 156.354 13.9961 157.223 13.9961C158.148 13.9961 158.904 14.2903 159.493 14.8787C160.109 15.4391 160.417 16.1956 160.417 17.1483C160.417 18.1009 160.109 18.8714 159.493 19.4599C158.904 20.0202 158.148 20.3004 157.223 20.3004Z" fill="white"/>
<path d="M164.525 43.7109V22.9486H169.275V25.8486H169.989C170.353 25.064 171.012 24.3215 171.964 23.621C172.917 22.9205 174.36 22.5703 176.293 22.5703C177.891 22.5703 179.305 22.9345 180.538 23.663C181.771 24.3916 182.724 25.4002 183.396 26.6891C184.097 27.978 184.447 29.5051 184.447 31.2703V43.7109H179.614V31.6486C179.614 29.9674 179.193 28.7205 178.353 27.908C177.54 27.0674 176.377 26.6471 174.864 26.6471C173.155 26.6471 171.81 27.2215 170.83 28.3703C169.849 29.4911 169.359 31.1022 169.359 33.2036V43.7109H164.525Z" fill="white"/>
<path d="M196.448 43.7106C195.103 43.7106 194.024 43.3183 193.212 42.5338C192.427 41.7212 192.035 40.6285 192.035 39.2555V26.941H186.613V22.9483H192.035V16.2656H196.868V22.9483H202.836V26.941H196.868V38.457C196.868 39.2975 197.261 39.7178 198.045 39.7178H202.206V43.7106H196.448Z" fill="white"/>
</g>
<defs>
<clipPath id="clip0_9143_14707">
<rect width="203" height="58" fill="white"/>
</clipPath>
</defs>
</svg>
