<svg width="226" height="160" viewBox="0 0 226 160" fill="none" xmlns="http://www.w3.org/2000/svg">
<path d="M221.478 49.7566H172.698V0.976562H221.478V49.7566ZM167.81 49.7566H119.029V0.976562H167.81V49.7566ZM114.151 49.7566H65.3711V0.976562H114.151V49.7566ZM221.478 103.416H172.698V54.6346H221.478V103.416Z" fill="#F9AD00"/>
<path d="M167.81 103.414H119.029V54.6328H167.81V103.414ZM167.81 157.072H119.029V108.292H167.81V157.072ZM221.478 157.072H172.698V108.292H221.478V157.072ZM114.151 157.072H65.3713V108.292H114.151V157.072ZM13.0413 68.3488C14.6813 68.3488 16.1963 68.5668 17.5903 69.0038C19.0103 69.4138 20.2263 70.0558 21.2363 70.9298C22.2473 71.8038 23.0393 72.9098 23.6133 74.2488C24.1873 75.5588 24.4733 77.1308 24.4733 78.9608C24.4733 80.7088 24.2283 82.2388 23.7363 83.5508C23.2443 84.8608 22.5483 85.9678 21.6463 86.8688C20.7453 87.7428 19.6523 88.3988 18.3683 88.8358C17.1123 89.2728 15.7053 89.4918 14.1483 89.4918C12.9733 89.4918 11.8803 89.3138 10.8703 88.9588V95.7608C10.5963 95.8428 10.1603 95.9248 9.5583 96.0068C8.9583 96.1158 8.3433 96.1708 7.7143 96.1708C7.1143 96.1708 6.5673 96.1298 6.0753 96.0478C5.6459 95.9803 5.2387 95.8117 4.8873 95.5558C4.5593 95.3098 4.3133 94.9688 4.1503 94.5318C3.9863 94.1218 3.9043 93.5748 3.9043 92.8918V73.2248C3.9043 72.4878 4.0543 71.8868 4.3543 71.4218C4.6823 70.9578 5.1193 70.5338 5.6663 70.1518C6.5123 69.6058 7.5643 69.1688 8.8213 68.8408C10.0773 68.5128 11.4843 68.3488 13.0413 68.3488ZM13.1233 84.0008C15.9373 84.0008 17.3433 82.3208 17.3433 78.9608C17.3433 77.2118 16.9893 75.9148 16.2783 75.0678C15.5953 74.2208 14.5983 73.7978 13.2883 73.7978C12.7683 73.7978 12.3043 73.8658 11.8943 74.0028C11.4843 74.1128 11.1293 74.2488 10.8293 74.4128V83.4268C11.1563 83.5908 11.5113 83.7268 11.8943 83.8368C12.2763 83.9468 12.6853 84.0008 13.1233 84.0008ZM40.4933 76.2558C40.4933 75.4098 40.2473 74.7948 39.7563 74.4118C39.2913 74.0018 38.6493 73.7978 37.8303 73.7978C37.2833 73.7978 36.7373 73.8658 36.1903 74.0028C35.6723 74.1388 35.2213 74.3438 34.8393 74.6168V88.8358C34.5663 88.9178 34.1293 88.9998 33.5273 89.0818C32.9543 89.1638 32.3533 89.2048 31.7243 89.2048C31.1243 89.2048 30.5773 89.1638 30.0853 89.0818C29.6559 89.0144 29.2487 88.8457 28.8973 88.5898C28.5602 88.332 28.2928 87.9941 28.1193 87.6068C27.9553 87.1698 27.8733 86.6098 27.8733 85.9268V73.6338C27.8733 72.8958 28.0233 72.2948 28.3233 71.8308C28.6513 71.3668 29.0883 70.9428 29.6353 70.5608C30.5633 69.9048 31.7253 69.3728 33.1183 68.9628C34.5383 68.5528 36.1083 68.3478 37.8303 68.3478C40.9173 68.3478 43.2933 69.0308 44.9603 70.3968C46.6263 71.7358 47.4603 73.6068 47.4603 76.0108V88.8358C47.1863 88.9178 46.7493 88.9998 46.1483 89.0818C45.5743 89.1638 44.9733 89.2048 44.3453 89.2048C43.7443 89.2048 43.1983 89.1638 42.7063 89.0818C42.2769 89.0144 41.8697 88.8457 41.5183 88.5898C41.1808 88.3321 40.9131 87.9942 40.7393 87.6068C40.5753 87.1698 40.4933 86.6098 40.4933 85.9268V76.2558ZM60.9003 68.3488C62.5393 68.3488 64.0553 68.5678 65.4483 69.0048C66.8683 69.4148 68.0843 70.0568 69.0953 70.9308C70.1053 71.8048 70.8973 72.9108 71.4713 74.2498C72.0453 75.5598 72.3313 77.1318 72.3313 78.9618C72.3313 80.7098 72.0863 82.2398 71.5943 83.5518C71.1023 84.8618 70.4063 85.9688 69.5043 86.8698C68.6033 87.7438 67.5103 88.3998 66.2263 88.8368C64.9703 89.2738 63.5633 89.4928 62.0063 89.4928C60.8313 89.4928 59.7393 89.3148 58.7283 88.9598V95.7618C58.4553 95.8438 58.0183 95.9258 57.4163 96.0078C56.8163 96.1168 56.2013 96.1718 55.5733 96.1718C54.9723 96.1718 54.4253 96.1308 53.9333 96.0488C53.5039 95.9813 53.0967 95.8127 52.7453 95.5568C52.4173 95.3108 52.1723 94.9698 52.0083 94.5328C51.8443 94.1228 51.7623 93.5758 51.7623 92.8928V73.2248C51.7623 72.4878 51.9123 71.8868 52.2123 71.4218C52.5403 70.9578 52.9773 70.5338 53.5243 70.1518C54.3713 69.6058 55.4223 69.1688 56.6793 68.8408C57.9363 68.5128 59.3423 68.3488 60.8993 68.3488H60.9003ZM60.9813 84.0018C63.7953 84.0018 65.2013 82.3218 65.2013 78.9618C65.2013 77.2128 64.8473 75.9158 64.1373 75.0688C63.4543 74.2218 62.4573 73.7988 61.1453 73.7988C60.6263 73.7988 60.1623 73.8668 59.7523 74.0038C59.3423 74.1138 58.9873 74.2498 58.6873 74.4138V83.4278C59.0153 83.5918 59.3703 83.7278 59.7523 83.8378C60.1353 83.9478 60.5433 84.0018 60.9813 84.0018ZM85.2783 68.3488C86.3983 68.3488 87.4913 68.5128 88.5563 68.8408C89.6493 69.1408 90.5913 69.6058 91.3843 70.2338C92.2043 69.6878 93.1183 69.2368 94.1293 68.8818C95.1673 68.5268 96.4103 68.3488 97.8583 68.3488C98.8963 68.3488 99.9073 68.4858 100.89 68.7588C101.901 69.0318 102.789 69.4688 103.553 70.0698C104.346 70.6438 104.974 71.4218 105.438 72.4058C105.903 73.3618 106.135 74.5358 106.135 75.9298V88.8368C105.862 88.9188 105.425 89.0008 104.824 89.0828C104.25 89.1648 103.649 89.2058 103.021 89.2058C102.473 89.2099 101.924 89.1687 101.382 89.0828C100.953 89.0155 100.545 88.8469 100.193 88.5908C99.8563 88.3329 99.5889 87.995 99.4153 87.6078C99.2513 87.1708 99.1693 86.6108 99.1693 85.9278V76.1348C99.1693 75.3148 98.9373 74.7278 98.4723 74.3728C98.0083 73.9898 97.3803 73.7988 96.5883 73.7988C96.2053 73.7988 95.7953 73.8938 95.3583 74.0858C94.9213 74.2498 94.5943 74.4268 94.3753 74.6178C94.4023 74.7278 94.4153 74.8368 94.4153 74.9458V88.8368C94.1153 88.9188 93.6653 89.0008 93.0643 89.0828C92.4903 89.1648 91.9033 89.2058 91.3023 89.2058C90.7013 89.2058 90.1543 89.1648 89.6623 89.0828C89.2329 89.0154 88.8257 88.8467 88.4743 88.5908C88.1372 88.333 87.8698 87.9951 87.6963 87.6078C87.5323 87.1708 87.4503 86.6108 87.4503 85.9278V76.1348C87.4503 75.3148 87.1903 74.7278 86.6713 74.3728C86.1803 73.9898 85.5793 73.7988 84.8693 73.7988C84.3773 73.7988 83.9543 73.8808 83.5993 74.0448C83.2895 74.1605 82.9882 74.2975 82.6973 74.4548V88.8368C82.4243 88.9188 81.9873 89.0008 81.3863 89.0828C80.789 89.1664 80.1865 89.2075 79.5833 89.2058C78.9823 89.2058 78.4353 89.1648 77.9433 89.0828C77.5139 89.0154 77.1067 88.8467 76.7553 88.5908C76.4182 88.333 76.1508 87.9951 75.9773 87.6078C75.8133 87.1708 75.7313 86.6108 75.7313 85.9278V73.5518C75.7313 72.8148 75.8813 72.2268 76.1813 71.7898C76.5103 71.3528 76.9473 70.9428 77.4933 70.5598C78.4223 69.9048 79.5693 69.3718 80.9353 68.9628C82.3459 68.5504 83.8086 68.3443 85.2783 68.3488Z" fill="white"/>
</svg>
