<svg width="3047" height="876" viewBox="0 0 3047 876" fill="none" xmlns="http://www.w3.org/2000/svg">
<path d="M387 0L774 218.9V656.8L387 875.7L0 656.8V218.9L387 0Z" fill="white"/>
<path d="M704.9 641.7L399.8 814.3V679.9L589.9 575.3L704.9 641.7ZM725.8 622.8V261.9L614.2 326.4V558.4L725.8 622.8ZM67.9 641.7L373 814.3V679.9L182.8 575.3L67.9 641.7ZM47 622.8V261.9L158.6 326.4V558.4L47 622.8ZM60.1 238.5L373 61.5V191.4L172.5 301.7L170.9 302.6L60.1 238.5ZM712.7 238.5L399.8 61.5V191.4L600.3 301.6L601.9 302.5L712.7 238.5Z" fill="#8ED6FB"/>
<path d="M373 649.303L185.4 546.103V341.803L373 450.103V649.303ZM399.8 649.303L587.4 546.203V341.803L399.8 450.103V649.303ZM198.1 318.203L386.4 214.703L574.7 318.203L386.4 426.903L198.1 318.203Z" fill="#1C78C0"/>
<path d="M1164.3 576.298H1246.8L1330.9 296.098H1250.5L1200.7 494.898L1147.6 296.098H1078L1024.4 494.898L975.1 296.098H894.7L978.3 576.298H1060.8L1112.8 396.798L1164.3 576.298ZM1335.2 436.998C1335.2 521.098 1392.5 583.298 1482.6 583.298C1552.3 583.298 1589.8 541.498 1600.5 521.698L1551.7 484.698C1543.7 496.498 1521.7 518.998 1483.6 518.998C1442.3 518.998 1412.3 492.198 1410.7 454.698H1608C1608.5 449.298 1608.5 443.998 1608.5 438.598C1608.5 346.998 1559.2 289.098 1472.4 289.098C1392.5 289.098 1335.2 352.298 1335.2 436.998ZM1412.9 406.398C1416.1 374.298 1438.6 349.598 1473.5 349.598C1507.3 349.598 1531.9 372.098 1533.5 406.398H1412.9ZM1636.4 576.298H1706.1V547.398C1713.6 556.498 1741.5 583.298 1789.2 583.298C1869.6 583.298 1926.4 522.798 1926.4 436.498C1926.4 349.698 1873.9 289.198 1793.5 289.198C1745.3 289.198 1717.4 315.998 1710.4 325.598V188.898H1636.5V576.298H1636.4ZM1708.2 436.998C1708.2 384.498 1739.3 354.498 1780 354.498C1822.9 354.498 1851.8 388.298 1851.8 436.998C1851.8 486.798 1821.8 517.898 1780 517.898C1735 517.898 1708.2 481.398 1708.2 436.998ZM1955.2 676.498H2029.1V547.298C2036.1 556.398 2063.9 583.198 2112.2 583.198C2192.6 583.198 2245.1 522.698 2245.1 435.898C2245.1 350.198 2188.3 289.098 2107.9 289.098C2060.2 289.098 2032.3 315.898 2024.8 325.498V295.998H1955.1V676.498H1955.2ZM2027 435.398C2027 390.898 2053.8 354.498 2098.8 354.498C2140.6 354.498 2170.6 385.598 2170.6 435.398C2170.6 484.198 2141.7 517.898 2098.8 517.898C2058.1 517.898 2027 487.898 2027 435.398ZM2258.5 489.498C2258.5 548.398 2306.7 583.298 2363.5 583.298C2395.7 583.298 2417.1 573.698 2431.6 558.098L2436.4 576.298H2501.8V398.898C2501.8 336.198 2475 289.098 2385 289.098C2342.1 289.098 2299.8 305.198 2274.6 322.298L2302.5 372.698C2323.4 361.998 2349.1 352.898 2377 352.898C2409.7 352.898 2427.9 369.498 2427.9 394.198V412.398C2417.7 405.398 2395.7 396.898 2367.3 396.898C2301.9 396.798 2258.5 434.298 2258.5 489.498ZM2332.4 487.298C2332.4 464.298 2352.2 448.198 2380.6 448.198C2409 448.198 2429.4 462.698 2429.4 487.298C2429.4 510.898 2409 525.898 2381.2 525.898C2353.4 525.898 2332.4 510.398 2332.4 487.298ZM2681.3 517.898C2634.7 517.898 2601.5 484.098 2601.5 436.498C2601.5 391.498 2631 354.498 2678.7 354.498C2710.3 354.498 2731.8 369.998 2744.1 381.298L2765 319.098C2746.8 305.198 2717.8 289.098 2676.6 289.098C2591.4 289.098 2527.6 351.798 2527.6 436.998C2527.6 522.198 2589.8 583.298 2677.1 583.298C2717.8 583.298 2748.4 566.198 2764.4 553.298L2744.6 492.798C2732.2 502.898 2709.7 517.898 2681.3 517.898ZM2792.2 576.298H2866.1V431.598L2959.9 576.298H3046.7L2940.6 422.998L3039.2 295.998H2956.1L2866.1 413.898V188.898H2792.2V576.298Z" fill="#1A1C1C"/>
</svg>
